<svg width="127" height="35" viewBox="0 0 127 35" fill="none" xmlns="http://www.w3.org/2000/svg">
<path fill-rule="evenodd" clip-rule="evenodd" d="M29.8873 5.46875C24.2168 5.46875 19.9639 8.93229 20.0002 14.9479H25.2709C25.1982 12.5417 26.7249 10.2083 29.8873 10.2083C32.2864 10.2083 33.8131 11.8125 33.8131 13.8542C33.8131 15.9688 32.141 17.1354 29.4511 18.4479C25.9252 20.1615 23.8169 20.9635 20.0002 22.2396V29.1667H38.9021V24.4271H27.1248C28.9466 23.6658 30.7205 22.8288 32.3228 22.0573C36.5757 20.0156 39.0838 17.7188 39.0838 13.599C39.0838 8.64062 35.3761 5.46875 29.8873 5.46875ZM47.2625 10.5729H58.1674V5.83333H42.1735V29.1667H47.2625V10.5729ZM65.8008 5.83333H60.7119V29.1667H65.7645L75.2517 14.2552V29.1667H80.3407V5.83333H75.2517L65.8008 20.7448V5.83333ZM105.895 20.4167H100.624C99.8241 23.0052 97.3887 24.7917 94.5171 24.7917C90.3368 24.7917 87.6106 21.1823 87.6106 17.5C87.6106 13.8177 90.2641 10.2083 94.6625 10.2083C97.5704 10.2083 99.8241 11.9948 100.624 14.5833H105.895C105.131 9.36979 101.024 5.46875 94.5171 5.46875C87.3198 5.46875 82.5217 10.5365 82.5217 17.5C82.5217 24.4635 87.3198 29.5312 94.5171 29.5312C101.024 29.5312 105.131 25.7031 105.895 20.4167Z" fill="#636878"/>
</svg>
