<svg width="213" height="35" viewBox="0 0 213 35" fill="none" xmlns="http://www.w3.org/2000/svg">
<path d="M17.7777 7.12072C17.7553 4.74216 17.7553 2.37108 17.7852 0C22.5797 0.0149595 27.3742 -0.0149595 32.1613 0.0149595C32.1688 2.37856 32.1688 4.74216 32.1613 7.10576C27.3668 7.1282 22.5722 7.11324 17.7777 7.12072ZM149.788 0.00747975C152.144 0 154.508 0 156.871 0C156.886 2.12425 156.886 4.2485 156.871 6.37275C154.515 6.37275 152.151 6.37275 149.788 6.36527C149.788 4.2485 149.788 2.12425 149.788 0.00747975Z" fill="#636878"/>
<path d="M35.1542 0.0143157C37.5253 0.00683594 39.8889 0.00683594 42.26 0.0143157C42.26 3.05858 42.26 6.11031 42.2525 9.16205C46.4786 9.4388 50.8467 8.57863 54.9681 9.69312C62.5974 13.0665 63.8765 23.8897 59.5158 30.3372C57.8478 32.9477 54.9531 34.8924 51.7742 34.7877C46.2392 34.8101 40.6967 34.7802 35.1617 34.7877C35.1467 23.1941 35.1542 11.6005 35.1542 0.0143157ZM42.26 14.5998C42.26 19.4542 42.26 24.3086 42.2675 29.1704C45.1771 29.0133 48.2587 29.679 51.0412 28.6169C56.0078 25.8045 55.6712 17.3599 50.4653 14.9813C47.8025 14.2707 44.9901 14.6746 42.26 14.5998ZM120.049 0.0143157C122.413 0.00683594 124.784 0.00683594 127.155 0.00683594V34.7877C124.784 34.7952 122.413 34.7952 120.042 34.7727C120.057 23.1866 120.042 11.6005 120.049 0.0143157ZM130.79 17.8685C133.206 14.9215 135.555 11.9221 137.978 8.98254C141.284 8.98254 144.59 8.96758 147.897 9.01246C144.104 13.4405 140.133 17.7039 136.34 22.1245C140.267 26.2982 144.074 30.5691 147.949 34.7877C144.576 34.7877 141.202 34.7952 137.836 34.7802C135.173 31.6312 132.503 28.4972 129.781 25.4081C126.691 22.0796 128.247 21.0773 130.79 17.8685ZM65.6342 9.16953C71.0271 9.21441 76.42 9.0723 81.8129 9.22189C85.8295 9.28921 89.5769 12.513 89.891 16.5894C90.4371 22.6929 89.9883 28.8488 90.1304 34.9672C83.6155 34.8999 77.1007 35.1392 70.5933 34.8625C65.7389 34.5783 62.6647 29.1554 64.2804 24.7125C65.0433 21.9375 67.5565 19.6113 70.511 19.5514C74.6847 19.2747 78.8808 19.6038 83.062 19.3794C82.9199 17.4197 81.8952 14.7868 79.5017 14.9963C74.8792 14.8841 70.2492 15.0262 65.6192 14.9514C65.6267 13.0216 65.6342 11.0993 65.6342 9.16953ZM72.8896 29.1928C76.1358 29.9408 79.5241 29.3948 82.8302 29.5444C82.8302 27.9288 82.8302 26.3056 82.8302 24.69C79.7186 24.7648 76.5995 24.518 73.4954 24.7873C71.1842 24.9518 70.6157 28.4523 72.897 29.1928H72.8896ZM93.1148 9.17701C98.5526 9.19197 103.998 9.12465 109.436 9.17701C111.747 9.15457 114.155 10.097 115.472 12.0792C117.125 14.2034 117.259 17.0008 117.259 19.5813C117.237 24.6451 117.259 29.7164 117.237 34.7802H110.146C110.079 29.2153 110.243 23.6429 110.086 18.0854C110.101 16.5072 108.68 15.288 107.207 15.0636C104.888 14.8167 102.554 14.9813 100.236 14.9738C100.236 21.571 100.221 28.1606 100.236 34.7578C97.8644 34.7877 95.4934 34.7877 93.1223 34.7727C93.1223 26.2383 93.1223 17.7039 93.1148 9.16953V9.17701ZM149.781 9.16953C152.167 9.14709 154.553 9.16953 156.94 9.23685C156.82 17.7488 156.932 26.2682 156.88 34.7877H149.781C149.781 26.2458 149.781 17.7114 149.781 9.16953ZM169.416 17.3673C169.319 13.8668 171.547 10.0821 175.175 9.41636C178.78 8.90026 182.431 9.27425 186.058 9.17701C186.058 11.1068 186.058 13.044 186.043 14.9813C182.984 15.3478 178.055 13.605 176.619 17.3599C176.364 23.1567 176.604 28.9684 176.529 34.7802C174.18 34.7802 171.839 34.7877 169.498 34.855C169.319 29.0283 169.446 23.1941 169.416 17.3673ZM188.856 9.17701C191.227 9.16953 193.598 9.16953 195.976 9.17701C195.999 14.6447 195.909 20.1124 195.991 25.5801C195.789 27.3678 197.42 28.9834 199.17 28.9684C201.407 29.0732 203.643 28.9759 205.88 28.9834C205.88 22.3788 205.88 15.7742 205.88 9.16953C208.251 9.16953 210.622 9.16953 213 9.19197C212.963 17.7264 213 26.2608 212.978 34.7877C207.383 34.7353 201.781 34.8774 196.193 34.7428C192.259 34.8026 189.117 31.2273 188.96 27.4351C188.714 21.3541 188.938 15.2581 188.856 9.17701Z" fill="#636878"/>
<path d="M9.33984 14.4136C16.9468 14.3986 24.5611 14.3986 32.168 14.4136C32.1606 16.7173 32.1606 19.0211 32.1606 21.3249C24.5537 21.3323 16.9468 21.3323 9.34732 21.3174C9.34732 19.0211 9.34732 16.7173 9.34732 14.4136H9.33984Z" fill="#636878"/>
<path d="M0.746094 27.8695C11.2177 27.8695 21.6969 27.8621 32.1685 27.877C32.161 30.1808 32.161 32.4771 32.1685 34.7808C21.6894 34.7958 11.2177 34.7883 0.746094 34.7883C0.746094 32.4771 0.746094 30.1733 0.746094 27.8695ZM159.504 28.4305C161.867 28.4305 164.224 28.4305 166.587 28.423C166.617 30.5473 166.61 32.6641 166.602 34.7883H159.504V28.4305Z" fill="#636878"/>
</svg>
