<svg width="194" height="35" viewBox="0 0 194 35" fill="none" xmlns="http://www.w3.org/2000/svg">
<path d="M182.685 19.1873L187.85 7.92075H193.252L180.773 35.0008H175.355L179.699 25.7196L172.338 7.92075H178.467L182.685 19.1873ZM7.77344 7.90415C9.73214 7.22079 11.8648 7.1251 13.8867 7.63364C15.9086 8.12629 17.7414 9.22229 19.1631 10.7479C20.5847 12.2735 21.5321 14.1967 21.8955 16.2625C22.2588 18.3285 22.0058 20.4428 21.2002 22.3817C20.3788 24.3044 19.0206 25.9411 17.2832 27.117C15.5614 28.2771 13.5235 28.9134 11.4385 28.9452C9.35352 28.9769 7.30018 28.3885 5.54688 27.2762V34.9842H0.539062V19.6952C0.539122 15.5158 1.32887 13.402 2.79785 11.495C4.07724 9.84238 5.79915 8.58751 7.77344 7.90415ZM156.684 7.90415C158.658 7.22082 160.791 7.12517 162.812 7.63364C164.834 8.12627 166.667 9.22235 168.089 10.7479C169.51 12.2734 170.458 14.1967 170.821 16.2625C171.169 18.3285 170.932 20.4428 170.11 22.3817C169.289 24.3045 167.931 25.9411 166.209 27.117C164.471 28.2772 162.449 28.9134 160.364 28.9452C158.279 28.9769 156.226 28.3886 154.473 27.2762V34.9842H149.465V19.6952C149.465 15.5158 150.255 13.402 151.708 11.495C152.987 9.84238 154.725 8.58752 156.684 7.90415ZM32.7949 7.63364C34.8168 7.12512 36.9337 7.2208 38.9082 7.90415C40.8667 8.58752 42.6044 9.84238 43.8838 11.495C45.337 13.402 46.1425 15.5158 46.1426 19.6952V28.6903H41.1348V27.2762C39.3657 28.3885 37.3281 28.9769 35.2432 28.9452C33.1581 28.9134 31.1204 28.2772 29.3828 27.117C27.6612 25.9411 26.3028 24.3044 25.4814 22.3817C24.66 20.4428 24.4228 18.3285 24.7861 16.2625C25.1337 14.1967 26.0814 12.2734 27.5029 10.7479C28.9246 9.22235 30.7573 8.12628 32.7949 7.63364ZM79.9941 8.1268C82.2845 7.17337 84.8434 7.04619 87.2285 7.77719C89.6137 8.49234 91.6676 10.0342 93.0576 12.1161C94.4474 14.1977 95.063 16.6926 94.8262 19.1873C94.5734 21.6824 93.484 24.0031 91.7148 25.7831C90.7197 26.7843 89.5347 27.5787 88.2236 28.119C86.9284 28.6752 85.5221 28.9452 84.1162 28.9452C81.6206 28.9451 79.2043 28.087 77.2773 26.4979C75.3503 24.9088 74.0386 22.7003 73.5488 20.2372C73.0592 17.7898 73.4385 15.2303 74.6074 13.0213C75.7921 10.8125 77.688 9.09619 79.9941 8.1268ZM124.634 7.63364C126.656 7.12514 128.773 7.22081 130.747 7.90415C132.721 8.58753 134.443 9.84238 135.723 11.495C137.192 13.402 137.981 15.5158 137.981 19.6952V28.6903H132.974V27.2762C131.205 28.3886 129.167 28.9769 127.082 28.9452C124.997 28.9134 122.959 28.2772 121.237 27.117C119.5 25.9411 118.142 24.3044 117.32 22.3817C116.499 20.4428 116.262 18.3285 116.625 16.2625C116.988 14.1967 117.936 12.2734 119.357 10.7479C120.779 9.22232 122.612 8.12628 124.634 7.63364ZM65.5244 0.00570956C66.2984 0.0216011 67.1201 0.0213346 68.0205 0.0213346V4.70981C67.3097 4.70981 66.5666 4.69321 65.8242 4.69321C63.455 4.64554 60.9752 4.59825 59.0166 4.96372C56.8053 5.37688 54.5147 7.02936 53.709 9.23813C55.6992 7.85571 58.0844 7.17232 60.501 7.31528C62.9176 7.4583 65.2081 8.41224 67.0088 10.0331C68.8253 11.6382 70.0424 13.816 70.4531 16.2157C70.8795 18.6152 70.4997 21.0782 69.3467 23.2235C68.2094 25.3689 66.3932 27.0536 64.166 28.0389C61.9546 29.0083 59.4745 29.1987 57.1367 28.579C54.799 27.9592 52.7296 26.5772 51.2764 24.6385C49.8231 22.6838 49.0491 20.3151 49.1123 17.8836V17.868C49.1123 15.0235 49.5069 8.93762 50.0439 7.0936C51.1023 3.56555 54.5146 0.958777 58.0371 0.323092C59.8221 -0.0106256 62.1283 -0.0101823 65.5244 0.00570956ZM143.446 22.7987C144.94 22.7987 146.151 24.0156 146.151 25.5165C146.151 27.0176 144.94 28.2352 143.446 28.2352C141.953 28.2349 140.742 27.0175 140.742 25.5165C140.742 24.0158 141.953 22.7989 143.446 22.7987ZM114.84 13.0057H107.984V27.9129H102.582V13.0057H96.0898V7.98423H114.84V13.0057ZM12.9863 12.5916C11.6121 12.1626 10.1429 12.2736 8.84766 12.8934C7.55243 13.4973 6.52537 14.5781 5.98828 15.9129C5.68821 16.6121 5.54692 17.3592 5.54688 18.1219C5.54688 19.568 6.08362 20.9507 7.03125 22.0155C7.99477 23.0802 9.32159 23.764 10.7432 23.9071C12.1648 24.0342 13.5871 23.6529 14.7402 22.7948C15.8932 21.9366 16.6825 20.6808 16.9668 19.2665C17.2511 17.8521 16.9983 16.3898 16.2559 15.1502C15.5292 13.9108 14.3605 13.0048 12.9863 12.5916ZM37.834 12.8934C36.5388 12.2736 35.0537 12.1626 33.6953 12.5916C32.3211 13.0048 31.1516 13.9107 30.4092 15.1502C29.6826 16.3898 29.4305 17.8521 29.7148 19.2665C29.9834 20.6808 30.7885 21.9366 31.9258 22.7948C33.0789 23.6529 34.501 24.0342 35.9385 23.9071C37.36 23.764 38.6713 23.0802 39.6348 22.0155C40.5981 20.9508 41.1348 19.5679 41.1348 18.1219C41.1347 17.3592 40.9767 16.6121 40.6924 15.9129C40.1395 14.5782 39.1291 13.4972 37.834 12.8934ZM129.673 12.8934C128.378 12.2737 126.908 12.1627 125.534 12.5916C124.16 13.0048 122.99 13.9107 122.264 15.1502C121.521 16.3898 121.269 17.8521 121.554 19.2665C121.838 20.6808 122.627 21.9366 123.78 22.7948C124.918 23.6529 126.356 24.0342 127.777 23.9071C129.199 23.764 130.526 23.0802 131.474 22.0155C132.437 20.9508 132.974 19.5679 132.974 18.1219C132.974 17.3592 132.816 16.6121 132.531 15.9129C131.978 14.5782 130.968 13.4972 129.673 12.8934ZM161.912 12.5916C160.538 12.1627 159.069 12.2737 157.773 12.8934C156.478 13.4973 155.452 14.5783 154.899 15.9129C154.615 16.6121 154.473 17.3592 154.473 18.1219C154.457 19.5679 154.994 20.9508 155.957 22.0155C156.921 23.0801 158.232 23.764 159.669 23.9071C161.091 24.0342 162.513 23.6529 163.666 22.7948C164.819 21.9366 165.609 20.6808 165.894 19.2665C166.162 17.8521 165.909 16.3898 165.183 15.1502C164.44 13.9107 163.271 13.0048 161.912 12.5916ZM87.1025 13.1649C85.8704 12.4339 84.4166 12.163 83.0107 12.4491C81.6207 12.7193 80.3569 13.5148 79.5039 14.659C78.6511 15.8191 78.2563 17.2494 78.3984 18.6795C78.5249 20.1097 79.1888 21.4446 80.2471 22.4139C81.3053 23.3672 82.679 23.9077 84.1162 23.9237C84.8744 23.9237 85.6175 23.7644 86.3125 23.4784C87.6393 22.938 88.7131 21.9052 89.3291 20.618C89.9452 19.3149 90.0562 17.8366 89.6455 16.454C89.2348 15.0875 88.3186 13.9118 87.1025 13.1649ZM60.8486 12.4012C59.4902 12.1629 58.0839 12.4332 56.915 13.1483C55.7306 13.8634 54.8307 14.9759 54.4043 16.2948C53.9621 17.6137 54.0248 19.0438 54.5459 20.3309C54.9882 21.3798 55.7311 22.286 56.6631 22.9217C57.8162 23.6844 59.2061 24.0181 60.5645 23.8592C61.9387 23.6844 63.2028 23.0169 64.1348 21.9998C65.0665 20.967 65.5875 19.6322 65.6191 18.2498C65.6507 16.8672 65.1922 15.5161 64.3076 14.4354C63.4388 13.3707 62.207 12.6396 60.8486 12.4012Z" fill="#636878"/>
</svg>
