<svg width="129" height="35" viewBox="0 0 129 35" fill="none" xmlns="http://www.w3.org/2000/svg">
<path d="M27.1199 3.17598C28.0286 3.61419 28.9274 4.07731 29.8188 4.55288C30.9003 4.07731 31.9942 3.6366 33.0782 3.16602C33.5326 3.8333 33.9943 4.49561 34.4486 5.1629C32.7424 5.94472 31.0436 6.74895 29.3274 7.50836C28.1002 6.69168 26.8878 5.85259 25.6483 5.05085C26.1396 4.42838 26.6335 3.80591 27.1175 3.17598H27.1199ZM23.863 8.95747C25.4631 8.10344 27.3323 8.18062 29.0879 8.08601C31.3078 8.11589 33.5202 8.41467 35.6882 8.88028C35.4265 10.1402 35.1623 11.3975 34.898 12.6574C33.0338 12.2665 31.1349 12.0001 29.2287 11.9603C28.4755 11.9802 27.6755 11.9204 26.9718 12.2441C26.3446 12.5504 26.2187 13.3172 26.1224 13.9422C26.0656 14.4576 25.8853 15.0278 26.1841 15.5058C26.5224 15.9316 27.0928 16.0362 27.5792 16.1955C29.5102 16.7383 31.6436 16.9749 33.256 18.282C34.3054 19.1411 34.4264 20.64 34.219 21.8949C33.9449 23.8046 33.6214 25.9484 32.0905 27.2805C30.5769 28.5603 28.4953 28.7221 26.6039 28.8117C24.0902 28.869 21.5518 28.4158 19.2109 27.4871C19.5221 26.3243 19.8579 25.169 20.1986 24.0137C22.4852 24.676 24.868 25.2213 27.2607 24.9674C27.957 24.8952 28.7397 24.6287 29.0385 23.9266C29.32 23.1996 29.4706 22.3978 29.4213 21.616C29.3867 21.1205 28.8879 20.8516 28.4805 20.6972C26.8039 20.0822 24.9692 19.9378 23.379 19.0813C22.4629 18.6256 21.6629 17.8388 21.4135 16.813C21.0876 15.4137 21.3839 13.9671 21.6802 12.5877C22.0061 11.2008 22.537 9.66957 23.8605 8.95498L23.863 8.95747ZM61.2251 8.2852C63.4326 7.9889 65.7636 7.95903 67.86 8.81056C69.2181 9.37327 70.4502 10.3891 71.0305 11.7785C71.3861 12.5952 71.4749 13.5164 71.3441 14.3954C70.8502 17.2512 70.3638 20.1096 69.8625 22.963C69.5884 24.452 68.9267 25.9285 67.7415 26.902C66.2327 28.1868 64.2129 28.5926 62.2968 28.7594C60.0769 28.9288 57.6941 28.8441 55.7335 27.6564C54.0989 26.6854 53.0643 24.7234 53.3433 22.8086C53.81 19.9901 54.3014 17.1741 54.773 14.353C54.9755 13.1405 55.3656 11.9279 56.1237 10.9494C57.3138 9.32597 59.3016 8.56158 61.2227 8.2852H61.2251ZM61.9387 12.2441C60.7881 12.4657 59.7362 13.3396 59.5288 14.5373C59.1139 16.8678 58.7213 19.2033 58.3114 21.5363C58.2126 22.226 57.9855 22.9555 58.2472 23.6353C58.4645 24.2378 59.0917 24.554 59.6769 24.686C60.877 24.945 62.1461 24.9201 63.319 24.5416C64.2425 24.2503 64.9882 23.456 65.1636 22.4874C65.6327 19.9104 66.055 17.3259 66.5167 14.7489C66.6007 14.2783 66.655 13.7704 66.4476 13.3247C66.1982 12.65 65.4722 12.3437 64.8228 12.2018C63.8722 12.0325 62.882 12.0424 61.9387 12.2441ZM35.4067 28.5304C36.5598 21.8276 37.7031 15.1224 38.8562 8.41965C40.439 8.42463 42.0218 8.41965 43.6046 8.42214C42.491 15.1299 41.3156 21.8276 40.1723 28.5304C38.5846 28.5229 36.9944 28.5229 35.4067 28.5304ZM42.0119 18.2298C44.4491 14.963 46.8763 11.6913 49.3085 8.41965C51.2593 8.42961 53.2124 8.4072 55.1631 8.4321C52.5284 11.7013 49.9036 14.9805 47.2764 18.2571C48.7233 21.6857 50.2123 25.0968 51.6494 28.5279C49.911 28.5179 48.1702 28.5279 46.4319 28.5229C44.9602 25.0894 43.4713 21.6633 42.0119 18.2273V18.2298ZM72.1244 28.5304C73.2701 21.8251 74.4405 15.1249 75.5961 8.42463C78.4901 8.41965 81.3865 8.42463 84.2805 8.42463C86.0386 8.47941 87.9498 8.96991 89.1226 10.3842C90.0832 11.5171 90.2955 13.1056 90.0585 14.5348C89.5103 17.6571 88.9918 20.7844 88.4313 23.9017C88.167 25.3633 87.3621 26.7825 86.0262 27.4946C83.9323 28.6374 81.468 28.5279 79.1592 28.5279C76.8135 28.5304 74.4677 28.5229 72.1244 28.5329V28.5304ZM77.5715 24.5615C78.6876 24.5565 79.8037 24.574 80.9173 24.554C81.668 24.5018 82.4902 24.4694 83.115 23.9864C83.6384 23.5805 83.8286 22.8983 83.9422 22.2708C84.3866 19.7162 84.8138 17.1591 85.2558 14.602C85.362 14.0567 85.32 13.4168 84.92 12.9936C84.4409 12.5279 83.7372 12.4259 83.1002 12.401C81.9594 12.396 80.8136 12.4035 79.6728 12.401C78.974 16.4545 78.2629 20.503 77.5715 24.559V24.5615ZM98.5132 8.42214C100.674 8.41716 102.834 8.42463 104.995 8.41716C106.109 15.1224 107.227 21.8276 108.346 28.5304C106.654 28.5129 104.965 28.5254 103.276 28.5254C103.128 27.2033 102.945 25.8836 102.775 24.564C100.377 24.564 97.9798 24.5665 95.5822 24.564C94.9698 25.8861 94.3426 27.2058 93.7204 28.5229C92.0018 28.5254 90.2832 28.5229 88.5646 28.5279C91.8536 21.8127 95.192 15.1224 98.5132 8.42214ZM97.2785 20.8217C98.9428 20.8292 100.605 20.8018 102.269 20.8342C101.933 17.9708 101.587 15.1099 101.269 12.2466C99.9429 15.1075 98.6169 17.9658 97.2785 20.8217Z" fill="#636878"/>
</svg>
