<svg width="133" height="35" viewBox="0 0 133 35" fill="none" xmlns="http://www.w3.org/2000/svg">
<path d="M12.1817 5.9628C8.58329 5.9628 6.7841 7.15536 6.7841 9.54049C6.7841 10.6005 7.22977 11.4121 8.12111 11.9753C9.01245 12.5385 11.1005 13.3501 14.3853 14.4101C17.67 15.4702 19.9726 16.671 21.2932 18.0126C22.6137 19.3543 23.2739 21.4164 23.2739 24.199C23.2739 27.7436 22.201 30.4269 20.0552 32.2488C17.9094 34.0708 15.1033 34.9818 11.637 34.9818C9.06197 34.9818 5.90926 34.5843 2.17883 33.7892L0.396152 33.4414L1.08942 28.1246C5.51311 28.7208 8.89691 29.019 11.2408 29.019C14.7401 29.019 16.4898 27.5614 16.4898 24.6463C16.4898 23.5862 16.0854 22.758 15.2766 22.1618C14.4678 21.5655 12.8584 20.9195 10.4485 20.2238C6.61903 19.1307 3.92025 17.8304 2.35215 16.3232C0.78405 14.8159 0 12.7206 0 10.0374C0 6.65846 1.02339 4.14084 3.07018 2.4845C5.11696 0.828167 7.92303 0 11.4884 0C13.9313 0 17.0345 0.331267 20.798 0.993801L22.5806 1.34163L22.0359 6.75784C17.3812 6.22782 14.0964 5.9628 12.1817 5.9628Z" fill="#636878"/>
<path d="M36.3034 34.9653C40.397 34.9653 43.3186 33.8307 45.0683 31.5615C46.818 29.2924 47.6928 26.1039 47.6928 21.9962C47.6928 13.2839 43.8963 8.92773 36.3034 8.92773C28.7105 8.92773 24.9141 13.2839 24.9141 21.9962C24.9141 26.1039 25.7889 29.2924 27.5386 31.5615C29.2882 33.8307 32.2099 34.9653 36.3034 34.9653ZM36.3034 14.5924C38.0531 14.5924 39.2663 15.1887 39.9431 16.3812C40.6198 17.5738 40.9582 19.4455 40.9582 21.9962C40.9582 24.547 40.6198 26.4021 39.9431 27.5615C39.2663 28.7209 38.0531 29.3006 36.3034 29.3006C34.5538 29.3006 33.3405 28.7209 32.6638 27.5615C31.987 26.4021 31.6486 24.547 31.6486 21.9962C31.6486 19.4455 31.987 17.5738 32.6638 16.3812C33.3405 15.1887 34.5538 14.5924 36.3034 14.5924Z" fill="#636878"/>
<path d="M50.2747 28.1851C54.3683 28.7152 57.2321 28.9802 58.8663 28.9802C60.5004 28.9802 61.5568 28.8311 62.0355 28.533C62.5142 28.2348 62.7535 27.7628 62.7535 27.1168C62.7535 26.4708 62.4316 26.0236 61.7879 25.7752C61.1441 25.5267 59.4935 25.1623 56.836 24.682C54.1785 24.2016 52.2885 23.4149 51.1661 22.3217C50.0436 21.2285 49.4824 19.4562 49.4824 17.0049C49.4824 11.6383 52.8002 8.95508 59.4357 8.95508C61.6146 8.95508 64.2556 9.25322 67.3588 9.8495L68.9434 10.1476L68.7453 15.7129C64.6517 15.1829 61.8044 14.9179 60.2033 14.9179C58.6022 14.9179 57.5127 15.0752 56.935 15.3899C56.3573 15.7046 56.0684 16.1767 56.0684 16.8061C56.0684 17.4355 56.3738 17.8993 56.9845 18.1974C57.5953 18.4956 59.1799 18.86 61.7384 19.2906C64.2968 19.7213 66.2033 20.45 67.4578 21.477C68.7123 22.5039 69.3395 24.3341 69.3395 26.9677C69.3395 29.6013 68.4482 31.5889 66.6655 32.9305C64.8828 34.2722 62.5884 34.943 59.7824 34.943C57.8346 34.943 55.1771 34.6283 51.8098 33.9989L50.1757 33.7007L50.2747 28.1851Z" fill="#636878"/>
<path d="M86.4039 15.2229H80.313V25.4094C80.313 26.4032 80.3378 27.1071 80.3873 27.5212C80.4368 27.9353 80.6184 28.2914 80.932 28.5896C81.2456 28.8877 81.7326 29.0368 82.3928 29.0368L86.1563 28.9374L86.4534 34.2542C84.2415 34.7511 82.5579 34.9996 81.4024 34.9996C78.4313 34.9996 76.401 34.3288 75.3116 32.9871C74.2222 31.6455 73.6775 29.1693 73.6775 25.5585V15.2229H70.7559V9.55828H73.6775V2.65137H80.313V9.55828H86.4039V15.2229Z" fill="#636878"/>
<path d="M108.506 17.2923V27.6278C108.572 28.4228 108.704 28.9777 108.902 29.2924C109.1 29.6071 109.513 29.8307 110.14 29.9632L109.942 34.9819C108.259 34.9819 106.913 34.866 105.906 34.6341C104.9 34.4022 103.884 33.9384 102.861 33.2428C100.484 34.4022 98.0576 34.9819 95.5817 34.9819C90.4647 34.9819 87.9062 32.2655 87.9062 26.8327C87.9062 24.1826 88.616 22.3027 90.0356 21.1929C91.4551 20.0832 93.6339 19.4289 96.5721 19.2302L101.871 18.8327V17.2923C101.871 16.2653 101.64 15.5614 101.177 15.1804C100.715 14.7995 99.9724 14.609 98.949 14.609L89.6394 15.0065L89.4413 10.3853C92.9737 9.42467 96.3327 8.94434 99.5184 8.94434C102.704 8.94434 104.999 9.60687 106.402 10.9319C107.805 12.257 108.506 14.3771 108.506 17.2923ZM97.3644 23.8513C95.5157 24.017 94.5913 25.0108 94.5913 26.8327C94.5913 28.6547 95.4001 29.5657 97.0177 29.5657C98.2722 29.5657 99.6422 29.3669 101.128 28.9694L101.871 28.7707V23.4538L97.3644 23.8513Z" fill="#636878"/>
<path d="M133.001 10.1387H126.068L122.107 29.319H120.72L116.561 10.1387H109.826L115.768 34.9837H127.059L133.001 10.1387Z" fill="#636878"/>
</svg>
