<svg width="278" height="35" viewBox="0 0 278 35" fill="none" xmlns="http://www.w3.org/2000/svg">
<path fill-rule="evenodd" clip-rule="evenodd" d="M0.355469 2.29893H6.78308L13.6799 21.7694L22.1249 0.375335L30.7107 21.7694L37.4667 2.29893H43.9413L31.3206 34.6716L22.1249 13.559L12.9292 34.6716L0.355469 2.29893ZM102.165 32.6542L94.6584 21.3472H91.9372V32.6542H86.401V2.29893H95.8313C98.0834 2.29893 100.007 2.67426 101.649 3.47185C103.244 4.26944 104.558 5.34853 105.449 6.75603C106.388 8.21046 106.857 9.89946 106.857 11.7761C106.857 13.6997 106.388 15.3887 105.449 16.8432C104.558 18.2507 103.244 19.3767 101.649 20.1743C101.274 20.3619 100.851 20.5027 100.382 20.6903L108.874 32.6542H102.165ZM95.6906 16.6555C96.8166 16.6555 97.7862 16.4678 98.5994 16.0925C99.4127 15.7172 100.038 15.1854 100.476 14.4973C100.945 13.7779 101.18 12.9178 101.18 11.9169C101.18 10.8847 100.945 10.0246 100.476 9.33646C100.038 8.64835 99.4127 8.11662 98.5994 7.74129C97.7862 7.36595 96.8166 7.17828 95.6906 7.17828H91.9842V16.6555H95.6906ZM129.987 32.6542L118.821 19.189V32.6542H113.144V2.29893H118.821V14.2627L129.518 2.29893H136.321L123.465 16.5147L136.931 32.6542H129.987ZM148.847 33.2641C147.112 33.2641 145.423 32.9357 143.921 32.185C142.42 31.4812 141.059 30.5429 139.933 29.37C138.76 28.1971 137.869 26.8834 137.212 25.4759L137.118 25.2882L141.294 22.3324L141.435 22.6139C142.091 23.7399 142.748 24.7721 143.499 25.5697C144.218 26.4142 145.032 27.071 145.939 27.5402C146.814 28.0094 147.784 28.244 148.847 28.244C150.161 28.244 151.193 27.8686 151.991 27.1649C152.788 26.508 153.211 25.6166 153.211 24.4906C153.211 23.4584 152.96 22.6452 152.46 22.0509C151.96 21.3941 151.24 20.8467 150.302 20.4088C149.364 19.9397 148.238 19.4705 147.018 19.0483C146.267 18.7668 145.423 18.4383 144.531 17.9692C143.593 17.5313 142.717 16.9683 141.904 16.2802C141.012 15.5764 140.309 14.7319 139.792 13.7466C139.229 12.7145 138.948 11.4946 138.948 10.0402C138.948 8.39812 139.37 6.9437 140.215 5.72386C141.059 4.4571 142.232 3.47185 143.64 2.7681C145.094 2.11126 146.736 1.73592 148.566 1.73592C150.349 1.73592 151.944 2.06434 153.258 2.72118C154.618 3.37802 155.744 4.22252 156.683 5.16086C157.621 6.14611 158.325 7.2252 158.794 8.25737L158.935 8.49196L154.431 11.0724L154.29 10.8378C153.914 10.1184 153.445 9.44593 152.882 8.82038C152.319 8.19482 151.678 7.69437 150.959 7.31904C150.271 6.97498 149.442 6.80295 148.472 6.80295C147.158 6.80295 146.204 7.08445 145.61 7.64745C145 8.25737 144.719 8.91421 144.719 9.7118C144.719 10.4312 144.922 11.0724 145.329 11.6354C145.798 12.1984 146.502 12.7458 147.44 13.2775C148.425 13.7936 149.739 14.3566 151.287 14.9196C152.225 15.248 153.117 15.6233 154.055 16.1394C154.962 16.6086 155.791 17.2185 156.542 17.9692C157.246 18.6729 157.902 19.5643 158.325 20.5496C158.794 21.5818 159.075 22.7547 159.075 24.1153C159.075 25.5228 158.747 26.8365 158.184 27.9625C157.621 29.0885 156.87 30.0737 155.885 30.8713C154.947 31.622 153.821 32.2319 152.648 32.6542C151.428 33.0764 150.161 33.2641 148.847 33.2641ZM165.128 32.6542V2.29893H174.37C176.575 2.29893 178.546 2.67426 180.141 3.42493C181.783 4.22252 183.097 5.30161 183.988 6.75603C184.927 8.16354 185.396 9.85255 185.396 11.7761C185.396 13.7466 184.927 15.4357 183.988 16.8901C183.097 18.2976 181.783 19.4236 180.141 20.1743C178.546 20.9718 176.575 21.3472 174.37 21.3472H170.664V32.6542H165.128ZM174.417 16.374C176.059 16.374 177.42 15.9987 178.405 15.2011C179.39 14.4504 179.906 13.3244 179.906 11.7761C179.906 10.2748 179.39 9.14879 178.405 8.39812C177.42 7.64745 176.059 7.27212 174.417 7.27212H170.711V16.374H174.417ZM207.353 32.6542L203.928 24.9598H193.325L189.9 32.6542H183.66L198.626 0.281501L213.687 32.6542H207.353ZM202.286 20.1743L198.579 11.6823L194.967 20.1743H202.286ZM229.451 33.1233C227.246 33.1233 225.134 32.748 223.211 31.9973C221.334 31.2936 219.645 30.1676 218.238 28.7601C216.83 27.3525 215.704 25.6635 214.906 23.7399C214.109 21.8633 213.733 19.752 213.733 17.4531C213.733 15.1542 214.109 13.0429 214.906 11.1193C215.704 9.19571 216.83 7.55362 218.238 6.14611C219.645 4.73861 221.334 3.65952 223.211 2.86193C225.134 2.11126 227.246 1.73592 229.451 1.73592C231.656 1.73592 233.532 2.01743 234.987 2.58043C236.488 3.09651 237.849 3.94102 239.116 4.97319L239.209 5.06702V11.87L238.74 11.3539C238.083 10.5719 237.301 9.86819 236.394 9.24263C235.503 8.58579 234.518 8.11662 233.392 7.74129C232.266 7.41287 230.999 7.2252 229.591 7.2252C227.855 7.2252 226.213 7.64745 224.712 8.49196C223.211 9.28954 221.991 10.5094 221.099 12.0576C220.161 13.559 219.692 15.3887 219.692 17.4531C219.692 19.5174 220.161 21.3003 221.099 22.8485C221.991 24.3499 223.211 25.5697 224.712 26.4142C226.213 27.3056 227.855 27.7279 229.591 27.7279C230.999 27.7279 232.266 27.5402 233.392 27.1649C234.518 26.8365 235.503 26.3204 236.394 25.7105C237.286 25.0536 238.083 24.3499 238.74 23.5523L239.209 22.9893V29.8391L239.116 29.933C237.849 30.9651 236.488 31.7627 234.987 32.3257C233.532 32.8887 231.656 33.1233 229.451 33.1233ZM245.168 32.6542V2.29893H263.841V7.27212H250.657V13.9812H262.996V18.8137H250.657V27.681H263.841V32.6542H245.168ZM45.1611 17.5C45.1611 7.83512 52.9962 0 62.708 0C72.3729 0 80.208 7.83512 80.208 17.5C80.208 27.1649 72.3729 35 62.708 35C52.9962 35 45.1611 27.1649 45.1611 17.5ZM63.1772 1.36059H62.2388L58.767 12.0576H47.5069C47.4131 12.3391 47.3193 12.6363 47.2254 12.9491L56.3273 19.5174L52.8555 30.2145L53.6061 30.7775L62.6611 24.1622L71.8099 30.7775L72.5606 30.2145L69.0887 19.5643L78.1906 12.9491C78.0968 12.6363 78.0029 12.3391 77.9091 12.0576H66.649L63.1772 1.36059ZM277.681 4.87936C277.681 5.41108 277.587 5.91153 277.4 6.3807C277.181 6.84987 276.915 7.25648 276.602 7.60054C276.258 7.91332 275.851 8.16354 275.382 8.35121C274.913 8.53887 274.413 8.63271 273.881 8.63271C273.349 8.63271 272.849 8.53887 272.38 8.35121C271.91 8.16354 271.504 7.91332 271.16 7.60054C270.847 7.25648 270.581 6.84987 270.362 6.3807C270.175 5.91153 270.081 5.41108 270.081 4.87936C270.081 4.31635 270.175 3.80027 270.362 3.3311C270.581 2.86193 270.847 2.47096 271.16 2.15818C271.504 1.81412 271.91 1.54826 272.38 1.36059C272.849 1.17292 273.349 1.07909 273.881 1.07909C274.413 1.07909 274.913 1.17292 275.382 1.36059C275.851 1.54826 276.258 1.81412 276.602 2.15818C276.915 2.47096 277.181 2.86193 277.4 3.3311C277.587 3.80027 277.681 4.31635 277.681 4.87936ZM277.071 4.87936C277.071 4.41019 276.993 3.9723 276.837 3.56568C276.68 3.15907 276.461 2.81501 276.18 2.53351C275.867 2.22073 275.523 1.98615 275.148 1.82976C274.772 1.67337 274.35 1.59517 273.881 1.59517C273.412 1.59517 272.99 1.67337 272.614 1.82976C272.208 1.98615 271.864 2.22073 271.582 2.53351C271.301 2.81501 271.082 3.15907 270.925 3.56568C270.769 3.9723 270.691 4.41019 270.691 4.87936C270.691 5.34853 270.769 5.77078 270.925 6.14611C271.082 6.55273 271.301 6.89678 271.582 7.17828C271.864 7.49106 272.208 7.72565 272.614 7.88204C272.99 8.03843 273.412 8.11662 273.881 8.11662C274.35 8.11662 274.772 8.03843 275.148 7.88204C275.523 7.72565 275.867 7.49106 276.18 7.17828C276.461 6.89678 276.68 6.55273 276.837 6.14611C276.993 5.77078 277.071 5.34853 277.071 4.87936ZM274.397 5.16086L275.664 6.9437H274.772L273.693 5.25469H273.224V6.9437H272.473V2.53351H273.834C274.303 2.53351 274.694 2.65862 275.007 2.90885C275.288 3.15907 275.429 3.48749 275.429 3.8941C275.429 4.30071 275.288 4.62913 275.007 4.87936C274.819 5.03575 274.616 5.12958 274.397 5.16086ZM273.224 4.64477H273.787C274.069 4.64477 274.288 4.58222 274.444 4.4571C274.6 4.33199 274.679 4.14433 274.679 3.8941C274.679 3.67516 274.6 3.50313 274.444 3.37802C274.288 3.2529 274.069 3.19035 273.787 3.19035H273.224V4.64477Z" fill="#636878"/>
</svg>
