<svg width="40" height="40" viewBox="0 0 40 40" fill="none" xmlns="http://www.w3.org/2000/svg">
<rect width="40" height="40" rx="20" fill="#00D0FF" fill-opacity="0.1"/>
<path d="M28.3346 20.0013H26.268C25.9038 20.0005 25.5494 20.1191 25.2589 20.3388C24.9685 20.5585 24.758 20.8673 24.6596 21.218L22.7013 28.1846C22.6887 28.2279 22.6624 28.2659 22.6263 28.293C22.5902 28.32 22.5464 28.3346 22.5013 28.3346C22.4562 28.3346 22.4124 28.32 22.3763 28.293C22.3402 28.2659 22.3139 28.2279 22.3013 28.1846L17.7013 11.818C17.6887 11.7747 17.6624 11.7367 17.6263 11.7096C17.5902 11.6826 17.5464 11.668 17.5013 11.668C17.4562 11.668 17.4124 11.6826 17.3763 11.7096C17.3402 11.7367 17.3139 11.7747 17.3013 11.818L15.343 18.7846C15.245 19.1339 15.0358 19.4417 14.747 19.6613C14.4583 19.8809 14.1057 20.0003 13.743 20.0013H11.668" stroke="#00B2FF" stroke-width="1.66667" stroke-linecap="round" stroke-linejoin="round"/>
</svg>
