<svg width="40" height="40" viewBox="0 0 40 40" fill="none" xmlns="http://www.w3.org/2000/svg">
<rect width="40" height="40" rx="20" fill="#00D0FF" fill-opacity="0.1"/>
<path d="M25.0013 27.4987C25.0013 25.7306 24.2989 24.0349 23.0487 22.7847C21.7984 21.5344 20.1027 20.832 18.3346 20.832C16.5665 20.832 14.8708 21.5344 13.6206 22.7847C12.3703 24.0349 11.668 25.7306 11.668 27.4987" stroke="#00B2FF" stroke-width="1.66667" stroke-linecap="round" stroke-linejoin="round"/>
<path d="M18.3346 20.8333C20.6358 20.8333 22.5013 18.9679 22.5013 16.6667C22.5013 14.3655 20.6358 12.5 18.3346 12.5C16.0334 12.5 14.168 14.3655 14.168 16.6667C14.168 18.9679 16.0334 20.8333 18.3346 20.8333Z" stroke="#00B2FF" stroke-width="1.66667" stroke-linecap="round" stroke-linejoin="round"/>
<path d="M28.3333 26.6654C28.3333 23.857 26.6667 21.2487 25 19.9987C25.5478 19.5877 25.9859 19.0479 26.2755 18.4273C26.565 17.8066 26.6971 17.1241 26.66 16.4402C26.6229 15.7563 26.4178 15.0921 26.0629 14.5064C25.7079 13.9206 25.2141 13.4314 24.625 13.082" stroke="#00B2FF" stroke-width="1.66667" stroke-linecap="round" stroke-linejoin="round"/>
</svg>
