<svg width="20" height="20" viewBox="0 0 20 20" fill="none" xmlns="http://www.w3.org/2000/svg">
<g opacity="0.75">
<rect width="20" height="20" rx="10" fill="url(#paint0_linear_5693_19815)"/>
<path d="M12.5664 9.78516C12.5664 9.31641 12.4609 8.88281 12.2266 8.49609C11.9922 8.09766 11.6875 7.79297 11.2891 7.55859C10.9023 7.32422 10.4688 7.21875 10 7.21875C9.53125 7.21875 9.09766 7.32422 8.71094 7.55859C8.3125 7.79297 8.00781 8.09766 7.77344 8.49609C7.53906 8.88281 7.43359 9.31641 7.43359 9.78516C7.43359 10.2539 7.53906 10.6875 7.77344 11.0742C8.00781 11.4727 8.3125 11.7773 8.71094 12.0117C9.09766 12.2461 9.53125 12.3516 10 12.3516C10.4688 12.3516 10.9023 12.2461 11.2891 12.0117C11.6875 11.7773 11.9922 11.4727 12.2266 11.0742C12.4609 10.6875 12.5664 10.2539 12.5664 9.78516Z" fill="white"/>
</g>
<defs>
<linearGradient id="paint0_linear_5693_19815" x1="0" y1="0" x2="20" y2="20" gradientUnits="userSpaceOnUse">
<stop stop-color="#CAFF3D"/>
<stop offset="0.5" stop-color="#00B2FF"/>
<stop offset="1" stop-color="#DEFF7A"/>
</linearGradient>
</defs>
</svg>
