<svg width="179" height="35" viewBox="0 0 179 35" fill="none" xmlns="http://www.w3.org/2000/svg">
<path d="M52.2787 0H58.5093V34.3125H52.2787V31.6566C51.2322 32.7058 49.9893 33.5412 48.6201 34.1159C47.3653 34.6309 46.0216 34.8981 44.664 34.9024C43.0902 34.9119 41.5329 34.583 40.0989 33.9381C38.6649 33.2932 37.3882 32.3476 36.3563 31.1663C35.1811 29.9339 34.2618 28.4835 33.6509 26.8977C33.0399 25.312 32.7494 23.6221 32.7958 21.9246C32.7958 18.089 33.8835 14.9442 36.1585 12.4864C37.1955 11.3181 38.4755 10.3877 39.9098 9.75965C41.3442 9.13158 42.8987 8.82079 44.4657 8.84881C45.9294 8.84816 47.3772 9.14939 48.7178 9.73345C50.0976 10.333 51.342 11.2024 52.3769 12.2898V0H52.2787ZM45.6526 14.649C44.7424 14.6236 43.8376 14.7951 43.0007 15.1516C42.1638 15.5082 41.4149 16.0412 40.8056 16.7139C39.523 18.1427 38.8493 20.0112 38.9268 21.9246C38.8654 23.8827 39.5745 25.7874 40.9033 27.2339C41.5125 27.9064 42.2613 28.4393 43.098 28.7957C43.9347 29.1522 44.8393 29.3237 45.7493 29.2984C46.6592 29.3237 47.5638 29.1522 48.4005 28.7957C49.2372 28.4393 49.9861 27.9064 50.5952 27.2339C51.9257 25.7881 52.6364 23.8833 52.5762 21.9246C52.6155 20.9685 52.4606 20.0144 52.1208 19.1191C51.7809 18.2238 51.2631 17.4058 50.5982 16.7139C49.9693 16.0396 49.2028 15.5067 48.3499 15.1506C47.4971 14.7946 46.5777 14.6237 45.6531 14.6494" fill="#636878"/>
<path d="M73.7402 9.537H79.9708V12.0933C81.1195 11.0782 82.4215 10.2489 83.8292 9.63557C84.9577 9.1716 86.1685 8.93764 87.3897 8.94757C88.5621 8.93806 89.7249 9.15901 90.8112 9.59771C91.8974 10.0364 92.8858 10.6842 93.7194 11.5039C95.2027 12.9784 95.8952 15.1415 95.8952 17.993V34.3127H89.6622V23.498C89.6622 20.5484 89.5645 18.582 89.2666 17.5988C89.0484 16.7221 88.5651 15.933 87.882 15.3376C87.1652 14.8164 86.2977 14.5403 85.4097 14.5511C84.8066 14.53 84.2056 14.6326 83.6441 14.8524C83.0827 15.0723 82.5728 15.4047 82.1462 15.829C81.1592 16.7817 80.5014 18.0209 80.2673 19.3685C80.0696 20.1551 79.9708 21.8264 79.9708 24.3826V34.3127H73.7402V9.537Z" fill="#636878"/>
<path d="M118.046 0H124.277V34.3125H118.046V31.6566C117 32.7053 115.756 33.5402 114.387 34.1144C113.132 34.6294 111.789 34.8966 110.431 34.901C108.857 34.9106 107.3 34.5818 105.866 33.9372C104.433 33.2926 103.156 32.3473 102.124 31.1663C100.949 29.9339 100.029 28.4835 99.4184 26.8977C98.8075 25.312 98.517 23.6221 98.5634 21.9246C98.5634 18.089 99.6511 14.9442 101.926 12.4864C102.963 11.3181 104.243 10.3877 105.677 9.75965C107.112 9.13158 108.666 8.82079 110.233 8.84881C111.697 8.8481 113.145 9.14933 114.486 9.73345C115.866 10.333 117.11 11.2024 118.145 12.2898V0H118.046ZM111.519 14.649C110.609 14.6237 109.705 14.7952 108.868 15.1516C108.031 15.5081 107.282 16.041 106.673 16.7134C105.391 18.1422 104.717 20.0107 104.794 21.9242C104.733 23.8824 105.443 25.7871 106.772 27.2334C107.397 27.886 108.149 28.4055 108.982 28.7605C109.815 29.1154 110.712 29.2985 111.618 29.2985C112.525 29.2985 113.422 29.1154 114.255 28.7605C115.088 28.4055 115.839 27.886 116.464 27.2334C117.793 25.7871 118.503 23.8826 118.441 21.9246C118.481 20.9686 118.326 20.0144 117.986 19.1191C117.646 18.2238 117.128 17.4058 116.463 16.7139C115.835 16.0396 115.068 15.5067 114.215 15.1506C113.362 14.7946 112.443 14.6237 111.518 14.6495" fill="#636878"/>
<path d="M153.453 23.6943H133.377C133.616 25.3463 134.462 26.8519 135.75 27.9218C137.036 29.0031 138.618 29.4949 140.596 29.4949C141.718 29.5211 142.833 29.3162 143.871 28.8932C144.909 28.4703 145.848 27.8383 146.629 27.0372L151.87 29.4949C150.69 31.2703 149.05 32.6961 147.123 33.6219C145.078 34.5592 142.848 35.0295 140.596 34.9984C136.64 34.9984 133.475 33.8186 131.002 31.3608C128.53 28.9031 127.344 25.8573 127.344 22.1212C127.344 18.385 128.531 15.2388 131.003 12.6829C132.199 11.4697 133.632 10.5124 135.213 9.86992C136.795 9.22742 138.492 8.91326 140.201 8.94676C144.157 8.94676 147.321 10.2247 149.794 12.6829C152.267 15.1412 153.453 18.4836 153.453 22.613V23.6943ZM147.222 18.8768C146.832 17.5018 145.954 16.314 144.749 15.534C143.51 14.6592 142.017 14.2105 140.497 14.256C138.855 14.2159 137.25 14.7364 135.947 15.7306C135.156 16.3205 134.365 17.4018 133.673 18.9749H147.222V18.8768Z" fill="#636878"/>
<path d="M153.155 9.53711H160.373L165.318 16.321L170.166 9.53711H177.287L168.881 21.2384L178.474 34.3147H171.155L165.221 26.2549L159.386 34.3147H152.266L161.661 21.3355L153.155 9.53711Z" fill="#636878"/>
<path d="M13.3133 0.884766H19.8403L32.7962 34.4107H26.1701L23.4995 27.5288H9.75285L6.9836 34.4107H0.357422L13.3133 0.884766ZM16.676 9.73309L12.128 21.2363H21.1263L16.676 9.73309Z" fill="#636878"/>
<path d="M62.9609 0V5.70256H69.1915L62.9609 8.94688V34.3125H69.2907V0H62.9609Z" fill="#636878"/>
</svg>
