<svg width="115" height="35" viewBox="0 0 115 35" fill="none" xmlns="http://www.w3.org/2000/svg">
<path d="M19.5858 0C20.4264 0.261512 21.3128 0.329437 22.1687 0.555288C24.8568 1.26511 27.3497 2.65417 29.4299 4.47796L26.9472 6.91648C16.1641 -1.96473 0.233952 7.9863 4.26191 21.5917C7.12496 31.2574 19.3141 34.5212 26.9472 28.065L29.4299 30.5035C20.3364 38.68 5.73249 35.226 1.29189 23.8723C0.665277 22.271 0.42584 20.5932 0.062441 18.9273C0.123574 17.9951 -0.0224654 16.9728 0.062441 16.0541C0.797731 8.05592 7.541 0.787931 15.6818 0H19.5858Z" fill="#636878"/>
<path d="M53.2018 0C57.2824 0.891517 60.2372 4.24702 60.3323 8.44989H56.7662C56.7254 6.50893 55.5266 4.56966 53.7079 3.80381C49.6561 2.09889 45.7742 6.10817 47.0376 10.1056C48.065 13.3541 53.8131 14.4409 56.5811 15.9845C62.0219 19.0156 63.6063 26.2565 59.6479 31.1759C53.949 38.2588 42.6055 34.9033 41.6562 26.0255H45.2223C46.7931 34.4482 58.9296 32.7127 58.2911 24.2527C57.7154 16.6145 45.7861 18.6913 43.6499 11.1126C42.1708 5.86364 45.1442 1.31096 50.315 0H53.2018Z" fill="#636878"/>
<path d="M71.8777 0C73.783 0.545099 75.4455 1.64039 76.2453 3.51003C76.4372 3.96004 76.8006 5.23363 76.8006 5.66156V8.44989H73.2345V5.49175C73.2345 4.9925 72.6436 3.96343 72.1664 3.68154C70.4768 2.68644 68.4033 3.68494 68.0484 5.56816C66.549 13.5273 74.3043 14.4748 76.1978 20.9617C76.9008 23.3696 77.2115 29.364 76.2521 31.648C74.3638 36.1464 67.4422 36.0462 65.3943 31.7159C65.2363 31.3831 64.7456 29.9329 64.7456 29.6578V22.4747L68.3116 22.6445V29.3199C68.3116 29.6103 69.0079 30.872 69.2898 31.0978C70.7247 32.2542 72.4907 31.4035 73.0172 29.7801C73.496 28.301 73.3041 24.2544 72.9526 22.6717C71.7979 17.4669 65.9529 16.2171 64.9392 9.86273C64.2497 5.55118 64.8016 1.44341 69.5003 0L71.8777 0Z" fill="#636878"/>
<path d="M114.997 34.9816H110.923C109.616 32.3817 108.325 29.6121 106.878 27.0937C106.615 26.6353 106.303 25.8235 105.756 25.8456L86.3464 25.9662L81.4694 34.9799H77.4805L96.1548 0.169922L114.997 34.9832V34.9816ZM104.302 22.4765L96.1548 7.77414L88.1736 22.4765H104.302Z" fill="#636878"/>
<path d="M31.2624 8.66591C43.6061 7.18345 44.9612 25.1632 33.74 26.3417C21.6051 27.617 20.2891 9.98196 31.2624 8.66591ZM31.7667 12.2116C25.0472 13.1184 26.1357 23.5704 33.2339 22.796C40.1861 22.037 39.0517 11.2301 31.7667 12.2116Z" fill="#636878"/>
</svg>
