<svg width="178" height="35" viewBox="0 0 178 35" fill="none" xmlns="http://www.w3.org/2000/svg">
<mask id="mask0_3026_3962" style="mask-type:luminance" maskUnits="userSpaceOnUse" x="0" y="0" width="178" height="35">
<path d="M178 0H0V35H178V0Z" fill="white"/>
</mask>
<g mask="url(#mask0_3026_3962)">
<path d="M46.9961 23.3976V13.0447C46.9961 12.6561 47.2168 12.4062 47.6305 12.4062H50.1954C50.5815 12.4062 50.8297 12.6284 50.8297 13.0447V22.9813C50.8297 25.174 52.1812 25.9233 53.6153 25.9233C55.0495 25.9233 56.4009 25.2017 56.4009 22.9813V13.0447C56.4009 12.6561 56.6215 12.4062 57.0352 12.4062H59.6277C60.0138 12.4062 60.262 12.6284 60.262 13.0447V23.3976C60.262 26.7283 57.9177 29.6703 53.6153 29.6703C49.3129 29.6703 46.9961 26.7006 46.9961 23.3976Z" fill="#636878"/>
<path d="M62.9922 28.8099V13.0447C62.9922 12.6561 63.2128 12.4062 63.6265 12.4062H66.1914C66.5224 12.4062 66.7706 12.545 66.9361 12.8226L73.1416 22.6204V13.0447C73.1416 12.6561 73.3622 12.4062 73.7759 12.4062H76.3408C76.7269 12.4062 76.9751 12.6284 76.9751 13.0447V28.8099C76.9751 29.1985 76.7545 29.4483 76.3408 29.4483H73.7483C73.4174 29.4483 73.1691 29.3095 73.0037 29.0319L66.8258 19.2619V28.8377C66.8258 29.2262 66.6051 29.476 66.1914 29.476H63.6265C63.2128 29.4483 62.9922 29.1985 62.9922 28.8099Z" fill="#636878"/>
<path d="M79.7344 28.8099V13.0447C79.7344 12.6561 79.955 12.4062 80.3687 12.4062H82.9336C83.3197 12.4062 83.5679 12.6284 83.5679 13.0447V28.8099C83.5679 29.1985 83.3473 29.4483 82.9336 29.4483H80.3687C79.955 29.4483 79.7344 29.1985 79.7344 28.8099Z" fill="#636878"/>
<path d="M85.9944 26.0349C85.8014 25.7296 85.9117 25.3966 86.2151 25.2023L88.3112 23.6757C88.6145 23.4537 88.9179 23.4814 89.1661 23.8145C89.9384 24.6749 91.6759 25.9239 93.5789 25.9239C95.3164 25.9239 95.675 25.2578 95.675 24.5084C95.675 23.3704 93.2204 22.9263 92.0344 22.4822C90.8209 22.0381 86.4357 21.1499 86.4357 17.3196C86.4357 13.5449 89.7453 12.1016 93.1376 12.1016C96.1162 12.1016 98.6536 13.7114 99.5913 15.3212C99.8119 15.6543 99.674 15.9596 99.3707 16.1539L97.3298 17.5139C96.9988 17.736 96.723 17.6805 96.4748 17.4029C95.7577 16.709 94.3236 15.9319 92.6688 15.9319C91.4553 15.9319 90.8485 16.3759 90.8485 17.0976C90.8485 18.2633 93.1376 18.7074 94.3787 19.1515C95.5646 19.5956 99.9774 20.7058 99.9774 24.2863C99.9774 27.8668 97.1919 29.7265 93.1376 29.7265C89.4971 29.7542 87.0149 27.9223 85.9944 26.0349Z" fill="#636878"/>
<path d="M102.211 28.8099V13.0447C102.211 12.6561 102.431 12.4062 102.845 12.4062H113.215C113.601 12.4062 113.849 12.6284 113.849 13.0447V15.2928C113.849 15.6814 113.629 15.9312 113.215 15.9312H106.044V19.1786H112.663C113.05 19.1786 113.298 19.4007 113.298 19.817V22.0653C113.298 22.4539 113.077 22.7036 112.663 22.7036H106.044V25.951H113.215C113.601 25.951 113.849 26.1731 113.849 26.5894V28.8377C113.849 29.2262 113.629 29.476 113.215 29.476H102.845C102.459 29.4483 102.211 29.1985 102.211 28.8099Z" fill="#636878"/>
<path d="M116.469 28.8099V13.0447C116.469 12.6561 116.69 12.4062 117.104 12.4062H119.669C120 12.4062 120.248 12.545 120.413 12.8226L126.619 22.6204V13.0447C126.619 12.6561 126.839 12.4062 127.253 12.4062H129.818C130.204 12.4062 130.452 12.6284 130.452 13.0447V28.8099C130.452 29.1985 130.232 29.4483 129.818 29.4483H127.226C126.895 29.4483 126.646 29.3095 126.481 29.0319L120.303 19.2619V28.8377C120.303 29.2262 120.082 29.476 119.669 29.476H117.104C116.69 29.4483 116.469 29.1985 116.469 28.8099Z" fill="#636878"/>
<path d="M133.211 28.8099V13.0447C133.211 12.6561 133.432 12.4062 133.846 12.4062H139.637C144.574 12.4062 147.939 15.8757 147.939 20.9273C147.939 25.9788 144.574 29.4483 139.637 29.4483H133.846C133.432 29.4483 133.211 29.1985 133.211 28.8099ZM139.637 25.7013C140.796 25.7013 144.133 25.0906 144.105 20.9273C144.078 16.7916 140.796 16.1533 139.637 16.1533H137.045V25.7013H139.637Z" fill="#636878"/>
<path d="M150.312 28.8099V13.0447C150.312 12.6561 150.533 12.4062 150.947 12.4062H161.316C161.702 12.4062 161.951 12.6284 161.951 13.0447V15.2928C161.951 15.6814 161.73 15.9312 161.316 15.9312H154.146V19.1786H160.764C161.15 19.1786 161.4 19.4007 161.4 19.817V22.0653C161.4 22.4539 161.178 22.7036 160.764 22.7036H154.146V25.951H161.316C161.702 25.951 161.951 26.1731 161.951 26.5894V28.8377C161.951 29.2262 161.73 29.476 161.316 29.476H150.947C150.533 29.4483 150.312 29.1985 150.312 28.8099Z" fill="#636878"/>
<path d="M164.543 28.8099V13.0447C164.543 12.6561 164.764 12.4062 165.177 12.4062H172.762C175.272 12.4062 178.03 14.2937 178.03 18.1518C178.03 20.9551 176.54 22.7315 174.775 23.4809L177.919 28.6989C178.167 29.1152 178.002 29.4483 177.506 29.4483H174.472C174.141 29.4483 173.893 29.3372 173.727 29.0319L170.638 23.8972H168.432V28.8099C168.432 29.1985 168.211 29.4483 167.797 29.4483H165.233C164.764 29.4483 164.543 29.1985 164.543 28.8099ZM172.1 20.1502C173.203 20.1502 174.196 19.4562 174.196 18.1239C174.196 16.8194 173.203 16.1255 172.1 16.1255H168.377V20.1224H172.1V20.1502Z" fill="#636878"/>
<path d="M26.0661 10.2138C25.4317 8.65943 23.639 7.2994 21.8739 7.60471C21.4602 7.68798 21.5154 8.32636 21.9291 8.27085C23.4184 8.02105 24.8801 9.15903 25.4041 10.4636C25.5972 10.8521 26.204 10.6023 26.0661 10.2138Z" fill="#636878"/>
<path d="M17.4048 25.2299C17.1842 25.2577 16.9911 25.2854 16.8532 25.2854C16.3843 25.341 15.9706 24.9801 15.9431 24.536C15.8879 24.0642 16.2464 23.6479 16.6877 23.6201C17.129 23.5646 21.1281 23.1205 22.3416 20.7613C22.5622 20.3449 23.0587 20.1784 23.4724 20.4004C23.886 20.6225 24.0515 21.1221 23.8309 21.5384C22.4795 24.203 18.9217 25.0079 17.4048 25.2299Z" fill="#636878"/>
<path d="M9.18516 19.3174C9.65402 19.1787 9.92981 18.7346 9.79191 18.3182C9.6816 17.9019 9.21274 17.6799 8.74388 17.8186C8.27503 17.9574 7.99923 18.4015 8.13713 18.8178C8.27503 19.2342 8.74388 19.4562 9.18516 19.3174Z" fill="#636878"/>
<path d="M9.13071 21.0391C9.46167 20.9558 9.65473 20.6228 9.57199 20.3452C9.48925 20.0677 9.15829 19.9011 8.85491 19.9844C8.52396 20.0677 8.3309 20.4007 8.41364 20.6783C8.49638 20.9558 8.79975 21.1224 9.13071 21.0391Z" fill="#636878"/>
<path d="M11.1424 20.2891C11.4734 20.2059 11.6664 19.8728 11.5837 19.5952C11.5009 19.3177 11.17 19.1511 10.8666 19.2344C10.5356 19.3177 10.3426 19.6507 10.4253 19.9283C10.5081 20.2059 10.839 20.3724 11.1424 20.2891Z" fill="#636878"/>
<path d="M23.7215 13.5726C23.9422 12.1293 23.3906 10.8525 22.4529 10.7137C21.5427 10.575 20.605 11.6019 20.3844 13.0175C20.1637 14.4608 20.7153 15.7375 21.653 15.8763C22.5632 16.0428 23.5009 14.9881 23.7215 13.5726Z" fill="#636878"/>
<path d="M15.3373 13.323C15.6131 12.2961 15.2821 11.3246 14.6202 11.1303C13.9307 10.9361 13.1585 11.6022 12.8827 12.6292C12.6069 13.6561 12.9378 14.6276 13.5997 14.8219C14.2892 15.0161 15.0615 14.35 15.3373 13.323Z" fill="#636878"/>
<path d="M22.3398 13.2948C22.3398 13.7945 22.7535 14.2108 23.2775 14.2108C23.3878 14.2108 23.4981 14.183 23.5809 14.1553C23.636 13.961 23.6912 13.7667 23.7188 13.5724C23.7739 13.2116 23.7739 12.8508 23.7464 12.5177C23.6085 12.4344 23.443 12.3789 23.2775 12.3789C22.7811 12.3789 22.3398 12.7952 22.3398 13.2948Z" fill="white"/>
<path d="M14.8384 12.3789C14.4247 12.3789 14.0938 12.712 14.0938 13.1283C14.0938 13.5446 14.4247 13.8777 14.8384 13.8777C14.9487 13.8777 15.0591 13.85 15.1418 13.8222C15.2245 13.6834 15.2797 13.5169 15.3349 13.3504C15.39 13.1283 15.4176 12.9063 15.4452 12.6842C15.3073 12.4899 15.0866 12.3789 14.8384 12.3789Z" fill="white"/>
<path d="M37.841 4.10785C35.3864 0.444092 29.7877 2.02617 24.1338 0C23.7477 1.11023 23.7477 2.08168 24.0235 2.94211C23.334 2.85884 22.6445 2.80333 21.8723 2.80333C21.2379 2.80333 20.576 2.83109 19.8865 2.91435C19.8865 2.85884 19.8589 2.80333 19.8589 2.74782C19.1419 -0.166535 10.013 2.72006 7.50316 1.13799C7.7238 4.21887 9.54406 5.93973 11.2541 8.13243C10.7852 9.52022 10.7576 11.2133 10.5646 13.1562C10.537 13.5726 10.1784 13.9056 9.7647 13.9056H9.73712C8.85457 13.8779 7.91686 13.8224 6.97915 13.7669C6.15175 11.8239 -0.743195 10.6027 0.0566193 15.0991C0.442736 17.2363 1.24255 18.8739 2.18026 19.7066C2.75943 23.5924 4.38665 26.0349 7.22737 27.7002C8.52361 28.4496 10.2336 28.9215 12.2469 28.9215C13.2674 28.9215 13.7362 28.977 14.9222 28.7272C14.9773 28.866 15.0601 28.977 15.1152 29.1158C16.9079 33.3624 16.0805 35 19.7762 35C20.4105 35 21.1276 34.9445 21.8723 34.8335C22.7548 34.6947 23.6098 34.4726 24.4096 34.1396C28.4638 32.4742 34.0074 28.5607 34.035 24.1475C34.0901 19.2625 34.6693 16.8477 34.2556 13.3228C36.6826 11.5464 37.8134 8.10468 38.2271 6.38382C38.4201 5.60666 38.2822 4.77399 37.841 4.10785ZM32.3526 24.1475C32.325 27.9778 27.14 31.1975 23.7753 32.5853C23.0858 32.8628 22.3687 33.0571 21.6241 33.1681C20.9621 33.2514 20.3278 33.3069 19.7762 33.3069C17.294 33.3069 18.4248 32.6408 16.6597 28.4496C16.6045 28.3386 16.5494 28.2554 16.5218 28.1443C16.4942 28.1166 16.4942 28.0611 16.4666 28.0333L15.8875 26.8121L14.5636 27.0896C13.5156 27.3117 13.1846 27.2561 12.2469 27.2561C10.6473 27.2561 9.18553 26.9231 8.08233 26.2569C6.20691 25.1745 4.9934 23.6757 4.30391 21.5385C4.13842 20.9833 4.27632 20.345 4.74518 20.0119C5.46226 19.4845 6.09659 18.4021 6.59303 16.6534C6.78608 15.9873 7.39285 15.571 8.05476 15.5987C8.60636 15.6265 9.15796 15.6542 9.70955 15.6542H9.73712H9.7647C11.061 15.6542 12.1366 14.655 12.2469 13.3505C12.2745 12.9064 12.3297 12.4901 12.3572 12.0738C12.44 10.9635 12.5227 10.0198 12.7158 9.21491C13.3501 8.35448 14.4809 7.79937 15.5289 7.77161C15.9702 7.74385 15.9702 7.07772 15.5289 7.07772C14.8118 7.10547 14.0396 7.32752 13.3777 7.7161C14.2051 6.66138 15.0049 5.68993 18.2593 4.94052C19.4728 4.66297 20.7139 4.52419 21.8999 4.52419C23.0306 4.52419 24.1338 4.66297 25.2094 4.91277C27.4434 7.54956 31.7183 9.659 32.656 13.8501C32.9593 17.0143 32.4078 19.318 32.3526 24.1475Z" fill="#636878"/>
<path d="M2.42735 14.044C2.89621 13.9052 3.172 13.4611 3.03411 13.0448C2.92379 12.6285 2.45493 12.4064 1.98607 12.5452C1.51722 12.684 1.24142 13.1281 1.37932 13.5444C1.48964 13.9607 1.95849 14.1828 2.42735 14.044Z" fill="white"/>
</g>
</svg>
