<svg width="34" height="35" viewBox="0 0 34 35" fill="none" xmlns="http://www.w3.org/2000/svg">
<path d="M27.0921 16.3126C29.5074 16.3126 31.3258 15.3063 32.6665 13.5545L30.8746 12.1873C30.432 12.7707 29.8599 13.2432 29.2035 13.5678C28.5471 13.8924 27.8243 14.06 27.0921 14.0576C24.4707 14.0576 22.5712 11.9221 22.5712 9.30162C22.5712 6.68118 24.4397 4.42534 27.1668 4.42534C28.379 4.42534 29.2358 4.71153 29.9832 5.17455V7.4787H32.2381V4.11909L31.8061 3.7791C30.5665 2.80384 28.6734 2.28613 27.0911 2.28613C23.2229 2.28613 20.0766 5.4325 20.0766 9.30073C20.0766 13.1653 23.222 16.3126 27.0921 16.3126ZM31.7706 30.1485L31.6904 26.9192V19.0387H26.9872V21.2946H29.3151V26.6412C29.3151 28.9445 27.556 30.5751 25.7814 30.5751C24.0068 30.5751 23.0807 29.3446 23.0807 27.0423V19.0378H18.6875V21.2937H20.7055V27.4333C20.7055 30.5577 22.4573 32.7106 25.5818 32.7106C27.3773 32.7106 28.7445 31.7144 29.5603 30.1786H29.5967L29.9185 32.326H33.5324V30.1512H31.7733V30.1467L31.7706 30.1485ZM19.557 2.617H15.6378L12.2289 12.5154H12.176L8.78542 2.617H4.60911V4.87375H6.95794L11.0003 16.1558H13.1477V16.153L17.3632 4.87467H19.5552V2.61792L19.557 2.617ZM0.941406 32.3551H3.2638V30.0337H0.942318V32.3551H0.941406ZM9.91016 21.6546H9.88464L9.7388 19.0387H5.59349V21.095H7.79922V30.1494H5.59349V32.3251H15.8383V30.1923H10.1344V24.7281C10.3923 22.7502 11.8753 21.0613 13.8987 21.0613H13.9352L13.8941 23.0829H16.1491V19.0014H14.3663C12.3246 18.9959 10.8098 20.1006 9.90925 21.6555L9.91016 21.6546Z" fill="#636878"/>
</svg>
