<svg width="52" height="66" viewBox="0 0 52 66" fill="none" xmlns="http://www.w3.org/2000/svg">
<path d="M3.78201 6.69589L33.3866 2.27038C35.4663 1.95952 37.4043 3.39337 37.7151 5.47308L42.2241 35.5864C42.6454 38.4049 40.7021 41.0312 37.8836 41.4526L9.6167 45.6781C7.53711 45.9888 5.59927 44.555 5.28842 42.4755L0.579432 11.0245C0.268701 8.94482 1.70243 7.00687 3.78201 6.69589Z" fill="#AC3737"/>
<path d="M4.00499 8.16417L32.0266 3.94177C33.9951 3.64519 35.8295 5.01322 36.1237 6.99748L40.1233 33.967C40.522 36.6561 38.6826 39.162 36.0148 39.564L9.25938 43.5955C7.29098 43.892 5.45677 42.524 5.16253 40.5399L0.973653 12.2941C0.679538 10.3099 2.0366 8.46087 4.00499 8.16417Z" fill="#DA5252"/>
<path d="M2.04607 6.80077L32.888 1.57121C34.1336 1.36001 35.3146 2.19857 35.5258 3.44415L36.0436 6.49843C36.2548 7.74401 35.4163 8.92499 34.1707 9.13618L3.32886 14.3659C2.08328 14.5771 0.902307 13.7385 0.691111 12.4929L0.17325 9.43863C-0.0380654 8.19294 0.800495 7.01196 2.04607 6.80077Z" fill="white"/>
<path d="M36.045 6.49871L0.692226 12.4933L0.166863 9.41481C-0.0420718 8.18301 0.787138 7.01498 2.01894 6.80605L2.01917 6.80604L32.9136 1.55871C34.1455 1.34942 35.3139 2.17827 35.5234 3.41018L36.045 6.49871Z" fill="#00B2FF"/>
<path d="M4.83478 9.97852C5.3672 9.9681 5.79036 9.52804 5.77993 8.99562C5.76951 8.4632 5.32945 8.04004 4.79704 8.05046C4.26462 8.06089 3.84146 8.50095 3.85188 9.03336C3.8623 9.56578 4.30236 9.98894 4.83478 9.97852Z" fill="#74008C"/>
<path d="M9.79474 9.13379C10.3272 9.12337 10.7503 8.68331 10.7399 8.15089C10.7295 7.61848 10.2894 7.19532 9.757 7.20574C9.22458 7.21616 8.80142 7.65622 8.81184 8.18864C8.82226 8.72105 9.26232 9.14421 9.79474 9.13379Z" fill="#74008C"/>
<path d="M14.6551 8.29737C15.1875 8.28694 15.6107 7.84688 15.6002 7.31447C15.5898 6.78205 15.1498 6.35889 14.6173 6.36931C14.0849 6.37973 13.6618 6.81979 13.6722 7.35221C13.6826 7.88463 14.1227 8.30779 14.6551 8.29737Z" fill="#74008C"/>
<path d="M19.616 7.47461C20.1484 7.46419 20.5716 7.02413 20.5612 6.49171C20.5508 5.9593 20.1107 5.53614 19.5783 5.54656C19.0459 5.55698 18.6227 5.99704 18.6331 6.52946C18.6436 7.06187 19.0836 7.48503 19.616 7.47461Z" fill="#74008C"/>
<path d="M24.5115 6.63526C25.044 6.62483 25.4671 6.18478 25.4567 5.65236C25.4463 5.11994 25.0062 4.69678 24.4738 4.7072C23.9414 4.71763 23.5182 5.15768 23.5286 5.6901C23.5391 6.22252 23.9791 6.64568 24.5115 6.63526Z" fill="#74008C"/>
<path d="M29.4334 5.78174C29.9658 5.77132 30.389 5.33126 30.3786 4.79884C30.3681 4.26642 29.9281 3.84326 29.3957 3.85369C28.8633 3.86411 28.4401 4.30417 28.4505 4.83659C28.4609 5.369 28.901 5.79216 29.4334 5.78174Z" fill="#74008C"/>
<path d="M5.06244 4.23626C4.45034 4.27764 3.90701 4.64304 3.63788 5.19434C3.35909 5.76715 3.25589 6.75956 4.07618 8.39027C4.074 8.39277 4.07158 8.39492 4.06952 8.39742C4.34474 8.94064 4.66516 9.4599 5.02718 9.94966C5.32871 9.88062 5.57889 9.67135 5.70016 9.3867C5.53377 9.15571 5.38767 8.93768 5.25781 8.7301C4.06858 6.78781 4.26638 5.88302 4.41703 5.57344C4.55279 5.29883 4.82554 5.11803 5.13135 5.09987C5.50278 5.07163 5.98124 5.31748 6.11227 6.11135L6.9672 5.97012C6.75572 4.69198 5.83203 4.17505 5.06244 4.23626Z" fill="#CAFF3D"/>
<path d="M10.0263 3.39093C9.41433 3.43219 8.871 3.79748 8.60175 4.34866C8.32296 4.92159 8.21977 5.91447 9.03993 7.54483C9.03787 7.54733 9.03534 7.54948 9.03328 7.55198C9.30873 8.0952 9.62915 8.61446 9.99117 9.10421C10.2927 9.03518 10.5429 8.8259 10.664 8.54126C10.4978 8.31027 10.3517 8.09235 10.2219 7.88489C9.03245 5.94225 9.23025 5.03746 9.381 4.7273C9.51677 4.45291 9.78929 4.27236 10.0949 4.25408C10.4658 4.22644 10.9448 4.47169 11.0758 5.26557L11.9307 5.12444C11.7195 3.84584 10.7949 3.33079 10.0263 3.39093Z" fill="#CAFF3D"/>
<path d="M14.8828 2.55658C14.2707 2.59796 13.7273 2.96337 13.4582 3.51467C13.1794 4.08747 13.0762 5.07989 13.8964 6.71059C13.8943 6.71309 13.8918 6.71525 13.8897 6.71775C14.1652 7.26097 14.4856 7.78023 14.8476 8.26998C15.1491 8.20095 15.3993 7.99167 15.5205 7.70703C15.354 7.47604 15.2072 7.25743 15.0778 7.04961C13.889 5.10778 14.0868 4.20323 14.2373 3.89377C14.3732 3.61938 14.6456 3.43872 14.9512 3.42044C15.3214 3.39222 15.8011 3.63805 15.9322 4.43192L16.7872 4.29068C16.576 3.01231 15.6533 2.49524 14.8828 2.55658Z" fill="#CAFF3D"/>
<path d="M19.8446 1.73396C19.2325 1.77534 18.6893 2.14062 18.4202 2.69192C18.1413 3.26485 18.0382 4.25714 18.8583 5.88797C18.8562 5.89047 18.8538 5.89262 18.8517 5.89512C19.127 6.43834 19.4475 6.95749 19.8095 7.44724C20.111 7.37821 20.3613 7.16892 20.4824 6.88428C20.3159 6.6533 20.1691 6.43492 20.0399 6.2271C18.851 4.28527 19.0487 3.3806 19.1993 3.07102C19.3352 2.79664 19.6076 2.61609 19.9132 2.59781C20.284 2.56993 20.7631 2.81542 20.8941 3.60929L21.7491 3.46817C21.5379 2.19015 20.6143 1.67145 19.8446 1.73396Z" fill="#CAFF3D"/>
<path d="M24.7452 0.89446C24.1331 0.93584 23.5898 1.30112 23.3206 1.85231C23.0417 2.42523 22.9385 3.41753 23.7588 5.04847C23.7567 5.05097 23.7542 5.05313 23.7521 5.05563C24.0275 5.59885 24.3479 6.11799 24.7099 6.60774C25.0115 6.53882 25.2617 6.32943 25.3829 6.04479C25.2168 5.81449 25.0709 5.59657 24.9412 5.38934C23.7512 3.44602 23.9485 2.541 24.0997 2.23176C24.2355 1.95738 24.508 1.77683 24.8136 1.75855C25.185 1.73008 25.6635 1.97616 25.7946 2.77003L26.6496 2.62879C26.4383 1.34995 25.515 0.833243 24.7452 0.89446Z" fill="#CAFF3D"/>
<path d="M29.661 0.0393036C29.0491 0.0806817 28.5059 0.445966 28.2366 0.997151C27.9577 1.57007 27.8545 2.56238 28.6748 4.1932C28.6726 4.1957 28.6702 4.19797 28.6681 4.20047C28.9435 4.74369 29.2639 5.26283 29.6259 5.75258C29.9274 5.68355 30.1776 5.47427 30.2989 5.18963C30.1324 4.95864 29.9856 4.74027 29.8563 4.53256C28.6673 2.5905 28.8651 1.68583 29.0158 1.37637C29.1515 1.10199 29.4239 0.921319 29.7296 0.903154C30.1009 0.875154 30.5795 1.12076 30.7105 1.91464L31.5655 1.77352C31.3543 0.495147 30.4306 -0.0202673 29.661 0.0393036Z" fill="#CAFF3D"/>
<path d="M15.1092 34.3344C14.0625 34.488 13.1197 34.4177 12.2811 34.1235C11.4406 33.8166 10.7461 33.3056 10.1978 32.5906C9.66226 31.8737 9.31297 30.96 9.14996 29.8494C8.96446 28.5856 8.97267 27.3977 9.17458 26.2857C9.37462 25.161 9.74208 24.1551 10.2769 23.2681C10.8118 22.381 11.4878 21.6559 12.3049 21.0926C13.1348 20.5274 14.0731 20.168 15.1199 20.0143C16.1667 19.8607 17.1094 19.931 17.948 20.2252C18.7867 20.5193 19.4747 21.0313 20.0122 21.7609C20.5605 22.4759 20.9161 23.3887 21.0792 24.4993C21.2647 25.763 21.2574 26.9573 21.0573 28.0821C20.8554 29.1941 20.487 30.1936 19.9522 31.0806C19.4173 31.9676 18.7349 32.6937 17.905 33.2589C17.0879 33.8222 16.156 34.1807 15.1092 34.3344ZM15.0376 30.6479C15.4333 30.5898 15.7463 30.3678 15.9766 29.9819C16.2177 29.5814 16.3883 29.0999 16.4883 28.5376C16.6011 27.9733 16.6609 27.4038 16.6678 26.829C16.6729 26.2414 16.6426 25.7242 16.577 25.2775C16.4796 24.6136 16.3046 24.1764 16.052 23.9657C15.8102 23.7404 15.5234 23.6521 15.1915 23.7008C14.7958 23.7589 14.4774 23.9882 14.2362 24.3887C14.006 24.7746 13.8345 25.2497 13.7217 25.8139C13.6216 26.3763 13.5691 26.9513 13.5641 27.5388C13.5572 28.1136 13.5865 28.6244 13.6521 29.0712C13.7495 29.735 13.9255 30.1787 14.18 30.4021C14.4326 30.6128 14.7184 30.6947 15.0376 30.6479ZM27.5865 32.5029C26.6291 32.6435 25.6868 32.6644 24.7595 32.5658C23.8449 32.4653 22.9955 32.2314 22.2113 31.864L23.7993 28.4229C24.3714 28.678 24.9696 28.8445 25.5939 28.9224C26.2292 28.9856 26.8212 28.977 27.3701 28.8964C27.7914 28.8346 28.1359 28.7384 28.4036 28.6078C28.6841 28.4753 28.8824 28.3158 28.9984 28.1293C29.1254 27.9281 29.1711 27.7062 29.1355 27.4636C29.0961 27.1956 28.9586 27.0136 28.7228 26.9178C28.4852 26.8093 28.1366 26.7887 27.6771 26.8562L25.8197 27.1288L25.9674 24.2708L29.5289 20.1489L29.9424 21.6335L23.2597 22.6144L23.4487 19.1048L33.4441 17.6377L33.2963 20.4957L29.7349 24.6176L27.5501 23.7255L28.5458 23.5794C29.4777 23.4426 30.3034 23.4713 31.0231 23.6656C31.7555 23.8581 32.3462 24.1952 32.7951 24.677C33.2567 25.1569 33.541 25.7607 33.6478 26.4884C33.7883 27.4458 33.6148 28.3515 33.1272 29.2055C32.6506 30.0448 31.9271 30.7574 30.9568 31.3432C29.9993 31.9271 28.8758 32.3137 27.5865 32.5029Z" fill="white"/>
<path d="M7.80164 51.6628L9.52701 51.3856L10.7248 58.8409L8.99948 59.1181L7.80164 51.6628ZM5.61264 59.6622L3.88727 59.9394L2.68944 52.4841L4.41481 52.2069L5.61264 59.6622ZM8.63617 56.0409L4.99372 56.6261L4.75929 55.167L8.40174 54.5818L8.63617 56.0409ZM11.7514 58.6759L13.8765 50.6867L15.5805 50.4129L20.112 57.3326L18.3014 57.6235L14.5174 51.4796L15.199 51.3701L13.5193 58.3919L11.7514 58.6759ZM13.1562 56.8114L13.4036 55.4278L17.2378 54.8118L17.9169 56.0465L13.1562 56.8114ZM29.1509 55.8804L26.572 52.6129L27.8959 51.5371L31.1426 55.5604L29.1509 55.8804ZM25.3987 53.4023L25.1677 51.9645L27.4895 51.5914L27.7205 53.0292L25.3987 53.4023ZM28.1355 52.4163L26.5071 52.4813L27.9851 48.4199L29.8063 48.1273L28.1355 52.4163ZM21.9193 57.0423L19.9277 57.3623L21.7506 52.5244L23.3449 53.1314L21.9193 57.0423ZM26.3925 56.3236L24.6991 56.5956L23.5012 49.1403L25.1946 48.8683L26.3925 56.3236ZM24.7171 53.5118L22.3846 53.8865L22.1536 52.4487L24.4861 52.074L24.7171 53.5118ZM21.8091 53.4327L18.8683 49.8847L20.6895 49.5921L23.3546 52.9878L21.8091 53.4327ZM31.9695 55.4275L30.7716 47.9722L32.1988 47.7429L36.218 52.4943L35.4618 52.6158L37.737 46.8531L39.1642 46.6238L40.3727 54.0774L38.7538 54.3375L37.944 49.3654L38.2529 49.3158L36.4225 53.9036L35.6557 54.0268L32.4271 50.2518L32.7892 50.1937L33.5883 55.1674L31.9695 55.4275ZM42.2247 53.7798L41.0268 46.3245L42.7416 46.049L43.5219 50.9056L46.2988 45.4775L47.9177 45.2174L49.1155 52.6727L47.4114 52.9465L46.6328 48.1005L43.8542 53.518L42.2247 53.7798Z" fill="#00B2FF"/>
</svg>
