<svg width="256" height="35" viewBox="0 0 256 35" fill="none" xmlns="http://www.w3.org/2000/svg">
<g opacity="0.92">
<path fill-rule="evenodd" clip-rule="evenodd" d="M89.8584 17.4261L91.7268 17.4132L89.5003 14.1712L91.3252 13.7584L88.4915 11.0607L90.1943 10.2701L86.8744 8.23157L88.3776 7.09383L84.7254 5.80831L85.9608 4.37148L82.1289 3.89645L83.0496 2.22855L79.2036 2.57808L79.7673 0.75067L76.0775 1.91304L76.2572 0L72.8903 1.92594L72.6789 0.0175938L69.7724 2.62148L69.1806 0.802279L66.8671 3.96917L65.9194 2.313L64.3035 5.90801L63.0399 4.48877L62.185 8.35121L60.6654 7.23576L60.6149 11.1967L58.8956 10.4273L59.6472 14.3167L57.8176 13.9296L58.7524 16.1629H70.1975V10.622C70.1975 9.84551 70.8199 9.21448 71.5891 9.21448H76.6224C77.3916 9.21448 78.0152 9.84551 78.0152 10.622V11.9802H83.3385C83.8458 11.9802 84.258 12.3966 84.258 12.9092C84.258 13.4218 83.847 13.837 83.3385 13.837H78.0152V21.163H83.3385C83.8458 21.163 84.258 21.5782 84.258 22.092C84.258 22.6046 83.847 23.0209 83.3385 23.0209H78.0152V24.378C78.0152 25.1557 77.3928 25.7855 76.6224 25.7855H71.5903C71.219 25.783 70.8638 25.6334 70.6028 25.3695C70.3419 25.1055 70.1965 24.7489 70.1987 24.378V18.8371H58.3273L59.6954 20.8288L57.8728 21.2428L60.7077 23.944L59.006 24.7346L62.32 26.7684L60.8192 27.9062L64.475 29.1917L63.2384 30.6262L67.0667 31.1071L66.1484 32.7726L69.9932 32.4231L69.4307 34.254L73.1181 33.0905L72.9408 35L76.3077 33.0741L76.5226 34.9801L79.4232 32.3785L80.0186 34.1965L82.3273 31.032L83.2786 32.6882L84.8921 29.0908L86.1604 30.5101L87.0095 26.6488L88.5338 27.7654L88.5854 23.8068L90.2976 24.5739L89.5461 20.6857L91.378 21.0704L89.8584 17.4261ZM50.8373 20.8839C51.6284 20.2545 52.3743 19.5706 53.0697 18.8371H41.6433L31.2985 27.7044V33.162H57.4629V26.2535H44.4994L50.8373 20.8839ZM22.0013 20.8839C22.7919 20.2545 23.5375 19.5706 24.2325 18.8371H12.8061L2.4625 27.7044V33.162H28.6269V26.2535H15.6621L22.0013 20.8839ZM14.2001 8.44387C16.6498 8.44387 18.9726 10.5141 18.5088 12.3204C18.1494 13.7208 16.7942 15.2527 15.87 16.1629H26.2218C27.725 13.4147 29.0321 8.55295 23.8168 4.1498C20.7635 1.57406 13.3146 -0.514913 6.07009 3.70643C4.42249 4.66706 2.70324 6.13673 0.789062 8.25385L7.20921 12.5163C9.14922 9.39276 11.9183 8.44269 14.2001 8.44269M43.0361 8.44387C45.4858 8.44387 47.8087 10.5141 47.346 12.3204C46.9854 13.7208 45.6302 15.2527 44.706 16.1629H55.0579C56.5611 13.4147 57.8681 8.55295 52.6528 4.1498C49.5995 1.57406 42.1507 -0.514913 34.9061 3.70643C33.2585 4.66706 31.5381 6.13673 29.6251 8.25503L36.0452 12.5174C37.9853 9.39393 40.7544 8.44387 43.0361 8.44387ZM124.798 23.6238C124.798 21.509 123.594 20.4968 121.23 20.4968H114.759V26.8365H121.23C123.594 26.8365 124.798 25.7374 124.798 23.6238ZM114.759 14.597H119.985C122.308 14.597 123.469 13.5848 123.469 11.5591C123.469 9.57808 122.308 8.52128 119.985 8.52128H114.759V14.597ZM133.093 24.283C133.093 29.6996 129.028 33.0893 121.561 33.0893H106.67V2.26843H120.774C127.701 2.26843 131.766 5.17493 131.766 10.2818C131.766 13.3197 130.313 15.6538 127.825 16.9745C131.185 18.1193 133.093 20.5848 133.093 24.283ZM160.682 17.6795C160.682 12.352 157.239 8.87316 152.842 8.87316C148.445 8.87316 145.003 12.352 145.003 17.6795C145.003 23.0069 148.444 26.4858 152.842 26.4858C157.239 26.4858 160.682 23.0069 160.682 17.6795ZM136.708 17.6795C136.708 8.43331 143.551 1.65265 152.842 1.65265C162.133 1.65265 168.978 8.43214 168.978 17.6795C168.978 26.9256 162.133 33.7051 152.842 33.7051C143.551 33.7051 136.708 26.9256 136.708 17.6795ZM199.805 2.26843V33.0893H191.716V9.18046H183.379L183.213 14.2006C182.84 26.2195 181.305 33.616 173.922 33.616C172.801 33.616 171.558 33.44 170.188 33.0881L170.645 25.9556C171.019 26.0436 171.391 26.087 171.764 26.087C175.124 26.087 175.746 21.5079 175.995 14.5524L176.41 2.26726H199.804L199.805 2.26843ZM223.061 22.3019C223.061 19.3966 221.319 18.2952 218.54 18.2952H213.438V26.8376H218.54C221.278 26.8376 223.061 25.2073 223.061 22.3019ZM231.316 22.126C231.316 29.3465 226.628 33.0893 219.08 33.0893H205.351V2.26843H213.438V12.0881H220.158C227.209 12.0881 231.316 15.3899 231.316 22.126Z" fill="#636878"/>
</g>
<path d="M255.521 9.18213H246.644V33.0874H238.556V9.18213H229.641V2.26807H255.521V9.18213Z" fill="#636878"/>
</svg>
