<svg width="315" height="106" viewBox="0 0 315 106" fill="none" xmlns="http://www.w3.org/2000/svg">
<g clip-path="url(#clip0_4879_16584)">
<path fill-rule="evenodd" clip-rule="evenodd" d="M96.3971 39.3594C97.1114 39.3588 97.8098 39.5733 98.4041 39.9759C98.9983 40.3784 99.4616 40.9509 99.7354 41.6208C100.009 42.2908 100.081 43.0281 99.9421 43.7396C99.8031 44.4511 99.4594 45.1047 98.9545 45.6178C98.4496 46.1309 97.8062 46.4804 97.1056 46.6222C96.4051 46.7639 95.6789 46.6915 95.0189 46.414C94.3589 46.1366 93.7948 45.6666 93.3978 45.0636C93.0009 44.4605 92.7891 43.7515 92.7891 43.0261C92.7891 42.0542 93.1691 41.122 93.8456 40.4344C94.5222 39.7469 95.4399 39.3602 96.3971 39.3594Z" fill="white"/>
<path fill-rule="evenodd" clip-rule="evenodd" d="M96.3971 58.6719C97.1114 58.6713 97.8098 58.8858 98.4041 59.2884C98.9983 59.6909 99.4616 60.2634 99.7354 60.9333C100.009 61.6033 100.081 62.3406 99.9421 63.0521C99.8031 63.7636 99.4594 64.4172 98.9545 64.9303C98.4496 65.4434 97.8062 65.7929 97.1056 65.9347C96.4051 66.0764 95.6789 66.004 95.0189 65.7265C94.3589 65.4491 93.7948 64.9791 93.3978 64.3761C93.0009 63.773 92.7891 63.064 92.7891 62.3386C92.7891 61.3667 93.1691 60.4345 93.8456 59.7469C94.5222 59.0594 95.4399 58.6727 96.3971 58.6719Z" fill="white"/>
<path fill-rule="evenodd" clip-rule="evenodd" d="M96.3971 49.0169C97.1118 49.0163 97.8106 49.2311 98.405 49.634C98.9994 50.037 99.4627 50.61 99.7362 51.2805C100.01 51.9509 100.081 52.6888 99.9414 53.4005C99.8017 54.1122 99.4571 54.7658 98.9513 55.2786C98.4455 55.7913 97.8013 56.1401 97.1002 56.2808C96.399 56.4215 95.6725 56.3478 95.0127 56.0689C94.3528 55.7901 93.7893 55.3187 93.3935 54.7145C92.9976 54.1102 92.7873 53.4003 92.7891 52.6745C92.7891 51.7026 93.1691 50.7704 93.8457 50.0828C94.5222 49.3953 95.4399 49.0086 96.3971 49.0078V49.0169Z" fill="white"/>
<path fill-rule="evenodd" clip-rule="evenodd" d="M88.3199 34.9171C88.9435 34.9165 89.5533 35.1038 90.072 35.4553C90.5907 35.8068 90.9951 36.3066 91.2338 36.8916C91.4726 37.4766 91.5351 38.1203 91.4133 38.7414C91.2916 39.3624 90.9912 39.9328 90.55 40.3804C90.1088 40.8279 89.5468 41.1325 88.9351 41.2555C88.3234 41.3785 87.6895 41.3145 87.1136 41.0714C86.5378 40.8284 86.0459 40.4174 85.7002 39.8903C85.3546 39.3633 85.1707 38.7439 85.1719 38.1107C85.1727 37.2632 85.5046 36.4505 86.0948 35.8512C86.685 35.2519 87.4853 34.9149 88.3199 34.9141V34.9171Z" fill="white"/>
<path fill-rule="evenodd" clip-rule="evenodd" d="M88.2965 64.0469C88.9198 64.0463 89.5294 64.2334 90.0479 64.5846C90.5665 64.9359 90.9709 65.4354 91.2098 66.02C91.4488 66.6046 91.5116 67.248 91.3904 67.8689C91.2691 68.4898 90.9692 69.0602 90.5287 69.508C90.0881 69.9558 89.5266 70.2608 88.9153 70.3845C88.304 70.5082 87.6703 70.445 87.0943 70.203C86.5184 69.9609 86.0261 69.5508 85.6797 69.0245C85.3333 68.4983 85.1484 67.8795 85.1484 67.2465C85.1484 66.3985 85.48 65.5851 86.0703 64.9851C86.6606 64.3851 87.4613 64.0477 88.2965 64.0469Z" fill="white"/>
<path fill-rule="evenodd" clip-rule="evenodd" d="M88.2965 54.3984C88.9198 54.3978 89.5294 54.585 90.0479 54.9362C90.5665 55.2874 90.9709 55.7869 91.2098 56.3716C91.4488 56.9562 91.5116 57.5996 91.3904 58.2205C91.2691 58.8414 90.9692 59.4118 90.5287 59.8596C90.0881 60.3073 89.5266 60.6124 88.9153 60.7361C88.304 60.8598 87.6703 60.7966 87.0943 60.5545C86.5184 60.3124 86.0261 59.9023 85.6797 59.3761C85.3333 58.8498 85.1484 58.2311 85.1484 57.5981C85.1484 56.75 85.48 55.9366 86.0703 55.3367C86.6606 54.7367 87.4613 54.3992 88.2965 54.3984Z" fill="white"/>
<path fill-rule="evenodd" clip-rule="evenodd" d="M88.2965 44.5625C88.92 44.5619 89.5296 44.7491 90.0483 45.1005C90.5669 45.4518 90.9712 45.9515 91.2101 46.5363C91.449 47.1211 91.5116 47.7647 91.3901 48.3857C91.2686 49.0066 90.9685 49.577 90.5276 50.0247C90.0868 50.4724 89.525 50.7771 88.9135 50.9005C88.302 51.0239 87.6681 50.9603 87.0922 50.7177C86.5163 50.4752 86.0243 50.0646 85.6782 49.5379C85.3322 49.0113 85.1478 48.3922 85.1484 47.7591C85.1484 46.9113 85.4801 46.0983 86.0705 45.4988C86.6609 44.8993 87.4616 44.5625 88.2965 44.5625Z" fill="white"/>
<path fill-rule="evenodd" clip-rule="evenodd" d="M80.2069 30.7578C80.7315 30.7578 81.2443 30.9158 81.6805 31.2117C82.1166 31.5076 82.4566 31.9282 82.6573 32.4204C82.8581 32.9125 82.9106 33.454 82.8082 33.9764C82.7059 34.4988 82.4533 34.9787 82.0824 35.3554C81.7115 35.732 81.2389 35.9885 80.7244 36.0924C80.2099 36.1964 79.6766 36.143 79.192 35.9392C78.7073 35.7353 78.2931 35.3901 78.0017 34.9473C77.7102 34.5044 77.5547 33.9837 77.5547 33.451C77.5547 32.7367 77.8341 32.0517 78.3315 31.5466C78.8289 31.0416 79.5035 30.7578 80.2069 30.7578Z" fill="white"/>
<path fill-rule="evenodd" clip-rule="evenodd" d="M80.2069 69.2109C80.7316 69.2109 81.2445 69.369 81.6808 69.665C82.117 69.9611 82.4569 70.3819 82.6576 70.8742C82.8583 71.3665 82.9106 71.9081 82.808 72.4307C82.7054 72.9532 82.4525 73.433 82.0813 73.8096C81.7101 74.1861 81.2372 74.4424 80.7225 74.5459C80.2079 74.6495 79.6745 74.5957 79.1899 74.3914C78.7053 74.1871 78.2913 73.8415 78.0002 73.3982C77.7092 72.9549 77.5541 72.4339 77.5547 71.9011C77.5547 71.5476 77.6233 71.1975 77.7566 70.8709C77.89 70.5443 78.0854 70.2476 78.3317 69.9978C78.578 69.7479 78.8704 69.5499 79.1922 69.4148C79.514 69.2798 79.8588 69.2105 80.2069 69.2109Z" fill="white"/>
<path fill-rule="evenodd" clip-rule="evenodd" d="M80.2069 59.5703C80.7308 59.5709 81.2427 59.7292 81.678 60.0252C82.1133 60.3211 82.4524 60.7415 82.6524 61.2331C82.8525 61.7247 82.9045 62.2655 82.802 62.7872C82.6994 63.3088 82.4468 63.7878 82.0762 64.1638C81.7056 64.5397 81.2335 64.7956 80.7197 64.8992C80.2059 65.0027 79.6734 64.9493 79.1894 64.7456C78.7055 64.5419 78.2919 64.197 78.001 63.7547C77.71 63.3124 77.5547 62.7924 77.5547 62.2605C77.5547 61.907 77.6233 61.5569 77.7566 61.2303C77.89 60.9037 78.0854 60.607 78.3317 60.3572C78.578 60.1073 78.8704 59.9092 79.1922 59.7742C79.514 59.6392 79.8588 59.5699 80.2069 59.5703Z" fill="white"/>
<path fill-rule="evenodd" clip-rule="evenodd" d="M80.2069 49.9688C80.7315 49.9688 81.2443 50.1267 81.6805 50.4226C82.1166 50.7186 82.4566 51.1392 82.6573 51.6313C82.8581 52.1234 82.9106 52.6649 82.8082 53.1873C82.7059 53.7098 82.4533 54.1897 82.0824 54.5663C81.7115 54.943 81.2389 55.1995 80.7244 55.3034C80.2099 55.4073 79.6766 55.354 79.192 55.1501C78.7073 54.9463 78.2931 54.6011 78.0017 54.1582C77.7102 53.7153 77.5547 53.1946 77.5547 52.6619C77.5543 52.3082 77.6226 51.9578 77.7558 51.6308C77.8889 51.3039 78.0843 51.0068 78.3306 50.7567C78.577 50.5065 78.8695 50.3082 79.1915 50.1729C79.5135 50.0377 79.8585 49.9684 80.2069 49.9688Z" fill="white"/>
<path fill-rule="evenodd" clip-rule="evenodd" d="M80.2069 40.3672C80.7308 40.3678 81.2427 40.5261 81.678 40.822C82.1133 41.118 82.4524 41.5383 82.6524 42.03C82.8525 42.5216 82.9045 43.0624 82.802 43.584C82.6994 44.1057 82.4468 44.5847 82.0762 44.9606C81.7056 45.3366 81.2335 45.5925 80.7197 45.696C80.2059 45.7996 79.6734 45.7461 79.1894 45.5424C78.7055 45.3387 78.2919 44.9939 78.001 44.5516C77.71 44.1093 77.5547 43.5893 77.5547 43.0573C77.5547 42.7038 77.6233 42.3537 77.7566 42.0272C77.89 41.7006 78.0854 41.4039 78.3317 41.154C78.578 40.9042 78.8704 40.7061 79.1922 40.5711C79.514 40.4361 79.8588 40.3668 80.2069 40.3672Z" fill="white"/>
<path fill-rule="evenodd" clip-rule="evenodd" d="M72.0167 35.9063C72.4728 35.9063 72.9186 36.0436 73.2978 36.3008C73.6769 36.5581 73.9725 36.9238 74.147 37.3516C74.3215 37.7794 74.3672 38.2502 74.2782 38.7044C74.1892 39.1586 73.9696 39.5758 73.6472 39.9032C73.3247 40.2307 72.9138 40.4537 72.4666 40.544C72.0193 40.6343 71.5557 40.588 71.1343 40.4108C70.713 40.2336 70.3529 39.9335 70.0995 39.5484C69.8462 39.1634 69.7109 38.7107 69.7109 38.2476C69.7105 37.94 69.7699 37.6354 69.8857 37.3511C70.0014 37.0669 70.1712 36.8086 70.3854 36.5911C70.5996 36.3736 70.8539 36.2012 71.1339 36.0837C71.4138 35.9661 71.7138 35.9059 72.0167 35.9063Z" fill="white"/>
<path fill-rule="evenodd" clip-rule="evenodd" d="M72.0167 64.7734C72.4728 64.7734 72.9186 64.9107 73.2978 65.168C73.6769 65.4253 73.9725 65.791 74.147 66.2188C74.3215 66.6466 74.3672 67.1174 74.2782 67.5716C74.1892 68.0258 73.9696 68.443 73.6472 68.7704C73.3247 69.0978 72.9138 69.3208 72.4666 69.4112C72.0193 69.5015 71.5557 69.4552 71.1343 69.278C70.713 69.1007 70.3529 68.8006 70.0995 68.4156C69.8462 68.0306 69.7109 67.5779 69.7109 67.1148C69.7109 66.4938 69.9539 65.8983 70.3863 65.4592C70.8187 65.0201 71.4052 64.7734 72.0167 64.7734Z" fill="white"/>
<path fill-rule="evenodd" clip-rule="evenodd" d="M72.0167 55.25C72.4728 55.25 72.9186 55.3873 73.2978 55.6446C73.6769 55.9019 73.9725 56.2675 74.147 56.6954C74.3215 57.1232 74.3672 57.594 74.2782 58.0482C74.1892 58.5023 73.9696 58.9195 73.6472 59.247C73.3247 59.5744 72.9138 59.7974 72.4666 59.8878C72.0193 59.9781 71.5557 59.9317 71.1343 59.7545C70.713 59.5773 70.3529 59.2772 70.0995 58.8922C69.8462 58.5071 69.7109 58.0545 69.7109 57.5914C69.7109 56.9704 69.9539 56.3749 70.3863 55.9358C70.8187 55.4967 71.4052 55.25 72.0167 55.25Z" fill="white"/>
<path fill-rule="evenodd" clip-rule="evenodd" d="M72.0167 45.4219C72.4729 45.4219 72.9188 45.5593 73.2981 45.8167C73.6773 46.0741 73.9729 46.4399 74.1473 46.8679C74.3217 47.296 74.3672 47.7669 74.278 48.2211C74.1888 48.6754 73.9689 49.0926 73.6461 49.4199C73.3233 49.7472 72.9122 49.97 72.4647 50.06C72.0173 50.15 71.5535 50.1032 71.1323 49.9255C70.711 49.7478 70.3511 49.4473 70.0981 49.0618C69.8451 48.6764 69.7103 48.2234 69.7109 47.7602C69.7109 47.4529 69.7706 47.1486 69.8865 46.8647C70.0024 46.5808 70.1723 46.3229 70.3865 46.1057C70.6006 45.8885 70.8548 45.7163 71.1346 45.599C71.4143 45.4817 71.7141 45.4215 72.0167 45.4219Z" fill="white"/>
<path fill-rule="evenodd" clip-rule="evenodd" d="M63.8111 41.0391C64.191 41.0391 64.5623 41.1534 64.8781 41.3677C65.1939 41.582 65.4401 41.8866 65.5854 42.2429C65.7308 42.5992 65.7688 42.9914 65.6947 43.3696C65.6206 43.7479 65.4377 44.0954 65.1691 44.3681C64.9005 44.6409 64.5583 44.8266 64.1858 44.9019C63.8133 44.9771 63.4271 44.9385 63.0762 44.7909C62.7253 44.6433 62.4253 44.3933 62.2143 44.0726C62.0033 43.7519 61.8906 43.3749 61.8906 42.9892C61.8906 42.472 62.093 41.976 62.4531 41.6102C62.8133 41.2445 63.3018 41.0391 63.8111 41.0391Z" fill="white"/>
<path fill-rule="evenodd" clip-rule="evenodd" d="M63.8111 60.3906C64.191 60.3906 64.5623 60.505 64.8781 60.7193C65.1939 60.9336 65.4401 61.2381 65.5854 61.5945C65.7308 61.9508 65.7688 62.3429 65.6947 62.7212C65.6206 63.0995 65.4377 63.447 65.1691 63.7197C64.9005 63.9924 64.5583 64.1782 64.1858 64.2534C63.8133 64.3287 63.4271 64.29 63.0762 64.1424C62.7253 63.9948 62.4253 63.7449 62.2143 63.4242C62.0033 63.1035 61.8906 62.7265 61.8906 62.3408C61.8906 61.8235 62.093 61.3275 62.4531 60.9618C62.8133 60.5961 63.3018 60.3906 63.8111 60.3906Z" fill="white"/>
<path fill-rule="evenodd" clip-rule="evenodd" d="M63.8111 50.7266C64.191 50.7266 64.5623 50.8409 64.8781 51.0552C65.1939 51.2695 65.4401 51.5741 65.5854 51.9304C65.7308 52.2867 65.7688 52.6789 65.6947 53.0571C65.6206 53.4354 65.4377 53.7829 65.1691 54.0556C64.9005 54.3284 64.5583 54.5141 64.1858 54.5894C63.8133 54.6646 63.4271 54.626 63.0762 54.4784C62.7253 54.3308 62.4253 54.0808 62.2143 53.7601C62.0033 53.4394 61.8906 53.0624 61.8906 52.6767C61.8906 52.1595 62.093 51.6635 62.4531 51.2977C62.8133 50.932 63.3018 50.7266 63.8111 50.7266Z" fill="white"/>
<path fill-rule="evenodd" clip-rule="evenodd" d="M195.581 40.2422C196.812 40.2422 198.039 40.2422 199.27 40.2422C199.246 48.7099 199.246 57.1787 199.27 65.6485C198.039 65.6333 196.809 65.6485 195.578 65.6485C195.596 57.1828 195.596 48.718 195.578 40.2543L195.581 40.2422Z" fill="white"/>
<path fill-rule="evenodd" clip-rule="evenodd" d="M184.046 52.3341C183.039 52.5814 182.142 53.1618 181.495 53.9839C179.858 56.0281 179.9 59.2915 181.68 61.2355C182.182 61.8173 182.821 62.2592 183.538 62.5194C184.255 62.7795 185.025 62.8492 185.776 62.7219C186.527 62.5946 187.233 62.2744 187.828 61.7919C188.423 61.3093 188.886 60.6803 189.174 59.9648C190.07 57.869 189.772 55.1789 188.15 53.5199C187.626 52.9778 186.972 52.5835 186.252 52.3756C185.533 52.1677 184.773 52.1534 184.046 52.3341ZM180.692 50.023C182.642 48.7886 185.172 48.3883 187.322 49.3406C188.123 49.6439 188.759 50.2505 189.398 50.8085C189.416 50.3233 189.416 49.838 189.416 49.3497H192.955C192.955 54.4753 192.955 59.5998 192.955 64.7233C192.955 66.8463 192.6 69.0482 191.39 70.8164C190.305 72.3783 188.656 73.4421 186.803 73.7764C185.053 74.1545 183.231 73.9918 181.573 73.3094C179.635 72.4331 178.095 70.8462 177.26 68.8662C178.329 68.387 179.419 67.9564 180.489 67.4802C181.086 68.8359 182.206 70.0309 183.664 70.4191C185.306 70.8073 187.275 70.4433 188.365 69.0361C189.455 67.6288 189.47 65.803 189.392 64.1289C188.583 65.0064 187.549 65.6367 186.405 65.9486C183.831 66.6098 181.029 65.6453 179.177 63.7589C178.246 62.8231 177.535 61.6852 177.098 60.4306C176.661 59.176 176.51 57.8373 176.655 56.5148C176.801 55.1923 177.239 53.9204 177.938 52.7945C178.636 51.6686 179.577 50.718 180.689 50.0139L180.692 50.023Z" fill="white"/>
<path fill-rule="evenodd" clip-rule="evenodd" d="M146.716 52.3236C145.513 52.5934 144.459 53.3246 143.774 54.3647C142.418 56.427 142.579 59.4478 144.285 61.2675C144.834 61.8606 145.523 62.3017 146.287 62.549C147.052 62.7963 147.865 62.8416 148.651 62.6808C149.609 62.482 150.484 61.9898 151.157 61.2705C153.102 59.196 153.051 55.5384 151.005 53.5519C150.444 53.0058 149.759 52.6082 149.011 52.394C148.263 52.1798 147.475 52.1556 146.716 52.3236ZM146.82 48.8631C148.222 48.7104 149.638 48.9046 150.95 49.4291C152.261 49.9536 153.428 50.7927 154.35 51.8747C156.805 54.7984 156.975 59.3871 154.792 62.514C154.084 63.5303 153.167 64.3788 152.105 65.0013C151.043 65.6237 149.86 66.0054 148.639 66.1201C146.353 66.371 144.062 65.6988 142.26 64.2488C141.346 63.4744 140.599 62.5178 140.065 61.4382C139.531 60.3586 139.221 59.1791 139.154 57.9727C139.088 56.7664 139.266 55.5591 139.678 54.4256C140.09 53.2921 140.726 52.2566 141.549 51.3834C142.964 49.9465 144.828 49.0553 146.82 48.8631Z" fill="white"/>
<path fill-rule="evenodd" clip-rule="evenodd" d="M205.745 54.0662C205.091 54.9911 204.764 56.1132 204.816 57.2507C207.385 56.1771 209.95 55.0953 212.51 54.0055C212.251 53.4832 211.86 53.0397 211.378 52.7201C210.895 52.4006 210.338 52.2162 209.763 52.1858C208.99 52.1244 208.214 52.2659 207.51 52.5968C206.807 52.9277 206.199 53.4369 205.745 54.0753V54.0662ZM203.392 51.3366C204.376 50.2738 205.628 49.504 207.012 49.1102C208.395 48.7163 209.859 48.7132 211.244 49.1014C213.167 49.6473 214.753 51.0819 215.751 52.8136C216.226 53.584 216.501 54.4514 216.868 55.2763C213.078 56.9292 209.249 58.4942 205.441 60.1046C205.901 61.153 206.734 61.9861 207.773 62.4369C208.56 62.7511 209.412 62.8544 210.249 62.737C211.086 62.6196 211.879 62.2854 212.552 61.7666C213.037 61.3624 213.467 60.8943 213.831 60.3746C214.786 61.0297 215.751 61.6787 216.71 62.3338C215.98 63.4249 215.016 64.3339 213.891 64.9925C212.766 65.6511 211.508 66.0423 210.213 66.1365C208.917 66.2308 207.618 66.0258 206.411 65.5368C205.205 65.0479 204.124 64.2877 203.248 63.3134C200.36 60.0349 200.447 54.5424 203.401 51.3366H203.392Z" fill="white"/>
<path fill-rule="evenodd" clip-rule="evenodd" d="M165.447 52.3335C164.517 52.544 163.671 53.0357 163.022 53.7438C161.146 55.7667 161.164 59.2788 163.049 61.2926C163.496 61.7727 164.036 62.1533 164.636 62.4105C165.235 62.6676 165.881 62.7957 166.531 62.7866C167.182 62.7775 167.824 62.6313 168.416 62.3575C169.008 62.0836 169.538 61.688 169.972 61.1955C171.836 59.1089 171.764 55.515 169.739 53.5588C169.177 53.0135 168.491 52.6175 167.743 52.4059C166.994 52.1943 166.205 52.1736 165.447 52.3456V52.3335ZM165.232 48.9245C166.586 48.7193 167.969 48.8428 169.267 49.2852C170.565 49.7275 171.741 50.4759 172.699 51.4691C175.512 54.3807 175.787 59.3546 173.422 62.627C172.715 63.6116 171.81 64.4319 170.766 65.0333C169.723 65.6347 168.565 66.0034 167.371 66.1148C165.145 66.3575 162.913 65.721 161.137 64.3376C159.811 63.2911 158.819 61.8701 158.285 60.2531C157.752 58.6361 157.701 56.8951 158.138 55.2486C158.575 53.6021 159.482 52.1235 160.744 50.9984C162.006 49.8733 163.568 49.1518 165.232 48.9245Z" fill="white"/>
<path fill-rule="evenodd" clip-rule="evenodd" d="M116.047 43.1283C117.347 41.8383 118.89 40.8278 120.583 40.1571C122.277 39.4865 124.086 39.1694 125.903 39.225C129.169 39.2644 132.293 40.5899 134.615 42.922C133.761 43.7672 132.918 44.6235 132.086 45.4909C130.237 43.7346 127.78 42.7914 125.249 42.867C122.719 42.9425 120.32 44.0307 118.576 45.8942C117.601 46.9636 116.868 48.2374 116.429 49.6257C115.991 51.0141 115.859 52.4832 116.041 53.9293C116.223 55.3755 116.715 56.7635 117.483 57.9953C118.251 59.2272 119.276 60.2728 120.485 61.0586C122.683 62.4688 125.44 62.7964 127.952 62.2353C129.729 61.8266 131.333 60.8573 132.534 59.4663C133.555 58.2532 134.027 56.6912 134.221 55.1414C131.327 55.1414 128.433 55.1414 125.539 55.1414C125.539 53.9283 125.539 52.6939 125.539 51.4686H137.728C138.238 54.544 137.772 57.8528 136.189 60.5672C135.363 61.8935 134.287 63.0414 133.023 63.9453C131.759 64.8493 130.332 65.4915 128.824 65.8353C126.194 66.4402 123.449 66.2772 120.906 65.3652C117.587 64.1398 114.865 61.6543 113.314 58.4321C112.084 55.8601 111.715 52.9508 112.262 50.1463C112.793 47.4747 114.113 45.0308 116.047 43.1404V43.1283Z" fill="white"/>
<path fill-rule="evenodd" clip-rule="evenodd" d="M249.391 41.2578H252.443V65.7937H249.391V41.2578Z" fill="white"/>
<path fill-rule="evenodd" clip-rule="evenodd" d="M231.887 56.134H239.652L235.769 45.4492L231.887 56.134ZM237.63 41.2578L246.59 65.7967H243.156L240.766 59.2275H230.764L228.374 65.7967H224.945L233.906 41.2578H237.63Z" fill="white"/>
</g>
<defs>
<clipPath id="clip0_4879_16584">
<rect width="190.556" height="43.8279" fill="white" transform="translate(61.8906 30.7578)"/>
</clipPath>
</defs>
</svg>
