<svg width="34" height="31" viewBox="0 0 34 31" fill="none" xmlns="http://www.w3.org/2000/svg">
<g clip-path="url(#clip0_2004_3)">
<path d="M5.38735 1.42076C12.5899 -0.473587 20.1699 -0.473587 27.3725 1.42076C29.7903 2.05653 31.637 4.00885 32.1169 6.43662C32.9674 10.739 32.9674 15.164 32.1169 19.4664C31.6371 21.8942 29.7904 23.8465 27.3725 24.4829C27.1899 24.5309 27.0069 24.5778 26.8236 24.6234C26.4611 24.7135 26.205 25.0385 26.205 25.4085V30.5513C26.205 30.6772 26.1308 30.7918 26.0154 30.8449C25.9 30.8979 25.7634 30.88 25.6663 30.7986L20.3618 26.3698C19.9148 25.9968 19.3397 25.8062 18.7554 25.8383C14.255 26.0862 9.74321 25.6286 5.38735 24.4829C2.96942 23.8465 1.1228 21.8942 0.64293 19.4664C-0.207474 15.164 -0.207474 10.739 0.64293 6.43662C1.12292 4.00885 2.96955 2.05653 5.38735 1.42076ZM19.3275 19.4276C19.5072 19.4276 19.655 19.2814 19.655 19.1038V12.9515H25.8775C26.0571 12.9515 26.205 12.8054 26.205 12.6278V6.79918C26.205 6.62162 26.0571 6.47543 25.8775 6.47543H6.88269C6.70301 6.47543 6.55524 6.62162 6.55524 6.79918V12.6278C6.55524 12.8054 6.70301 12.9515 6.88269 12.9515H13.1052V19.1038C13.1052 19.2814 13.253 19.4276 13.4326 19.4276H19.3275Z" fill="black"/>
<path d="M26.601 2.95114H6.20435V23.0505H26.601V2.95114Z" fill="white"/>
<path fill-rule="evenodd" clip-rule="evenodd" d="M23.9427 6.44878C23.9427 5.96618 23.5457 5.57493 23.0559 5.57493H9.75376C9.26396 5.57493 8.86694 5.96618 8.86694 6.44878V9.50742C8.86694 9.99002 9.26396 10.3813 9.75376 10.3813H12.8601C13.3498 10.3813 13.7469 10.7725 13.7469 11.2552V19.5528C13.7469 20.0354 14.1439 20.4266 14.6337 20.4266H18.1809C18.6707 20.4266 19.0677 20.0354 19.0677 19.5528V11.2552C19.0677 10.7725 19.4647 10.3813 19.9545 10.3813H23.0559C23.5457 10.3813 23.9427 9.99002 23.9427 9.50742V6.44878Z" fill="black"/>
<path d="M5.29419 1.39617C12.3721 -0.465389 19.8208 -0.465389 26.8987 1.39617C29.2748 2.02093 31.0895 3.93945 31.5612 6.32522C32.3968 10.5531 32.3968 14.9016 31.5612 19.1295C31.0896 21.5152 29.2748 23.4337 26.8987 24.0591C26.7193 24.1063 26.5395 24.1524 26.3594 24.1972C26.0032 24.2857 25.7515 24.605 25.7515 24.9687V30.0225C25.7515 30.1461 25.6785 30.2588 25.5652 30.3109C25.4518 30.363 25.3176 30.3455 25.222 30.2655L20.0095 25.9134C19.5701 25.5467 19.005 25.3595 18.4309 25.391C14.0084 25.6346 9.57466 25.185 5.29419 24.0591C2.91811 23.4337 1.10345 21.5152 0.63189 19.1295C-0.203794 14.9016 -0.203794 10.5531 0.63189 6.32522C1.10357 3.93945 2.91824 2.02093 5.29419 1.39617ZM18.9931 19.0913C19.1697 19.0913 19.3149 18.9477 19.3149 18.7731V12.7273H25.4297C25.6062 12.7273 25.7515 12.5837 25.7515 12.4092V6.68148C25.7515 6.507 25.6062 6.36334 25.4297 6.36334H6.76369C6.58708 6.36334 6.44181 6.507 6.44181 6.68148V12.4092C6.44181 12.5837 6.58708 12.7273 6.76369 12.7273H12.8784V18.7731C12.8784 18.9477 13.0236 19.0913 13.2002 19.0913H18.9931Z" fill="white"/>
<path fill-rule="evenodd" clip-rule="evenodd" d="M23.9427 6.44632C23.9427 5.96371 23.5457 5.57246 23.0559 5.57246H9.75376C9.26396 5.57246 8.86694 5.96371 8.86694 6.44632V9.50496C8.86694 9.98756 9.26396 10.3789 9.75376 10.3789H23.0559C23.5457 10.3789 23.9427 9.98756 23.9427 9.50496V6.44632ZM18.1809 20.4291C18.6707 20.4291 19.0677 20.0379 19.0677 19.5552V11.2533C19.0677 10.7707 18.6707 10.3795 18.1809 10.3795H14.6337C14.1439 10.3795 13.7469 10.7707 13.7469 11.2533V19.5552C13.7469 20.0379 14.1439 20.4291 14.6337 20.4291H18.1809Z" fill="black"/>
</g>
<defs>
<clipPath id="clip0_2004_3">
<rect width="33.25" height="30.875" fill="white"/>
</clipPath>
</defs>
</svg>
