<svg width="57" height="57" viewBox="0 0 57 57" fill="none" xmlns="http://www.w3.org/2000/svg">
<circle cx="28.4693" cy="28.4692" r="21.2225" fill="white"/>
<path d="M39.8104 16.9148C39.8109 16.9153 39.8116 16.9156 39.8123 16.9156C39.8235 16.9156 39.838 16.9156 39.8525 16.9156C40.2446 16.9156 40.6086 17.0375 40.907 17.2477L40.9014 17.2439C41.119 17.4335 41.2654 17.6999 41.301 18.0001C41.301 18.0039 41.3013 18.0076 41.3019 18.0113C41.3389 18.2389 41.3592 18.4995 41.3592 18.7657C41.3592 18.8877 41.3555 19.0077 41.3461 19.1278V19.1109C40.9239 23.5561 39.0925 34.3359 38.1618 39.3121C37.7678 41.4192 36.9929 42.1248 36.2423 42.1923C34.6117 42.3443 33.3733 41.1153 31.7934 40.0795C29.3203 38.4564 27.9224 37.4469 25.5225 35.8652C22.7474 34.0394 24.5468 33.0318 26.1267 31.3919C26.5414 30.9603 33.7298 24.4211 33.8706 23.8282C33.8781 23.7925 33.8818 23.7531 33.8818 23.7118C33.8818 23.6952 33.8811 23.6787 33.8797 23.6624C33.8593 23.4204 33.635 23.2315 33.3921 23.2315C33.3076 23.2315 33.227 23.2484 33.1519 23.2765C33.1524 23.2762 33.1534 23.2752 33.1528 23.2753C32.8794 23.3498 28.93 25.9602 21.3044 31.1067C20.4694 31.7653 19.4149 32.1818 18.2666 32.2306H18.2553C16.6285 32.0336 15.1518 31.6714 13.7501 31.1554L13.889 31.2005C12.1289 30.6263 10.731 30.3242 10.8511 29.3522C10.9149 28.8469 11.6117 28.3296 12.9414 27.8005C21.1324 24.2316 26.5946 21.8792 29.3278 20.7434C32.3432 19.1428 35.8389 17.8256 39.5147 16.9719L39.8078 16.914C39.8088 16.9138 39.8097 16.9141 39.8104 16.9148ZM28.1926 0C12.6149 0.0375276 0 12.675 0 28.2583C0 43.8642 12.6506 56.5166 28.2583 56.5166C43.8661 56.5166 56.5166 43.866 56.5166 28.2583C56.5166 12.675 43.9017 0.0375276 28.3277 0H28.324C28.2802 0 28.2364 0 28.1926 0Z" fill="black"/>
</svg>
