<svg width="183" height="61" viewBox="0 0 183 61" fill="none" xmlns="http://www.w3.org/2000/svg">
<g opacity="0.4">
<g clip-path="url(#clip0_4735_23468)">
<path fill-rule="evenodd" clip-rule="evenodd" d="M55.8159 22.7852C56.2296 22.7848 56.634 22.909 56.9781 23.1422C57.3222 23.3753 57.5905 23.7068 57.749 24.0947C57.9076 24.4827 57.9492 24.9097 57.8687 25.3217C57.7883 25.7337 57.5892 26.1122 57.2969 26.4093C57.0045 26.7064 56.6319 26.9088 56.2262 26.9909C55.8205 27.073 55.4 27.031 55.0178 26.8704C54.6356 26.7097 54.3089 26.4376 54.0791 26.0883C53.8492 25.7391 53.7266 25.3285 53.7266 24.9085C53.7266 24.3457 53.9466 23.8058 54.3384 23.4077C54.7302 23.0095 55.2616 22.7856 55.8159 22.7852Z" fill="white"/>
<path fill-rule="evenodd" clip-rule="evenodd" d="M55.8159 33.9766C56.2296 33.9762 56.634 34.1005 56.9781 34.3336C57.3222 34.5667 57.5905 34.8982 57.749 35.2861C57.9076 35.6741 57.9492 36.1011 57.8687 36.5131C57.7883 36.9251 57.5892 37.3036 57.2969 37.6007C57.0045 37.8978 56.6319 38.1002 56.2262 38.1823C55.8205 38.2644 55.4 38.2224 55.0178 38.0618C54.6356 37.9011 54.3089 37.629 54.0791 37.2798C53.8492 36.9305 53.7266 36.5199 53.7266 36.0999C53.7266 35.5371 53.9466 34.9973 54.3384 34.5991C54.7302 34.2009 55.2616 33.977 55.8159 33.9766Z" fill="white"/>
<path fill-rule="evenodd" clip-rule="evenodd" d="M55.8159 28.3803C56.2298 28.3799 56.6344 28.5043 56.9787 28.7376C57.3229 28.971 57.5912 29.3028 57.7495 29.691C57.9079 30.0793 57.9493 30.5066 57.8684 30.9187C57.7875 31.3309 57.5879 31.7094 57.295 32.0063C57.0021 32.3032 56.6291 32.5052 56.223 32.5867C55.817 32.6681 55.3963 32.6254 55.0142 32.464C54.6321 32.3025 54.3058 32.0295 54.0766 31.6796C53.8474 31.3297 53.7255 30.9186 53.7266 30.4983C53.7266 29.9355 53.9466 29.3957 54.3384 28.9975C54.7302 28.5994 55.2616 28.3755 55.8159 28.375V28.3803Z" fill="white"/>
<path fill-rule="evenodd" clip-rule="evenodd" d="M51.1355 20.2205C51.4966 20.2202 51.8497 20.3286 52.1501 20.5322C52.4505 20.7357 52.6846 21.0252 52.8229 21.3639C52.9611 21.7027 52.9973 22.0754 52.9268 22.4351C52.8563 22.7947 52.6823 23.125 52.4269 23.3842C52.1714 23.6434 51.846 23.8197 51.4917 23.891C51.1375 23.9622 50.7704 23.9251 50.4369 23.7844C50.1035 23.6436 49.8186 23.4056 49.6185 23.1004C49.4183 22.7952 49.3118 22.4366 49.3125 22.0699C49.313 21.5791 49.5052 21.1085 49.847 20.7614C50.1887 20.4144 50.6521 20.2192 51.1355 20.2188V20.2205Z" fill="white"/>
<path fill-rule="evenodd" clip-rule="evenodd" d="M51.1277 37.0859C51.4886 37.0856 51.8416 37.194 52.1419 37.3973C52.4422 37.6007 52.6763 37.89 52.8147 38.2285C52.9531 38.5671 52.9895 38.9397 52.9193 39.2992C52.8491 39.6587 52.6754 39.9891 52.4203 40.2484C52.1652 40.5077 51.84 40.6843 51.486 40.756C51.132 40.8276 50.765 40.791 50.4315 40.6508C50.098 40.5106 49.8129 40.2731 49.6123 39.9684C49.4117 39.6637 49.3047 39.3054 49.3047 38.9388C49.3047 38.4477 49.4967 37.9767 49.8385 37.6293C50.1803 37.2818 50.644 37.0864 51.1277 37.0859Z" fill="white"/>
<path fill-rule="evenodd" clip-rule="evenodd" d="M51.1277 31.4961C51.4886 31.4957 51.8416 31.6041 52.1419 31.8075C52.4422 32.0109 52.6763 32.3002 52.8147 32.6387C52.9531 32.9772 52.9895 33.3498 52.9193 33.7094C52.8491 34.0689 52.6754 34.3992 52.4203 34.6585C52.1652 34.9178 51.84 35.0945 51.486 35.1661C51.132 35.2377 50.765 35.2012 50.4315 35.061C50.098 34.9208 49.8129 34.6833 49.6123 34.3785C49.4117 34.0738 49.3047 33.7155 49.3047 33.349C49.3047 32.8579 49.4967 32.3868 49.8385 32.0394C50.1803 31.692 50.644 31.4966 51.1277 31.4961Z" fill="white"/>
<path fill-rule="evenodd" clip-rule="evenodd" d="M51.1277 25.8008C51.4887 25.8004 51.8417 25.9089 52.1421 26.1123C52.4424 26.3158 52.6766 26.6051 52.8149 26.9438C52.9532 27.2824 52.9895 27.6551 52.9191 28.0147C52.8488 28.3743 52.675 28.7046 52.4197 28.9638C52.1644 29.2231 51.8391 29.3996 51.485 29.471C51.1308 29.5425 50.7638 29.5056 50.4303 29.3652C50.0968 29.2247 49.8119 28.9869 49.6115 28.682C49.4111 28.377 49.3043 28.0185 49.3047 27.6519C49.3047 27.161 49.4968 26.6901 49.8386 26.343C50.1805 25.9958 50.6442 25.8008 51.1277 25.8008Z" fill="white"/>
<path fill-rule="evenodd" clip-rule="evenodd" d="M46.4421 17.8086C46.7459 17.8086 47.0428 17.9001 47.2954 18.0714C47.548 18.2428 47.7448 18.4864 47.8611 18.7713C47.9773 19.0563 48.0078 19.3699 47.9485 19.6724C47.8892 19.975 47.743 20.2528 47.5282 20.471C47.3134 20.6891 47.0397 20.8376 46.7418 20.8978C46.4438 20.958 46.135 20.9271 45.8544 20.809C45.5737 20.691 45.3339 20.4911 45.1651 20.2346C44.9963 19.9782 44.9062 19.6766 44.9062 19.3682C44.9062 18.9545 45.0681 18.5579 45.3561 18.2654C45.6441 17.9729 46.0348 17.8086 46.4421 17.8086Z" fill="white"/>
<path fill-rule="evenodd" clip-rule="evenodd" d="M46.4421 40.0742C46.746 40.0742 47.043 40.1657 47.2956 40.3372C47.5482 40.5086 47.7451 40.7523 47.8613 41.0374C47.9775 41.3225 48.0078 41.6361 47.9484 41.9387C47.889 42.2413 47.7425 42.5192 47.5275 42.7372C47.3126 42.9552 47.0387 43.1036 46.7407 43.1636C46.4427 43.2236 46.1338 43.1925 45.8532 43.0742C45.5726 42.9558 45.3328 42.7557 45.1643 42.499C44.9957 42.2423 44.9059 41.9406 44.9063 41.632C44.9063 41.4273 44.946 41.2246 45.0232 41.0355C45.1004 40.8464 45.2136 40.6746 45.3562 40.5299C45.4988 40.3852 45.6682 40.2705 45.8545 40.1923C46.0408 40.1141 46.2405 40.074 46.4421 40.0742Z" fill="white"/>
<path fill-rule="evenodd" clip-rule="evenodd" d="M46.4421 34.4883C46.7455 34.4886 47.0419 34.5803 47.294 34.7517C47.546 34.9231 47.7424 35.1665 47.8583 35.4512C47.9741 35.7359 48.0042 36.049 47.9449 36.3511C47.8855 36.6532 47.7392 36.9306 47.5246 37.1483C47.31 37.366 47.0366 37.5142 46.7391 37.5741C46.4415 37.6341 46.1331 37.6031 45.8529 37.4852C45.5727 37.3672 45.3332 37.1675 45.1647 36.9114C44.9962 36.6553 44.9063 36.3541 44.9063 36.0461C44.9062 35.8414 44.946 35.6387 45.0232 35.4496C45.1004 35.2604 45.2136 35.0886 45.3562 34.9439C45.4988 34.7993 45.6682 34.6846 45.8545 34.6064C46.0408 34.5282 46.2405 34.4881 46.4421 34.4883Z" fill="white"/>
<path fill-rule="evenodd" clip-rule="evenodd" d="M46.4421 28.9336C46.7459 28.9336 47.0428 29.0251 47.2954 29.1964C47.548 29.3678 47.7448 29.6114 47.8611 29.8963C47.9773 30.1813 48.0078 30.4949 47.9485 30.7974C47.8892 31.1 47.743 31.3778 47.5282 31.596C47.3134 31.8141 47.0397 31.9626 46.7418 32.0228C46.4438 32.083 46.135 32.0521 45.8544 31.934C45.5737 31.816 45.3339 31.6161 45.1651 31.3596C44.9963 31.1032 44.9063 30.8016 44.9063 30.4932C44.906 30.2883 44.9456 30.0854 45.0227 29.8961C45.0998 29.7068 45.2129 29.5347 45.3556 29.3899C45.4983 29.245 45.6677 29.1301 45.8541 29.0518C46.0405 28.9735 46.2404 28.9334 46.4421 28.9336Z" fill="white"/>
<path fill-rule="evenodd" clip-rule="evenodd" d="M46.4421 23.3672C46.7455 23.3675 47.0419 23.4592 47.294 23.6306C47.546 23.802 47.7424 24.0454 47.8583 24.3301C47.9741 24.6148 48.0042 24.9279 47.9449 25.23C47.8855 25.5321 47.7392 25.8095 47.5246 26.0272C47.31 26.2449 47.0366 26.3931 46.7391 26.453C46.4415 26.513 46.1331 26.482 45.8529 26.3641C45.5727 26.2461 45.3332 26.0464 45.1647 25.7903C44.9962 25.5342 44.9063 25.233 44.9063 24.925C44.9062 24.7203 44.946 24.5176 45.0232 24.3285C45.1004 24.1393 45.2136 23.9675 45.3562 23.8228C45.4988 23.6782 45.6682 23.5635 45.8545 23.4853C46.0408 23.4071 46.2405 23.367 46.4421 23.3672Z" fill="white"/>
<path fill-rule="evenodd" clip-rule="evenodd" d="M41.6946 20.7813C41.9587 20.7813 42.2169 20.8608 42.4364 21.0098C42.656 21.1587 42.8272 21.3705 42.9282 21.6182C43.0293 21.866 43.0557 22.1386 43.0042 22.4016C42.9527 22.6646 42.8255 22.9062 42.6388 23.0958C42.452 23.2854 42.2141 23.4146 41.9551 23.4669C41.6961 23.5192 41.4276 23.4924 41.1836 23.3897C40.9397 23.2871 40.7311 23.1133 40.5844 22.8904C40.4377 22.6674 40.3594 22.4053 40.3594 22.1371C40.3591 21.959 40.3935 21.7826 40.4606 21.618C40.5276 21.4534 40.6259 21.3038 40.75 21.1779C40.874 21.0519 41.0213 20.952 41.1834 20.884C41.3455 20.8159 41.5192 20.781 41.6946 20.7813Z" fill="white"/>
<path fill-rule="evenodd" clip-rule="evenodd" d="M41.6946 37.5078C41.9587 37.5078 42.2169 37.5873 42.4364 37.7363C42.656 37.8853 42.8272 38.0971 42.9282 38.3448C43.0293 38.5925 43.0557 38.8652 43.0042 39.1282C42.9527 39.3912 42.8255 39.6328 42.6388 39.8224C42.452 40.012 42.2141 40.1411 41.9551 40.1934C41.6961 40.2458 41.4276 40.2189 41.1836 40.1163C40.9397 40.0137 40.7311 39.8399 40.5844 39.6169C40.4377 39.394 40.3594 39.1318 40.3594 38.8637C40.3594 38.5041 40.5001 38.1592 40.7505 37.9049C41.0009 37.6507 41.3405 37.5078 41.6946 37.5078Z" fill="white"/>
<path fill-rule="evenodd" clip-rule="evenodd" d="M41.6946 31.9844C41.9587 31.9844 42.2169 32.0639 42.4364 32.2129C42.656 32.3619 42.8272 32.5736 42.9282 32.8214C43.0293 33.0691 43.0557 33.3417 43.0042 33.6047C42.9527 33.8677 42.8255 34.1093 42.6388 34.299C42.452 34.4886 42.2141 34.6177 41.9551 34.67C41.6961 34.7223 41.4276 34.6955 41.1836 34.5929C40.9397 34.4902 40.7311 34.3165 40.5844 34.0935C40.4377 33.8705 40.3594 33.6084 40.3594 33.3402C40.3594 32.9806 40.5001 32.6358 40.7505 32.3815C41.0009 32.1272 41.3405 31.9844 41.6946 31.9844Z" fill="white"/>
<path fill-rule="evenodd" clip-rule="evenodd" d="M41.6946 26.3008C41.9588 26.3008 42.217 26.3803 42.4366 26.5294C42.6562 26.6785 42.8274 26.8903 42.9284 27.1382C43.0294 27.386 43.0557 27.6587 43.0041 27.9218C42.9524 28.1848 42.8251 28.4264 42.6382 28.616C42.4513 28.8055 42.2132 28.9345 41.9541 28.9866C41.6949 29.0388 41.4264 29.0117 41.1824 28.9088C40.9385 28.8059 40.7301 28.6318 40.5836 28.4086C40.4371 28.1854 40.359 27.9231 40.3594 27.6549C40.3594 27.4769 40.3939 27.3007 40.461 27.1363C40.5282 26.9719 40.6266 26.8225 40.7506 26.6968C40.8746 26.571 41.0218 26.4713 41.1838 26.4034C41.3458 26.3354 41.5194 26.3006 41.6946 26.3008Z" fill="white"/>
<path fill-rule="evenodd" clip-rule="evenodd" d="M36.9481 23.7617C37.168 23.7617 37.383 23.828 37.5659 23.952C37.7488 24.0761 37.8914 24.2525 37.9755 24.4588C38.0597 24.6652 38.0817 24.8923 38.0388 25.1113C37.9959 25.3304 37.89 25.5316 37.7345 25.6895C37.5789 25.8475 37.3808 25.955 37.165 25.9986C36.9493 26.0422 36.7257 26.0198 36.5225 25.9343C36.3193 25.8489 36.1456 25.7041 36.0234 25.5184C35.9012 25.3327 35.8359 25.1144 35.8359 24.891C35.8359 24.5915 35.9531 24.3043 36.1617 24.0925C36.3702 23.8807 36.6531 23.7617 36.9481 23.7617Z" fill="white"/>
<path fill-rule="evenodd" clip-rule="evenodd" d="M36.9481 34.9648C37.168 34.9648 37.383 35.0311 37.5659 35.1552C37.7488 35.2793 37.8914 35.4556 37.9755 35.662C38.0597 35.8683 38.0817 36.0954 38.0388 36.3144C37.9959 36.5335 37.89 36.7347 37.7345 36.8927C37.5789 37.0506 37.3808 37.1581 37.165 37.2017C36.9493 37.2453 36.7257 37.2229 36.5225 37.1375C36.3193 37.052 36.1456 36.9072 36.0234 36.7215C35.9012 36.5358 35.8359 36.3175 35.8359 36.0941C35.8359 35.7946 35.9531 35.5074 36.1617 35.2956C36.3702 35.0838 36.6531 34.9648 36.9481 34.9648Z" fill="white"/>
<path fill-rule="evenodd" clip-rule="evenodd" d="M36.9481 29.3711C37.168 29.3711 37.383 29.4373 37.5659 29.5614C37.7488 29.6855 37.8914 29.8619 37.9755 30.0682C38.0597 30.2746 38.0817 30.5016 38.0388 30.7207C37.9959 30.9398 37.89 31.141 37.7345 31.2989C37.5789 31.4568 37.3808 31.5644 37.165 31.608C36.9493 31.6515 36.7257 31.6292 36.5225 31.5437C36.3193 31.4582 36.1456 31.3135 36.0234 31.1278C35.9012 30.9421 35.8359 30.7237 35.8359 30.5004C35.8359 30.2009 35.9531 29.9136 36.1617 29.7019C36.3702 29.4901 36.6531 29.3711 36.9481 29.3711Z" fill="white"/>
<path fill-rule="evenodd" clip-rule="evenodd" d="M113.252 23.2969C113.964 23.2969 114.675 23.2969 115.388 23.2969C115.374 28.2004 115.374 33.1045 115.388 38.0092C114.675 38.0005 113.963 38.0092 113.25 38.0092C113.26 33.1069 113.26 28.2051 113.25 23.3039L113.252 23.2969Z" fill="white"/>
<path fill-rule="evenodd" clip-rule="evenodd" d="M106.577 30.3049C105.993 30.4481 105.474 30.7842 105.099 31.2603C104.152 32.4441 104.176 34.3338 105.207 35.4596C105.497 35.7965 105.867 36.0524 106.282 36.203C106.698 36.3537 107.144 36.3941 107.579 36.3203C108.013 36.2466 108.422 36.0612 108.767 35.7817C109.111 35.5023 109.379 35.1381 109.546 34.7237C110.065 33.5101 109.892 31.9523 108.953 30.9916C108.65 30.6777 108.271 30.4493 107.854 30.3289C107.438 30.2086 106.997 30.2003 106.577 30.3049ZM104.634 28.9666C105.764 28.2518 107.229 28.02 108.474 28.5715C108.937 28.7471 109.306 29.0983 109.676 29.4215C109.686 29.1405 109.686 28.8595 109.686 28.5767H111.736C111.736 31.5448 111.736 34.5124 111.736 37.4793C111.736 38.7087 111.53 39.9838 110.83 41.0077C110.201 41.9122 109.246 42.5282 108.173 42.7218C107.159 42.9407 106.105 42.8465 105.144 42.4513C104.022 41.9439 103.13 41.025 102.647 39.8784C103.266 39.6009 103.897 39.3515 104.517 39.0758C104.863 39.8608 105.511 40.5528 106.355 40.7776C107.306 41.0024 108.446 40.7917 109.078 39.9767C109.709 39.1618 109.717 38.1046 109.672 37.1351C109.204 37.6433 108.605 38.0083 107.943 38.1889C106.452 38.5717 104.83 38.0132 103.757 36.9208C103.218 36.3789 102.806 35.72 102.553 34.9935C102.3 34.267 102.212 33.4917 102.297 32.7259C102.381 31.96 102.635 31.2235 103.039 30.5715C103.444 29.9196 103.989 29.3691 104.632 28.9614L104.634 28.9666Z" fill="white"/>
<path fill-rule="evenodd" clip-rule="evenodd" d="M84.957 30.2988C84.2603 30.4551 83.6499 30.8785 83.2533 31.4808C82.4681 32.6751 82.5615 34.4243 83.5491 35.4781C83.8673 35.8216 84.2665 36.077 84.7089 36.2202C85.1514 36.3634 85.6225 36.3897 86.0778 36.2965C86.6323 36.1814 87.1388 35.8964 87.5289 35.4798C88.6549 34.2785 88.6254 32.1605 87.4407 31.0101C87.1158 30.6939 86.7194 30.4636 86.2863 30.3396C85.8532 30.2156 85.3967 30.2016 84.957 30.2988ZM85.0175 28.2949C85.829 28.2065 86.6494 28.319 87.4088 28.6227C88.1681 28.9264 88.8437 29.4123 89.3778 30.0389C90.7995 31.7319 90.8981 34.3892 89.6338 36.1999C89.2235 36.7884 88.6926 37.2798 88.0775 37.6403C87.4625 38.0007 86.7779 38.2217 86.0708 38.2881C84.747 38.4334 83.4201 38.0442 82.3764 37.2045C81.8475 36.7561 81.415 36.2021 81.1057 35.5769C80.7963 34.9518 80.6168 34.2687 80.5782 33.5702C80.5396 32.8716 80.6428 32.1725 80.8813 31.5161C81.1198 30.8597 81.4886 30.26 81.9648 29.7544C82.7844 28.9223 83.8638 28.4063 85.0175 28.2949Z" fill="white"/>
<path fill-rule="evenodd" clip-rule="evenodd" d="M119.14 31.3079C118.761 31.8435 118.571 32.4934 118.602 33.152C120.089 32.5303 121.574 31.9039 123.057 31.2728C122.907 30.9703 122.681 30.7135 122.401 30.5285C122.122 30.3434 121.799 30.2367 121.466 30.2191C121.018 30.1835 120.569 30.2654 120.162 30.457C119.755 30.6487 119.403 30.9435 119.14 31.3132V31.3079ZM117.777 29.7273C118.347 29.1119 119.072 28.6661 119.873 28.438C120.674 28.2099 121.522 28.2081 122.324 28.4329C123.438 28.749 124.356 29.5798 124.934 30.5826C125.209 31.0287 125.368 31.531 125.581 32.0087C123.386 32.9659 121.169 33.8721 118.963 34.8047C119.23 35.4118 119.712 35.8942 120.314 36.1553C120.769 36.3372 121.263 36.3971 121.748 36.3291C122.233 36.2611 122.692 36.0676 123.082 35.7671C123.362 35.5331 123.611 35.262 123.822 34.961C124.375 35.3404 124.934 35.7162 125.489 36.0956C125.067 36.7274 124.509 37.2538 123.857 37.6352C123.205 38.0166 122.477 38.2431 121.727 38.2977C120.977 38.3523 120.224 38.2335 119.526 37.9504C118.827 37.6672 118.201 37.227 117.694 36.6628C116.021 34.7643 116.071 31.5837 117.782 29.7273H117.777Z" fill="white"/>
<path fill-rule="evenodd" clip-rule="evenodd" d="M95.8014 30.2994C95.2627 30.4213 94.7731 30.706 94.3969 31.1161C93.3107 32.2875 93.3211 34.3213 94.4125 35.4875C94.6714 35.7655 94.9844 35.9859 95.3315 36.1348C95.6787 36.2838 96.0524 36.3579 96.4292 36.3526C96.806 36.3474 97.1777 36.2627 97.5206 36.1041C97.8636 35.9456 98.1704 35.7164 98.4217 35.4313C99.501 34.223 99.4594 32.1418 98.2868 31.009C97.9614 30.6932 97.5644 30.4639 97.1308 30.3414C96.6972 30.2188 96.2406 30.2068 95.8014 30.3065V30.2994ZM95.6768 28.3254C96.461 28.2065 97.2617 28.2781 98.0133 28.5342C98.7649 28.7903 99.446 29.2237 100.001 29.7989C101.63 31.4849 101.789 34.3652 100.419 36.2602C100.01 36.8304 99.4859 37.3054 98.8817 37.6537C98.2775 38.0019 97.6071 38.2154 96.9152 38.28C95.6265 38.4205 94.3339 38.0519 93.3056 37.2508C92.5377 36.6448 91.9632 35.8219 91.6542 34.8856C91.3452 33.9492 91.3155 32.941 91.5688 31.9875C91.8221 31.0341 92.3472 30.1778 93.078 29.5263C93.8089 28.8748 94.713 28.457 95.6768 28.3254Z" fill="white"/>
<path fill-rule="evenodd" clip-rule="evenodd" d="M67.1937 24.9749C67.9466 24.2279 68.8401 23.6427 69.8208 23.2543C70.8015 22.866 71.8492 22.6824 72.9013 22.7145C74.7927 22.7374 76.6015 23.5049 77.9466 24.8554C77.4519 25.3449 76.9636 25.8407 76.4816 26.343C75.4111 25.326 73.9881 24.7798 72.5227 24.8236C71.0574 24.8673 69.6684 25.4974 68.6587 26.5766C68.0935 27.1958 67.6691 27.9335 67.4153 28.7374C67.1616 29.5414 67.0847 30.3921 67.1901 31.2296C67.2955 32.067 67.5806 32.8708 68.0253 33.5841C68.4701 34.2975 69.0635 34.903 69.7639 35.358C71.0368 36.1747 72.6333 36.3643 74.0878 36.0394C75.1168 35.8027 76.0455 35.2414 76.741 34.4359C77.3325 33.7334 77.6058 32.829 77.7182 31.9315C76.0423 31.9315 74.3663 31.9315 72.6903 31.9315C72.6903 31.229 72.6903 30.5142 72.6903 29.8046H79.7488C80.0445 31.5855 79.7747 33.5016 78.858 35.0735C78.3793 35.8415 77.7562 36.5062 77.0243 37.0297C76.2925 37.5531 75.4663 37.925 74.5929 38.1241C73.0698 38.4744 71.4802 38.38 70.0077 37.8519C68.0855 37.1423 66.5093 35.703 65.6111 33.8371C64.899 32.3477 64.6852 30.6629 65.0023 29.0389C65.3096 27.4918 66.0741 26.0766 67.1937 24.9819V24.9749Z" fill="white"/>
<path fill-rule="evenodd" clip-rule="evenodd" d="M144.414 23.8906H146.182V38.0989H144.414V23.8906Z" fill="white"/>
<path fill-rule="evenodd" clip-rule="evenodd" d="M134.277 32.5052H138.774L136.526 26.3178L134.277 32.5052ZM137.603 23.8906L142.792 38.1007H140.803L139.419 34.2966H133.627L132.243 38.1007H130.258L135.447 23.8906H137.603Z" fill="white"/>
</g>
</g>
<defs>
<clipPath id="clip0_4735_23468">
<rect width="110.348" height="25.38" fill="white" transform="translate(35.8359 17.8086)"/>
</clipPath>
</defs>
</svg>
