<svg width="183" height="61" viewBox="0 0 183 61" fill="none" xmlns="http://www.w3.org/2000/svg">
<g opacity="0.4">
<g clip-path="url(#clip0_4735_23437)">
<path d="M73.4219 30.0106C73.4219 34.1596 76.0759 37.0524 79.7537 37.0524C83.4315 37.0524 86.0855 34.1596 86.0855 30.0106C86.0855 25.8616 83.4315 22.9688 79.7537 22.9688C76.0759 22.9688 73.4219 25.8616 73.4219 30.0106ZM83.659 30.0106C83.659 32.9796 82.0476 34.9018 79.7537 34.9018C77.4598 34.9018 75.8484 32.9796 75.8484 30.0106C75.8484 27.0416 77.4598 25.1194 79.7537 25.1194C82.0476 25.1194 83.659 27.0416 83.659 30.0106Z" fill="white"/>
<path d="M92.9266 37.0516C95.7133 37.0516 97.3058 34.6917 97.3058 31.8559C97.3058 29.0201 95.7133 26.6602 92.9266 26.6602C91.6374 26.6602 90.6896 27.174 90.064 27.9163V26.8505H87.7891V40.268H90.064V35.7955C90.6896 36.5378 91.6374 37.0516 92.9266 37.0516ZM90.0071 31.5704C90.0071 29.6862 91.0687 28.6585 92.4716 28.6585C94.1209 28.6585 95.0119 29.9527 95.0119 31.8559C95.0119 33.7591 94.1209 35.0533 92.4716 35.0533C91.0687 35.0533 90.0071 34.0065 90.0071 32.1604V31.5704Z" fill="white"/>
<path d="M103.459 37.0516C105.45 37.0516 107.023 36.0049 107.725 34.2539L105.772 33.5117C105.469 34.5394 104.578 35.1104 103.459 35.1104C101.999 35.1104 100.976 34.0636 100.805 32.3507H107.781V31.5894C107.781 28.8488 106.246 26.6602 103.364 26.6602C100.483 26.6602 98.625 28.925 98.625 31.8559C98.625 34.9391 100.616 37.0516 103.459 37.0516ZM103.345 28.5824C104.786 28.5824 105.469 29.534 105.488 30.6378H100.919C101.26 29.2866 102.17 28.5824 103.345 28.5824Z" fill="white"/>
<path d="M109.492 36.8423H111.767V30.9804C111.767 29.553 112.81 28.7917 113.833 28.7917C115.085 28.7917 115.578 29.6862 115.578 30.9233V36.8423H117.852V30.2572C117.852 28.1066 116.601 26.6602 114.516 26.6602C113.227 26.6602 112.336 27.2501 111.767 27.9163V26.8505H109.492V36.8423Z" fill="white"/>
<path d="M124.516 23.1797L119.359 36.8447H121.767L122.923 33.7234H128.8L129.976 36.8447H132.421L127.265 23.1797H124.516ZM125.843 25.8822L128.004 31.5918H123.72L125.843 25.8822Z" fill="white"/>
<path d="M136.325 23.2188H133.898V36.8837H136.325V23.2188Z" fill="white"/>
<path d="M67.8668 28.1985C68.4403 26.4706 68.2428 24.5777 67.3257 23.006C65.9466 20.5953 63.174 19.355 60.4662 19.9387C59.2616 18.5763 57.531 17.8015 55.7166 17.8126C52.9488 17.8063 50.493 19.5953 49.6415 22.2391C47.8634 22.6047 46.3286 23.7221 45.4305 25.3057C44.0411 27.7101 44.3578 30.7409 46.2141 32.8027C45.6406 34.5306 45.8381 36.4235 46.7552 37.9953C48.1343 40.406 50.9069 41.6462 53.6147 41.0626C54.8185 42.425 56.5499 43.1997 58.3643 43.1878C61.1337 43.195 63.5903 41.4044 64.4418 38.7581C66.2199 38.3926 67.7546 37.2752 68.6528 35.6916C70.0406 33.2872 69.7231 30.2588 67.8676 28.197L67.8668 28.1985ZM58.3659 41.5297C57.2577 41.5312 56.1842 41.1419 55.3335 40.429C55.3722 40.4084 55.4393 40.3711 55.4828 40.3441L60.516 37.4259C60.7735 37.2792 60.9315 37.004 60.9299 36.7066V29.5831L63.0571 30.8162C63.08 30.8273 63.095 30.8495 63.0982 30.8749V36.774C63.095 39.3973 60.9789 41.5241 58.3659 41.5297ZM48.1889 37.1658C47.6336 36.2031 47.4337 35.0746 47.6241 33.9795C47.6612 34.0017 47.7268 34.0422 47.7734 34.0691L52.8066 36.9874C53.0617 37.1372 53.3777 37.1372 53.6336 36.9874L59.7782 33.4252V35.8914C59.7798 35.9168 59.768 35.9414 59.7482 35.9573L54.6605 38.9064C52.3943 40.2165 49.5001 39.4377 48.1896 37.1658H48.1889ZM46.8642 26.1359C47.4171 25.1717 48.29 24.4342 49.3295 24.0511C49.3295 24.0948 49.3271 24.1717 49.3271 24.2256V30.0629C49.3255 30.3595 49.4835 30.6346 49.7402 30.7813L55.8848 34.3427L53.7576 35.5758C53.7363 35.5901 53.7095 35.5925 53.6858 35.5822L48.5972 32.6306C46.3358 31.3158 45.5601 28.4111 46.8634 26.1367L46.8642 26.1359ZM64.3415 30.2191L58.1969 26.6569L60.3241 25.4246C60.3454 25.4104 60.3722 25.408 60.3959 25.4183L65.4845 28.3674C67.7499 29.6814 68.5264 32.591 67.2175 34.8653C66.6638 35.828 65.7917 36.5655 64.753 36.9493V30.9376C64.7554 30.641 64.5982 30.3666 64.3423 30.2191H64.3415ZM66.4584 27.0201C66.4213 26.9971 66.3557 26.9575 66.3091 26.9305L61.2759 24.0123C61.0208 23.8624 60.7048 23.8624 60.4489 24.0123L54.3042 27.5744V25.1082C54.3027 25.0828 54.3145 25.0583 54.3343 25.0424L59.422 22.0956C61.6882 20.7832 64.5856 21.5643 65.8921 23.8402C66.4442 24.8013 66.644 25.9266 66.4568 27.0201H66.4584ZM53.1478 31.4157L51.0198 30.1826C50.9969 30.1715 50.9819 30.1493 50.9788 30.1239V24.2248C50.9804 21.5984 53.1028 19.47 55.719 19.4716C56.8256 19.4716 57.8967 19.8617 58.7474 20.5723C58.7087 20.5929 58.6424 20.6301 58.5981 20.6571L53.5649 23.5753C53.3074 23.7221 53.1494 23.9964 53.151 24.2938L53.1478 31.4142V31.4157ZM54.3035 28.9146L57.0405 27.3278L59.7775 28.9138V32.0866L57.0405 33.6726L54.3035 32.0866V28.9146Z" fill="white"/>
</g>
</g>
<defs>
<clipPath id="clip0_4735_23437">
<rect width="93.208" height="25.376" fill="white" transform="translate(44.4062 17.8125)"/>
</clipPath>
</defs>
</svg>
