<svg width="183" height="61" viewBox="0 0 183 61" fill="none" xmlns="http://www.w3.org/2000/svg">
<g opacity="0.4">
<path d="M47.1823 24.773H36.6094L47.1823 14.6406V24.773ZM39.4407 23.6495H46.0089V17.3548L39.4407 23.6495Z" fill="white"/>
<path d="M39.6901 24.773H29.1172V14.6406L39.6901 24.773ZM30.2904 23.6495H36.8592L30.2904 17.3543V23.6495Z" fill="white"/>
<path d="M38.8138 14.6406V46.3594H37.4922V14.6406H38.8138Z" fill="white"/>
<path d="M47.184 32.4335V45.9197L37.4922 36.4978V23.0117L47.184 32.4335ZM38.6593 36.0283L46.0169 43.181V32.9028L38.6593 25.7502V36.0283Z" fill="white"/>
<path d="M38.809 36.4978L29.1172 45.9197V32.4335L38.809 23.0117V36.4978ZM30.2841 32.9028V43.1813L37.6421 36.0285V25.7499L30.2841 32.9028Z" fill="white"/>
<path d="M39.691 23.8906L30.3929 32.8451V36.6662H25.5938V23.8906H39.691ZM26.7545 35.5494H29.2322V32.3827L36.8902 25.0075H26.7545V35.5494Z" fill="white"/>
<path d="M50.7066 23.8906V36.6662H45.9075V32.8451L36.6094 23.8906H50.7066ZM47.0682 32.3827V35.5494H49.5459V25.0075H39.4101L47.0682 32.3827Z" fill="white"/>
<path d="M74.3722 26.1118C74.8762 25.1185 75.5803 24.3546 76.4881 23.8163C77.3941 23.2799 78.46 23.0117 79.6786 23.0117C80.8989 23.0117 81.9086 23.2762 82.7549 23.8052C83.6013 24.3343 84.2352 25.0353 84.6531 25.9084C85.0727 26.7814 85.2817 27.7377 85.2817 28.7791V30.22H75.7892C75.8648 31.4704 76.2651 32.4637 76.9903 33.1999C77.7137 33.9379 78.6865 34.306 79.9069 34.306C80.8972 34.306 81.6575 34.0933 82.1825 33.6697C82.7093 33.2443 83.0938 32.6579 83.3379 31.9033H85.5117C85.222 33.0723 84.6302 34.0859 83.74 34.9423C82.848 35.8006 81.5697 36.2279 79.9086 36.2279C78.6584 36.2279 77.5557 35.9597 76.6022 35.4232C75.6488 34.8868 74.913 34.1229 74.3951 33.1278C73.8771 32.1345 73.6172 30.9655 73.6172 29.6189C73.6172 28.2741 73.8683 27.1051 74.3722 26.1118ZM82.9955 28.4184C82.9955 27.3289 82.7286 26.4762 82.1948 25.8584C81.661 25.2425 80.8234 24.9336 79.6786 24.9336C78.611 24.9336 77.7383 25.2332 77.0588 25.8344C76.3792 26.4355 75.9648 27.2975 75.8121 28.4184H82.9955Z" fill="white"/>
<path d="M88.5167 23.5004V25.4614C88.5167 25.5723 88.571 25.6269 88.6814 25.6269C88.7448 25.6269 88.7919 25.6105 88.8227 25.5796C88.8553 25.5469 88.8861 25.485 88.9169 25.3904C89.3261 24.0989 90.3403 23.4531 91.961 23.4531H92.9987V25.5796H91.6532C90.5992 25.5796 89.8133 25.8306 89.2935 26.3363C88.7738 26.8402 88.5148 27.6679 88.5148 28.8175V35.7882H86.3906V23.4986H88.5167V23.5004Z" fill="white"/>
<path d="M105.365 33.0952C104.8 34.0821 104.067 34.8208 103.167 35.3097C102.267 35.7985 101.3 36.0448 100.266 36.0448C98.2281 36.0448 96.795 35.2403 95.9684 33.6279C95.9043 33.502 95.8255 33.4381 95.7302 33.4381C95.6349 33.4381 95.5872 33.4856 95.5872 33.5804V40.1927H93.4375V23.3674H95.5872V25.476C95.5872 25.5709 95.6349 25.6183 95.7302 25.6183C95.8255 25.6183 95.9043 25.5545 95.9684 25.4286C96.795 23.818 98.2281 23.0117 100.266 23.0117C101.3 23.0117 102.267 23.2561 103.167 23.7468C104.067 24.2357 104.798 24.9744 105.365 25.9613C105.929 26.9481 106.213 28.1374 106.213 29.5273C106.213 30.9191 105.931 32.1084 105.365 33.0952ZM102.881 26.1291C102.093 25.3155 101.054 24.9088 99.7657 24.9088C98.4774 24.9088 97.4382 25.3155 96.6502 26.1291C95.8621 26.9426 95.5726 28.0772 95.5726 29.5291C95.5726 30.9829 95.8621 32.1157 96.6502 32.9292C97.4382 33.7428 98.4774 34.1495 99.7657 34.1495C101.054 34.1495 102.093 33.7428 102.881 32.9292C103.669 32.1157 104.063 30.9829 104.063 29.5291C104.063 28.0772 103.669 26.9444 102.881 26.1291Z" fill="white"/>
<path d="M109.296 18.6055V35.7865H107.094V18.6055H109.296Z" fill="white"/>
<path d="M110.935 26.1118C111.438 25.1185 112.143 24.3546 113.052 23.8163C113.958 23.2799 115.022 23.0117 116.242 23.0117C117.462 23.0117 118.473 23.2762 119.318 23.8052C120.164 24.3343 120.798 25.0353 121.216 25.9084C121.635 26.7814 121.844 27.7377 121.844 28.7791V30.22H112.353C112.429 31.4704 112.829 32.4637 113.554 33.1999C114.277 33.9379 115.25 34.306 116.47 34.306C117.46 34.306 118.219 34.0933 118.746 33.6697C119.272 33.2443 119.657 32.6579 119.901 31.9033H122.074C121.785 33.0723 121.193 34.0859 120.301 34.9423C119.409 35.8006 118.131 36.2279 116.47 36.2279C115.22 36.2279 114.118 35.9597 113.164 35.4232C112.211 34.8868 111.475 34.1229 110.957 33.1278C110.44 32.1345 110.18 30.9655 110.18 29.6189C110.181 28.2741 110.432 27.1051 110.935 26.1118ZM119.558 28.4184C119.558 27.3289 119.292 26.4762 118.758 25.8584C118.224 25.2425 117.385 24.9336 116.242 24.9336C115.176 24.9336 114.302 25.2332 113.623 25.8344C112.943 26.4355 112.529 27.2975 112.376 28.4184H119.558Z" fill="white"/>
<path d="M121.195 35.3135L125.99 29.2646L122.056 23.9278V23.4531H124.361L127.644 28.0541L131.181 23.4531H133.53V23.9516L129.016 29.6207L133.182 35.3135V35.7882H130.924L127.364 30.8312L123.548 35.7882H121.197L121.195 35.3135Z" fill="white"/>
<path d="M136.612 19.4883V22.1497H133.969V19.4883H136.612ZM136.475 35.7882H134.212V23.4895H136.475V35.7882Z" fill="white"/>
<path d="M137.055 23.638H139.351V20.3672H141.463V23.638H143.88L144.475 25.4181H141.463V31.2296C141.463 32.0226 141.444 32.6106 141.404 32.9936C141.364 33.3748 141.346 33.6049 141.346 33.6822C141.346 33.7919 141.377 33.8764 141.44 33.9394C141.503 34.0023 141.588 34.0329 141.699 34.0329C141.777 34.0329 142.007 34.0131 142.391 33.9753C142.773 33.9358 143.365 33.9178 144.163 33.9178H144.984V35.786H143.342C141.997 35.786 140.995 35.4588 140.338 34.8043C139.682 34.1497 139.353 33.1536 139.353 31.814V25.4181H137.056L137.055 23.638Z" fill="white"/>
<path d="M144.539 23.4531H146.695L150.197 33.7399C150.245 33.8651 150.319 34.0321 150.559 34.0321C150.799 34.0321 150.873 33.8651 150.92 33.7399L154.422 23.4531H156.434V23.925L152.053 37.1518C151.676 38.2843 151.149 39.0738 150.467 39.5221C149.785 39.9704 148.993 40.1936 147.676 40.1936H145.419V38.3079H147.135C147.684 38.3079 148.129 38.3279 148.474 38.366C148.818 38.4059 149.039 38.4241 149.132 38.4241C149.399 38.4241 149.578 38.3061 149.674 38.0702L150.332 36.2789C150.411 36.0901 150.417 35.9486 150.356 35.8542C150.325 35.7907 150.285 35.7526 150.238 35.7362C150.191 35.7199 150.121 35.7126 150.027 35.7126H148.593L144.539 23.4531Z" fill="white"/>
<path d="M71.9142 33.0952C71.3692 34.082 70.6614 34.8208 69.7926 35.3097C68.9238 35.7985 67.9895 36.0448 66.9915 36.0448C65.0239 36.0448 63.6401 35.2403 62.8421 33.6279C62.7802 33.502 62.7041 33.4381 62.6121 33.4381C62.5201 33.4381 62.474 33.4856 62.474 33.5804V40.1927H60.3984V23.3674H62.474V25.476C62.474 25.5709 62.5201 25.6183 62.6121 25.6183C62.7041 25.6183 62.7802 25.5545 62.8421 25.4286C63.6401 23.8161 65.0239 23.0117 66.9915 23.0117C67.9895 23.0117 68.9238 23.2561 69.7926 23.7468C70.6614 24.2357 71.3675 24.9744 71.9142 25.9613C72.4592 26.9481 72.7335 28.1374 72.7335 29.5273C72.7335 30.9191 72.4592 32.1084 71.9142 33.0952ZM69.5166 26.1291C68.7557 25.3155 67.7524 24.9088 66.5085 24.9088C65.2645 24.9088 64.2612 25.3155 63.5003 26.1291C62.7395 26.9426 62.4599 28.0754 62.4599 29.5292C62.4599 30.9829 62.7395 32.1157 63.5003 32.9292C64.2612 33.7428 65.2645 34.1495 66.5085 34.1495C67.7524 34.1495 68.7557 33.7428 69.5166 32.9292C70.2775 32.1157 70.6579 30.9811 70.6579 29.5292C70.6579 28.0754 70.2775 26.9444 69.5166 26.1291Z" fill="white"/>
</g>
</svg>
