<svg width="50" height="51" viewBox="0 0 50 51" fill="none" xmlns="http://www.w3.org/2000/svg">
<g clip-path="url(#clip0_1270_4752)">
<path d="M39.0938 0.03125C37.6602 0.03125 36.4062 1.14453 36.3438 2.625H36.3125V2.71875L34.4375 22.125C34.3008 22.0625 34.1523 22.0273 34 22.0312H33V16.0312C33.0039 15.6836 32.8242 15.3633 32.5352 15.1797C32.2422 14.9922 31.875 14.9727 31.5625 15.125L17 21.9062V17.0312C16.9961 16.6836 16.8125 16.3594 16.5117 16.1797C16.2109 16 15.8398 15.9922 15.5312 16.1562L0.53125 24.1562C0.207031 24.3281 0.00390625 24.6641 0 25.0312V49.0312C0 49.582 0.449219 50.0312 1 50.0312H49C49.2773 50.0312 49.5391 49.918 49.7305 49.7148C49.918 49.5156 50.0156 49.2461 50 48.9688L47.1875 2.78125C47.1875 2.76172 47.1875 2.73828 47.1875 2.71875C47.0391 1.24609 45.8984 0.03125 44.4062 0.03125H39.0938ZM39.0938 2.03125H44.4062C44.7031 2.03125 45.1094 2.41016 45.1875 2.90625L47.9375 48.0312H2V25.625L15 18.6875V23.0312C15 23.582 15.4492 24.0312 16 24.0312H17C17.1523 24.0352 17.3008 24 17.4375 23.9375L31 17.5938V23.0312C31 23.582 31.4492 24.0312 32 24.0312H33V37.0312C32.9727 37.582 33.4023 38.0508 33.9531 38.0781C34.5039 38.1055 34.9727 37.6758 35 37.125V37.0312L38.2812 2.8125C38.293 2.78125 38.3047 2.75 38.3125 2.71875C38.3125 2.25391 38.5586 2.03125 39.0938 2.03125ZM7 27.0312V32.0312H10V27.0312H7ZM16 27.0312V32.0312H19V27.0312H16ZM25 27.0312V32.0312H28V27.0312H25ZM7 36.0312V41.0312H10V36.0312H7ZM16 36.0312V41.0312H19V36.0312H16ZM25 36.0312V41.0312H28V36.0312H25Z" fill="#00B2FF"/>
</g>
<defs>
<clipPath id="clip0_1270_4752">
<rect width="50" height="50" fill="white" transform="translate(0 0.03125)"/>
</clipPath>
</defs>
</svg>
