<svg width="50" height="51" viewBox="0 0 50 51" fill="none" xmlns="http://www.w3.org/2000/svg">
<path d="M7 4.03125C5.35503 4.03125 4 5.38628 4 7.03125V10.9102C3.91472 11.2461 3 14.9032 3 17.5312C3 18.9099 3.26606 20.2298 3.99609 21.2832C3.99743 21.2851 3.99867 21.2871 4 21.2891V46.0312H10.832C10.94 46.0491 11.0502 46.0491 11.1582 46.0312H24.832C24.94 46.0491 25.0502 46.0491 25.1582 46.0312H38.832C38.94 46.0491 39.0502 46.0491 39.1582 46.0312H46V21.2891C46.0013 21.2871 46.0026 21.2851 46.0039 21.2832C46.7339 20.2298 47 18.9099 47 17.5312C47 14.9032 46.0853 11.2461 46 10.9102V7.03125C46 5.38628 44.645 4.03125 43 4.03125H7ZM7 6.03125H43C43.565 6.03125 44 6.46622 44 7.03125V10.0312H39.168C39.06 10.0134 38.9498 10.0134 38.8418 10.0312H32.168C32.06 10.0134 31.9498 10.0134 31.8418 10.0312H25.168C25.06 10.0134 24.9498 10.0134 24.8418 10.0312H18.168C18.06 10.0134 17.9498 10.0134 17.8418 10.0312H11.168C11.1073 10.0211 11.0459 10.0165 10.9844 10.0176C10.9366 10.0187 10.8889 10.0233 10.8418 10.0312H6V7.03125C6 6.46622 6.43497 6.03125 7 6.03125ZM8 7.03125C7.73478 7.03125 7.48043 7.13661 7.29289 7.32414C7.10536 7.51168 7 7.76603 7 8.03125C7 8.29647 7.10536 8.55082 7.29289 8.73836C7.48043 8.92589 7.73478 9.03125 8 9.03125C8.26522 9.03125 8.51957 8.92589 8.70711 8.73836C8.89464 8.55082 9 8.29647 9 8.03125C9 7.76603 8.89464 7.51168 8.70711 7.32414C8.51957 7.13661 8.26522 7.03125 8 7.03125ZM11 7.03125C10.7348 7.03125 10.4804 7.13661 10.2929 7.32414C10.1054 7.51168 10 7.76603 10 8.03125C10 8.29647 10.1054 8.55082 10.2929 8.73836C10.4804 8.92589 10.7348 9.03125 11 9.03125C11.2652 9.03125 11.5196 8.92589 11.7071 8.73836C11.8946 8.55082 12 8.29647 12 8.03125C12 7.76603 11.8946 7.51168 11.7071 7.32414C11.5196 7.13661 11.2652 7.03125 11 7.03125ZM14 7.03125C13.7348 7.03125 13.4804 7.13661 13.2929 7.32414C13.1054 7.51168 13 7.76603 13 8.03125C13 8.29647 13.1054 8.55082 13.2929 8.73836C13.4804 8.92589 13.7348 9.03125 14 9.03125C14.2652 9.03125 14.5196 8.92589 14.7071 8.73836C14.8946 8.55082 15 8.29647 15 8.03125C15 7.76603 14.8946 7.51168 14.7071 7.32414C14.5196 7.13661 14.2652 7.03125 14 7.03125ZM5.81055 12.0312H10V19.8809C9.35939 20.5661 8.50473 21.0312 7.5 21.0312C6.64864 21.0312 6.1748 20.7781 5.80078 20.332C5.77718 20.3006 5.75174 20.2706 5.72461 20.2422C5.71884 20.2356 5.71298 20.2291 5.70703 20.2227C5.6857 20.1941 5.66141 20.1726 5.64062 20.1426C5.24191 19.5672 5 18.6376 5 17.5312C5 15.6802 5.58732 13.0114 5.81055 12.0312ZM12 12.0312H17V19.8809C16.3594 20.5661 15.5047 21.0312 14.5 21.0312C13.4953 21.0312 12.6406 20.5661 12 19.8809V12.0312ZM19 12.0312H24V19.8809C23.3594 20.5661 22.5047 21.0312 21.5 21.0312C20.4953 21.0312 19.6406 20.5661 19 19.8809V12.0312ZM26 12.0312H31V19.8809C30.3603 20.5655 29.5047 21.0312 28.5 21.0312C27.4953 21.0312 26.6406 20.5661 26 19.8809V12.0312ZM33 12.0312H38V19.8809C37.3603 20.5655 36.5047 21.0312 35.5 21.0312C34.4953 21.0312 33.6397 20.5655 33 19.8809V12.0312ZM40 12.0312H44.1895C44.4127 13.0114 45 15.6802 45 17.5312C45 18.5557 44.7867 19.4157 44.4395 19.9961C44.2585 20.1186 44.1227 20.2969 44.0527 20.5039C43.6993 20.8455 43.2413 21.0312 42.5 21.0312C41.4953 21.0312 40.6397 20.5655 40 19.8809V12.0312ZM11 21.584C11.9586 22.4184 13.1262 23.0312 14.5 23.0312C15.8738 23.0312 17.0414 22.4184 18 21.584C18.9586 22.4184 20.1262 23.0312 21.5 23.0312C22.8738 23.0312 24.0414 22.4184 25 21.584C25.9586 22.4184 27.1262 23.0312 28.5 23.0312C29.8738 23.0312 31.0415 22.4188 32 21.584C32.9585 22.4188 34.1262 23.0312 35.5 23.0312C36.8738 23.0312 38.0415 22.4188 39 21.584C39.9585 22.4188 41.1262 23.0312 42.5 23.0312C43.0369 23.0312 43.539 22.9393 44 22.7793V44.0312H40V27.0312C40 26.766 39.8946 26.5117 39.7071 26.3242C39.5195 26.1366 39.2652 26.0313 39 26.0312H25.168C25.1073 26.0211 25.0459 26.0165 24.9844 26.0176C24.9366 26.0187 24.8889 26.0233 24.8418 26.0312H11C10.7348 26.0313 10.4805 26.1366 10.2929 26.3242C10.1054 26.5117 10 26.766 10 27.0312V44.0312H6V22.7793C6.46098 22.9393 6.96314 23.0312 7.5 23.0312C8.8738 23.0312 10.0414 22.4184 11 21.584ZM12 28.0312H24V44.0312H12V28.0312ZM26 28.0312H38V44.0312H26V28.0312ZM21 35.0312C20.7348 35.0312 20.4804 35.1366 20.2929 35.3241C20.1054 35.5117 20 35.766 20 36.0312C20 36.2965 20.1054 36.5508 20.2929 36.7384C20.4804 36.9259 20.7348 37.0312 21 37.0312C21.2652 37.0312 21.5196 36.9259 21.7071 36.7384C21.8946 36.5508 22 36.2965 22 36.0312C22 35.766 21.8946 35.5117 21.7071 35.3241C21.5196 35.1366 21.2652 35.0312 21 35.0312ZM29 35.0312C28.7348 35.0312 28.4804 35.1366 28.2929 35.3241C28.1054 35.5117 28 35.766 28 36.0312C28 36.2965 28.1054 36.5508 28.2929 36.7384C28.4804 36.9259 28.7348 37.0312 29 37.0312C29.2652 37.0312 29.5196 36.9259 29.7071 36.7384C29.8946 36.5508 30 36.2965 30 36.0312C30 35.766 29.8946 35.5117 29.7071 35.3241C29.5196 35.1366 29.2652 35.0312 29 35.0312Z" fill="#00B2FF"/>
</svg>
