<svg width="50" height="51" viewBox="0 0 50 51" fill="none" xmlns="http://www.w3.org/2000/svg">
<path d="M24.9653 2.03185C24.7536 2.0394 24.5498 2.11394 24.3832 2.24474L1.38324 20.2447C1.27984 20.3258 1.19342 20.4264 1.1289 20.5408C1.06439 20.6553 1.02306 20.7813 1.00726 20.9117C0.99146 21.0422 1.00151 21.1744 1.03683 21.3009C1.07215 21.4275 1.13206 21.5458 1.21312 21.6492C1.29418 21.7526 1.39482 21.839 1.50928 21.9035C1.62374 21.9679 1.74978 22.0092 1.8802 22.025C2.01063 22.0408 2.14288 22.0307 2.26941 21.9953C2.39594 21.96 2.51426 21.9001 2.61762 21.819L3.99848 20.7389L3.96137 46.0299C3.96113 46.1614 3.98681 46.2916 4.03695 46.4132C4.0871 46.5347 4.16072 46.6452 4.2536 46.7382C4.34648 46.8313 4.4568 46.9051 4.57825 46.9555C4.6997 47.0059 4.82989 47.0318 4.96137 47.0319H45.0004C45.2656 47.0318 45.52 46.9265 45.7075 46.7389C45.895 46.5514 46.0004 46.2971 46.0004 46.0319V20.7369L47.3832 21.819C47.4866 21.9 47.6049 21.96 47.7315 21.9953C47.858 22.0307 47.9902 22.0408 48.1206 22.025C48.2511 22.0092 48.3771 21.9679 48.4916 21.9034C48.606 21.839 48.7066 21.7526 48.7877 21.6492C48.8688 21.5458 48.9287 21.4275 48.964 21.3009C48.9993 21.1744 49.0094 21.0421 48.9936 20.9117C48.9778 20.7813 48.9365 20.6553 48.8719 20.5408C48.8074 20.4264 48.721 20.3258 48.6176 20.2447L25.6176 2.24474C25.4321 2.09907 25.201 2.02366 24.9653 2.03185ZM25.0004 4.30138L44.0004 19.1705V45.0319H38.0004V34.0319C38.0004 31.2823 35.7499 29.0319 33.0004 29.0319H23.0004H21.2954L18.8422 27.4459L17.9809 19.7018C17.7988 18.061 16.2991 16.8751 14.6723 17.0514H14.6704H14.6684C13.0339 17.233 11.8363 18.7289 12.018 20.3639L13.018 29.3639C13.1019 30.1191 13.4698 30.8142 14.0473 31.3092L14.0746 31.3346L20.0004 35.7057V45.0319H5.96332L6.00043 19.1725L25.0004 4.30138ZM28.0004 16.0319C26.0838 16.0319 24.519 16.7866 23.5024 17.9303C22.4858 19.074 22.0004 20.5596 22.0004 22.0319C22.0004 23.5041 22.4858 24.9897 23.5024 26.1334C24.519 27.2771 26.0838 28.0319 28.0004 28.0319C31.3023 28.0319 34.0004 25.3337 34.0004 22.0319C34.0004 18.73 31.3023 16.0319 28.0004 16.0319ZM28.0004 18.0319C30.2214 18.0319 32.0004 19.8109 32.0004 22.0319C32.0004 24.2528 30.2214 26.0319 28.0004 26.0319C26.5838 26.0319 25.6485 25.5366 24.9985 24.8053C24.3484 24.074 24.0004 23.0596 24.0004 22.0319C24.0004 21.0041 24.3484 19.9897 24.9985 19.2584C25.6485 18.5271 26.5838 18.0319 28.0004 18.0319ZM14.8871 19.0397C15.4383 18.9799 15.9308 19.3653 15.9926 19.9225L16.9594 28.61L20.7055 31.0319H23.0004H33.0004C34.6689 31.0319 36.0004 32.3634 36.0004 34.0319V45.0319H34.0004V37.0319H32.0004V45.0319H22.0004V34.6959L15.35 29.7916L15.3481 29.7897C15.1568 29.6248 15.0343 29.3951 15.0063 29.1432L14.0063 20.1432C13.944 19.5828 14.3267 19.1029 14.8871 19.0397Z" fill="#00B2FF"/>
</svg>
