<svg width="50" height="51" viewBox="0 0 50 51" fill="none" xmlns="http://www.w3.org/2000/svg">
<g clip-path="url(#clip0_1270_4913)">
<path d="M7 9.03125C4.243 9.03125 2 11.2743 2 14.0312V36.0312C2 38.7882 4.243 41.0312 7 41.0312H36.4141H40C39.252 40.6022 38.4498 39.9153 37.7988 39.0312H7C5.346 39.0312 4 37.6852 4 36.0312V14.0312C4 12.3772 5.346 11.0312 7 11.0312H43C44.654 11.0312 46 12.3772 46 14.0312V26.0312H48V14.0312C48 11.2743 45.757 9.03125 43 9.03125H7ZM10 16.0312C8.90694 16.0312 8 16.9382 8 18.0312V21.0312C8 22.1243 8.90694 23.0312 10 23.0312H14C15.0931 23.0312 16 22.1243 16 21.0312V18.0312C16 16.9382 15.0931 16.0312 14 16.0312H10ZM10 18.0312H14V21.0312H10V18.0312ZM28 18.0312C27.8675 18.0294 27.7359 18.0539 27.613 18.1033C27.49 18.1527 27.3781 18.226 27.2837 18.3191C27.1893 18.4121 27.1144 18.523 27.0632 18.6453C27.0121 18.7675 26.9858 18.8987 26.9858 19.0312C26.9858 19.1638 27.0121 19.295 27.0632 19.4172C27.1144 19.5395 27.1893 19.6504 27.2837 19.7434C27.3781 19.8365 27.49 19.9098 27.613 19.9592C27.7359 20.0086 27.8675 20.0331 28 20.0312H41C41.1325 20.0331 41.2641 20.0086 41.387 19.9592C41.51 19.9098 41.6219 19.8365 41.7163 19.7434C41.8107 19.6504 41.8856 19.5395 41.9368 19.4172C41.9879 19.295 42.0142 19.1638 42.0142 19.0312C42.0142 18.8987 41.9879 18.7675 41.9368 18.6453C41.8856 18.523 41.8107 18.4121 41.7163 18.3191C41.6219 18.226 41.51 18.1527 41.387 18.1033C41.2641 18.0539 41.1325 18.0294 41 18.0312H28ZM9 28.0312C8.86749 28.0294 8.73593 28.0539 8.61296 28.1033C8.48999 28.1527 8.37807 28.226 8.2837 28.3191C8.18933 28.4121 8.11439 28.523 8.06324 28.6453C8.0121 28.7675 7.98576 28.8987 7.98576 29.0312C7.98576 29.1638 8.0121 29.295 8.06324 29.4172C8.11439 29.5395 8.18933 29.6504 8.2837 29.7434C8.37807 29.8365 8.48999 29.9098 8.61296 29.9592C8.73593 30.0086 8.86749 30.0331 9 30.0312H14C14.1325 30.0331 14.2641 30.0086 14.387 29.9592C14.51 29.9098 14.6219 29.8365 14.7163 29.7434C14.8107 29.6504 14.8856 29.5395 14.9368 29.4172C14.9879 29.295 15.0142 29.1638 15.0142 29.0312C15.0142 28.8987 14.9879 28.7675 14.9368 28.6453C14.8856 28.523 14.8107 28.4121 14.7163 28.3191C14.6219 28.226 14.51 28.1527 14.387 28.1033C14.2641 28.0539 14.1325 28.0294 14 28.0312H9ZM18 28.0312C17.8675 28.0294 17.7359 28.0539 17.613 28.1033C17.49 28.1527 17.3781 28.226 17.2837 28.3191C17.1893 28.4121 17.1144 28.523 17.0632 28.6453C17.0121 28.7675 16.9858 28.8987 16.9858 29.0312C16.9858 29.1638 17.0121 29.295 17.0632 29.4172C17.1144 29.5395 17.1893 29.6504 17.2837 29.7434C17.3781 29.8365 17.49 29.9098 17.613 29.9592C17.7359 30.0086 17.8675 30.0331 18 30.0312H23C23.1325 30.0331 23.2641 30.0086 23.387 29.9592C23.51 29.9098 23.6219 29.8365 23.7163 29.7434C23.8107 29.6504 23.8856 29.5395 23.9368 29.4172C23.9879 29.295 24.0142 29.1638 24.0142 29.0312C24.0142 28.8987 23.9879 28.7675 23.9368 28.6453C23.8856 28.523 23.8107 28.4121 23.7163 28.3191C23.6219 28.226 23.51 28.1527 23.387 28.1033C23.2641 28.0539 23.1325 28.0294 23 28.0312H18ZM27 28.0312C26.8675 28.0294 26.7359 28.0539 26.613 28.1033C26.49 28.1527 26.3781 28.226 26.2837 28.3191C26.1893 28.4121 26.1144 28.523 26.0632 28.6453C26.0121 28.7675 25.9858 28.8987 25.9858 29.0312C25.9858 29.1638 26.0121 29.295 26.0632 29.4172C26.1144 29.5395 26.1893 29.6504 26.2837 29.7434C26.3781 29.8365 26.49 29.9098 26.613 29.9592C26.7359 30.0086 26.8675 30.0331 27 30.0312H32C32.1325 30.0331 32.2641 30.0086 32.387 29.9592C32.51 29.9098 32.6219 29.8365 32.7163 29.7434C32.8107 29.6504 32.8856 29.5395 32.9368 29.4172C32.9879 29.295 33.0142 29.1638 33.0142 29.0312C33.0142 28.8987 32.9879 28.7675 32.9368 28.6453C32.8856 28.523 32.8107 28.4121 32.7163 28.3191C32.6219 28.226 32.51 28.1527 32.387 28.1033C32.2641 28.0539 32.1325 28.0294 32 28.0312H27ZM36 28.0312C35.448 28.0312 35 28.4783 35 29.0312C35 29.5842 35.448 30.0312 36 30.0312H38.8398C39.5118 29.4522 40.257 29.0079 41 28.7109V28.0312H36ZM43 28.0312V30.2305C41.4 30.4305 38.5 31.8305 38.5 35.2305C38.5 41.6305 47.8008 38.3309 47.8008 43.1309C47.8008 44.7309 47.1 46.0312 44 46.0312C40.9 46.0312 40 44.3312 40 43.0312H38C38.3 47.3312 41.3 47.8309 43 48.1309V50.0312H45V48.1309C46.5 48.0309 50 46.9316 50 42.9316C50 39.6316 47.2992 38.7309 44.6992 38.1309C42.5992 37.6309 40.6992 37.1313 40.6992 35.0312C40.6992 34.1313 41.0996 32.1309 44.0996 32.1309C46.1996 32.1309 47.2 33.4312 47.5 35.0312H49.5C48.9 32.8312 47.9 30.832 45 30.332V28.0312H43ZM9 33.0312C8.86749 33.0294 8.73593 33.0539 8.61296 33.1033C8.48999 33.1527 8.37807 33.226 8.2837 33.3191C8.18933 33.4121 8.11439 33.523 8.06324 33.6453C8.0121 33.7675 7.98576 33.8987 7.98576 34.0312C7.98576 34.1638 8.0121 34.295 8.06324 34.4172C8.11439 34.5395 8.18933 34.6504 8.2837 34.7434C8.37807 34.8365 8.48999 34.9098 8.61296 34.9592C8.73593 35.0086 8.86749 35.0331 9 35.0312H22C22.1325 35.0331 22.2641 35.0086 22.387 34.9592C22.51 34.9098 22.6219 34.8365 22.7163 34.7434C22.8107 34.6504 22.8856 34.5395 22.9368 34.4172C22.9879 34.295 23.0142 34.1638 23.0142 34.0312C23.0142 33.8987 22.9879 33.7675 22.9368 33.6453C22.8856 33.523 22.8107 33.4121 22.7163 33.3191C22.6219 33.226 22.51 33.1527 22.387 33.1033C22.2641 33.0539 22.1325 33.0294 22 33.0312H9Z" fill="#00B2FF"/>
</g>
<defs>
<clipPath id="clip0_1270_4913">
<rect width="50" height="50" fill="white" transform="translate(0 0.03125)"/>
</clipPath>
</defs>
</svg>
