<svg width="50" height="51" viewBox="0 0 50 51" fill="none" xmlns="http://www.w3.org/2000/svg">
<path d="M5 2.03125C2.25048 2.03125 0 4.28173 0 7.03125V31.0312C0 33.7808 2.25048 36.0312 5 36.0312H42V6.03125H9.79688C9.31722 3.77306 7.39546 2.03125 5 2.03125ZM5 4.03125C6.66848 4.03125 8 5.36277 8 7.03125V27.0605C7.16094 26.424 6.12794 26.0312 5 26.0312C3.87206 26.0312 2.83906 26.424 2 27.0605V7.03125C2 5.36277 3.33152 4.03125 5 4.03125ZM10 8.03125H40V34.0312H5C3.33152 34.0312 2 32.6997 2 31.0312C2 29.3628 3.33152 28.0312 5 28.0312C6.66848 28.0312 8 29.3628 8 31.0312H10V8.03125ZM44 10.0312C43.8675 10.0294 43.7359 10.0539 43.613 10.1033C43.49 10.1527 43.3781 10.226 43.2837 10.3191C43.1893 10.4121 43.1144 10.523 43.0632 10.6453C43.0121 10.7675 42.9858 10.8987 42.9858 11.0312C42.9858 11.1638 43.0121 11.295 43.0632 11.4172C43.1144 11.5395 43.1893 11.6504 43.2837 11.7434C43.3781 11.8365 43.49 11.9098 43.613 11.9592C43.7359 12.0086 43.8675 12.0331 44 12.0312V38.0312H9C8.24788 38.0312 7.57585 37.7489 7.03906 37.2793C6.9407 37.1903 6.8256 37.1217 6.70048 37.0776C6.57537 37.0335 6.44273 37.0148 6.31028 37.0224C6.17784 37.0301 6.04825 37.064 5.92905 37.1222C5.80985 37.1805 5.70342 37.2618 5.61597 37.3616C5.52852 37.4613 5.46179 37.5775 5.41967 37.7033C5.37755 37.8291 5.36088 37.962 5.37062 38.0943C5.38037 38.2266 5.41634 38.3557 5.47644 38.4739C5.53655 38.5922 5.61958 38.6973 5.7207 38.7832C6.58991 39.5436 7.73812 40.0312 9 40.0312H46V10.0312H44ZM29 13.0312L31.2363 15.2676L26.0059 20.2148L21.0059 14.9648L13.9473 21.6367L15.3223 23.0918L20.9316 17.7871L25.9316 23.0371L32.6523 16.6836L35 19.0312V13.0312H29ZM48 14.0312C47.8675 14.0294 47.7359 14.0539 47.613 14.1033C47.49 14.1527 47.3781 14.226 47.2837 14.3191C47.1893 14.4121 47.1144 14.523 47.0632 14.6453C47.0121 14.7675 46.9858 14.8987 46.9858 15.0312C46.9858 15.1638 47.0121 15.295 47.0632 15.4172C47.1144 15.5395 47.1893 15.6504 47.2837 15.7434C47.3781 15.8365 47.49 15.9098 47.613 15.9592C47.7359 16.0086 47.8675 16.0331 48 16.0312V42.0312H13C12.2479 42.0312 11.5759 41.7489 11.0391 41.2793C10.9407 41.1903 10.8256 41.1217 10.7005 41.0776C10.5754 41.0335 10.4427 41.0148 10.3103 41.0224C10.1778 41.0301 10.0482 41.064 9.92904 41.1222C9.80984 41.1805 9.70342 41.2618 9.61597 41.3616C9.52852 41.4613 9.46179 41.5775 9.41966 41.7033C9.37754 41.8291 9.36087 41.962 9.37062 42.0943C9.38036 42.2266 9.41634 42.3557 9.47644 42.4739C9.53654 42.5922 9.61958 42.6973 9.7207 42.7832C10.5899 43.5436 11.7381 44.0312 13 44.0312H50V14.0312H48ZM14 27.0312V29.0312H35V27.0312H14Z" fill="#00B2FF"/>
</svg>
