<svg width="50" height="51" viewBox="0 0 50 51" fill="none" xmlns="http://www.w3.org/2000/svg">
<g clip-path="url(#clip0_1270_4746)">
<path d="M29.3125 0.0313099C26.8438 0.0313099 24.9453 1.23053 23.6562 2.56256C22.6641 3.586 22.0625 4.59381 21.6562 5.40631C18.0156 4.45319 15.3984 5.04694 13.75 6.25006C11.9688 7.55084 11.2539 9.39459 11.0625 9.87506C10.8633 10.3946 11.1211 10.9727 11.6406 11.1719C12.1602 11.3712 12.7383 11.1133 12.9375 10.5938C13.1445 10.0743 13.6367 8.80084 14.9062 7.87506C16.1758 6.94928 18.2227 6.28912 21.9062 7.46881C22.3867 7.62506 22.9141 7.3985 23.125 6.93756C23.3906 6.32037 24.0586 5.00787 25.0938 3.93756C26.1289 2.86725 27.4805 2.03131 29.3125 2.03131C31.4609 2.03131 32.9375 2.81256 34.75 3.71881C35.0352 3.86334 35.3711 3.86334 35.6562 3.71881C38.4297 2.28522 40.2773 2.03131 43.3125 2.03131C43.6719 2.03522 44.0078 1.84772 44.1914 1.53522C44.3711 1.22272 44.3711 0.839904 44.1914 0.527404C44.0078 0.214904 43.6719 0.0274036 43.3125 0.0313099C40.3359 0.0313099 38.0273 0.410216 35.25 1.75006C33.5703 0.910216 31.7734 0.0313099 29.3125 0.0313099ZM48.8438 5.53131C48.4844 5.5899 48.1836 5.84381 48.0625 6.18756C48.0625 6.18756 47.8477 6.84772 46.9375 7.62506C46.0273 8.4024 44.4414 9.21881 41.5938 9.21881C41.3047 9.21881 41.0312 9.34381 40.8438 9.56256C40.2773 10.211 39.375 11.0313 36.8125 11.0313C34.6758 11.0313 33 9.50006 33 9.50006C32.5938 9.12115 31.957 9.14069 31.5781 9.54694C31.1992 9.95319 31.2188 10.5899 31.625 10.9688C31.625 10.9688 33.75 13.0313 36.8125 13.0313C39.5547 13.0313 41.0625 12.043 41.9688 11.1563C44.9727 11.0704 47.0469 10.1797 48.25 9.15631C49.5117 8.08209 49.9375 6.87506 49.9375 6.87506C50.0664 6.54303 50.0039 6.16412 49.7773 5.88678C49.5547 5.60944 49.1953 5.47272 48.8438 5.53131ZM6.8125 14.0313C6.26172 14.0821 5.85547 14.5743 5.90625 15.1251C5.95703 15.6758 6.44922 16.0821 7 16.0313H8V26.0313C8 26.5626 7.55078 28.2422 6.8125 30.1876C6.07422 32.1329 5.08984 34.4297 4.09375 36.6876C3.09766 38.9454 2.10156 41.168 1.34375 42.9376C0.964844 43.8243 0.636719 44.586 0.40625 45.2188C0.175781 45.8516 0 46.2501 0 46.8438C0 47.3712 0.300781 47.8204 0.625 48.0938C0.949219 48.3672 1.32031 48.5274 1.75 48.6876C2.60938 49.0079 3.74609 49.2462 5.21875 49.4376C8.16406 49.8243 12.4258 50.0313 18 50.0313C23.5742 50.0313 27.8359 49.8243 30.7812 49.4376C32.2539 49.2462 33.3906 49.0079 34.25 48.6876C34.6797 48.5274 35.0508 48.3672 35.375 48.0938C35.6992 47.8204 36 47.3712 36 46.8438C36 46.2501 35.8281 45.879 35.5938 45.3126C35.3594 44.7462 35.0352 44.0508 34.6562 43.2813C33.8984 41.7383 32.8984 39.8165 31.9062 37.7501C29.9219 33.6212 28 28.8712 28 26.0313V16.0313H29C29.3594 16.0352 29.6953 15.8477 29.8789 15.5352C30.0586 15.2227 30.0586 14.8399 29.8789 14.5274C29.6953 14.2149 29.3594 14.0274 29 14.0313H7C6.96875 14.0313 6.9375 14.0313 6.90625 14.0313C6.875 14.0313 6.84375 14.0313 6.8125 14.0313ZM10 16.0313H26V26.0313C26 29.6915 28.0781 34.4297 30.0938 38.6251C31.1016 40.7227 32.1016 42.6758 32.8438 44.1876C33.2148 44.9415 33.5156 45.5743 33.7188 46.0626C33.8672 46.418 33.9062 46.5352 33.9375 46.6251C33.8555 46.6797 33.7891 46.7579 33.5625 46.8438C32.9688 47.0665 31.9219 47.2852 30.5312 47.4688C27.75 47.8321 23.5273 48.0313 18 48.0313C12.4727 48.0313 8.25 47.8321 5.46875 47.4688C4.07812 47.2852 3.03125 47.0665 2.4375 46.8438C2.21094 46.7579 2.14453 46.6797 2.0625 46.6251C2.09375 46.5313 2.12109 46.3438 2.28125 45.9063C2.48828 45.336 2.78516 44.586 3.15625 43.7188C3.89844 41.9805 4.90234 39.7696 5.90625 37.5001C6.91016 35.2305 7.92578 32.918 8.6875 30.9063C8.91406 30.3047 9.13281 29.7501 9.3125 29.2188H9.40625V29.0313H9.34375C9.73047 27.8712 10 26.8751 10 26.0313V16.0313ZM21.5 29.8438L19.3125 33.7188C20.0117 34.2188 20.5938 35.1329 20.5938 36.0313H25C25 33.4297 23.6016 31.1446 21.5 29.8438ZM14.5 29.9376C12.3984 31.1368 11 33.4258 11 36.1251H15.4062C15.4062 35.1251 15.9883 34.2422 16.6875 33.8438L14.5 29.9376ZM18 34.7188C17.2812 34.7188 16.6875 35.3126 16.6875 36.0313C16.6875 36.7501 17.2812 37.3438 18 37.3438C18.7188 37.3438 19.3125 36.7501 19.3125 36.0313C19.3125 35.3126 18.7188 34.7188 18 34.7188ZM16.6875 38.3438L14.5 42.2188C15.5 42.8204 16.6992 43.2188 18 43.2188C19.3008 43.2188 20.3984 42.8204 21.5 42.2188L19.3125 38.3438C18.9141 38.543 18.5 38.7188 18 38.7188C17.5 38.7188 17.0859 38.6446 16.6875 38.3438Z" fill="#00B2FF"/>
</g>
<defs>
<clipPath id="clip0_1270_4746">
<rect width="50" height="50" fill="white" transform="translate(0 0.03125)"/>
</clipPath>
</defs>
</svg>
