<svg width="50" height="51" viewBox="0 0 50 51" fill="none" xmlns="http://www.w3.org/2000/svg">
<g clip-path="url(#clip0_1270_4780)">
<path d="M16.0005 0.03125C12.4536 0.03125 10.0395 2.14453 7.87547 3.9375C5.7114 5.73047 3.84031 7.19922 1.09422 6.9375C0.762185 6.90234 0.43406 7.03516 0.219216 7.29297C0.00827861 7.55078 -0.0659402 7.89844 0.0317161 8.21875C0.180154 8.74219 0.574685 9.63672 1.50047 10.4688C2.34812 11.2344 3.72703 11.8164 5.50047 11.875C5.62156 11.9805 5.68797 12.1758 5.81297 12.25C6.16062 12.4531 6.54734 12.5938 6.93797 12.6875C7.53953 12.8281 8.18406 12.7656 8.81297 12.6875C8.92234 12.75 9.03172 12.8516 9.15672 12.9062C9.43015 13.0234 9.74265 13.1406 10.0942 13.2188C10.6528 13.3398 11.3247 13.2344 12.0005 13.0625C12.4302 13.2617 12.852 13.4805 13.2817 13.4688C13.5473 13.4609 13.7778 13.3125 14.0317 13.25C14.2661 13.6836 14.4302 14.0938 14.8442 14.625C15.3286 15.25 15.8989 15.9297 16.7192 16.25C16.977 17.4297 17.6528 18.3984 18.5005 19.0938C19.0317 19.5312 19.6333 19.875 20.2505 20.1875C19.3716 21.0117 18.4067 22.3086 18.4067 24.125C18.4067 25.8242 18.9887 27.2148 19.8442 28.2812C20.1762 28.6953 20.5552 29.0391 20.938 29.375C20.0669 30.2109 19.0005 31.6133 19.0005 33.4375C19.0005 35.207 19.7231 36.5391 20.6567 37.4062C20.7466 37.4883 20.8481 37.5508 20.938 37.625C20.4887 38.2812 20.0005 39.2969 20.0005 40.625C20.0005 41.9492 20.8208 42.9648 21.7192 43.6562C21.8442 43.75 21.9653 43.8477 22.0942 43.9375C21.6294 44.5625 21.3403 45.1562 21.2192 45.75C21.0552 46.5586 21.2348 47.3242 21.5317 47.875C22.1294 48.9766 23.1567 49.4375 23.1567 49.4375C23.4262 49.5625 23.7309 49.5625 24.0005 49.4375V50.0312H26.0005V49.5C26.438 49.7148 26.9653 49.582 27.2505 49.1875C27.7466 48.6055 28.0903 48.0273 28.2192 47.4062C28.3325 46.8711 28.2348 46.3359 28.0317 45.875C28.2427 45.5664 28.5317 45.1484 28.813 44.6562C29.3794 43.6719 30.0005 42.4141 30.0005 41.0312C30.0005 39.7656 29.6684 38.7266 29.188 37.875C30.1216 37.1523 31.5005 35.7109 31.5005 33.4375C31.5005 32.0898 30.8403 30.9492 30.0005 30.0312C29.7466 29.7539 29.4731 29.5 29.188 29.25C30.3286 28.2227 32.0005 26.2383 32.0005 23.4375C32.0005 22.0859 31.4419 20.9141 30.6255 20C31.0669 19.7422 31.52 19.4414 31.938 19.0312C32.6098 18.375 33.1255 17.4141 33.313 16.1875C34.0669 15.8477 34.602 15.2188 35.063 14.625C35.4692 14.1016 35.6411 13.7109 35.8755 13.2812C36.1216 13.3398 36.3364 13.4609 36.5942 13.4688C37.0278 13.4805 37.4731 13.2656 37.9067 13.0625C38.5708 13.2227 39.2583 13.3398 39.813 13.2188C40.1645 13.1406 40.477 13.0234 40.7505 12.9062C40.8677 12.8555 40.9614 12.7422 41.063 12.6875C41.7192 12.8008 42.4106 12.8945 43.0317 12.75C43.6098 12.6133 44.1372 12.332 44.563 11.875C46.3012 11.8047 47.6606 11.2227 48.5005 10.4688C49.4262 9.63672 49.8208 8.74219 49.9692 8.21875C50.0669 7.89844 49.9927 7.55078 49.7817 7.29297C49.5669 7.03516 49.2387 6.90234 48.9067 6.9375C46.1606 7.19922 44.2895 5.73047 42.1255 3.9375C39.9614 2.14453 37.5473 0.03125 34.0005 0.03125C32.7973 0.03125 31.8052 0.660156 31.1255 1.4375C30.4458 2.21484 30.0005 3.14062 30.0005 4.125C30.0005 5.24219 30.1919 6.05078 30.4067 6.59375C30.4145 6.60938 30.4302 6.60938 30.438 6.625C30.3716 6.65234 30.3911 6.66406 30.313 6.6875C29.9262 6.80469 29.3989 6.88672 28.9067 6.9375C28.4966 6.98047 28.1333 7.01953 27.813 7.03125V6.84375C28.5395 6.11719 29.0005 5.12891 29.0005 4.03125C29.0005 1.83203 27.1997 0.03125 25.0005 0.03125C22.8012 0.03125 21.0005 1.83203 21.0005 4.03125C21.0005 5.12891 21.4614 6.11719 22.188 6.84375V7.03125C21.8677 7.01953 21.5044 6.98047 21.0942 6.9375C20.602 6.88672 20.0747 6.80469 19.688 6.6875C19.6098 6.66406 19.6294 6.65234 19.563 6.625C19.5708 6.60938 19.5864 6.60938 19.5942 6.59375C19.8091 6.05078 20.0005 5.24219 20.0005 4.125C20.0005 3.14062 19.5552 2.21484 18.8755 1.4375C18.1958 0.660156 17.2036 0.03125 16.0005 0.03125ZM16.0005 2.03125C16.4966 2.03125 16.9809 2.30078 17.3755 2.75C17.77 3.19922 18.0005 3.80859 18.0005 4.125C18.0005 5.00781 17.852 5.51172 17.7192 5.84375C17.6528 6.01172 17.6059 6.13672 17.5317 6.28125C17.4575 6.42578 17.313 6.56641 17.313 7.03125C17.313 7.25781 17.3911 7.48047 17.5317 7.65625C17.9809 8.20312 18.5473 8.42188 19.1255 8.59375C19.7036 8.76562 20.3052 8.87891 20.8755 8.9375C21.3989 8.99219 21.8677 9.01953 22.2505 9.03125L22.313 11.375C21.8989 11.2305 21.438 11.125 20.9067 11.125C19.2153 11.125 17.4692 12.168 16.8442 13.875C16.7075 13.7422 16.5708 13.5781 16.438 13.4062C15.9458 12.7695 15.5044 11.9766 15.4067 11.75C15.2973 11.4844 15.0825 11.2812 14.8169 11.1836C14.5473 11.0898 14.2505 11.1133 14.0005 11.25C13.8169 11.3555 13.4848 11.4609 13.2192 11.4688C12.9536 11.4766 12.7934 11.4102 12.7505 11.375C12.4575 11.1211 12.0434 11.0586 11.688 11.2188C11.4419 11.332 10.9419 11.3477 10.5005 11.25C10.2778 11.2031 10.0825 11.125 9.93797 11.0625C9.86375 11.0312 9.80906 10.9844 9.78172 10.9688C9.52 10.75 9.16844 10.6797 8.84422 10.7812C8.54344 10.8633 7.8989 10.8359 7.40672 10.7188C7.16062 10.6602 6.94578 10.5898 6.84422 10.5312C6.67625 10.1523 6.28953 9.91406 5.87547 9.9375C4.30125 9.98047 3.41844 9.51562 2.84422 9C2.76219 8.92578 2.78953 8.88672 2.71922 8.8125C5.32469 8.46094 7.34031 6.94531 9.12547 5.46875C11.3091 3.66016 13.2466 2.03125 16.0005 2.03125ZM25.0005 2.03125C26.1177 2.03125 27.0005 2.91406 27.0005 4.03125C27.0005 4.66406 26.6997 5.19922 26.2505 5.5625C26.1802 5.60547 26.1177 5.66016 26.063 5.71875C25.7544 5.91016 25.395 6.03125 25.0005 6.03125C24.5825 6.03125 24.1958 5.90234 23.8755 5.6875C23.8286 5.64062 23.7739 5.59766 23.7192 5.5625C23.2817 5.19922 23.0005 4.65625 23.0005 4.03125C23.0005 2.91406 23.8833 2.03125 25.0005 2.03125ZM34.0005 2.03125C36.7544 2.03125 38.6919 3.66016 40.8755 5.46875C42.6606 6.94531 44.6762 8.46094 47.2817 8.8125C47.2114 8.88672 47.2387 8.92578 47.1567 9C46.5825 9.51562 45.6997 9.98047 44.1255 9.9375C43.6958 9.92578 43.3052 10.1875 43.1567 10.5938C43.2192 10.4297 43.0317 10.7031 42.563 10.8125C42.0942 10.9219 41.4887 10.9023 41.1255 10.7812C40.7817 10.6562 40.3989 10.7305 40.1255 10.9688C40.0981 10.9844 40.0434 11.0312 39.9692 11.0625C39.8247 11.125 39.5981 11.2031 39.3755 11.25C38.9341 11.3477 38.4653 11.332 38.2192 11.2188C37.8637 11.0586 37.4497 11.1211 37.1567 11.375C37.1137 11.4102 36.9223 11.4766 36.6567 11.4688C36.3911 11.4609 36.0903 11.3555 35.9067 11.25C35.6528 11.1016 35.3481 11.0703 35.0708 11.168C34.7973 11.2656 34.5747 11.4766 34.4692 11.75C34.3716 11.9766 33.9614 12.7695 33.4692 13.4062C33.3559 13.5547 33.2466 13.6953 33.1255 13.8125C32.4809 12.1445 30.7622 11.125 29.0942 11.125C28.5708 11.125 28.0981 11.2031 27.688 11.3438L27.7505 9.03125C28.1333 9.01953 28.602 8.99219 29.1255 8.9375C29.6958 8.87891 30.2973 8.76562 30.8755 8.59375C31.4536 8.42188 32.02 8.20312 32.4692 7.65625C32.6098 7.48047 32.688 7.25781 32.688 7.03125C32.688 6.56641 32.5434 6.42578 32.4692 6.28125C32.395 6.13672 32.3481 6.01172 32.2817 5.84375C32.1489 5.51172 32.0005 5.00781 32.0005 4.125C32.0005 3.80859 32.2309 3.19922 32.6255 2.75C33.02 2.30078 33.5044 2.03125 34.0005 2.03125ZM24.2192 7.9375C24.4692 7.98828 24.7348 8.03125 25.0005 8.03125C25.2661 8.03125 25.5317 7.98828 25.7817 7.9375L25.5317 16.9375C25.1802 16.7969 24.8325 16.6602 24.5005 16.5312L24.2192 7.9375ZM20.9067 13.125C22.2544 13.125 22.188 13.6914 22.188 13.625C22.188 13.7031 22.2387 13.6445 22.188 13.6875C22.1372 13.7305 21.9614 13.8164 21.7192 13.875C21.2348 13.9922 20.5005 13.9727 20.2192 13.9375C19.9341 13.9023 19.645 13.9922 19.4302 14.1836C19.2153 14.375 19.0903 14.6484 19.0942 14.9375C19.0942 15.6172 19.4887 16.168 19.9067 16.5312C20.3247 16.8945 20.8247 17.1484 21.3755 17.4062C22.477 17.9258 23.8325 18.3828 25.1567 18.9375C25.2661 19.0273 25.395 19.0898 25.5317 19.125C26.3442 19.4766 27.145 19.8594 27.813 20.2812C27.9536 20.6328 28.2817 20.875 28.6567 20.9062C29.5239 21.6484 30.0005 22.3984 30.0005 23.4375C30.0005 25.6133 28.438 27.2695 27.5942 28C27.438 27.8867 27.2817 27.7656 27.1255 27.6562C26.938 27.5273 26.7778 27.4062 26.5942 27.2812C26.6802 27.207 26.7583 27.1445 26.8442 27.0625C27.6177 26.3477 28.5005 25.293 28.5005 23.8438C28.5005 22.4609 27.5317 21.4258 26.4692 20.7812C25.4067 20.1367 24.1528 19.7109 22.938 19.2188C21.7231 18.7266 20.5552 18.168 19.7817 17.5312C19.0512 16.9297 18.6372 16.3203 18.5942 15.375C18.5981 15.3242 18.5981 15.2695 18.5942 15.2188C18.5942 13.9141 19.8052 13.125 20.9067 13.125ZM29.0942 13.125C30.1372 13.125 31.2622 13.8438 31.3755 15.0312C31.2622 15.2891 31.2622 15.5859 31.3755 15.8438C31.2778 16.6992 30.977 17.1836 30.563 17.5938C30.1762 17.9727 29.6098 18.2852 29.0005 18.625C28.7934 18.4883 28.563 18.375 28.3442 18.25C28.6958 18.0391 29.0278 17.8125 29.313 17.5625C29.7583 17.1758 30.1333 16.7617 30.4067 16.3438C30.6802 15.9258 30.9067 15.5156 30.9067 14.9375C30.9106 14.6484 30.7856 14.375 30.5708 14.1836C30.3559 13.9922 30.0669 13.9023 29.7817 13.9375C29.5005 13.9727 28.7661 13.9922 28.2817 13.875C28.0395 13.8164 27.8637 13.7305 27.813 13.6875C27.7622 13.6445 27.813 13.7031 27.813 13.625C27.813 13.6914 27.7466 13.125 29.0942 13.125ZM27.563 15.7188C27.645 15.7461 27.7309 15.793 27.813 15.8125C27.9614 15.8477 28.0434 15.8203 28.188 15.8438C28.1177 15.9141 28.0786 15.9609 28.0005 16.0312C27.8637 16.1523 27.688 16.2656 27.5317 16.375L27.563 15.7188ZM22.313 21.125C22.602 21.2422 22.8794 21.3242 23.1567 21.4375C23.145 21.4492 23.1372 21.457 23.1255 21.4688C22.4262 22.1094 21.5942 23.0938 21.5942 24.4375C21.5942 25.6172 22.3286 26.4844 23.1567 27.2188C23.3989 27.4336 23.6723 27.6367 23.938 27.8438C24.0591 28.0469 24.2466 28.2031 24.4692 28.2812C24.477 28.2852 24.4927 28.2773 24.5005 28.2812C24.52 28.293 24.5434 28.3047 24.563 28.3125C25.0239 28.6445 25.5005 28.9883 25.9692 29.3125C26.2192 29.4844 26.4458 29.668 26.688 29.8438C26.8286 30.0664 27.0552 30.2227 27.313 30.2812C27.7778 30.6406 28.1958 31.0078 28.5317 31.375C29.1723 32.0781 29.5005 32.7344 29.5005 33.4375C29.5005 34.918 28.5473 35.832 27.938 36.2812C27.688 36.0469 27.4458 35.8477 27.188 35.6562C27.7309 35.2188 28.313 34.5898 28.313 33.625C28.313 32.4258 27.5317 31.5273 26.688 30.875C26.52 30.7422 26.3403 30.6211 26.1567 30.5C26.145 30.4883 26.1372 30.4805 26.1255 30.4688C26.1137 30.4609 26.1059 30.4453 26.0942 30.4375C25.9497 30.2461 25.7387 30.1133 25.5005 30.0625C24.9653 29.7344 24.4106 29.4336 23.8755 29.0938C23.7466 29.0117 23.6255 28.9297 23.5005 28.8438C23.3637 28.5703 23.1098 28.375 22.813 28.3125C22.2895 27.9102 21.7856 27.5039 21.4067 27.0312C20.7817 26.25 20.4067 25.375 20.4067 24.125C20.4067 22.6172 21.7387 21.5352 22.313 21.125ZM25.2192 22.375C25.2934 22.4141 25.3716 22.4609 25.438 22.5C26.2309 22.9805 26.5005 23.3281 26.5005 23.8438C26.5005 24.3945 26.0473 25.0586 25.4692 25.5938C25.2583 25.7891 25.0903 25.9258 24.9067 26.0625C24.7778 25.9609 24.6137 25.8516 24.5005 25.75C23.8442 25.168 23.5942 24.707 23.5942 24.4375C23.5942 23.9805 23.9692 23.3945 24.4692 22.9375C24.7661 22.6641 25.0278 22.4961 25.2192 22.375ZM22.5942 30.6562C22.6645 30.7031 22.7427 30.7383 22.813 30.7812C23.0942 30.9609 23.3559 31.1172 23.6255 31.2812C23.602 31.3047 23.5864 31.3203 23.563 31.3438C23.2895 31.6484 22.9887 31.9648 22.7505 32.3438C22.5122 32.7227 22.313 33.1367 22.313 33.7188C22.313 34.207 22.4927 34.668 22.7505 35C23.0083 35.332 23.313 35.5664 23.6255 35.7812C23.938 35.9961 24.2856 36.207 24.6255 36.4062C24.6919 36.457 24.7661 36.5 24.8442 36.5312C25.1098 36.6875 25.3677 36.8359 25.6255 37C26.9341 37.8398 28.0005 38.7383 28.0005 41.0312C28.0005 41.7461 27.5786 42.8164 27.0942 43.6562C26.9419 43.9219 26.8247 44.1055 26.688 44.3125C26.4809 44.1641 26.2505 44.0352 26.0317 43.9062C26.8794 42.3086 27.1684 41.0117 26.813 39.9062C26.4184 38.6758 25.3872 37.9922 24.4692 37.4688C23.5512 36.9453 22.6567 36.5156 22.0317 35.9375C21.4067 35.3594 21.0005 34.7148 21.0005 33.4375C21.0005 32.3867 21.9575 31.2773 22.5942 30.6562ZM25.313 32.4062C25.3481 32.4297 25.4067 32.4453 25.438 32.4688C26.0786 32.9648 26.313 33.2734 26.313 33.625C26.313 33.668 26.1098 33.9766 25.7192 34.25C25.5669 34.3555 25.4419 34.4297 25.313 34.5C25.1411 34.3984 24.8794 34.2422 24.7505 34.1562C24.5317 34.0078 24.3989 33.8516 24.3442 33.7812C24.2895 33.7109 24.313 33.7305 24.313 33.7188C24.313 33.8008 24.3325 33.625 24.4692 33.4062C24.6059 33.1875 24.8052 32.9336 25.0317 32.6875C25.1723 32.5352 25.1841 32.5352 25.313 32.4062ZM22.5942 38.7188C22.8442 38.8555 23.0864 39 23.313 39.125C22.7348 40.1055 22.6762 41.1484 22.8755 42C22.2661 41.5156 22.0005 41.1289 22.0005 40.625C22.0005 39.6953 22.3247 39.0938 22.5942 38.7188ZM24.8442 40.375C24.8637 40.418 24.8911 40.457 24.9067 40.5C24.9809 40.7383 24.9927 41.1211 24.8442 41.6562C24.688 41.2461 24.6059 40.8555 24.8442 40.375ZM23.8442 44.9688C23.8989 44.9961 23.9497 45.0352 24.0005 45.0625V47.5938C23.9419 47.5586 23.4966 47.3008 23.2817 46.9062C23.1684 46.6953 23.1177 46.5 23.188 46.1562C23.2466 45.8711 23.4341 45.4766 23.8442 44.9688ZM26.0005 46.4062C26.0786 46.4883 26.1528 46.5625 26.188 46.625C26.2661 46.7695 26.2856 46.8281 26.2505 47C26.227 47.1172 26.145 47.3086 26.0005 47.5312V46.4062Z" fill="#00B2FF"/>
</g>
<defs>
<clipPath id="clip0_1270_4780">
<rect width="50" height="50" fill="white" transform="translate(0 0.03125)"/>
</clipPath>
</defs>
</svg>
