<svg width="157" height="44" viewBox="0 0 157 44" fill="none" xmlns="http://www.w3.org/2000/svg">
<path d="M4.97712 0.71875H0V23.1858H5.04101L4.97712 0.71875Z" fill="#292B32"/>
<path d="M18.4544 23.1841L10.5382 11.1482L17.3043 0.652344H11.9375L5.17139 11.53L12.5764 23.1841H18.4544Z" fill="#292B32"/>
<path d="M28.7935 0.652344H23.8802V23.1841L28.8574 23.1194L28.7935 0.652344Z" fill="#292B32"/>
<path d="M53.3667 0.652344H48.8943V9.01925C48.8879 9.88381 48.9306 10.748 49.0221 11.6076L49.1499 13.8595H49.0221C48.9582 13.7366 48.6388 12.8953 48.511 12.7012C48.2811 12.1752 48.0252 11.6612 47.7443 11.1611L41.943 0.652344H37.2789L37.3428 23.1194H41.8152V12.5653C41.8152 11.9829 41.6874 9.14867 41.6235 8.50805H41.7513C42.2131 9.79147 42.7662 11.0393 43.4061 12.2418L49.348 23.1194H53.3667V0.652344Z" fill="#292B32"/>
<path d="M77.0575 18.8663H66.2726V13.5925H73.1665V9.47052H66.2024V4.70792H76.3547L76.2908 0.585938H61.353V23.1177L77.0575 23.053V18.8663Z" fill="#292B32"/>
<path d="M82.1558 4.64542H87.8421V23.0552H92.947V4.64542H98.4991V0.523438L82.1558 0.588147V4.64542Z" fill="#292B32"/>
<path d="M109.667 0.52517L104.753 0.53125L104.781 22.9983L109.694 22.9922L109.667 0.52517Z" fill="#292B32"/>
<path d="M132.845 15.3296H127.868C127.804 17.7109 127.229 19.3869 125.185 19.3869C122.501 19.3869 122.501 17.0056 122.501 15.7826V7.28624C122.453 6.84386 122.501 6.39622 122.64 5.97403C122.779 5.55183 123.006 5.16506 123.306 4.84023C123.817 4.38097 124.476 4.12766 125.159 4.12843C127.587 4.12843 127.651 6.57444 127.715 7.6745H132.628C132.564 5.86911 132.309 3.09955 130.328 1.49476C128.909 0.459014 127.188 -0.0650117 125.44 0.00645006C120.272 0.00645006 117.556 2.90542 117.556 8.05628V14.8184C117.556 19.3869 118.77 20.6746 119.665 21.574C121.07 22.9265 122.859 23.5671 125.472 23.5671C126.431 23.5671 128.731 23.3794 130.322 22.0917C131.582 21.1139 132.428 19.6861 132.686 18.0992C132.834 17.1842 132.888 16.2559 132.845 15.3296Z" fill="#292B32"/>
<path d="M143.706 18.485H150.6L151.686 22.9241H156.471L150.025 0.457031H144.089L137.828 22.9888H142.556L143.706 18.485ZM146.951 4.44959H147.079L149.571 14.6219H144.594L146.951 4.44959Z" fill="#292B32"/>
<path d="M2.74732 35.7106H0V43.7539H0.766694V40.6026H2.74732C3.07357 40.6256 3.40094 40.5787 3.70807 40.4649C4.01519 40.3511 4.29517 40.173 4.52971 39.9421C4.76426 39.7113 4.94809 39.433 5.06922 39.1253C5.19035 38.8176 5.24605 38.4875 5.23268 38.1566C5.24111 37.827 5.18203 37.4991 5.05918 37.1938C4.93633 36.8884 4.75236 36.6121 4.51888 36.3824C4.28539 36.1526 4.00744 35.9742 3.70254 35.8586C3.39764 35.743 3.0724 35.6926 2.74732 35.7106ZM2.68343 39.8908H0.766694V36.4159H2.68343C2.91751 36.4014 3.15205 36.4356 3.37259 36.5164C3.59314 36.5972 3.79503 36.7228 3.96584 36.8856C4.13665 37.0483 4.27276 37.2448 4.3658 37.4628C4.45884 37.6808 4.50684 37.9158 4.50684 38.1534C4.50684 38.3909 4.45884 38.6259 4.3658 38.8439C4.27276 39.062 4.13665 39.2584 3.96584 39.4212C3.79503 39.5839 3.59314 39.7095 3.37259 39.7903C3.15205 39.8711 2.91751 39.9053 2.68343 39.8908Z" fill="#292B32"/>
<path d="M9.12966 40.0814H12.19V39.376H9.12966V36.4124H12.829V35.707H8.29907V43.7504H13.0845V43.1098H9.12966V40.0814Z" fill="#292B32"/>
<path d="M19.8083 40.2104C20.2708 40.0547 20.6706 39.7508 20.9473 39.3444C21.224 38.9381 21.3624 38.4516 21.3417 37.9585C21.3572 37.5418 21.2501 37.1299 21.034 36.775C20.8178 36.4201 20.5024 36.1383 20.1278 35.9654C19.6735 35.7425 19.1667 35.6528 18.6647 35.7066H16.2368V43.75H17.0035V40.4045H19.048L20.8306 43.8147H21.7251L20 40.5339C19.9302 40.4298 19.8662 40.3218 19.8083 40.2104ZM18.9841 39.6345V39.6927H17.1313V36.4119H18.7286C19.0725 36.3717 19.421 36.4161 19.7444 36.5414C20.0022 36.6724 20.2175 36.8755 20.3647 37.1267C20.5119 37.3779 20.5849 37.6666 20.575 37.9585C20.5885 38.1783 20.5565 38.3985 20.4809 38.605C20.4054 38.8115 20.2881 38.9997 20.1364 39.1576C19.9848 39.3154 19.8022 39.4394 19.6005 39.5215C19.3987 39.6036 19.1823 39.6421 18.965 39.6345H18.9841Z" fill="#292B32"/>
<path d="M24.8351 43.7504H25.6018V40.1461H28.5344V39.4408H25.6018V36.4124H29.0455V35.707H24.8351V43.7504Z" fill="#292B32"/>
<path d="M35.5592 35.5795C35.0209 35.5653 34.4854 35.662 33.985 35.8636C33.4846 36.0651 33.0298 36.3674 32.6482 36.7522C32.2665 37.1369 31.9659 37.5961 31.7645 38.1019C31.5631 38.6078 31.4652 39.1497 31.4766 39.695C31.4548 40.2522 31.5444 40.8081 31.7399 41.3294C31.9354 41.8507 32.2329 42.3266 32.6145 42.7286C32.996 43.1306 33.4538 43.4505 33.9604 43.669C34.4669 43.8874 35.0118 44.0001 35.5624 44.0001C36.113 44.0001 36.6579 43.8874 37.1645 43.669C37.6711 43.4505 38.1288 43.1306 38.5104 42.7286C38.8919 42.3266 39.1894 41.8507 39.3849 41.3294C39.5804 40.8081 39.67 40.2522 39.6483 39.695C39.6588 39.1494 39.56 38.6073 39.358 38.1015C39.1559 37.5956 38.8546 37.1365 38.4725 36.7519C38.0903 36.3672 37.6351 36.065 37.1344 35.8635C36.6337 35.662 36.0978 35.5654 35.5592 35.5795ZM35.5592 43.1763C35.1169 43.1743 34.6796 43.0814 34.2737 42.9033C33.8679 42.7252 33.5019 42.4656 33.1979 42.1402C32.8939 41.8148 32.6583 41.4303 32.5052 41.01C32.3521 40.5898 32.2847 40.1424 32.3072 39.695C32.2986 39.2576 32.3766 38.823 32.5363 38.4166C32.6961 38.0102 32.9345 37.6403 33.2375 37.3286C33.5405 37.0169 33.902 36.7697 34.3007 36.6015C34.6994 36.4334 35.1273 36.3477 35.5592 36.3495C35.9934 36.3405 36.4248 36.4212 36.8271 36.5867C37.2295 36.7522 37.5943 36.999 37.8992 37.3121C38.2042 37.6252 38.4429 37.998 38.6008 38.4077C38.7587 38.8174 38.8325 39.2554 38.8177 39.695C38.8402 40.1429 38.7726 40.5908 38.6191 41.0116C38.4656 41.4323 38.2294 41.8171 37.9247 42.1426C37.6201 42.4681 37.2533 42.7275 36.8467 42.9052C36.4401 43.0829 36.0021 43.1752 35.5592 43.1763Z" fill="#292B32"/>
<path d="M46.4741 40.2103C46.9366 40.0547 47.3364 39.7507 47.6131 39.3444C47.8897 38.9381 48.0282 38.4515 48.0075 37.9584C48.023 37.5418 47.9159 37.1298 47.6998 36.7749C47.4836 36.4201 47.1682 36.1383 46.7936 35.9654C46.337 35.7425 45.8281 35.6529 45.3241 35.7065H42.9026V43.7499H43.6629V40.4044H45.7074L47.4964 43.8146H48.3908L46.6402 40.5338C46.5791 40.4291 46.5237 40.3211 46.4741 40.2103ZM45.6435 39.6344V39.6926H43.7907V36.4119H45.3624C45.7085 36.3724 46.0588 36.4167 46.3847 36.5413C46.6424 36.6723 46.8577 36.8755 47.0049 37.1266C47.1521 37.3778 47.2251 37.6665 47.2152 37.9584C47.2284 38.1749 47.1974 38.3918 47.1242 38.5956C47.051 38.7993 46.9371 38.9857 46.7896 39.1429C46.6421 39.3002 46.4643 39.425 46.2671 39.5095C46.0699 39.5941 45.8576 39.6366 45.6435 39.6344Z" fill="#292B32"/>
<path d="M57.6475 35.707L55.5391 40.4696C55.3936 40.7835 55.2656 41.1054 55.1557 41.4338C55.0458 41.1054 54.9178 40.7835 54.7724 40.4696L52.664 35.707H51.8334L51.1945 43.7504H51.9612L52.4723 38.153V36.9947C52.6018 37.3883 52.7511 37.7749 52.9195 38.153L54.8363 42.3333H55.5391L57.4558 38.153C57.6475 37.7001 57.903 36.9947 57.903 36.9947C57.8681 37.38 57.8681 37.7678 57.903 38.153L58.3503 43.8151H59.1106L58.4717 35.707H57.6475Z" fill="#292B32"/>
<path d="M64.6677 35.707L61.7288 43.7504H62.5593L63.4538 41.2397H66.7059L67.6003 43.828H68.4309L65.4983 35.72L64.6677 35.707ZM63.7094 40.5343L64.7955 37.5707C64.9233 37.2471 65.115 36.5418 65.115 36.5418C65.115 36.5418 65.3067 37.1889 65.4344 37.5707L66.4567 40.5343H63.7094Z" fill="#292B32"/>
<path d="M76.797 41.4985C76.797 41.9515 76.8609 42.5921 76.8609 42.5921C76.8609 42.5921 76.4776 41.8868 76.222 41.4985L72.1394 35.707H71.3727V43.7504H72.1394V37.9266C72.1394 37.4736 72.0755 36.833 72.0755 36.833C72.0755 36.833 72.4588 37.5383 72.7144 37.9266L76.797 43.7504H77.5637V35.707H76.797V41.4985Z" fill="#292B32"/>
<path d="M84.9741 43.1124C84.5305 43.1168 84.0907 43.0286 83.6823 42.8532C83.2739 42.6777 82.9055 42.4189 82.6003 42.0928C82.2951 41.7667 82.0596 41.3803 81.9085 40.9578C81.7574 40.5354 81.6939 40.0859 81.7221 39.6375C81.7007 39.1965 81.7697 38.7558 81.9248 38.3432C82.0799 37.9306 82.3177 37.555 82.6232 37.2401C82.9287 36.9252 83.2954 36.6778 83.7 36.5135C84.1046 36.3492 84.5384 36.2716 84.9741 36.2855C85.8632 36.2902 86.7224 36.6108 87.402 37.1915L87.8492 36.6091C87.0462 35.9235 86.0241 35.5577 84.9741 35.5802C84.4452 35.5629 83.9182 35.6533 83.4244 35.846C82.9305 36.0387 82.4799 36.3298 82.0992 36.7021C81.7185 37.0744 81.4154 37.5204 81.208 38.0135C81.0005 38.5065 80.8929 39.0368 80.8915 39.5728C80.8669 40.1275 80.9549 40.6815 81.15 41.2005C81.3451 41.7194 81.6431 42.1924 82.0256 42.5902C82.4082 42.988 82.8672 43.3021 83.3743 43.5133C83.8815 43.7244 84.4259 43.828 84.9741 43.8177C86.1147 43.8304 87.215 43.3916 88.0409 42.5947L87.5937 42.0188C86.8952 42.7162 85.9549 43.1088 84.9741 43.1124Z" fill="#292B32"/>
<path d="M91.9897 40.0814H95.0565V39.376H91.9897V36.4124H95.6954V35.707H91.223V43.7504H95.951V43.1098H91.9897V40.0814Z" fill="#292B32"/>
<path d="M106.801 35.707L103.933 43.8151H104.782L105.67 41.2267H108.929L109.823 43.8151H110.59L107.651 35.707H106.801ZM105.843 40.5343L106.929 37.5707C107.057 37.2471 107.249 36.5418 107.249 36.5418C107.249 36.5418 107.44 37.1889 107.568 37.5707L108.59 40.5343H105.843Z" fill="#292B32"/>
<path d="M118.101 40.6655H119.475V42.005C119.148 42.3634 118.753 42.6508 118.314 42.8499C117.875 43.0491 117.4 43.1557 116.919 43.1633C116.478 43.1646 116.042 43.0735 115.638 42.8958C115.233 42.718 114.87 42.4574 114.57 42.1305C114.27 41.8035 114.04 41.4171 113.894 40.9958C113.749 40.5744 113.691 40.1271 113.724 39.682C113.7 39.2371 113.768 38.7921 113.921 38.3747C114.075 37.9573 114.313 37.5766 114.619 37.2565C114.924 36.9363 115.292 36.6836 115.699 36.5142C116.106 36.3447 116.543 36.2622 116.983 36.2718C117.837 36.3035 118.661 36.5969 119.347 37.113L119.794 36.5306C118.965 35.9003 117.955 35.5618 116.919 35.5665C115.849 35.5889 114.829 36.0309 114.074 36.7995C113.319 37.5682 112.888 38.6034 112.871 39.6875C112.855 40.7715 113.254 41.8198 113.985 42.6117C114.716 43.4037 115.722 43.8774 116.791 43.9334C117.278 43.9421 117.762 43.8495 118.213 43.6614C118.663 43.4734 119.071 43.1937 119.411 42.8398V43.7522H120.241V39.8696H118.133L118.101 40.6655Z" fill="#292B32"/>
<path d="M124.358 40.0814H127.425V39.376H124.358V36.4124H128.064V35.707H123.591V43.7504H128.319V43.1098H124.358V40.0814Z" fill="#292B32"/>
<path d="M136.876 41.4985C136.876 41.9515 136.94 42.5921 136.94 42.5921C136.94 42.5921 136.557 41.8868 136.301 41.4985L132.212 35.707H131.445V43.7504H132.212V37.9266C132.212 37.4736 132.148 36.833 132.148 36.833C132.148 36.833 132.532 37.5383 132.787 37.9266L136.876 43.7504H137.636V35.707H136.876V41.4985Z" fill="#292B32"/>
<path d="M145.035 43.1124C144.592 43.1159 144.152 43.027 143.744 42.8512C143.336 42.6755 142.968 42.4166 142.663 42.0907C142.358 41.7648 142.123 41.3788 141.971 40.9568C141.82 40.5348 141.756 40.0857 141.783 39.6375C141.767 39.198 141.84 38.7598 141.997 38.3498C142.154 37.9398 142.392 37.5665 142.697 37.2528C143.001 36.9391 143.365 36.6915 143.767 36.5252C144.169 36.3589 144.601 36.2773 145.035 36.2855C145.924 36.2902 146.783 36.6108 147.463 37.1915L147.91 36.6091C147.107 35.9235 146.085 35.5577 145.035 35.5802C144.506 35.5629 143.979 35.6533 143.485 35.846C142.991 36.0387 142.541 36.3298 142.16 36.7021C141.779 37.0744 141.476 37.5204 141.269 38.0135C141.061 38.5065 140.954 39.0368 140.952 39.5728C140.928 40.1275 141.016 40.6815 141.211 41.2005C141.406 41.7194 141.704 42.1924 142.086 42.5902C142.469 42.988 142.928 43.3021 143.435 43.5133C143.942 43.7244 144.487 43.828 145.035 43.8177C146.175 43.8304 147.276 43.3916 148.102 42.5947L147.654 42.0188C146.956 42.7162 146.016 43.1088 145.035 43.1124Z" fill="#292B32"/>
<path d="M155.639 35.6406L153.914 38.5978C153.659 39.0508 153.403 39.5685 153.403 39.5685C153.403 39.5685 153.148 39.0508 152.892 38.5978L151.173 35.6406H150.279L153.02 40.2738H153.084V43.7487H153.85V40.2738L156.534 35.6406H155.639Z" fill="#292B32"/>
</svg>
