<svg width="315" height="106" viewBox="0 0 315 106" fill="none" xmlns="http://www.w3.org/2000/svg">
<g clip-path="url(#clip0_4879_16613)">
<path d="M126.797 51.8244C126.797 58.9891 131.38 63.9847 137.731 63.9847C144.082 63.9847 148.665 58.9891 148.665 51.8244C148.665 44.6597 144.082 39.6641 137.731 39.6641C131.38 39.6641 126.797 44.6597 126.797 51.8244ZM144.475 51.8244C144.475 56.9515 141.692 60.2709 137.731 60.2709C133.77 60.2709 130.987 56.9515 130.987 51.8244C130.987 46.6973 133.77 43.3779 137.731 43.3779C141.692 43.3779 144.475 46.6973 144.475 51.8244Z" fill="white"/>
<path d="M160.473 63.9916C165.286 63.9916 168.036 59.9162 168.036 55.0192C168.036 50.1222 165.286 46.0469 160.473 46.0469C158.247 46.0469 156.61 46.9343 155.53 48.216V46.3755H151.602V69.5459H155.53V61.8224C156.61 63.1042 158.247 63.9916 160.473 63.9916ZM155.432 54.5262C155.432 51.2725 157.265 49.4978 159.688 49.4978C162.536 49.4978 164.074 51.7327 164.074 55.0192C164.074 58.3058 162.536 60.5407 159.688 60.5407C157.265 60.5407 155.432 58.7331 155.432 55.5451V54.5262Z" fill="white"/>
<path d="M178.668 63.9916C182.106 63.9916 184.823 62.184 186.034 59.1603L182.662 57.8786C182.138 59.6533 180.6 60.6393 178.668 60.6393C176.148 60.6393 174.38 58.8317 174.085 55.8737H186.132V54.5591C186.132 49.8264 183.481 46.0469 178.505 46.0469C173.529 46.0469 170.32 49.9579 170.32 55.0192C170.32 60.3435 173.758 63.9916 178.668 63.9916ZM178.472 49.3663C180.96 49.3663 182.138 51.0096 182.171 52.9158H174.282C174.871 50.5824 176.442 49.3663 178.472 49.3663Z" fill="white"/>
<path d="M189.086 63.6301H193.014V53.5074C193.014 51.0425 194.815 49.7278 196.583 49.7278C198.743 49.7278 199.595 51.2725 199.595 53.4088V63.6301H203.523V52.2585C203.523 48.5447 201.362 46.0469 197.761 46.0469C195.535 46.0469 193.997 47.0657 193.014 48.216V46.3755H189.086V63.6301Z" fill="white"/>
<path d="M215.03 40.0312L206.125 63.6289H210.283L212.28 58.2389H222.428L224.458 63.6289H228.681L219.776 40.0312H215.03ZM217.321 44.6982L221.053 54.5579H213.655L217.321 44.6982Z" fill="white"/>
<path d="M235.425 40.1016H231.234V63.6992H235.425V40.1016Z" fill="white"/>
<path d="M117.199 48.6931C118.189 45.7092 117.848 42.4404 116.264 39.7263C113.883 35.5633 109.095 33.4215 104.419 34.4294C102.339 32.0768 99.3501 30.7388 96.2169 30.758C91.4373 30.7471 87.1964 33.8364 85.726 38.402C82.6555 39.0333 80.0052 40.9628 78.4542 43.6975C76.0549 47.8496 76.6018 53.0835 79.8074 56.6439C78.8171 59.6279 79.1581 62.8966 80.7417 65.6108C83.1234 69.7738 87.9112 71.9156 92.5872 70.9077C94.666 73.2603 97.656 74.5982 100.789 74.5777C105.572 74.59 109.814 71.4979 111.284 66.9282C114.355 66.2969 117.005 64.3674 118.556 61.6327C120.953 57.4806 120.404 52.2509 117.2 48.6904L117.199 48.6931ZM100.792 71.7143C98.8782 71.717 97.0244 71.0446 95.5553 69.8135C95.6222 69.7779 95.7381 69.7136 95.8131 69.667L104.505 64.6276C104.95 64.3742 105.222 63.899 105.22 63.3855V51.0841L108.893 53.2136C108.933 53.2327 108.959 53.2711 108.964 53.3149V63.5019C108.959 68.0319 105.304 71.7047 100.792 71.7143ZM83.2175 64.1784C82.2586 62.5159 81.9135 60.5673 82.2422 58.6761C82.3063 58.7145 82.4195 58.7843 82.5 58.8309L91.1917 63.8703C91.6323 64.1291 92.1779 64.1291 92.6199 63.8703L103.231 57.7189V61.9778C103.234 62.0216 103.213 62.064 103.179 62.0914L94.3932 67.1843C90.4797 69.4465 85.4818 68.1018 83.2189 64.1784H83.2175ZM80.93 45.1313C81.8848 43.4661 83.3921 42.1926 85.1872 41.5311C85.1872 41.6065 85.1831 41.7393 85.1831 41.8324V51.9126C85.1804 52.4248 85.4532 52.9 85.8965 53.1533L96.5074 59.3033L92.8341 61.4327C92.7972 61.4574 92.7509 61.4615 92.7099 61.4437L83.9227 56.3468C80.0174 54.0763 78.6779 49.0601 80.9286 45.1327L80.93 45.1313ZM111.111 52.1824L100.5 46.031L104.173 43.903C104.21 43.8783 104.257 43.8742 104.298 43.892L113.085 48.9848C116.997 51.2539 118.338 56.2783 116.077 60.2058C115.121 61.8682 113.615 63.1418 111.822 63.8046V53.4231C111.826 52.9109 111.554 52.4371 111.112 52.1824H111.111ZM114.767 46.6582C114.703 46.6185 114.589 46.55 114.509 46.5035L105.817 41.464C105.377 41.2052 104.831 41.2052 104.389 41.464L93.778 47.6154V43.3566C93.7753 43.3127 93.7957 43.2703 93.8298 43.2429L102.616 38.1542C106.529 35.8878 111.532 37.2367 113.789 41.1669C114.742 42.8266 115.087 44.7698 114.764 46.6582H114.767ZM91.781 54.2488L88.1063 52.1194C88.0667 52.1002 88.0408 52.0619 88.0353 52.0181V41.831C88.0381 37.2956 91.7033 33.6201 96.221 33.6228C98.132 33.6228 99.9817 34.2966 101.451 35.5236C101.384 35.5592 101.269 35.6235 101.193 35.6701L92.5012 40.7095C92.0565 40.9628 91.7837 41.4367 91.7865 41.9502L91.781 54.2461V54.2488ZM93.7766 49.9297L98.5031 47.1895L103.229 49.9284V55.4074L98.5031 58.1462L93.7766 55.4074V49.9297Z" fill="white"/>
</g>
<defs>
<clipPath id="clip0_4879_16613">
<rect width="160.958" height="43.821" fill="white" transform="translate(76.6875 30.7578)"/>
</clipPath>
</defs>
</svg>
