<svg width="315" height="106" viewBox="0 0 315 106" fill="none" xmlns="http://www.w3.org/2000/svg">
<path d="M81.4846 42.7785H63.2266L81.4846 25.2812V42.7785ZM68.1158 40.8384H79.4583V29.9682L68.1158 40.8384Z" fill="white"/>
<path d="M68.5393 42.7785H50.2812V25.2812L68.5393 42.7785ZM52.3072 40.8383H63.6506L52.3072 29.9674V40.8383Z" fill="white"/>
<path d="M67.0244 25.2812V80.0554H64.7422V25.2812H67.0244Z" fill="white"/>
<path d="M81.4787 55.9967V79.2857L64.7422 63.0152V39.7266L81.4787 55.9967ZM66.7576 62.2044L79.4633 74.5563V56.8072L66.7576 44.4556V62.2044Z" fill="white"/>
<path d="M67.0178 63.0152L50.2812 79.2857V55.9967L67.0178 39.7266V63.0152ZM52.2963 56.8071V74.5569L65.0027 62.2048V44.455L52.2963 56.8071Z" fill="white"/>
<path d="M68.5394 41.2578L52.4828 56.721V63.3196H44.1953V41.2578H68.5394ZM46.1997 61.3909H50.4784V55.9225L63.7029 43.1865H46.1997V61.3909Z" fill="white"/>
<path d="M87.5706 41.2578V63.3196H79.2831V56.721L63.2266 41.2578H87.5706ZM81.2876 55.9225V61.3909H85.5662V43.1865H68.0631L81.2876 55.9225Z" fill="white"/>
<path d="M128.437 45.08C129.307 43.3648 130.523 42.0456 132.091 41.116C133.655 40.1897 135.496 39.7266 137.6 39.7266C139.707 39.7266 141.451 40.1833 142.913 41.0969C144.374 42.0104 145.469 43.221 146.19 44.7287C146.915 46.2363 147.276 47.8877 147.276 49.6861V52.1744H130.884C131.014 54.3336 131.705 56.0489 132.958 57.3202C134.207 58.5947 135.887 59.2303 137.994 59.2303C139.704 59.2303 141.017 58.863 141.924 58.1315C142.834 57.3969 143.498 56.3843 143.919 55.0811H147.673C147.173 57.0998 146.151 58.8502 144.614 60.3291C143.073 61.8113 140.866 62.5491 137.997 62.5491C135.838 62.5491 133.934 62.086 132.288 61.1596C130.641 60.2333 129.371 58.9141 128.476 57.1956C127.582 55.4804 127.133 53.4616 127.133 51.1362C127.133 48.8141 127.566 46.7953 128.437 45.08ZM143.328 49.0632C143.328 47.1818 142.867 45.7093 141.945 44.6424C141.023 43.5788 139.577 43.0453 137.6 43.0453C135.756 43.0453 134.249 43.5628 133.076 44.6009C131.903 45.639 131.187 47.1275 130.923 49.0632H143.328Z" fill="white"/>
<path d="M152.859 40.5895V43.9758C152.859 44.1674 152.953 44.2617 153.143 44.2617C153.253 44.2617 153.334 44.2334 153.387 44.18C153.444 44.1234 153.497 44.0166 153.55 43.8533C154.257 41.623 156.008 40.5078 158.807 40.5078H160.599V44.18H158.275C156.455 44.18 155.098 44.6135 154.2 45.4868C153.303 46.3569 152.856 47.7862 152.856 49.7715V61.8089H149.188V40.5863H152.859V40.5895Z" fill="white"/>
<path d="M181.956 57.1395C180.981 58.8436 179.715 60.1193 178.161 60.9635C176.607 61.8077 174.936 62.2329 173.151 62.2329C169.632 62.2329 167.157 60.8438 165.73 58.0592C165.619 57.8419 165.483 57.7316 165.319 57.7316C165.154 57.7316 165.072 57.8135 165.072 57.9773V69.3959H161.359V40.3408H165.072V43.9821C165.072 44.1459 165.154 44.2278 165.319 44.2278C165.483 44.2278 165.619 44.1176 165.73 43.9002C167.157 41.1188 169.632 39.7266 173.151 39.7266C174.936 39.7266 176.607 40.1487 178.161 40.996C179.715 41.8402 180.978 43.1159 181.956 44.82C182.931 46.5241 183.421 48.5779 183.421 50.9782C183.421 53.3816 182.934 55.4353 181.956 57.1395ZM177.668 45.1098C176.307 43.7049 174.512 43.0025 172.287 43.0025C170.063 43.0025 168.268 43.7049 166.907 45.1098C165.546 46.5147 165.046 48.474 165.046 50.9813C165.046 53.4918 165.546 55.4479 166.907 56.8528C168.268 58.2577 170.063 58.9601 172.287 58.9601C174.512 58.9601 176.307 58.2577 177.668 56.8528C179.028 55.4479 179.709 53.4918 179.709 50.9813C179.709 48.474 179.028 46.5178 177.668 45.1098Z" fill="white"/>
<path d="M188.749 32.1406V61.81H184.945V32.1406H188.749Z" fill="white"/>
<path d="M191.577 45.08C192.447 43.3648 193.663 42.0456 195.233 41.116C196.798 40.1897 198.635 39.7266 200.742 39.7266C202.849 39.7266 204.596 40.1833 206.054 41.0969C207.515 42.0104 208.61 43.221 209.331 44.7287C210.056 46.2363 210.417 47.8877 210.417 49.6861V52.1744H194.027C194.157 54.3336 194.848 56.0489 196.101 57.3202C197.35 58.5947 199.029 59.2303 201.136 59.2303C202.846 59.2303 204.156 58.863 205.065 58.1315C205.975 57.3969 206.639 56.3843 207.06 55.0811H210.814C210.313 57.0998 209.292 58.8502 207.752 60.3291C206.211 61.8113 204.004 62.5491 201.136 62.5491C198.978 62.5491 197.074 62.086 195.427 61.1596C193.781 60.2333 192.511 58.9141 191.617 57.1956C190.722 55.4804 190.273 53.4616 190.273 51.1362C190.276 48.8141 190.71 46.7953 191.577 45.08ZM206.469 49.0632C206.469 47.1818 206.008 45.7093 205.087 44.6424C204.165 43.5788 202.716 43.0453 200.742 43.0453C198.902 43.0453 197.392 43.5628 196.219 44.6009C195.045 45.639 194.33 47.1275 194.066 49.0632H206.469Z" fill="white"/>
<path d="M209.289 60.9891L217.569 50.5435L210.776 41.3276V40.5078H214.755L220.425 48.4531L226.534 40.5078H230.59V41.3686L222.795 51.1583L229.989 60.9891V61.8089H226.089L219.941 53.2487L213.352 61.8089H209.292L209.289 60.9891Z" fill="white"/>
<path d="M235.916 33.6484V38.2444H231.352V33.6484H235.916ZM235.68 61.7963H231.771V40.5581H235.68V61.7963Z" fill="white"/>
<path d="M236.68 40.8279H240.645V35.1797H244.293V40.8279H248.467L249.493 43.9019H244.293V53.9377C244.293 55.307 244.259 56.3224 244.19 56.9838C244.122 57.6421 244.091 58.0395 244.091 58.173C244.091 58.3624 244.144 58.5084 244.253 58.6171C244.361 58.7257 244.508 58.7785 244.7 58.7785C244.834 58.7785 245.232 58.7444 245.895 58.6792C246.554 58.6108 247.577 58.5798 248.955 58.5798H250.373V61.806H247.537C245.214 61.806 243.484 61.2409 242.349 60.1106C241.217 58.9804 240.648 57.2601 240.648 54.9468V43.9019H236.683L236.68 40.8279Z" fill="white"/>
<path d="M249.602 40.5078H253.325L259.372 58.2717C259.456 58.4879 259.584 58.7763 259.998 58.7763C260.412 58.7763 260.54 58.4879 260.621 58.2717L266.668 40.5078H270.142V41.3227L262.578 64.1637C261.926 66.1194 261.017 67.4827 259.839 68.2568C258.661 69.0309 257.294 69.4164 255.019 69.4164H251.122V66.1601H254.085C255.032 66.1601 255.801 66.1946 256.396 66.2604C256.991 66.3293 257.372 66.3607 257.534 66.3607C257.995 66.3607 258.303 66.157 258.468 65.7495L259.605 62.6562C259.742 62.3303 259.752 62.0858 259.646 61.9229C259.593 61.8132 259.524 61.7473 259.443 61.7191C259.362 61.6909 259.241 61.6784 259.079 61.6784H256.602L249.602 40.5078Z" fill="white"/>
<path d="M124.191 57.1395C123.25 58.8436 122.028 60.1193 120.527 60.9635C119.027 61.8077 117.414 62.2329 115.69 62.2329C112.292 62.2329 109.903 60.8438 108.525 58.0592C108.418 57.8419 108.286 57.7316 108.127 57.7316C107.968 57.7316 107.889 57.8135 107.889 57.9773V69.3959H104.305V40.3408H107.889V43.9821C107.889 44.1459 107.968 44.2278 108.127 44.2278C108.286 44.2278 108.418 44.1176 108.525 43.9002C109.903 41.1157 112.292 39.7266 115.69 39.7266C117.414 39.7266 119.027 40.1487 120.527 40.996C122.028 41.8402 123.247 43.1159 124.191 44.82C125.132 46.5241 125.606 48.5779 125.606 50.9782C125.606 53.3816 125.132 55.4353 124.191 57.1395ZM120.051 45.1098C118.737 43.7049 117.004 43.0025 114.856 43.0025C112.708 43.0025 110.975 43.7049 109.661 45.1098C108.347 46.5147 107.865 48.4708 107.865 50.9813C107.865 53.4918 108.347 55.4479 109.661 56.8528C110.975 58.2577 112.708 58.9601 114.856 58.9601C117.004 58.9601 118.737 58.2577 120.051 56.8528C121.364 55.4479 122.021 53.4887 122.021 50.9813C122.021 48.4708 121.364 46.5178 120.051 45.1098Z" fill="white"/>
</svg>
