<svg width="50" height="51" viewBox="0 0 50 51" fill="none" xmlns="http://www.w3.org/2000/svg">
<path d="M3 11.0312C1.35547 11.0312 0 12.3867 0 14.0312V34.0312C0 35.6758 1.35547 37.0312 3 37.0312H5.09375C5.57031 39.8594 8.03906 42.0312 11 42.0312C13.9609 42.0312 16.4297 39.8594 16.9062 37.0312H34.0938C34.5703 39.8594 37.0391 42.0312 40 42.0312C42.9609 42.0312 45.4297 39.8594 45.9062 37.0312H50V27.4062C50 24.9766 48.2383 22.8867 45.8438 22.4766L37.8945 21.1211L33.3164 13.8398C32.2188 12.0937 30.2969 11.0312 28.2344 11.0312H3ZM3 13.0312H28.2344C29.6133 13.0312 30.8906 13.7344 31.625 14.9023L36.6758 22.9414L45.5039 24.4492C46.9531 24.6953 48 25.9375 48 27.4062V28.0312H46V30.0312H48V35.0312H45.9062C45.4297 32.2031 42.9609 30.0312 40 30.0312C37.0391 30.0312 34.5703 32.2031 34.0938 35.0312H16.9062C16.4297 32.2031 13.9609 30.0312 11 30.0312C8.03906 30.0312 5.57031 32.2031 5.09375 35.0312H3C2.43359 35.0312 2 34.5977 2 34.0312V30.0312H3V28.0312H2V14.0312C2 13.4648 2.43359 13.0312 3 13.0312ZM4 15.0312V24.0312H16V15.0312H4ZM18 15.0312V24.0312H35.168L34.2148 22.5L30.1406 15.9727C29.7773 15.3867 29.1328 15.0312 28.4453 15.0312H18ZM6 17.0312H14V22.0312H6V17.0312ZM20 17.0312H28.4414L31.5625 22.0312H20V17.0312ZM11 32.0312C13.1914 32.0312 14.9414 33.7617 14.9883 35.9414C14.9844 36 14.9844 36.0625 14.9883 36.125C14.9414 38.3008 13.1875 40.0312 11 40.0312C8.80859 40.0312 7.05859 38.3008 7.00781 36.1211C7.01562 36.0625 7.01562 36 7.00781 35.9375C7.05859 33.7617 8.8125 32.0312 11 32.0312ZM40 32.0312C42.1914 32.0312 43.9414 33.7617 43.9883 35.9414C43.9844 36 43.9844 36.0625 43.9883 36.125C43.9414 38.3008 42.1875 40.0312 40 40.0312C37.8086 40.0312 36.0586 38.3008 36.0117 36.1211C36.0156 36.0625 36.0156 36 36.0117 35.9375C36.0586 33.7617 37.8125 32.0312 40 32.0312ZM11 35.0312C10.4492 35.0312 10 35.4805 10 36.0312C10 36.582 10.4492 37.0312 11 37.0312C11.5508 37.0312 12 36.582 12 36.0312C12 35.4805 11.5508 35.0312 11 35.0312ZM40 35.0312C39.4492 35.0312 39 35.4805 39 36.0312C39 36.582 39.4492 37.0312 40 37.0312C40.5508 37.0312 41 36.582 41 36.0312C41 35.4805 40.5508 35.0312 40 35.0312Z" fill="#00B2FF"/>
</svg>
