<svg width="50" height="51" viewBox="0 0 50 51" fill="none" xmlns="http://www.w3.org/2000/svg">
<path d="M40 5.03125C36.6981 5.03125 34 7.72939 34 11.0312C34 12.9862 34.9492 14.7253 36.4062 15.8223C33.8178 17.0178 32 19.4548 32 22.3164V25.8535C31.9999 26.0175 32.0401 26.1789 32.1171 26.3237C32.1941 26.4684 32.3054 26.592 32.4414 26.6836C32.4414 26.6836 33.0808 27.0876 34.2715 27.4082C35.4622 27.7288 37.3002 28.0312 40 28.0312C42.6999 28.0312 44.5377 27.7291 45.7285 27.4082C46.9193 27.0873 47.5586 26.6816 47.5586 26.6816C47.6946 26.5901 47.8059 26.4665 47.8829 26.3217C47.9599 26.177 48.0001 26.0155 48 25.8516V22.3164C48 19.4548 46.1822 17.0178 43.5938 15.8223C45.0508 14.7253 46 12.9862 46 11.0312C46 7.72939 43.3019 5.03125 40 5.03125ZM3 7.03125C2.73479 7.03128 2.48045 7.13664 2.29292 7.32417C2.10539 7.5117 2.00003 7.76604 2 8.03125V25.0312C2.00003 25.2965 2.10539 25.5508 2.29292 25.7383C2.48045 25.9259 2.73479 26.0312 3 26.0312H21C21.2652 26.0312 21.5195 25.9259 21.7071 25.7383C21.8946 25.5508 22 25.2965 22 25.0312V8.03125C22 7.76604 21.8946 7.5117 21.7071 7.32417C21.5195 7.13664 21.2652 7.03128 21 7.03125H3ZM40 7.03125C42.221 7.03125 44 8.81027 44 11.0312C44 13.2522 42.221 15.0312 40 15.0312C37.779 15.0312 36 13.2522 36 11.0312C36 8.81027 37.779 7.03125 40 7.03125ZM4 9.03125H20V24.0312H4V9.03125ZM9 11.0312C8.86749 11.0294 8.73593 11.0539 8.61296 11.1033C8.48999 11.1527 8.37807 11.226 8.2837 11.3191C8.18933 11.4121 8.11439 11.523 8.06324 11.6453C8.0121 11.7675 7.98576 11.8987 7.98576 12.0312C7.98576 12.1638 8.0121 12.295 8.06324 12.4172C8.11439 12.5395 8.18933 12.6504 8.2837 12.7434C8.37807 12.8365 8.48999 12.9098 8.61296 12.9592C8.73593 13.0086 8.86749 13.0331 9 13.0312H15C15.1325 13.0331 15.2641 13.0086 15.387 12.9592C15.51 12.9098 15.6219 12.8365 15.7163 12.7434C15.8107 12.6504 15.8856 12.5395 15.9368 12.4172C15.9879 12.295 16.0142 12.1638 16.0142 12.0312C16.0142 11.8987 15.9879 11.7675 15.9368 11.6453C15.8856 11.523 15.8107 11.4121 15.7163 11.3191C15.6219 11.226 15.51 11.1527 15.387 11.1033C15.2641 11.0539 15.1325 11.0294 15 11.0312H9ZM40 17.0312C43.3601 17.0312 46 19.4669 46 22.3164V25.1855C45.8483 25.2622 45.8488 25.3042 45.209 25.4766C44.2123 25.7452 42.5501 26.0312 40 26.0312C37.4498 26.0312 35.7878 25.745 34.791 25.4766C34.1512 25.3043 34.1517 25.2621 34 25.1855V22.3164C34 19.4669 36.6399 17.0312 40 17.0312ZM11.9844 28.0176C11.7195 28.0217 11.4671 28.1308 11.2825 28.3208C11.098 28.5109 10.9964 28.7664 11 29.0312V43.0312C11 43.2965 11.1054 43.5508 11.2929 43.7383C11.4805 43.9259 11.7348 44.0312 12 44.0312H39.832C39.9928 44.0586 40.1579 44.0462 40.3127 43.9951C40.4676 43.944 40.6077 43.8559 40.7207 43.7383C40.7214 43.7376 40.722 43.737 40.7227 43.7363C40.7246 43.7344 40.7266 43.7324 40.7285 43.7305C40.7311 43.7279 40.7337 43.7253 40.7363 43.7227C40.8429 43.611 40.9221 43.4762 40.9678 43.3288C41.0136 43.1814 41.0246 43.0254 41 42.873V33.4453L43.293 35.7383C43.3851 35.8343 43.4955 35.9109 43.6176 35.9637C43.7397 36.0165 43.8712 36.0443 44.0042 36.0457C44.1373 36.047 44.2692 36.0218 44.3924 35.9715C44.5156 35.9213 44.6275 35.8469 44.7216 35.7528C44.8156 35.6587 44.89 35.5468 44.9403 35.4237C44.9906 35.3005 45.0158 35.1685 45.0144 35.0355C45.0131 34.9024 44.9852 34.771 44.9324 34.6489C44.8796 34.5267 44.803 34.4164 44.707 34.3242L40.707 30.3242C40.6123 30.2295 40.4996 30.1547 40.3754 30.1044C40.2513 30.0541 40.1183 30.0292 39.9844 30.0312C39.7246 30.0354 39.4766 30.1405 39.293 30.3242L35.293 34.3242C35.197 34.4164 35.1204 34.5267 35.0676 34.6489C35.0148 34.771 34.9869 34.9024 34.9856 35.0355C34.9842 35.1685 35.0094 35.3005 35.0597 35.4237C35.11 35.5468 35.1844 35.6587 35.2784 35.7528C35.3725 35.8469 35.4844 35.9213 35.6076 35.9715C35.7308 36.0218 35.8627 36.047 35.9958 36.0457C36.1288 36.0443 36.2603 36.0165 36.3824 35.9637C36.5045 35.9109 36.6149 35.8343 36.707 35.7383L39 33.4453V42.0312H13V29.0312C13.0018 28.8975 12.9768 28.7647 12.9264 28.6407C12.876 28.5168 12.8012 28.4042 12.7065 28.3097C12.6118 28.2152 12.4991 28.1406 12.375 28.0904C12.251 28.0403 12.1182 28.0155 11.9844 28.0176Z" fill="#00B2FF"/>
</svg>
