<svg width="50" height="51" viewBox="0 0 50 51" fill="none" xmlns="http://www.w3.org/2000/svg">
<path d="M36.0002 2.03125C33.2502 2.03125 31.0002 4.28125 31.0002 7.03125C31.0002 9.78125 33.2502 12.0312 36.0002 12.0312C38.7502 12.0312 41.0002 9.78125 41.0002 7.03125C41.0002 4.28125 38.7502 2.03125 36.0002 2.03125ZM36.0002 4.03125C37.6681 4.03125 39.0002 5.36328 39.0002 7.03125C39.0002 8.69922 37.6681 10.0312 36.0002 10.0312C34.3322 10.0312 33.0002 8.69922 33.0002 7.03125C33.0002 5.36328 34.3322 4.03125 36.0002 4.03125ZM30.7814 12.0312C29.3439 12.0312 27.9767 12.7656 27.1877 13.9688L19.4689 25.7812C19.4572 25.793 19.4494 25.8008 19.4377 25.8125C18.8244 26.793 18.9259 28.0234 19.5939 28.9062L17.5627 31.8438L14.2814 29.5625C13.6369 29.1133 12.8517 28.9648 12.1252 29.0938C11.3986 29.2227 10.7306 29.6367 10.2814 30.2812L4.62515 38.375C3.51968 39.9648 3.94156 42.1758 5.5314 43.2812L7.0939 44.375C7.04312 44.5898 7.00015 44.8008 7.00015 45.0312C7.00015 46.6758 8.35562 48.0312 10.0002 48.0312C11.6447 48.0312 13.0002 46.6758 13.0002 45.0312C13.0002 44.2812 12.715 43.5898 12.2502 43.0625L18.4689 34C18.5939 33.8906 18.6916 33.75 18.7502 33.5938L21.2814 29.9375C22.34 30.1328 23.465 29.7266 24.0939 28.7812C24.0978 28.7773 24.09 28.7539 24.0939 28.75H24.1252L27.4689 23.9062L27.1564 25.5312C26.883 26.9844 27.0158 28.4727 27.5002 29.8438L25.9377 35.3125L20.4689 43.625C19.6681 44.8438 19.922 46.4961 21.0627 47.4062C22.3087 48.4023 24.1681 48.1562 25.1252 46.875L30.9689 39.0938C31.008 39.0352 31.0392 38.9727 31.0627 38.9062L31.7189 37.4062L37.0627 46.5312C37.6017 47.4531 38.5861 48.0312 39.6564 48.0312C41.7892 48.0312 43.2619 45.7656 42.4064 43.8125L35.9689 29.125L36.5314 26.2188L41.6877 30.4375C42.797 31.3398 44.4533 31.1875 45.3752 30.0938C46.3087 28.9844 46.1759 27.3047 45.0627 26.375L39.5314 21.75L37.9689 17.25C37.6564 14.3828 35.2072 12.0312 32.1564 12.0312H30.7814ZM30.7814 14.0312H32.1564C34.1291 14.0312 35.6681 15.4648 35.9377 17.2812C35.9337 17.4102 35.9572 17.5352 36.0002 17.6562C36.0158 17.9531 35.9962 18.2539 35.9377 18.5625L33.9377 29.0625C33.9025 29.2539 33.9259 29.4492 34.0002 29.625L40.5627 44.625C40.8712 45.3242 40.422 46.0312 39.6564 46.0312C39.297 46.0312 38.9611 45.8438 38.7814 45.5312L32.5314 34.8438C32.5314 34.832 32.5314 34.8242 32.5314 34.8125L32.5002 34.75C32.465 34.6953 32.422 34.6406 32.3752 34.5938L29.8752 30.2812C29.7619 30.0859 29.6525 29.8906 29.5627 29.6875C29.547 29.5312 29.4923 29.3828 29.4064 29.25C29.4025 29.2422 29.4103 29.2266 29.4064 29.2188C29.3947 29.207 29.3869 29.1992 29.3752 29.1875C29.008 28.1406 28.9181 27.0156 29.1252 25.9062L30.2814 19.6875C30.3752 19.2188 30.1252 18.75 29.6837 18.5703C29.2423 18.3867 28.7345 18.543 28.4689 18.9375L22.4689 27.6562C22.4572 27.668 22.4494 27.6758 22.4377 27.6875C22.1916 28.0703 21.715 28.1406 21.3439 27.875C21.008 27.6328 20.9064 27.2266 21.1252 26.875L28.8752 15.0625C29.2931 14.4219 30.0158 14.0312 30.7814 14.0312ZM37.3752 21.6875L37.7189 22.6562C37.7814 22.8281 37.8908 22.9805 38.0314 23.0938L43.7814 27.9062C44.0627 28.1445 44.0822 28.5312 43.8439 28.8125C43.6095 29.0898 43.2189 29.1055 42.9377 28.875L37.0314 24.0625C37.0002 24.0391 36.9689 24.0195 36.9377 24L37.3752 21.6875ZM12.4689 31.0312C12.6877 30.9922 12.922 31.0469 13.1252 31.1875L16.4377 33.5L10.5002 42.0938C10.3361 42.0664 10.172 42.0312 10.0002 42.0312C9.29703 42.0312 8.64078 42.2734 8.12515 42.6875L6.6564 41.6562C5.95328 41.168 5.79312 40.2344 6.2814 39.5312L11.9064 31.4062C12.047 31.2031 12.2502 31.0703 12.4689 31.0312ZM28.8127 32.4375L30.5002 35.2812L29.3439 37.9062L29.3127 37.9375L23.5314 45.6875C23.2384 46.082 22.6994 46.1523 22.3127 45.8438C21.965 45.5664 21.8791 45.0938 22.1252 44.7188L27.6564 36.2812C27.7111 36.2031 27.7502 36.1211 27.7814 36.0312L28.8127 32.4375ZM10.0002 44.0312C10.0314 44.0312 10.0627 44.0273 10.0939 44.0312C10.2619 44.2266 10.4962 44.3477 10.7502 44.375C10.9025 44.5508 11.0002 44.7734 11.0002 45.0312C11.0002 45.5938 10.5627 46.0312 10.0002 46.0312C9.43765 46.0312 9.00015 45.5938 9.00015 45.0312C9.00015 44.4688 9.43765 44.0312 10.0002 44.0312Z" fill="#00B2FF"/>
</svg>
