<svg width="50" height="51" viewBox="0 0 50 51" fill="none" xmlns="http://www.w3.org/2000/svg">
<path d="M23 2.03125C22.8203 2.03125 22.6523 2.0625 22.4844 2.10938C18.918 2.42578 15.6641 3.84375 13.0664 6.03125H13C11.9062 6.03125 11 6.9375 11 8.03125V8.10156C9.08984 10.3672 7.77344 13.1367 7.25781 16.1797C6.52734 16.4805 6 17.1992 6 18.0312V20.0312C6 20.8594 6.52344 21.582 7.25 21.8789C7.67188 24.3281 8.61719 26.6367 10 28.6523V30.0312C10 31.125 10.9062 32.0312 12 32.0312H13.0664C13.8789 32.7188 14.7617 33.3359 15.7031 33.8633C16.4766 33.6875 17.2617 33.3555 18.0508 32.875C17.9766 32.8047 17.8945 32.7344 17.793 32.6875C17.418 32.5195 17.0586 32.3359 16.7031 32.1406C16.2812 31.9023 15.8711 31.6367 15.4766 31.3633C15.7969 31.0078 16 30.543 16 30.0312V28.0312C16 26.9375 15.0938 26.0312 14 26.0312H12C11.6055 26.0312 11.2344 26.1523 10.9219 26.3555C10.168 25.0156 9.625 23.5586 9.3125 22.0312H10C11.0938 22.0312 12 21.125 12 20.0312V18.0312C12 16.9375 11.0938 16.0312 10 16.0312H9.31641C9.68359 14.2461 10.3633 12.5742 11.3086 11.0781C11.6602 11.6445 12.2891 12.0312 13 12.0312H15C16.0938 12.0312 17 11.125 17 10.0312V8.03125C17 7.32031 16.6133 6.69141 16.0469 6.33594C17.5391 5.39844 19.2148 4.72656 21 4.35938V6.03125C21 7.125 21.9062 8.03125 23 8.03125H25C26.0938 8.03125 27 7.125 27 6.03125V4.35156C28.7695 4.71094 30.4453 5.38672 31.957 6.33594C31.3867 6.69141 31 7.32031 31 8.03125V10.0312C31 11.125 31.9062 12.0312 33 12.0312H35C35.7148 12.0312 36.3438 11.6406 36.6992 11.0664C36.8164 11.25 36.9297 11.4336 37.0352 11.6211C37.5547 11.1641 38.0742 10.7344 38.6055 10.3516C38.1289 9.55469 37.5859 8.80859 37 8.10938V8.03125C37 6.9375 36.0938 6.03125 35 6.03125H34.9297C32.2891 3.80859 29.0117 2.42188 25.5117 2.10938C25.3477 2.0625 25.1758 2.03125 25 2.03125H23ZM23 4.03125H25V6.03125H23V4.03125ZM13 8.03125H15V10.0312H13V8.03125ZM33 8.03125H35V10.0312H33V8.03125ZM47 10.0312C45.1641 10.0312 43.4453 10.8945 41.8086 12.1836C40.1719 13.4727 38.5859 15.2188 36.9844 17.1836C33.7734 21.1094 30.4961 25.9297 27.0469 29.7031C23.6016 33.4766 20.0586 36.082 16.4414 36.0156C12.8242 35.9531 8.66016 33.2695 3.85156 25.5039C3.66406 25.1953 3.32422 25.0078 2.96484 25.0156C2.60547 25.0273 2.27734 25.2305 2.10547 25.5508C1.9375 25.8711 1.95313 26.2539 2.14844 26.5586C2.4375 27.0234 2.72266 27.4648 3.00781 27.8984C3.00391 27.9414 3 27.9883 3 28.0312V43.0312C2.64063 43.0273 2.30469 43.2148 2.12109 43.5273C1.94141 43.8398 1.94141 44.2227 2.12109 44.5352C2.30469 44.8477 2.64063 45.0352 3 45.0312H3.83203C3.94141 45.0508 4.05078 45.0508 4.15625 45.0312H10.832C10.9414 45.0508 11.0508 45.0508 11.1562 45.0312H17.832C17.9414 45.0508 18.0508 45.0508 18.1562 45.0312H24.832C24.9414 45.0508 25.0508 45.0508 25.1562 45.0312H28V46.0312C28 46.582 28.4492 47.0312 29 47.0312H42C42.5508 47.0312 43 46.582 43 46.0312V45.0312H47C47.3594 45.0352 47.6953 44.8477 47.8789 44.5352C48.0586 44.2227 48.0586 43.8398 47.8789 43.5273C47.6953 43.2148 47.3594 43.0273 47 43.0312V12.0312C47.3594 12.0352 47.6953 11.8477 47.8789 11.5352C48.0586 11.2227 48.0586 10.8398 47.8789 10.5273C47.6953 10.2148 47.3594 10.0273 47 10.0312ZM45 12.5273V43.0312H43V39.0312C43 38.7031 42.8398 38.3945 42.5664 38.207L36.0664 33.707C35.9023 33.5938 35.707 33.5312 35.5039 33.5312C35.3008 33.5312 35.1016 33.5938 34.9336 33.707L28.4336 38.207C28.1602 38.3945 28 38.7031 28 39.0312V43.0312H26V34.0312C26 33.9023 25.9766 33.7734 25.9297 33.6523C26.8164 32.8477 27.6836 31.9766 28.5273 31.0508C29.3672 30.1328 30.1914 29.1562 31 28.1602V34.3945C31 34.4062 33 33.0312 33 33.0312V25.8633C33 25.7969 32.9727 25.7344 32.9531 25.6719C34.6953 23.4102 36.3711 21.1602 38 19.125V33.0312C38 33.0312 39.3281 33.9102 40 34.3477V16.7305C41.043 15.5547 42.0664 14.5273 43.0469 13.7539C43.7266 13.2188 44.375 12.8164 45 12.5273ZM24 15.0312C21.8008 15.0312 20 16.832 20 19.0312C20 21.2305 21.8008 23.0312 24 23.0312C26.1992 23.0312 28 21.2305 28 19.0312C28 16.832 26.1992 15.0312 24 15.0312ZM24 17.0312C25.1172 17.0312 26 17.9141 26 19.0312C26 20.1484 25.1172 21.0312 24 21.0312C22.8828 21.0312 22 20.1484 22 19.0312C22 17.9141 22.8828 17.0312 24 17.0312ZM8 18.0312H10V20.0312H8V18.0312ZM12.0117 28.0312H14V30.0312H13.8086C13.3828 30.0312 12.4336 30.0586 12 30.0312V28.1367C12 28.0977 12.0078 28.0664 12.0117 28.0312ZM5 30.6875C6.71094 32.8945 8.39453 34.5234 10.0508 35.7031C10.0156 35.8086 10 35.918 10 36.0312V43.0312H5V30.6875ZM24 35.2266V43.0312H19V37.7188C20.7539 37.2852 22.4141 36.3945 24 35.2266ZM35.5 35.75L41 39.5547V43.8633C40.9805 43.9727 40.9805 44.082 41 44.1875V45.0312H37L35.5 41.0312L34 45.0312H30V44.1992C30.0195 44.0898 30.0195 43.9805 30 43.875V39.5547L35.5 35.75ZM12 36.8906C13.4844 37.6211 14.9531 37.9922 16.4062 38.0156C16.6055 38.0195 16.8008 38.0117 17 38V43.0312H12V36.8906Z" fill="#00B2FF"/>
</svg>
