<svg width="50" height="51" viewBox="0 0 50 51" fill="none" xmlns="http://www.w3.org/2000/svg">
<g clip-path="url(#clip0_1270_4894)">
<path d="M39 2.06173C38.7383 2.09298 38.5039 2.2297 38.3438 2.43673L35.4062 6.12423C34.8359 5.40938 33.9727 4.93673 33 4.93673H29C27.6875 4.93673 26.5664 5.7961 26.125 6.96798H16.4375C14.8125 4.59298 12.082 3.03048 9 3.03048C4.04297 3.03048 0 7.07345 0 12.0305C0 15.1125 1.5625 17.843 3.9375 19.468C3.94922 19.4758 3.95703 19.4914 3.96875 19.4992C3.96875 19.5109 3.96875 19.5188 3.96875 19.5305L14.75 39.968H6.875C5.22656 39.968 3.9375 41.3899 3.9375 43.0305V49.0305C3.93359 49.3117 4.04688 49.5852 4.24609 49.7844C4.44531 49.9836 4.71875 50.0969 5 50.093H39C39.2812 50.0969 39.5547 49.9836 39.7539 49.7844C39.9531 49.5852 40.0664 49.3117 40.0625 49.0305V43.0305C40.0625 41.3899 38.7734 39.968 37.125 39.968H29.9062L16.9688 17.093H26.125C26.5664 18.2649 27.6875 19.1242 29 19.1242H33C33.9727 19.1242 34.8359 18.6516 35.4062 17.9367L38.3438 21.6242C38.6367 21.9914 39.1484 22.0969 39.5625 21.8742L49.4688 16.468C49.8828 16.2453 50.0742 15.7609 49.9297 15.3156C49.7812 14.8664 49.3398 14.593 48.875 14.6555C48.7539 14.675 48.6367 14.718 48.5312 14.7805L39.375 19.8117L36.0938 15.6555V8.43673L39.375 4.28048L48.5312 9.28048C48.8359 9.48751 49.2305 9.50313 49.5508 9.32345C49.8711 9.14376 50.0625 8.80001 50.043 8.43282C50.0273 8.06563 49.8047 7.74142 49.4688 7.59298L39.5625 2.18673C39.3906 2.08907 39.1953 2.0461 39 2.06173ZM9 5.03048C11.4805 5.03048 13.6641 6.31173 14.9062 8.24923C14.918 8.26876 14.9258 8.2922 14.9375 8.31173C14.957 8.3547 14.9766 8.39767 15 8.43673C15.0234 8.50313 15.0547 8.56563 15.0938 8.62423C15.1094 8.65157 15.1406 8.65938 15.1562 8.68673C15.1758 8.71798 15.1953 8.74923 15.2188 8.78048C15.7227 9.74923 16 10.8586 16 12.0305C16 13.1906 15.7148 14.2883 15.2188 15.2492C15.2109 15.2609 15.1953 15.2688 15.1875 15.2805C15.1758 15.3 15.1641 15.3234 15.1562 15.343C15.1523 15.3508 15.1602 15.3664 15.1562 15.3742C15.1328 15.3938 15.1133 15.4133 15.0938 15.4367C15.0273 15.5227 14.9766 15.6164 14.9375 15.718C14.9258 15.7492 14.9141 15.7805 14.9062 15.8117C13.6641 17.7492 11.4805 19.0305 9 19.0305C5.125 19.0305 2 15.9055 2 12.0305C2 8.15548 5.125 5.03048 9 5.03048ZM9 6.37423C8.93359 6.37423 8.87891 6.40157 8.8125 6.40548C8.75 6.4211 8.68359 6.44063 8.625 6.46798C5.70703 6.67501 3.34375 9.06173 3.34375 12.0305C3.34375 15.132 5.89844 17.6867 9 17.6867C12.1016 17.6867 14.6562 15.132 14.6562 12.0305C14.6562 9.07345 12.3086 6.69063 9.40625 6.46798C9.39453 6.46798 9.38672 6.43673 9.375 6.43673C9.30469 6.4172 9.23047 6.40938 9.15625 6.40548C9.10156 6.40548 9.05469 6.37423 9 6.37423ZM29 7.12423H33C33.5117 7.12423 33.9062 7.51876 33.9062 8.03048V16.0305C33.9062 16.5422 33.5117 16.9367 33 16.9367H29C28.4883 16.9367 28.0938 16.5422 28.0938 16.0305V8.03048C28.0938 7.51876 28.4883 7.12423 29 7.12423ZM8.9375 8.37423C8.95703 8.37423 8.98047 8.37423 9 8.37423C11.0156 8.37423 12.6562 10.0149 12.6562 12.0305C12.6562 14.0461 11.0156 15.6867 9 15.6867C6.98438 15.6867 5.34375 14.0461 5.34375 12.0305C5.34375 10.0344 6.94922 8.40938 8.9375 8.37423ZM17.5 9.09298H25.9062V14.968H17.5C17.8203 14.0422 18 13.0617 18 12.0305C18 10.9992 17.8203 10.0188 17.5 9.09298ZM15.375 18.343L27.5938 39.968H16.9688L6.84375 20.7492C7.53906 20.9211 8.25391 21.0305 9 21.0305C11.4961 21.0305 13.7422 19.9914 15.375 18.343ZM6.875 42.093H16.0938C16.3438 42.1984 16.625 42.1984 16.875 42.093H37.125C37.5586 42.093 37.9375 42.468 37.9375 43.0305V47.968H6.0625V43.0305C6.0625 42.468 6.44141 42.093 6.875 42.093Z" fill="#00B2FF"/>
</g>
<defs>
<clipPath id="clip0_1270_4894">
<rect width="50" height="50" fill="white" transform="translate(0 0.03125)"/>
</clipPath>
</defs>
</svg>
