<svg width="50" height="51" viewBox="0 0 50 51" fill="none" xmlns="http://www.w3.org/2000/svg">
<path d="M24.9999 2.03125C20.5934 2.03125 16.9999 5.62481 16.9999 10.0312C16.9999 12.5775 18.1603 14.4309 19.1932 15.8398C20.2262 17.2488 20.9999 18.2524 20.9999 19.0312V21.0312C20.9999 22.4019 21.9454 23.5602 23.2108 23.9121C23.537 24.5734 24.2123 25.0312 24.9999 25.0312C25.7875 25.0312 26.4628 24.5734 26.7889 23.9121C28.0543 23.5602 28.9999 22.4019 28.9999 21.0312V19.0312C28.9999 18.2841 29.775 17.2709 30.8085 15.8555C31.8419 14.44 32.9999 12.5775 32.9999 10.0312C32.9999 5.62481 29.4063 2.03125 24.9999 2.03125ZM24.9999 4.03125C28.3254 4.03125 30.9999 6.70569 30.9999 10.0312C30.9999 11.985 30.1578 13.352 29.1913 14.6758C28.4159 15.7378 27.4846 16.748 27.1425 18.0312H22.8593C22.5185 16.7346 21.5839 15.7167 20.8065 14.6562C19.8395 13.3372 18.9999 11.985 18.9999 10.0312C18.9999 6.70569 21.6743 4.03125 24.9999 4.03125ZM22.9999 20.0312H26.9999V21.0312C26.9999 21.5963 26.5649 22.0312 25.9999 22.0312H23.9999C23.4348 22.0312 22.9999 21.5963 22.9999 21.0312V20.0312ZM14.0311 23.0312C11.8654 23.0312 10.1101 23.5734 8.87488 24.6074C7.63962 25.6414 6.99988 27.1598 6.99988 28.7812C6.99988 29.4092 7.14459 30.0486 7.27722 30.5957C7.338 30.8464 7.35207 30.8728 7.40027 31.0449C7.17717 31.4017 6.99988 31.8938 6.99988 32.5312C6.99988 33.3229 7.21339 34.0026 7.66784 34.457C7.87139 34.6606 8.0909 34.6263 8.32019 34.7148C8.45184 35.2468 8.58638 35.7882 8.82019 36.2266C8.98149 36.529 9.15416 36.8009 9.33777 37.0371C9.37999 37.0914 9.45835 37.1323 9.49988 37.1836V38.7344C9.36192 39.0323 9.07735 39.3211 8.4823 39.6367C7.8485 39.9728 6.97796 40.2935 6.07214 40.7129C5.16632 41.1323 4.20934 41.6573 3.42956 42.4961C2.64979 43.3349 2.09192 44.5049 2.00183 45.9707C1.99358 46.1069 2.01328 46.2433 2.05971 46.3715C2.10613 46.4998 2.1783 46.6172 2.27179 46.7165C2.36527 46.8159 2.47809 46.895 2.6033 46.9492C2.72851 47.0033 2.86347 47.0312 2.99988 47.0312H23.9999H26.9999H46.9999C47.1363 47.0312 47.2712 47.0033 47.3965 46.9492C47.5217 46.895 47.6345 46.8159 47.728 46.7165C47.8214 46.6172 47.8936 46.4998 47.94 46.3715C47.9865 46.2433 48.0062 46.1069 47.9979 45.9707C47.9058 44.472 47.2495 43.2772 46.3651 42.4473C45.4807 41.6173 44.4093 41.1082 43.3827 40.6934C42.3561 40.2785 41.3595 39.9555 40.6307 39.6133C39.9426 39.2902 39.6239 38.9868 39.4999 38.7285V37.1816C39.5413 37.1304 39.6198 37.0895 39.662 37.0352C39.8453 36.7991 40.0164 36.5289 40.1776 36.2266C40.4114 35.7883 40.5476 35.2466 40.6796 34.7148C40.9088 34.6263 41.1284 34.6606 41.3319 34.457C41.7864 34.0026 41.9999 33.3229 41.9999 32.5312C41.9999 31.8938 41.8226 31.4017 41.5995 31.0449C41.6477 30.8728 41.6618 30.8464 41.7225 30.5957C41.8552 30.0486 41.9999 29.4092 41.9999 28.7812C41.9999 27.7251 41.7286 26.5885 41.0214 25.6484C40.431 24.8638 39.4407 24.3591 38.2831 24.1816L37.8905 23.5215C37.8021 23.3723 37.6763 23.2486 37.5257 23.1627C37.375 23.0767 37.2046 23.0314 37.0311 23.0312C34.8654 23.0312 33.1101 23.5734 31.8749 24.6074C30.6396 25.6414 29.9999 27.1598 29.9999 28.7812C29.9999 29.4092 30.1446 30.0486 30.2772 30.5957C30.338 30.8464 30.3521 30.8728 30.4003 31.0449C30.1772 31.4017 29.9999 31.8938 29.9999 32.5312C29.9999 33.3229 30.2134 34.0026 30.6678 34.457C30.8714 34.6606 31.0909 34.6263 31.3202 34.7148C31.4518 35.2468 31.5864 35.7882 31.8202 36.2266C31.9815 36.529 32.1542 36.8009 32.3378 37.0371C32.38 37.0914 32.4583 37.1323 32.4999 37.1836V38.7344C32.3619 39.0323 32.0773 39.3211 31.4823 39.6367C30.8485 39.9728 29.978 40.2935 29.0721 40.7129C28.1663 41.1323 27.2093 41.6573 26.4296 42.4961C25.6498 43.3349 25.0919 44.5049 25.0018 45.9707C25.001 45.9811 25.0004 45.9915 24.9999 46.002C24.9994 45.9915 24.9987 45.9811 24.9979 45.9707C24.9058 44.472 24.2495 43.2772 23.3651 42.4473C22.4807 41.6173 21.4093 41.1082 20.3827 40.6934C19.3561 40.2785 18.3595 39.9555 17.6307 39.6133C16.9426 39.2902 16.6239 38.9868 16.4999 38.7285V37.1816C16.5413 37.1304 16.6198 37.0895 16.662 37.0352C16.8453 36.7991 17.0164 36.5289 17.1776 36.2266C17.4114 35.7883 17.5476 35.2466 17.6796 34.7148C17.9088 34.6263 18.1284 34.6606 18.3319 34.457C18.7864 34.0026 18.9999 33.3229 18.9999 32.5312C18.9999 31.8938 18.8226 31.4017 18.5995 31.0449C18.6477 30.8728 18.6618 30.8464 18.7225 30.5957C18.8552 30.0486 18.9999 29.4092 18.9999 28.7812C18.9999 27.7251 18.7286 26.5885 18.0214 25.6484C17.431 24.8638 16.4407 24.3591 15.2831 24.1816L14.8905 23.5215C14.8021 23.3723 14.6763 23.2486 14.5257 23.1627C14.375 23.0767 14.2046 23.0314 14.0311 23.0312ZM13.5038 25.1016L13.7655 25.541C13.8539 25.6902 13.9797 25.8139 14.1303 25.8998C14.281 25.9858 14.4514 26.0311 14.6249 26.0312C15.5618 26.0312 16.0475 26.3541 16.4218 26.8516C16.796 27.349 16.9999 28.0874 16.9999 28.7812C16.9999 29.0283 16.8946 29.6389 16.7772 30.123C16.6598 30.6072 16.5448 30.9863 16.5448 30.9863C16.4832 31.1869 16.4863 31.4018 16.5536 31.6005C16.6209 31.7993 16.749 31.9718 16.9198 32.0938C16.9329 32.1131 16.9999 32.2038 16.9999 32.5312C16.9999 32.9896 16.9009 33.0599 16.9178 33.043C16.9348 33.026 16.9582 33.0312 16.8749 33.0312C16.6286 33.0312 16.3909 33.1221 16.2075 33.2865C16.024 33.4508 15.9077 33.6771 15.8807 33.9219C15.8392 34.2997 15.6437 34.8543 15.4139 35.2852C15.2991 35.5006 15.1756 35.688 15.0819 35.8086C14.9882 35.9292 14.874 35.9773 15.0428 35.8906C14.8792 35.9747 14.7419 36.1024 14.6461 36.2595C14.5503 36.4167 14.4997 36.5972 14.4999 36.7812V39.0312C14.5002 39.1528 14.5227 39.2732 14.5663 39.3867C14.9631 40.4275 15.8691 40.9965 16.7792 41.4238C17.6892 41.8512 18.6977 42.1691 19.6327 42.5469C20.5677 42.9247 21.4133 43.3594 21.996 43.9062C22.3356 44.225 22.5726 44.5985 22.746 45.0312H4.4237C4.57928 44.6467 4.6318 44.1399 4.89441 43.8574C5.39432 43.3196 6.10605 42.9005 6.91198 42.5273C7.71792 42.1542 8.60241 41.8358 9.4198 41.4023C10.2372 40.9688 11.0569 40.3759 11.4335 39.3867C11.477 39.2732 11.4995 39.1528 11.4999 39.0312V36.7812C11.4999 36.597 11.449 36.4163 11.3529 36.2592C11.2567 36.102 11.119 35.9745 10.955 35.8906C11.1236 35.977 11.0096 35.9291 10.9159 35.8086C10.8222 35.6881 10.7006 35.5005 10.5858 35.2852C10.3562 34.8545 10.1602 34.2993 10.119 33.9219C10.0921 33.6771 9.9757 33.4508 9.79226 33.2865C9.60881 33.1221 9.37117 33.0312 9.12488 33.0312C9.04154 33.0312 9.06495 33.026 9.08191 33.043C9.09886 33.0599 8.99988 32.9896 8.99988 32.5312C8.99988 32.2038 9.0669 32.1131 9.07995 32.0938C9.25073 31.9718 9.37884 31.7993 9.44614 31.6005C9.51344 31.4018 9.51652 31.1869 9.45495 30.9863C9.45495 30.9863 9.3399 30.6072 9.22253 30.123C9.10516 29.6389 8.99988 29.0283 8.99988 28.7812C8.99988 27.6527 9.37733 26.7961 10.1581 26.1426C10.8505 25.563 11.9927 25.1903 13.5038 25.1016ZM36.5038 25.1016L36.7655 25.541C36.8539 25.6902 36.9797 25.8139 37.1303 25.8998C37.281 25.9858 37.4514 26.0311 37.6249 26.0312C38.5618 26.0312 39.0475 26.3541 39.4217 26.8516C39.796 27.349 39.9999 28.0874 39.9999 28.7812C39.9999 29.0283 39.8946 29.6389 39.7772 30.123C39.6598 30.6072 39.5448 30.9863 39.5448 30.9863C39.4832 31.1869 39.4863 31.4018 39.5536 31.6005C39.6209 31.7993 39.749 31.9718 39.9198 32.0938C39.9328 32.1131 39.9999 32.2038 39.9999 32.5312C39.9999 32.9896 39.9009 33.0599 39.9178 33.043C39.9348 33.026 39.9582 33.0312 39.8749 33.0312C39.6286 33.0312 39.3909 33.1221 39.2075 33.2865C39.024 33.4508 38.9077 33.6771 38.8807 33.9219C38.8392 34.2997 38.6437 34.8543 38.4139 35.2852C38.2991 35.5006 38.1756 35.688 38.0819 35.8086C37.9882 35.9292 37.874 35.9773 38.0428 35.8906C37.8792 35.9747 37.7419 36.1024 37.6461 36.2595C37.5503 36.4167 37.4997 36.5972 37.4999 36.7812V39.0312C37.5002 39.1528 37.5227 39.2732 37.5663 39.3867C37.9631 40.4275 38.8691 40.9965 39.7792 41.4238C40.6892 41.8512 41.6977 42.1691 42.6327 42.5469C43.5677 42.9247 44.4133 43.3594 44.996 43.9062C45.3356 44.225 45.5726 44.5985 45.746 45.0312H27.4237C27.5793 44.6467 27.6318 44.1399 27.8944 43.8574C28.3943 43.3196 29.1061 42.9005 29.912 42.5273C30.7179 42.1542 31.6024 41.8358 32.4198 41.4023C33.2372 40.9688 34.0569 40.3759 34.4335 39.3867C34.477 39.2732 34.4995 39.1528 34.4999 39.0312V36.7812C34.4999 36.597 34.449 36.4163 34.3529 36.2592C34.2567 36.102 34.119 35.9745 33.955 35.8906C34.1236 35.977 34.0096 35.9291 33.9159 35.8086C33.8222 35.6881 33.7006 35.5005 33.5858 35.2852C33.3562 34.8545 33.1602 34.2993 33.119 33.9219C33.0921 33.6771 32.9757 33.4508 32.7923 33.2865C32.6088 33.1221 32.3712 33.0312 32.1249 33.0312C32.0415 33.0312 32.065 33.026 32.0819 33.043C32.0989 33.0599 31.9999 32.9896 31.9999 32.5312C31.9999 32.2038 32.0669 32.1131 32.08 32.0938C32.2507 31.9718 32.3788 31.7993 32.4461 31.6005C32.5134 31.4018 32.5165 31.1869 32.455 30.9863C32.455 30.9863 32.3399 30.6072 32.2225 30.123C32.1052 29.6389 31.9999 29.0283 31.9999 28.7812C31.9999 27.6527 32.3773 26.7961 33.1581 26.1426C33.8505 25.563 34.9927 25.1903 36.5038 25.1016Z" fill="#00B2FF"/>
</svg>
