<svg width="50" height="51" viewBox="0 0 50 51" fill="none" xmlns="http://www.w3.org/2000/svg">
<path d="M4 4.03125C2.90694 4.03125 2 4.93819 2 6.03125V35.0312C2 36.1243 2.90694 37.0312 4 37.0312H19V40.0312H16C14.355 40.0312 13 41.3863 13 43.0312V45.0312C13 45.2965 13.1054 45.5508 13.2929 45.7383C13.4805 45.9259 13.7348 46.0312 14 46.0312H36C36.2652 46.0312 36.5195 45.9259 36.7071 45.7383C36.8946 45.5508 37 45.2965 37 45.0312V43.0312C37 41.3863 35.645 40.0312 34 40.0312H31V37.0312H46C47.0931 37.0312 48 36.1243 48 35.0312V6.03125C48 4.93819 47.0931 4.03125 46 4.03125H4ZM4 6.03125H46V29.0312H4V6.03125ZM27.9492 9.01953C27.7532 9.03059 27.5648 9.09909 27.4075 9.21648C27.2502 9.33387 27.1309 9.49496 27.0645 9.67969L21.0645 25.6797C21.0126 25.8037 20.9862 25.9369 20.987 26.0713C20.9877 26.2058 21.0156 26.3387 21.0689 26.4621C21.1221 26.5855 21.1998 26.6969 21.2971 26.7897C21.3944 26.8824 21.5094 26.9546 21.6352 27.0019C21.7611 27.0492 21.8952 27.0706 22.0295 27.0649C22.1638 27.0592 22.2956 27.0265 22.417 26.9687C22.5383 26.9109 22.6468 26.8292 22.7359 26.7286C22.825 26.6279 22.8929 26.5103 22.9355 26.3828L28.9355 10.3828C28.9966 10.2269 29.0176 10.0581 28.9964 9.89191C28.9753 9.72576 28.9128 9.56758 28.8146 9.43189C28.7164 9.29619 28.5857 9.18732 28.4345 9.11527C28.2833 9.04323 28.1165 9.0103 27.9492 9.01953ZM32.002 12.0195C31.8113 12.0173 31.6239 12.0695 31.4619 12.1702C31.3 12.2709 31.1702 12.4158 31.0879 12.5879C31.0055 12.7599 30.9741 12.9519 30.9973 13.1412C31.0205 13.3305 31.0973 13.5092 31.2188 13.6562L34.7188 18.0312L31.2188 22.4062C31.1366 22.5088 31.0755 22.6266 31.0389 22.7528C31.0023 22.879 30.9909 23.0112 31.0054 23.1418C31.0199 23.2724 31.06 23.3989 31.1234 23.514C31.1868 23.6291 31.2722 23.7306 31.3748 23.8127C31.4774 23.8948 31.5952 23.9559 31.7214 23.9924C31.8477 24.029 31.9798 24.0403 32.1105 24.0258C32.2411 24.0113 32.3675 23.9712 32.4826 23.9078C32.5977 23.8443 32.6992 23.7589 32.7812 23.6562L36.7812 18.6562C36.9232 18.4789 37.0006 18.2585 37.0006 18.0312C37.0006 17.804 36.9232 17.5836 36.7812 17.4062L32.7812 12.4062C32.6889 12.2873 32.5708 12.1907 32.4359 12.1237C32.3009 12.0568 32.1526 12.0211 32.002 12.0195ZM17.9688 12.0215C17.8233 12.0272 17.6808 12.0645 17.5512 12.131C17.4217 12.1974 17.3082 12.2914 17.2188 12.4062L13.2188 17.4062C13.0768 17.5836 12.9994 17.804 12.9994 18.0312C12.9994 18.2585 13.0768 18.4789 13.2188 18.6562L17.2188 23.6562C17.3008 23.7589 17.4023 23.8443 17.5174 23.9078C17.6325 23.9712 17.7589 24.0113 17.8895 24.0258C18.0202 24.0403 18.1523 24.029 18.2786 23.9924C18.4048 23.9559 18.5226 23.8948 18.6252 23.8127C18.7278 23.7306 18.8132 23.6291 18.8766 23.514C18.94 23.3989 18.9801 23.2724 18.9946 23.1418C19.0091 23.0112 18.9977 22.879 18.9611 22.7528C18.9245 22.6266 18.8634 22.5088 18.7812 22.4062L15.2812 18.0312L18.7812 13.6562C18.9039 13.5072 18.9808 13.3259 19.0026 13.1342C19.0245 12.9424 18.9905 12.7485 18.9046 12.5757C18.8187 12.4028 18.6846 12.2586 18.5186 12.1602C18.3525 12.0619 18.1616 12.0137 17.9688 12.0215ZM4 31.0312H46V35.0312H30H20H4V31.0312ZM42 32.0312C41.7348 32.0312 41.4804 32.1366 41.2929 32.3241C41.1054 32.5117 41 32.766 41 33.0312C41 33.2965 41.1054 33.5508 41.2929 33.7384C41.4804 33.9259 41.7348 34.0312 42 34.0312C42.2652 34.0312 42.5196 33.9259 42.7071 33.7384C42.8946 33.5508 43 33.2965 43 33.0312C43 32.766 42.8946 32.5117 42.7071 32.3241C42.5196 32.1366 42.2652 32.0312 42 32.0312ZM21 37.0312H29V40.0312H21V37.0312ZM16 42.0312H34C34.565 42.0312 35 42.4662 35 43.0312V44.0312H15V43.0312C15 42.4662 15.435 42.0312 16 42.0312Z" fill="#00B2FF"/>
</svg>
