<svg width="348" height="233" viewBox="0 0 348 233" fill="none" xmlns="http://www.w3.org/2000/svg">
<rect width="348" height="233" rx="20" fill="#DEF5FF"/>
<path fill-rule="evenodd" clip-rule="evenodd" d="M88.9606 156.749C88.9689 156.162 89.0845 155.626 89.2992 155.138C89.5139 154.651 89.8278 154.255 90.2407 153.957C90.6454 153.668 91.1574 153.511 91.752 153.503C92.231 153.511 92.6439 153.602 92.9825 153.784C93.3294 153.957 93.6185 154.205 93.8332 154.511C94.0562 154.816 94.2213 155.163 94.3287 155.551C94.4361 155.931 94.5021 156.336 94.5021 156.749H88.9606ZM98.169 159.268V158.417C98.169 156.823 97.9129 155.452 97.4174 154.321C96.9136 153.181 96.1952 152.297 95.2454 151.686C94.3039 151.075 93.156 150.761 91.8098 150.753C90.7775 150.761 89.869 150.951 89.0762 151.331C88.2751 151.703 87.6062 152.231 87.0446 152.908C86.4913 153.594 86.0701 154.387 85.7893 155.303C85.5002 156.22 85.3516 157.219 85.3516 158.293C85.3516 159.069 85.4342 159.829 85.6158 160.556C85.7975 161.291 86.0701 161.968 86.4335 162.596C86.8051 163.223 87.2758 163.777 87.8539 164.248C88.432 164.718 89.1175 165.09 89.9268 165.346C90.7197 165.61 91.6446 165.742 92.6852 165.751C93.5689 165.759 94.4443 165.651 95.3032 165.437C96.1704 165.222 96.9797 164.875 97.7395 164.413L96.6494 161.927C96.1373 162.216 95.584 162.447 94.9976 162.621C94.403 162.794 93.7506 162.885 93.0486 162.893C92.2475 162.893 91.5455 162.736 90.9509 162.447C90.3563 162.15 89.8856 161.729 89.5469 161.184C89.2166 160.639 89.0267 160.003 88.9936 159.259H98.169V159.268Z" fill="#00B2FF"/>
<path fill-rule="evenodd" clip-rule="evenodd" d="M108.345 162.755C107.469 162.755 106.701 162.574 106.049 162.235C105.396 161.896 104.884 161.393 104.513 160.74C104.141 160.088 103.959 159.295 103.951 158.362C103.959 157.379 104.149 156.545 104.521 155.851C104.901 155.166 105.413 154.637 106.065 154.274C106.718 153.91 107.469 153.72 108.311 153.72C108.667 153.72 108.98 153.745 109.245 153.778C109.509 153.82 109.773 153.869 110.038 153.927V162.508C109.881 162.565 109.691 162.607 109.492 162.648C109.294 162.689 109.088 162.714 108.89 162.731C108.7 162.747 108.51 162.755 108.345 162.755ZM108.411 165.753C109.005 165.753 109.616 165.712 110.244 165.638C110.872 165.555 111.483 165.439 112.077 165.282C112.672 165.134 113.209 164.927 113.688 164.696V144H110.054V150.937C109.856 150.896 109.641 150.863 109.418 150.838C109.187 150.813 108.956 150.797 108.733 150.78C108.501 150.764 108.303 150.756 108.113 150.756C106.974 150.764 105.925 150.946 104.975 151.317C104.017 151.681 103.191 152.209 102.489 152.886C101.779 153.572 101.242 154.373 100.854 155.306C100.466 156.239 100.276 157.28 100.268 158.42C100.268 159.601 100.474 160.649 100.879 161.558C101.292 162.466 101.853 163.234 102.597 163.854C103.323 164.473 104.182 164.944 105.173 165.266C106.156 165.588 107.238 165.753 108.411 165.753Z" fill="#00B2FF"/>
<path fill-rule="evenodd" clip-rule="evenodd" d="M119.109 148.787C119.539 148.787 119.927 148.68 120.257 148.49C120.596 148.292 120.86 148.036 121.05 147.714C121.24 147.392 121.347 147.037 121.347 146.632C121.339 146.211 121.24 145.839 121.05 145.517C120.852 145.195 120.588 144.931 120.257 144.741C119.927 144.551 119.539 144.46 119.109 144.46C118.68 144.468 118.3 144.559 117.97 144.757C117.648 144.947 117.383 145.203 117.193 145.534C117.003 145.864 116.904 146.227 116.904 146.64C116.913 147.053 117.003 147.417 117.193 147.739C117.383 148.069 117.648 148.317 117.97 148.507C118.3 148.68 118.68 148.779 119.109 148.787ZM117.292 165.445H120.926V151.116H117.292V165.445Z" fill="#00B2FF"/>
<path fill-rule="evenodd" clip-rule="evenodd" d="M60.6992 165.445H64.3082V155.328C64.845 154.899 65.3984 154.56 65.9847 154.296C66.5711 154.04 67.1492 153.908 67.7273 153.908C68.3384 153.908 68.7927 154.048 69.0982 154.329C69.4038 154.602 69.602 154.973 69.7011 155.436C69.8002 155.898 69.8498 156.41 69.8415 156.963V165.453H73.4753V155.873C73.4753 155.766 73.4753 155.667 73.4671 155.576C73.4671 155.485 73.4588 155.403 73.4423 155.328C73.9626 154.899 74.5159 154.56 75.094 154.296C75.6721 154.04 76.2502 153.908 76.8366 153.908C77.4477 153.908 77.9019 154.048 78.224 154.312C78.5378 154.585 78.7526 154.94 78.8599 155.394C78.9756 155.849 79.0251 156.369 79.0168 156.939V165.453H82.6259V155.931C82.6176 154.981 82.4937 154.18 82.2377 153.528C81.9817 152.867 81.6266 152.33 81.1971 151.926C80.7512 151.521 80.2474 151.215 79.6775 151.034C79.116 150.844 78.5131 150.753 77.8772 150.761C77.0678 150.761 76.2254 150.951 75.35 151.323C74.4746 151.694 73.5992 152.248 72.7238 152.975C72.3687 152.256 71.8649 151.711 71.2124 151.331C70.56 150.951 69.792 150.77 68.9083 150.761C68.3219 150.77 67.7521 150.852 67.1988 151.026C66.6454 151.199 66.1086 151.43 65.5801 151.719C65.0598 152.017 64.5642 152.347 64.0935 152.727L63.7301 151.116H60.6992V165.445Z" fill="#00B2FF"/>
<path fill-rule="evenodd" clip-rule="evenodd" d="M131.026 165.75C131.686 165.742 132.314 165.684 132.917 165.56C133.511 165.436 134.073 165.271 134.585 165.065C135.097 164.85 135.543 164.619 135.931 164.354L134.866 161.869C134.37 162.141 133.867 162.381 133.33 162.562C132.793 162.744 132.198 162.835 131.538 162.843C130.72 162.843 130.002 162.661 129.39 162.315C128.779 161.968 128.317 161.456 127.978 160.778C127.648 160.101 127.474 159.275 127.474 158.293C127.474 157.632 127.573 157.021 127.763 156.459C127.953 155.898 128.234 155.41 128.598 154.989C128.961 154.568 129.407 154.254 129.935 154.015C130.464 153.783 131.059 153.668 131.728 153.66C132.421 153.66 133.049 153.75 133.619 153.949C134.189 154.139 134.725 154.419 135.213 154.783V151.727C134.965 151.562 134.651 151.413 134.271 151.265C133.9 151.116 133.47 150.992 132.991 150.901C132.504 150.81 131.959 150.761 131.364 150.761C130.291 150.769 129.291 150.951 128.383 151.331C127.466 151.702 126.665 152.231 125.98 152.908C125.294 153.585 124.757 154.386 124.369 155.328C123.989 156.261 123.791 157.277 123.791 158.4C123.791 159.449 123.948 160.407 124.262 161.299C124.584 162.191 125.046 162.967 125.666 163.628C126.277 164.297 127.037 164.817 127.929 165.189C128.821 165.552 129.853 165.742 131.026 165.75Z" fill="#00B2FF"/>
<path fill-rule="evenodd" clip-rule="evenodd" d="M145.856 158.78V161.844C145.699 161.976 145.484 162.133 145.212 162.29C144.948 162.455 144.634 162.595 144.27 162.711C143.915 162.835 143.511 162.893 143.065 162.901C142.412 162.901 141.892 162.727 141.512 162.381C141.14 162.042 140.95 161.555 140.942 160.935C140.942 160.572 141.008 160.25 141.157 159.969C141.297 159.688 141.52 159.465 141.818 159.3C142.057 159.168 142.346 159.061 142.693 158.986C143.04 158.912 143.445 158.862 143.907 158.846L145.856 158.78ZM146.707 165.445H149.738C149.63 165.065 149.556 164.569 149.523 163.95C149.482 163.339 149.465 162.612 149.465 161.778V155.964C149.465 154.238 148.986 152.933 148.028 152.066C147.07 151.198 145.633 150.761 143.709 150.761C142.71 150.761 141.752 150.885 140.818 151.116C139.893 151.364 139.01 151.71 138.159 152.181L139.34 154.518C139.86 154.238 140.438 154.006 141.074 153.808C141.702 153.618 142.379 153.519 143.098 153.511C143.659 153.511 144.147 153.593 144.551 153.759C144.972 153.932 145.286 154.188 145.509 154.543C145.732 154.898 145.848 155.353 145.856 155.906V156.36L143.403 156.451C142.677 156.484 142.008 156.558 141.38 156.69C140.761 156.823 140.199 157.013 139.703 157.269C138.952 157.64 138.366 158.152 137.936 158.78C137.507 159.416 137.284 160.217 137.275 161.175C137.284 162.1 137.49 162.901 137.903 163.586C138.316 164.272 138.878 164.8 139.588 165.172C140.298 165.552 141.116 165.742 142.032 165.75C142.627 165.742 143.172 165.676 143.668 165.527C144.163 165.379 144.609 165.18 145.022 164.933C145.427 164.685 145.807 164.404 146.153 164.082L146.707 165.445Z" fill="#00B2FF"/>
<path fill-rule="evenodd" clip-rule="evenodd" d="M153.036 162.21C153.036 163.35 153.341 164.209 153.936 164.787C154.539 165.365 155.439 165.662 156.636 165.662C157.049 165.662 157.495 165.621 157.958 165.539C158.428 165.456 158.874 165.332 159.304 165.15L158.602 162.359C158.445 162.425 158.272 162.466 158.106 162.499C157.925 162.532 157.793 162.549 157.693 162.549C157.355 162.557 157.099 162.466 156.909 162.276C156.727 162.086 156.628 161.74 156.628 161.252V144H153.027V162.21H153.036Z" fill="#00B2FF"/>
<path fill-rule="evenodd" clip-rule="evenodd" d="M173.701 158.813C173.165 158.805 172.71 158.681 172.339 158.441C171.967 158.202 171.678 157.871 171.48 157.475C171.29 157.079 171.183 156.633 171.183 156.154C171.191 155.576 171.298 155.088 171.513 154.692C171.728 154.295 172.017 153.998 172.397 153.792C172.768 153.585 173.198 153.486 173.677 153.486C174.213 153.494 174.676 153.618 175.056 153.866C175.436 154.114 175.733 154.444 175.939 154.849C176.146 155.253 176.253 155.699 176.253 156.178C176.245 156.757 176.138 157.236 175.915 157.632C175.7 158.02 175.394 158.317 175.015 158.516C174.626 158.714 174.189 158.813 173.701 158.813ZM173.462 172.621C174.701 172.621 175.799 172.497 176.741 172.25C177.682 172.002 178.467 171.663 179.111 171.242C179.747 170.804 180.226 170.309 180.548 169.731C180.87 169.161 181.035 168.55 181.035 167.897C181.027 167.228 180.895 166.675 180.63 166.229C180.366 165.783 180.011 165.42 179.565 165.131C179.119 164.85 178.615 164.635 178.062 164.47C177.5 164.305 176.931 164.181 176.336 164.09C175.741 163.991 175.163 163.908 174.602 163.834C174.048 163.76 173.545 163.669 173.099 163.562C172.653 163.454 172.289 163.306 172.033 163.124C171.769 162.934 171.637 162.686 171.629 162.364C171.629 162.224 171.653 162.059 171.711 161.893C171.769 161.728 171.86 161.53 171.992 161.307C172.24 161.381 172.504 161.439 172.801 161.48C173.099 161.522 173.412 161.547 173.743 161.547C174.618 161.547 175.419 161.423 176.138 161.167C176.856 160.919 177.484 160.564 178.021 160.101C178.549 159.631 178.954 159.077 179.243 158.425C179.532 157.772 179.681 157.046 179.681 156.244C179.681 155.609 179.573 154.997 179.359 154.411C179.152 153.833 178.83 153.313 178.401 152.85C178.557 152.759 178.731 152.702 178.937 152.66C179.136 152.627 179.309 152.602 179.466 152.602C179.631 152.602 179.813 152.619 179.994 152.644C180.184 152.677 180.358 152.71 180.523 152.759L181.25 150.158C181.142 150.141 180.994 150.125 180.812 150.117C180.63 150.1 180.457 150.092 180.284 150.092C179.705 150.092 179.202 150.141 178.772 150.24C178.351 150.34 177.979 150.488 177.666 150.678C177.352 150.86 177.071 151.075 176.823 151.331C176.765 151.372 176.708 151.405 176.65 151.413C176.592 151.43 176.534 151.421 176.46 151.388C176.162 151.215 175.783 151.075 175.295 150.942C174.808 150.819 174.246 150.752 173.611 150.752C172.636 150.761 171.777 150.909 171.05 151.207C170.324 151.496 169.713 151.9 169.225 152.396C168.738 152.9 168.375 153.461 168.135 154.089C167.896 154.708 167.772 155.361 167.772 156.021C167.772 156.666 167.863 157.26 168.053 157.83C168.242 158.392 168.515 158.904 168.87 159.358C169.225 159.812 169.655 160.184 170.167 160.481C169.58 160.902 169.143 161.348 168.862 161.819C168.581 162.29 168.449 162.744 168.449 163.182C168.449 164.602 169.605 165.676 171.29 166.047C171.942 166.213 172.694 166.279 173.718 166.411C174.197 166.469 174.668 166.543 175.122 166.617C175.584 166.7 175.989 166.807 176.361 166.939C176.732 167.072 177.03 167.245 177.244 167.468C177.467 167.683 177.575 167.972 177.583 168.302C177.575 168.665 177.426 168.971 177.12 169.235C176.823 169.5 176.402 169.706 175.865 169.863C175.32 170.012 174.684 170.086 173.949 170.086C173.14 170.086 172.454 169.987 171.876 169.805C171.406 169.656 170.951 169.434 170.613 169.103C170.092 168.599 169.333 168.5 168.697 168.847L167.805 169.343C167.582 169.467 167.441 169.656 167.4 169.904C167.351 170.144 167.408 170.383 167.565 170.573C168.143 171.292 168.994 171.771 169.869 172.085C170.852 172.44 172.05 172.621 173.462 172.621Z" fill="#00B2FF"/>
<path fill-rule="evenodd" clip-rule="evenodd" d="M186.332 156.749C186.34 156.162 186.456 155.626 186.67 155.138C186.885 154.651 187.199 154.255 187.612 153.957C188.016 153.668 188.528 153.511 189.123 153.503C189.602 153.511 190.007 153.602 190.354 153.784C190.701 153.957 190.99 154.205 191.204 154.511C191.427 154.816 191.592 155.163 191.7 155.551C191.815 155.931 191.873 156.336 191.881 156.749H186.332ZM195.54 159.268V158.417C195.532 156.823 195.284 155.452 194.789 154.321C194.285 153.181 193.566 152.297 192.617 151.686C191.667 151.075 190.527 150.761 189.181 150.753C188.157 150.761 187.248 150.951 186.447 151.331C185.646 151.703 184.969 152.231 184.416 152.908C183.862 153.594 183.449 154.387 183.16 155.303C182.871 156.22 182.723 157.219 182.723 158.293C182.723 159.069 182.805 159.829 182.987 160.556C183.169 161.291 183.441 161.968 183.805 162.596C184.176 163.223 184.647 163.777 185.225 164.248C185.803 164.718 186.489 165.09 187.29 165.346C188.091 165.61 189.007 165.742 190.048 165.751C190.932 165.759 191.807 165.651 192.674 165.437C193.541 165.222 194.351 164.875 195.111 164.413L194.02 161.927C193.508 162.216 192.955 162.447 192.369 162.621C191.782 162.794 191.122 162.885 190.42 162.893C189.619 162.893 188.917 162.736 188.322 162.447C187.727 162.15 187.257 161.729 186.918 161.184C186.579 160.639 186.398 160.003 186.356 159.259H195.54V159.268Z" fill="#00B2FF"/>
<path fill-rule="evenodd" clip-rule="evenodd" d="M198.234 165.445H201.843V155.42C202.38 154.965 202.95 154.61 203.553 154.329C204.164 154.057 204.759 153.908 205.353 153.9C205.964 153.9 206.427 154.049 206.749 154.338C207.071 154.618 207.286 154.998 207.401 155.477C207.517 155.956 207.567 156.493 207.567 157.088V165.454H211.2V155.965C211.192 154.949 211.06 154.098 210.804 153.421C210.54 152.744 210.193 152.215 209.755 151.819C209.317 151.431 208.822 151.15 208.277 150.985C207.732 150.828 207.178 150.745 206.6 150.745C205.708 150.753 204.858 150.935 204.048 151.282C203.239 151.637 202.455 152.108 201.695 152.711L201.331 151.1H198.243V165.445H198.234Z" fill="#00B2FF"/>
<path fill-rule="evenodd" clip-rule="evenodd" d="M221.058 162.844C220.298 162.836 219.662 162.629 219.15 162.241C218.638 161.853 218.25 161.308 217.986 160.614C217.73 159.929 217.597 159.128 217.597 158.236C217.597 157.352 217.73 156.567 217.986 155.874C218.25 155.188 218.63 154.651 219.15 154.255C219.662 153.859 220.298 153.66 221.058 153.652C221.818 153.652 222.445 153.859 222.957 154.255C223.478 154.643 223.857 155.188 224.122 155.874C224.378 156.559 224.51 157.344 224.51 158.236C224.51 159.128 224.378 159.929 224.122 160.614C223.857 161.308 223.478 161.845 222.957 162.241C222.453 162.629 221.818 162.836 221.058 162.844ZM221.058 165.751C222.123 165.743 223.106 165.553 223.981 165.181C224.865 164.81 225.617 164.281 226.252 163.604C226.888 162.935 227.376 162.134 227.722 161.225C228.069 160.317 228.243 159.318 228.243 158.236C228.235 157.154 228.069 156.163 227.722 155.246C227.384 154.338 226.888 153.545 226.252 152.876C225.625 152.199 224.865 151.678 223.981 151.315C223.106 150.943 222.131 150.753 221.058 150.745C219.984 150.753 219.01 150.935 218.142 151.315C217.267 151.678 216.516 152.199 215.888 152.876C215.26 153.545 214.773 154.338 214.426 155.246C214.087 156.155 213.914 157.154 213.914 158.236C213.914 159.318 214.087 160.309 214.426 161.225C214.773 162.134 215.252 162.935 215.888 163.604C216.516 164.281 217.275 164.81 218.142 165.181C219.018 165.553 219.992 165.743 221.058 165.751Z" fill="#00B2FF"/>
<path fill-rule="evenodd" clip-rule="evenodd" d="M230.932 165.445H234.541V155.328C235.077 154.899 235.639 154.56 236.217 154.296C236.804 154.04 237.382 153.908 237.968 153.908C238.579 153.908 239.033 154.048 239.339 154.329C239.644 154.602 239.843 154.973 239.95 155.436C240.049 155.898 240.099 156.41 240.09 156.963V165.453H243.724V155.873C243.724 155.766 243.724 155.667 243.716 155.576C243.716 155.485 243.708 155.403 243.691 155.328C244.212 154.899 244.765 154.56 245.343 154.296C245.921 154.04 246.507 153.908 247.086 153.908C247.697 153.908 248.151 154.048 248.473 154.312C248.779 154.585 248.993 154.94 249.109 155.394C249.216 155.849 249.274 156.369 249.266 156.939V165.453H252.875V155.931C252.867 154.981 252.743 154.18 252.487 153.528C252.231 152.867 251.884 152.33 251.438 151.926C250.992 151.521 250.488 151.215 249.918 151.034C249.348 150.844 248.754 150.753 248.118 150.761C247.309 150.761 246.466 150.951 245.591 151.323C244.715 151.694 243.84 152.248 242.973 152.975C242.618 152.256 242.114 151.711 241.461 151.331C240.801 150.951 240.033 150.77 239.149 150.761C238.563 150.77 237.993 150.852 237.439 151.026C236.878 151.199 236.341 151.43 235.821 151.719C235.309 152.017 234.805 152.347 234.334 152.727L233.971 151.116H230.94V165.445H230.932Z" fill="#00B2FF"/>
<path fill-rule="evenodd" clip-rule="evenodd" d="M258.109 148.787C258.539 148.787 258.919 148.68 259.257 148.49C259.596 148.292 259.86 148.036 260.05 147.714C260.24 147.392 260.339 147.037 260.347 146.632C260.339 146.211 260.24 145.839 260.05 145.517C259.852 145.195 259.588 144.931 259.257 144.741C258.927 144.551 258.539 144.46 258.109 144.46C257.68 144.468 257.3 144.559 256.97 144.757C256.639 144.947 256.383 145.203 256.193 145.534C256.003 145.864 255.904 146.227 255.904 146.64C255.913 147.053 256.003 147.417 256.193 147.739C256.383 148.069 256.639 148.317 256.97 148.507C257.3 148.68 257.68 148.779 258.109 148.787ZM256.292 165.445H259.926V151.116H256.292V165.445Z" fill="#00B2FF"/>
<path fill-rule="evenodd" clip-rule="evenodd" d="M270.014 165.75C270.675 165.742 271.302 165.684 271.905 165.56C272.508 165.436 273.061 165.271 273.573 165.065C274.094 164.85 274.54 164.619 274.928 164.354L273.871 161.869C273.375 162.141 272.863 162.381 272.326 162.562C271.789 162.744 271.195 162.835 270.534 162.843C269.708 162.843 268.998 162.661 268.395 162.315C267.784 161.968 267.313 161.456 266.983 160.778C266.653 160.101 266.479 159.275 266.471 158.293C266.471 157.632 266.57 157.021 266.76 156.459C266.95 155.898 267.231 155.41 267.594 154.989C267.957 154.568 268.403 154.254 268.924 154.015C269.452 153.783 270.047 153.668 270.708 153.66C271.401 153.66 272.029 153.75 272.599 153.949C273.169 154.139 273.697 154.419 274.193 154.783V151.727C273.937 151.562 273.623 151.413 273.251 151.265C272.888 151.116 272.458 150.992 271.971 150.901C271.476 150.81 270.939 150.761 270.344 150.761C269.271 150.769 268.271 150.951 267.363 151.331C266.446 151.702 265.645 152.231 264.96 152.908C264.274 153.585 263.737 154.386 263.357 155.328C262.977 156.261 262.779 157.277 262.779 158.4C262.779 159.449 262.944 160.407 263.25 161.299C263.572 162.191 264.035 162.967 264.646 163.628C265.257 164.297 266.017 164.817 266.909 165.189C267.817 165.552 268.849 165.742 270.014 165.75Z" fill="#00B2FF"/>
<path fill-rule="evenodd" clip-rule="evenodd" d="M275.926 164.355C276.322 164.603 276.785 164.834 277.313 165.041C277.85 165.247 278.445 165.421 279.089 165.545C279.741 165.677 280.443 165.743 281.187 165.751C281.963 165.751 282.706 165.668 283.4 165.495C284.094 165.322 284.713 165.057 285.258 164.702C285.803 164.339 286.224 163.885 286.53 163.315C286.844 162.745 287.001 162.076 287.001 161.291C286.992 160.581 286.868 159.978 286.629 159.483C286.381 158.979 286.067 158.566 285.663 158.236C285.266 157.897 284.82 157.616 284.35 157.393C283.871 157.17 283.392 156.964 282.921 156.79C282.442 156.617 282.004 156.452 281.608 156.287C281.211 156.113 280.889 155.923 280.65 155.709C280.41 155.494 280.278 155.221 280.27 154.907C280.27 154.594 280.352 154.346 280.526 154.148C280.691 153.958 280.931 153.817 281.236 153.726C281.542 153.644 281.897 153.594 282.301 153.594C283.061 153.603 283.771 153.685 284.449 153.859C285.118 154.024 285.754 154.247 286.356 154.503V151.447C285.77 151.232 285.118 151.059 284.416 150.935C283.705 150.811 282.954 150.745 282.145 150.745C281.021 150.753 280.055 150.935 279.246 151.298C278.436 151.67 277.817 152.174 277.379 152.826C276.942 153.47 276.727 154.222 276.719 155.081C276.727 155.758 276.851 156.336 277.09 156.807C277.338 157.278 277.652 157.674 278.048 157.996C278.445 158.31 278.891 158.591 279.361 158.806C279.84 159.02 280.319 159.218 280.798 159.392C281.269 159.565 281.715 159.731 282.112 159.904C282.508 160.086 282.83 160.284 283.069 160.515C283.309 160.746 283.433 161.035 283.441 161.382C283.441 161.746 283.334 162.035 283.111 162.258C282.896 162.481 282.607 162.646 282.227 162.745C281.855 162.844 281.426 162.894 280.931 162.894C280.195 162.894 279.502 162.778 278.833 162.563C278.172 162.348 277.569 162.068 277.024 161.713L275.926 164.355Z" fill="#00B2FF"/>
<path fill-rule="evenodd" clip-rule="evenodd" d="M222.446 61.0312C224.129 61.0312 225.498 62.3978 225.498 64.0772C225.498 66.7938 220.738 67.864 222.297 72.9021C222.495 73.6347 223.477 75.3059 224.071 77.1005C226.15 83.6368 225.366 90.5354 221.992 96.1662C220.466 98.71 218.057 100.291 219.005 103.427C220.02 107 222.726 107.675 225.729 107.041C227.858 106.514 230.424 105.707 233.385 106.102C240.184 107.033 245.002 111.478 247.369 116.368C250.471 122.863 249.481 130.124 245.794 135.335C242.246 140.414 236.091 143.658 229.401 143.032C224.426 142.596 220.391 140.299 217.388 136.949C216.992 136.479 216.506 135.829 216.357 135.006C216.06 133.4 216.803 131.655 218.032 130.725C218.329 130.478 218.626 130.239 218.915 130.099C220.243 129.391 220.886 129.251 222.611 129.251C223.741 129.251 225.218 129.737 226.01 130.429C228.27 132.363 231.422 132.915 234.186 131.77C240.489 129.153 240.687 120.031 233.938 117.364C229.706 115.701 224.781 118.212 223.65 122.682C223.551 123.143 223.551 123.472 223.304 123.859C221.728 126.806 217.545 127.325 214.938 125.58C213.857 124.872 212.727 123.481 212.966 121.488C213.23 119.348 213.981 117.718 214.831 116.343C216.679 113.339 218.832 110.77 216.159 107.37C213.593 104.456 211.226 105.551 208.198 106.456C206.68 106.917 205.054 107.346 203.71 107.436C200.014 107.708 196.474 107.057 193.422 105.823C191.994 105.279 190.567 104.514 189.437 103.781C188.802 103.345 188.257 102.966 187.713 102.521C187.077 102.003 186.632 101.591 186.038 101.073C183.53 98.7511 181.459 95.5653 180.131 91.9102C179.281 89.3994 177.59 87.0697 175.131 87.0203C171.303 86.938 169.488 90.1156 169.406 93.5566C169.373 95.0467 169.406 97.8621 169.406 98.6771C169.406 100.834 169.257 102.06 168.226 103.534C165.272 107.741 158.92 107.132 156.758 102.637C155.875 100.867 156.065 99.3603 156.065 97.2364C156.065 93.2273 156.065 89.21 156.065 85.1763C156.065 80.7062 156.511 77.9484 153.854 75.2976C151.495 72.9515 147.997 72.1365 144.696 73.1737C141.941 74.0216 139.425 76.3102 138.987 79.5619C138.888 80.5745 138.938 90.3378 138.938 91.5974C138.938 93.6143 139.136 95.3101 138.443 97.0553C136.628 101.534 130.366 102.834 126.975 98.6112C125.944 97.3517 125.548 95.9934 125.548 93.9682V81.8505C125.548 78.4423 124.269 75.6599 121.415 73.9146C116.984 71.2145 111.473 73.3713 109.551 77.8414C107.975 81.5541 109.6 85.3162 108.223 88.6256C107.241 91.0787 104.188 93.4249 100.443 92.4206C98.7844 91.9678 97.6459 91.0458 96.8126 89.9756C95.7319 88.5597 95.4844 87.3907 95.4844 85.201C95.4844 83.2088 95.4844 81.1919 95.4844 79.1997C95.4844 77.2075 95.6824 75.6022 96.2186 73.8241C99.5187 62.8259 112.999 57.8042 123.444 63.5668C124.673 64.25 126.101 65.2297 126.934 66.1023C129.351 68.4731 132.89 69.1317 135.943 67.6005C138.014 66.5633 138.501 64.7934 143.178 62.7435C146.132 61.4593 149.869 60.8831 153.516 61.377C161.477 62.4554 169.356 69.3705 169.356 77.7344C169.612 80.3522 172.004 82.3691 174.595 82.3691C179.141 82.3691 179.364 78.5164 180.642 75.4211C183.645 68.432 189.651 63.361 197.233 61.7228C202.307 60.6279 207.818 61.3441 212.397 63.6573C213.923 64.4229 215.697 64.5876 217.421 63.8714C219.311 63.0728 220.804 61.0312 222.446 61.0312ZM201.424 73.0585C194.824 73.4948 190.105 78.8128 190.394 85.201C190.691 91.3998 196.004 96.5285 202.604 96.1745C210.929 95.7629 216.093 86.8392 212.348 79.422C211.712 78.1377 210.722 76.8535 209.889 76.1209C208.709 75.1083 207.876 74.5156 206.35 73.8817C204.972 73.3054 203.099 72.9515 201.424 73.0585Z" fill="#00B2FF"/>
</svg>
