<svg width="22" height="22" viewBox="0 0 22 22" fill="none" xmlns="http://www.w3.org/2000/svg">
<path d="M10.7656 0.495604C10.9531 0.261229 11.3281 0.261229 11.5625 0.495604L21.3594 10.2925C21.5938 10.5269 21.5938 10.855 21.3594 11.0894L11.5625 20.8862C11.3281 21.1206 10.9531 21.1206 10.7656 20.8862L9.82813 19.9956C9.59375 19.7612 9.59375 19.3862 9.82813 19.1987L17.0938 11.9331L1.0625 11.9331C0.781251 11.9331 0.500001 11.6519 0.500001 11.3706L0.500001 10.0581C0.500001 9.72998 0.781251 9.4956 1.0625 9.4956L17.0938 9.4956L9.82813 2.1831C9.59375 1.9956 9.59375 1.6206 9.82813 1.38623L10.7656 0.495604Z" fill="#00B2FF"/>
</svg>
