<svg width="183" height="72" viewBox="0 0 183 72" fill="none" xmlns="http://www.w3.org/2000/svg">
<rect width="182.941" height="71.6747" rx="24" fill="black"/>
<path d="M30.9055 25.5952L24.7238 35.5739L31.4887 46.2612H36.854L29.6225 35.2197L35.8043 25.5952H30.9055ZM20.0583 46.2612H24.6072L24.5488 25.6542H20L20.0583 46.2612Z" fill="white"/>
<path d="M46.3595 46.2022L46.3012 25.5952H41.8107V46.2612L46.3595 46.2022Z" fill="white"/>
<path d="M54.0532 46.2022H58.1355V36.5187C58.1355 35.9873 58.0189 33.3892 57.9606 32.7988H58.0772C58.4854 33.9797 59.0103 35.1016 59.5935 36.2234L65.0171 46.2022H68.6912V25.5952H64.6089V33.2711C64.6089 34.0387 64.6089 34.2159 64.7255 35.633L64.8421 37.6996H64.7255C64.6672 37.5815 64.3756 36.8139 64.259 36.6368C64.084 36.2234 63.7924 35.633 63.5591 35.2197L58.3105 25.5952H54.0532V46.2022Z" fill="white"/>
<path d="M76.0439 46.2027L90.3903 46.1436V42.3057H80.5345V37.4639H86.8329V33.685H80.4761V29.3156H89.7488V25.5367H76.0439V46.2027Z" fill="white"/>
<path d="M94.9966 25.537L95.0549 29.3159L100.245 29.2569V46.144H104.911V29.2569H109.984V25.478L94.9966 25.537Z" fill="white"/>
<path d="M120.172 25.4724L115.681 25.478L115.706 46.0849L120.197 46.0794L120.172 25.4724Z" fill="white"/>
<path d="M127.304 38.6445C127.304 42.8367 128.412 44.0177 129.228 44.8443C130.511 46.0843 132.144 46.6747 134.535 46.6747C135.41 46.6747 137.51 46.4976 138.968 45.3167C140.134 44.431 140.892 43.0729 141.125 41.6558C141.242 40.8292 141.359 39.9435 141.3 39.1169H136.752C136.752 41.3606 136.227 42.8367 134.36 42.8367C131.911 42.8367 131.911 40.652 131.911 39.5302V31.6771C131.853 30.8505 132.086 30.0238 132.669 29.4334C133.136 29.02 133.719 28.7839 134.36 28.7839C136.577 28.7839 136.635 31.0276 136.693 32.0314H141.184C141.125 30.3781 140.892 27.8391 139.084 26.363C137.801 25.4183 136.227 24.9459 134.594 25.0049C129.87 25.0049 127.362 27.662 127.362 32.3856L127.304 38.6445Z" fill="white"/>
<path d="M157.051 25.4176H154.368V29.0784L156.643 38.4077H154.368H152.094L154.252 29.0784H154.368V25.4176H151.627L145.912 46.0836H150.228L151.277 41.9504H154.368H157.576L158.567 46.0246H162.941L157.051 25.4176Z" fill="white"/>
</svg>
