<svg width="585" height="282" viewBox="0 0 585 282" fill="none" xmlns="http://www.w3.org/2000/svg">
<mask id="mask0_4018_159" style="mask-type:alpha" maskUnits="userSpaceOnUse" x="0" y="0" width="585" height="282">
<g opacity="0.9">
<path d="M31.8156 216.236C33.9472 216.889 35.9557 218.359 37.8413 220.646C39.7269 222.851 41.1206 225.302 42.0224 227.997C41.1206 230.202 39.7269 232.857 37.8413 235.96C35.9557 239.064 34.0701 242.249 32.1845 245.516C30.299 248.702 28.5773 251.764 27.0197 254.705C25.544 257.563 24.6832 259.932 24.4372 261.81C25.7489 260.422 27.1836 258.829 28.7413 257.032C30.3809 255.154 31.9386 253.316 33.4143 251.519C34.9719 249.641 36.4066 247.966 37.7184 246.496C39.0301 244.944 40.0549 243.801 40.7927 243.066C42.3504 241.432 44.195 239.554 46.3265 237.43C48.4581 235.225 50.6716 233.183 52.9671 231.305C55.3446 229.344 57.7221 227.711 60.0996 226.404C62.477 225.016 64.6496 224.321 66.6172 224.321C68.7487 224.321 70.5113 225.057 71.905 226.527C73.3807 227.915 74.5285 229.385 75.3483 230.937C75.3483 231.101 75.0204 231.346 74.3645 231.672C73.7906 231.917 72.9298 232.693 71.7821 234C70.6343 235.47 69.3226 237.512 67.8469 240.126C66.4532 242.658 65.0595 245.435 63.6658 248.457C62.3541 251.397 61.2473 254.419 60.3455 257.522C59.4437 260.626 58.9928 263.444 58.9928 265.976C58.9928 268.018 59.2387 269.325 59.7306 269.896C60.3045 270.468 61.0834 270.754 62.0671 270.754C62.9689 270.754 63.9117 270.55 64.8955 270.141C65.8793 269.733 66.6582 269.529 67.232 269.529C67.56 269.692 67.8059 270.06 67.9699 270.631C68.2158 271.121 68.3388 271.571 68.3388 271.979C67.6829 272.551 66.9041 273.122 66.0023 273.694C65.1005 274.266 64.1577 274.797 63.1739 275.287C62.1901 275.777 61.2063 276.185 60.2225 276.512C59.3207 276.839 58.5009 277.002 57.7631 277.002C55.3856 277.002 53.418 276.635 51.8603 275.899C50.3846 275.246 49.1959 274.348 48.2941 273.204C47.4743 272.061 46.9004 270.713 46.5725 269.161C46.2445 267.528 46.0806 265.813 46.0806 264.016C46.0806 263.036 46.1626 261.933 46.3265 260.708C46.4905 259.483 46.8184 258.053 47.3103 256.42C47.8022 254.705 48.4991 252.704 49.4009 250.417C50.3027 248.048 51.4504 245.23 52.8441 241.963C52.6802 241.963 51.5734 242.535 49.5238 243.679C47.4743 244.822 45.2607 246.578 42.8833 248.947C39.0301 252.622 35.5458 256.257 32.4305 259.85C29.3971 263.444 26.2818 267.446 23.0845 271.857C21.2809 274.388 19.6822 276.512 18.2885 278.227C16.9768 280.024 15.8291 281.208 14.8453 281.78C13.1236 280.8 11.8529 279.411 11.0331 277.615C10.2133 275.899 9.59839 274.103 9.18848 272.224C9.18848 270.672 9.39343 268.712 9.80335 266.343C10.2952 263.975 10.9101 261.361 11.6479 258.503C12.4678 255.562 13.4516 252.499 14.5993 249.314C15.7471 246.129 17.0178 242.943 18.4115 239.758C21.5268 232.571 24.3552 226.935 26.8967 222.851C29.5201 218.768 31.1598 216.562 31.8156 216.236Z" fill="url(#paint0_linear_4018_159)"/>
<path d="M89.1261 279.942C84.4531 279.452 80.7229 277.41 77.9355 273.817C75.1481 270.223 73.7544 265.649 73.7544 260.095C73.7544 256.828 74.2463 253.439 75.2301 249.927C76.2139 246.415 77.6076 243.025 79.4112 239.758C81.2148 236.409 83.3464 233.265 85.8058 230.325C88.2653 227.384 90.9298 224.852 93.7991 222.729C98.3082 219.38 102.53 217.706 106.465 217.706C109.089 219.094 111.671 221.994 114.213 226.404C114.623 226.404 114.992 226.404 115.32 226.404C115.647 226.322 116.016 226.282 116.426 226.282C120.771 226.282 122.944 230.12 122.944 237.798C122.944 242.943 122.083 247.844 120.361 252.499C118.722 257.073 116.385 261.239 113.352 264.996C110.401 268.753 106.834 271.938 102.653 274.552C98.5541 277.084 94.0451 278.881 89.1261 279.942ZM95.3978 241.351C94.0041 243.229 92.6924 245.271 91.4626 247.476C90.2329 249.682 89.1671 251.928 88.2653 254.215C87.3635 256.42 86.6667 258.584 86.1748 260.708C85.6829 262.75 85.4369 264.587 85.4369 266.221C85.4369 268.181 85.7649 270.06 86.4207 271.857C87.0766 273.653 87.8144 274.674 88.6342 274.919C92.3235 274.103 95.6847 272.592 98.7181 270.386C101.833 268.099 104.498 265.282 106.711 261.933C109.007 258.584 110.769 254.786 111.999 250.539C113.311 246.292 113.967 241.759 113.967 236.94C113.967 234.817 113.844 233.142 113.598 231.917C113.352 230.692 112.942 229.63 112.368 228.732C108.761 229.794 105.523 231.509 102.653 233.877C99.8658 236.246 97.4474 238.737 95.3978 241.351Z" fill="url(#paint1_linear_4018_159)"/>
<path d="M163.575 252.867C163.247 254.01 162.837 255.113 162.345 256.175C160.378 260.585 157.795 264.506 154.598 267.936C151.483 271.285 147.876 273.98 143.776 276.022C139.759 278.146 135.578 279.207 131.233 279.207C129.511 279.207 127.913 279.044 126.437 278.717C126.273 278.717 126.109 278.676 125.945 278.595C125.535 278.431 125.125 278.268 124.715 278.105C124.47 277.941 124.183 277.819 123.855 277.737C122.379 277.002 121.026 276.185 119.797 275.287C117.993 273.98 116.558 272.592 115.492 271.121C115.574 270.305 115.943 269.529 116.599 268.794C117.337 267.977 117.993 267.487 118.567 267.324C120.616 269.529 122.748 271.081 124.961 271.979C125.125 272.061 125.945 272.265 127.421 272.592C129.061 272.592 131.11 271.816 133.57 270.264C136.029 268.712 138.407 266.67 140.702 264.138C144.227 260.218 146.892 255.889 148.695 251.152C150.581 246.333 151.524 241.31 151.524 236.083C151.524 229.467 150.048 225.506 147.097 224.199L146.113 223.586C145.621 223.668 145.129 223.872 144.637 224.199C141.03 226.159 138.366 230.733 136.644 237.92C135.414 237.839 134.266 237.512 133.201 236.94C132.217 236.287 131.479 235.552 130.987 234.735C130.413 233.755 130.208 232.571 130.372 231.182C130.618 229.712 131.151 228.283 131.971 226.894C132.791 225.424 133.816 224.036 135.045 222.729C136.357 221.422 137.874 220.319 139.595 219.421C143.039 217.542 146.236 217.093 149.187 218.073C149.925 218.318 150.622 218.645 151.278 219.053C151.934 219.38 152.59 219.707 153.245 220.033C155.623 221.504 157.672 223.382 159.394 225.669C161.198 227.956 162.632 230.57 163.698 233.51C164.354 235.552 164.805 237.635 165.051 239.758C169.396 233.224 173.331 229.549 176.856 228.732C178.578 228.324 180.587 228.446 182.882 229.099C185.26 229.753 187.473 230.855 189.523 232.407C187.965 235.184 186.448 238.492 184.973 242.331C183.497 246.088 182.267 249.559 181.283 252.744C180.382 255.848 179.521 259.238 178.701 262.913C178.783 263.158 178.988 263.24 179.316 263.158C179.48 263.076 179.89 262.709 180.546 262.055C181.283 261.32 181.98 260.585 182.636 259.85C184.604 257.4 186.53 254.541 188.416 251.274C188.58 251.029 188.744 250.743 188.908 250.417C189.81 247.313 191.039 244.291 192.597 241.351C194.237 238.165 196.163 235.143 198.377 232.285C200.672 229.426 203.091 226.935 205.632 224.811C208.256 222.688 210.92 221.014 213.625 219.788C216.413 218.563 219.159 217.951 221.865 217.951C223.668 218.196 225.759 219.339 228.136 221.381C230.596 223.423 231.826 226.404 231.826 230.325C231.826 232.203 231.539 234.041 230.965 235.838C230.473 237.553 229.776 239.105 228.874 240.493C228.054 241.882 227.071 243.025 225.923 243.924C224.775 244.74 223.627 245.149 222.48 245.149C221.496 245.149 220.471 244.863 219.405 244.291C218.421 243.638 217.602 242.821 216.946 241.841C221.865 234.408 223.873 230.202 222.971 229.222C222.07 228.16 220.102 228.977 217.069 231.672C214.691 233.142 212.437 235.103 210.305 237.553C208.256 240.003 206.37 242.862 204.648 246.129C202.927 249.396 201.246 254.46 199.606 261.32C199.606 261.81 199.565 262.341 199.483 262.913C199.483 263.403 199.483 263.934 199.483 264.506C199.483 265.568 199.565 266.67 199.729 267.814C199.893 268.957 200.18 270.019 200.59 270.999C201 271.979 201.574 272.796 202.312 273.449C203.05 274.021 203.992 274.307 205.14 274.307C207.354 274.307 209.526 273.817 211.658 272.837C213.789 271.857 215.798 270.672 217.684 269.284C219.651 267.814 221.455 266.262 223.094 264.628C224.816 262.913 226.333 261.361 227.644 259.973C228.464 260.708 229.161 261.402 229.735 262.055C226.046 266.956 221.988 271.04 217.561 274.307C213.216 277.492 209.075 279.534 205.14 280.432C199.483 279.779 195.097 277.696 191.982 274.184C189.277 271.244 187.719 267.773 187.309 263.771C182.882 270.386 178.906 274.103 175.381 274.919C173.659 275.409 171.609 275.328 169.232 274.674C166.936 273.939 164.764 272.796 162.714 271.244C164.272 268.467 165.789 265.2 167.264 261.443C168.74 257.604 169.929 254.133 170.831 251.029C171.814 247.844 172.716 244.414 173.536 240.738C173.454 240.493 173.249 240.411 172.921 240.493C172.757 240.575 172.306 240.983 171.568 241.718C170.913 242.453 170.257 243.148 169.601 243.801C167.633 246.251 165.707 249.11 163.821 252.377C163.739 252.54 163.657 252.704 163.575 252.867Z" fill="url(#paint2_linear_4018_159)"/>
<path d="M278.549 224.934C278.221 229.998 277.319 234.368 275.843 238.043C274.368 241.637 272.236 244.822 269.449 247.599C266.743 250.294 263.423 252.744 259.488 254.95C255.553 257.155 250.962 259.279 245.715 261.32C245.715 261.81 245.674 262.341 245.592 262.913C245.592 263.403 245.592 263.934 245.592 264.506C245.592 265.568 245.674 266.67 245.838 267.814C246.002 268.957 246.289 270.019 246.699 270.999C247.108 271.979 247.682 272.796 248.42 273.449C249.158 274.021 250.101 274.307 251.249 274.307C253.462 274.307 255.635 273.817 257.766 272.837C259.898 271.857 261.906 270.672 263.792 269.284C265.76 267.814 267.563 266.262 269.203 264.628C270.924 262.913 272.441 261.361 273.753 259.973C274.573 260.708 275.269 261.402 275.843 262.055C272.154 266.956 268.096 271.04 263.669 274.307C259.324 277.492 255.184 279.534 251.249 280.432C245.592 279.779 241.165 277.737 237.967 274.307C234.852 270.795 233.294 266.588 233.294 261.688C233.294 258.339 233.745 254.95 234.647 251.519C235.631 248.007 236.943 244.659 238.582 241.473C240.304 238.206 242.272 235.143 244.485 232.285C246.781 229.426 249.199 226.935 251.741 224.811C254.364 222.688 257.028 221.014 259.734 219.788C262.521 218.563 265.268 217.951 267.973 217.951C271.744 218.441 275.269 220.769 278.549 224.934ZM270.064 228.977C267.85 229.304 265.555 230.202 263.177 231.672C260.8 233.142 258.545 235.103 256.414 237.553C254.364 240.003 252.478 242.862 250.757 246.129C249.035 249.396 247.682 252.908 246.699 256.665C253.257 253.398 258.709 249.396 263.054 244.659C267.399 239.84 269.736 234.613 270.064 228.977Z" fill="url(#paint3_linear_4018_159)"/>
<path d="M314.002 272.959C312.444 271.652 311.378 270.019 310.804 268.059C310.312 266.098 310.067 264.424 310.067 263.036C310.067 261.32 310.271 259.85 310.681 258.625C310.353 258.625 309.616 259.279 308.468 260.585C307.32 261.892 306.049 263.444 304.656 265.241C303.344 267.038 302.032 268.794 300.721 270.509C299.409 272.224 298.425 273.49 297.769 274.307C296.703 275.45 295.679 276.349 294.695 277.002C293.793 277.655 293.055 278.023 292.481 278.105C291.17 278.023 289.776 277.737 288.3 277.247C286.906 276.839 285.554 276.226 284.242 275.409C283.012 274.593 281.906 273.613 280.922 272.469C280.02 271.326 279.405 270.019 279.077 268.549C279.077 266.262 279.118 264.383 279.2 262.913C279.364 261.443 279.651 259.85 280.061 258.135C280.799 255.031 282.152 251.805 284.119 248.457C286.087 245.108 288.382 242.494 291.006 240.616C291.743 240.616 292.604 240.697 293.588 240.861C294.572 240.942 295.556 241.147 296.539 241.473C297.605 241.8 298.589 242.208 299.491 242.698C300.475 243.107 301.294 243.679 301.95 244.414C301.212 245.23 299.409 249.232 296.539 256.42C293.67 263.607 292.235 267.732 292.235 268.794C292.235 269.447 292.317 269.937 292.481 270.264C292.727 270.591 292.932 270.836 293.096 270.999C294.326 270.509 295.884 269.161 297.769 266.956C299.655 264.751 302.278 261.361 305.639 256.787C306.459 255.644 307.402 254.337 308.468 252.867C309.616 251.397 310.763 249.845 311.911 248.211C313.059 246.496 314.125 244.74 315.108 242.943C316.174 241.147 317.035 239.35 317.691 237.553C318.019 236.573 318.429 235.429 318.921 234.122C319.495 232.734 320.15 231.305 320.888 229.835C321.708 228.364 322.61 226.894 323.594 225.424C324.659 223.872 325.889 222.443 327.283 221.136C328.349 221.136 329.496 221.259 330.726 221.504C331.956 221.749 333.104 222.075 334.169 222.484C335.317 222.81 336.301 223.219 337.121 223.709C337.941 224.117 338.555 224.566 338.965 225.057C337.49 228.65 335.85 232.203 334.046 235.715C332.243 239.227 330.562 242.698 329.004 246.129C327.447 249.477 326.135 252.826 325.069 256.175C324.004 259.524 323.471 262.791 323.471 265.976C323.471 267.691 323.594 269.202 323.84 270.509C324.167 271.734 324.495 272.796 324.823 273.694C325.151 274.511 325.438 275.205 325.684 275.777C326.012 276.349 326.176 276.839 326.176 277.247C326.176 277.329 326.094 277.451 325.93 277.615C325.848 277.696 325.766 277.737 325.684 277.737C325.11 277.737 324.372 277.615 323.471 277.37C322.569 277.125 321.544 276.757 320.396 276.267C319.331 275.859 318.224 275.369 317.076 274.797C316.01 274.225 314.985 273.613 314.002 272.959Z" fill="url(#paint4_linear_4018_159)"/>
<path d="M380.056 226.159C380.876 226.159 381.818 226.322 382.884 226.649C384.032 226.894 385.057 227.262 385.959 227.752C386.86 228.16 387.598 228.609 388.172 229.099C388.828 229.59 389.156 230.039 389.156 230.447C387.516 233.877 386 237.349 384.606 240.861C383.212 244.291 382.023 247.599 381.04 250.784C380.056 253.97 379.277 256.951 378.703 259.728C378.211 262.505 377.965 264.914 377.965 266.956C377.965 269.243 378.211 271.162 378.703 272.714C379.195 274.184 380.015 275.246 381.163 275.899C380.179 276.553 378.908 277.084 377.35 277.492C375.793 277.9 374.399 278.105 373.169 278.105C368.742 278.105 366.529 275.083 366.529 269.039C366.529 264.383 368.086 258.013 371.202 249.927C369.562 253.684 367.676 257.237 365.545 260.585C363.413 263.852 361.241 266.752 359.027 269.284C356.814 271.816 354.559 273.898 352.264 275.532C350.05 277.084 348.001 278.023 346.115 278.35C343.082 278.186 340.622 276.757 338.737 274.062C336.851 271.285 335.908 267.773 335.908 263.526C335.908 258.952 336.892 254.133 338.86 249.069C340.827 244.005 343.328 239.309 346.361 234.98C349.476 230.651 352.838 227.058 356.445 224.199C360.052 221.259 363.536 219.707 366.898 219.543C367.717 219.788 368.619 220.279 369.603 221.014C370.669 221.749 371.653 222.606 372.554 223.586C373.538 224.566 374.358 225.587 375.014 226.649C375.67 227.629 376.039 228.487 376.121 229.222C372.841 229.712 369.439 231.305 365.914 234C362.471 236.695 359.314 239.962 356.445 243.801C353.657 247.558 351.362 251.601 349.558 255.93C347.755 260.259 346.853 264.302 346.853 268.059C346.853 269.61 347.427 270.591 348.575 270.999C350.952 270.509 353.698 268.508 356.814 264.996C359.929 261.402 363.7 255.889 368.127 248.457C368.947 246.986 369.849 245.353 370.833 243.556C371.899 241.759 372.964 239.881 374.03 237.92C375.096 235.96 376.121 234 377.104 232.04C378.17 229.998 379.154 228.038 380.056 226.159Z" fill="url(#paint5_linear_4018_159)"/>
<path d="M438.927 243.556C440.156 241.187 441.099 239.35 441.755 238.043C446.264 228.242 449.707 223.341 452.085 223.341C453.724 223.341 455.241 223.791 456.635 224.689C458.11 225.506 459.135 226.731 459.709 228.364C458.971 230.815 457.742 233.755 456.02 237.185C454.38 240.616 452.7 244.25 450.978 248.089C449.256 251.846 447.699 255.562 446.305 259.238C444.993 262.913 444.337 266.221 444.337 269.161C444.337 270.876 444.583 272.02 445.075 272.592C445.567 273.082 446.264 273.327 447.166 273.327C448.15 273.327 449.051 273.163 449.871 272.837C450.773 272.428 451.429 272.224 451.839 272.224C452.331 272.551 452.618 272.959 452.7 273.449C452.782 273.939 452.823 274.388 452.823 274.797C451.183 276.104 449.502 277.165 447.781 277.982C446.059 278.881 444.132 279.33 442.001 279.33C440.033 279.33 438.394 279.003 437.082 278.35C435.852 277.696 434.827 276.798 434.008 275.654C433.188 274.511 432.614 273.204 432.286 271.734C431.958 270.264 431.794 268.671 431.794 266.956C431.794 264.179 432.163 261.402 432.901 258.625C433.065 257.972 433.27 257.318 433.516 256.665C430.646 258.87 427.244 260.463 423.309 261.443C421.669 261.28 419.948 260.871 418.144 260.218C416.34 259.483 414.66 258.38 413.102 256.91C411.544 255.603 410.11 253.888 408.798 251.764C407.24 254.95 405.724 258.298 404.248 261.81C401.543 271.04 399.493 276.512 398.099 278.227C396.788 280.024 395.64 281.208 394.656 281.78C392.934 280.8 391.664 279.411 390.844 277.615C390.024 275.899 389.409 274.103 388.999 272.224C388.999 270.672 389.204 268.712 389.614 266.343C390.106 263.975 390.721 261.361 391.459 258.503C392.279 255.562 393.262 252.499 394.41 249.314C395.558 246.129 396.829 242.943 398.222 239.758C401.338 232.571 404.166 226.935 406.708 222.851C409.331 218.768 410.971 216.562 411.626 216.236C413.758 216.889 415.767 218.359 417.652 220.646C419.538 222.851 420.931 225.302 421.833 227.997C420.931 230.202 418.595 234.449 414.824 240.738C414.824 240.82 414.783 240.902 414.701 240.983C415.849 245.639 417.447 248.947 419.497 250.907C421.628 253.03 423.965 254.255 426.506 254.582C429.622 253.847 432.163 252.418 434.131 250.294C436.18 248.089 437.779 245.843 438.927 243.556Z" fill="url(#paint6_linear_4018_159)"/>
<path d="M494.72 272.959C493.162 271.652 492.097 270.019 491.523 268.059C491.031 266.098 490.785 264.424 490.785 263.036C490.785 261.32 490.99 259.85 491.4 258.625C491.072 258.625 490.334 259.279 489.186 260.585C488.038 261.892 486.768 263.444 485.374 265.241C484.062 267.038 482.751 268.794 481.439 270.509C480.127 272.224 479.143 273.49 478.488 274.307C477.422 275.45 476.397 276.349 475.413 277.002C474.511 277.655 473.774 278.023 473.2 278.105C471.888 278.023 470.494 277.737 469.019 277.247C467.625 276.839 466.272 276.226 464.96 275.409C463.731 274.593 462.624 273.613 461.64 272.469C460.738 271.326 460.123 270.019 459.796 268.549C459.796 266.262 459.837 264.383 459.919 262.913C460.082 261.443 460.369 259.85 460.779 258.135C461.517 255.031 462.583 251.519 463.977 247.599C465.452 243.679 467.133 239.84 469.019 236.083C470.904 232.244 472.995 228.691 475.29 225.424C477.668 222.075 480.168 219.462 482.792 217.583C483.529 217.583 484.39 217.665 485.374 217.828C486.358 217.91 487.342 218.114 488.325 218.441C489.391 218.768 490.375 219.176 491.277 219.666C492.261 220.074 493.08 220.646 493.736 221.381C492.998 222.198 491.113 224.934 488.079 229.59C485.128 234.245 481.808 240.942 478.119 249.682C477.709 250.58 477.217 251.887 476.643 253.602C476.069 255.317 475.495 257.114 474.921 258.993C474.347 260.871 473.856 262.709 473.446 264.506C473.118 266.303 472.954 267.732 472.954 268.794C472.954 269.447 473.036 269.937 473.2 270.264C473.446 270.591 473.651 270.836 473.815 270.999C475.044 270.509 476.602 269.161 478.488 266.956C480.373 264.751 482.997 261.361 486.358 256.787C487.178 255.644 488.12 254.337 489.186 252.867C490.334 251.397 491.482 249.845 492.63 248.211C493.777 246.496 494.843 244.74 495.827 242.943C496.893 241.147 497.753 239.35 498.409 237.553C498.737 236.573 499.147 235.429 499.639 234.122C500.213 232.734 500.869 231.305 501.607 229.835C502.426 228.364 503.328 226.894 504.312 225.424C505.378 223.872 506.608 222.443 508.001 221.136C509.067 221.136 510.215 221.259 511.444 221.504C512.674 221.749 513.822 222.075 514.888 222.484C516.036 222.81 517.019 223.219 517.839 223.709C518.659 224.117 519.274 224.566 519.684 225.057C518.208 228.65 516.568 232.203 514.765 235.715C512.961 239.227 511.28 242.698 509.723 246.129C508.165 249.477 506.853 252.826 505.788 256.175C504.722 259.524 504.189 262.791 504.189 265.976C504.189 267.691 504.312 269.202 504.558 270.509C504.886 271.734 505.214 272.796 505.542 273.694C505.87 274.511 506.157 275.205 506.403 275.777C506.73 276.349 506.894 276.839 506.894 277.247C506.894 277.329 506.812 277.451 506.648 277.615C506.567 277.696 506.485 277.737 506.403 277.737C505.829 277.737 505.091 277.615 504.189 277.37C503.287 277.125 502.262 276.757 501.115 276.267C500.049 275.859 498.942 275.369 497.794 274.797C496.729 274.225 495.704 273.613 494.72 272.959Z" fill="url(#paint7_linear_4018_159)"/>
<path d="M551.797 272.959C550.239 271.652 549.174 270.019 548.6 268.059C548.108 266.098 547.862 264.424 547.862 263.036C547.862 261.32 548.067 259.85 548.477 258.625C548.149 258.625 547.411 259.279 546.263 260.585C545.116 261.892 543.845 263.444 542.451 265.241C541.139 267.038 539.828 268.794 538.516 270.509C537.204 272.224 536.22 273.49 535.565 274.307C534.499 275.45 533.474 276.349 532.49 277.002C531.588 277.655 530.851 278.023 530.277 278.105C528.965 278.023 527.571 277.737 526.096 277.247C524.702 276.839 523.349 276.226 522.037 275.409C520.808 274.593 519.701 273.613 518.717 272.469C517.815 271.326 517.201 270.019 516.873 268.549C516.873 266.262 516.914 264.383 516.996 262.913C517.16 261.443 517.446 259.85 517.856 258.135C518.594 255.031 519.66 251.519 521.054 247.599C522.529 243.679 524.21 239.84 526.096 236.083C527.981 232.244 530.072 228.691 532.367 225.424C534.745 222.075 537.245 219.462 539.869 217.583C540.607 217.583 541.467 217.665 542.451 217.828C543.435 217.91 544.419 218.114 545.403 218.441C546.468 218.768 547.452 219.176 548.354 219.666C549.338 220.074 550.157 220.646 550.813 221.381C550.075 222.198 548.19 224.934 545.157 229.59C542.205 234.245 538.885 240.942 535.196 249.682C534.786 250.58 534.294 251.887 533.72 253.602C533.146 255.317 532.572 257.114 531.998 258.993C531.424 260.871 530.933 262.709 530.523 264.506C530.195 266.303 530.031 267.732 530.031 268.794C530.031 269.447 530.113 269.937 530.277 270.264C530.523 270.591 530.728 270.836 530.892 270.999C532.121 270.509 533.679 269.161 535.565 266.956C537.45 264.751 540.074 261.361 543.435 256.787C544.255 255.644 545.198 254.337 546.263 252.867C547.411 251.397 548.559 249.845 549.707 248.211C550.854 246.496 551.92 244.74 552.904 242.943C553.97 241.147 554.83 239.35 555.486 237.553C555.814 236.573 556.224 235.429 556.716 234.122C557.29 232.734 557.946 231.305 558.684 229.835C559.503 228.364 560.405 226.894 561.389 225.424C562.455 223.872 563.685 222.443 565.078 221.136C566.144 221.136 567.292 221.259 568.522 221.504C569.751 221.749 570.899 222.075 571.965 222.484C573.113 222.81 574.096 223.219 574.916 223.709C575.736 224.117 576.351 224.566 576.761 225.057C575.285 228.65 573.645 232.203 571.842 235.715C570.038 239.227 568.358 242.698 566.8 246.129C565.242 249.477 563.931 252.826 562.865 256.175C561.799 259.524 561.266 262.791 561.266 265.976C561.266 267.691 561.389 269.202 561.635 270.509C561.963 271.734 562.291 272.796 562.619 273.694C562.947 274.511 563.234 275.205 563.48 275.777C563.808 276.349 563.972 276.839 563.972 277.247C563.972 277.329 563.89 277.451 563.726 277.615C563.644 277.696 563.562 277.737 563.48 277.737C562.906 277.737 562.168 277.615 561.266 277.37C560.364 277.125 559.34 276.757 558.192 276.267C557.126 275.859 556.019 275.369 554.871 274.797C553.806 274.225 552.781 273.613 551.797 272.959ZM567.046 211.458C565.406 211.294 563.685 210.886 561.881 210.232C560.077 209.497 558.356 208.436 556.716 207.047C555.158 205.577 553.724 203.78 552.412 201.657C551.182 199.451 550.28 196.797 549.707 193.693C550.362 192.305 551.551 191.406 553.273 190.998C555.076 190.59 556.716 190.222 558.192 189.895C559.34 195.122 560.979 198.798 563.111 200.921C565.324 203.045 567.702 204.27 570.243 204.597C573.359 203.862 575.9 202.432 577.868 200.309C579.917 198.104 581.639 195.408 583.032 192.223C583.852 192.468 584.508 193.244 585 194.551C584.18 198.553 582.172 202.106 578.974 205.209C575.777 208.231 571.801 210.314 567.046 211.458Z" fill="url(#paint8_linear_4018_159)"/>
</g>
<g opacity="0.9">
<path d="M151.804 175.825C152.676 174.138 153.345 172.83 153.81 171.899C157.009 164.921 159.451 161.431 161.138 161.431C162.301 161.431 163.377 161.751 164.365 162.391C165.412 162.972 166.139 163.845 166.546 165.008C166.023 166.752 165.15 168.846 163.929 171.289C162.766 173.731 161.574 176.319 160.353 179.052C159.131 181.728 158.026 184.374 157.038 186.991C156.107 189.608 155.642 191.963 155.642 194.057C155.642 195.278 155.816 196.092 156.165 196.499C156.514 196.848 157.009 197.023 157.648 197.023C158.346 197.023 158.986 196.906 159.568 196.674C160.207 196.383 160.672 196.237 160.963 196.237C161.312 196.47 161.516 196.761 161.574 197.11C161.632 197.459 161.661 197.779 161.661 198.069C160.498 199 159.306 199.756 158.085 200.337C156.863 200.977 155.497 201.297 153.985 201.297C152.589 201.297 151.426 201.064 150.495 200.599C149.623 200.134 148.896 199.494 148.314 198.68C147.733 197.866 147.326 196.935 147.093 195.889C146.86 194.842 146.744 193.708 146.744 192.486C146.744 190.509 147.006 188.532 147.529 186.555C147.646 186.089 147.791 185.624 147.965 185.159C145.93 186.729 143.516 187.863 140.725 188.561C139.562 188.445 138.341 188.154 137.061 187.689C135.782 187.165 134.59 186.38 133.485 185.333C132.38 184.403 131.362 183.181 130.431 181.669C129.326 183.937 128.251 186.322 127.204 188.823C125.285 195.394 123.831 199.291 122.842 200.512C121.912 201.791 121.097 202.635 120.399 203.042C119.178 202.344 118.277 201.355 117.695 200.076C117.114 198.854 116.677 197.575 116.387 196.237C116.387 195.133 116.532 193.737 116.823 192.05C117.172 190.364 117.608 188.503 118.131 186.467C118.713 184.374 119.411 182.193 120.225 179.925C121.039 177.657 121.941 175.389 122.929 173.12C125.139 168.003 127.146 163.99 128.948 161.082C130.809 158.174 131.973 156.604 132.438 156.372C133.95 156.837 135.375 157.884 136.712 159.512C138.05 161.082 139.038 162.827 139.678 164.746C139.038 166.316 137.381 169.34 134.706 173.818C134.706 173.877 134.677 173.935 134.619 173.993C135.433 177.308 136.567 179.663 138.021 181.059C139.533 182.571 141.19 183.443 142.993 183.676C145.203 183.152 147.006 182.135 148.402 180.623C149.855 179.052 150.99 177.453 151.804 175.825Z" fill="url(#paint9_linear_4018_159)"/>
<path d="M177.948 201.733C174.633 201.384 171.987 199.93 170.01 197.372C168.032 194.813 167.044 191.556 167.044 187.601C167.044 185.275 167.393 182.862 168.091 180.361C168.788 177.86 169.777 175.447 171.056 173.12C172.336 170.736 173.848 168.497 175.593 166.403C177.337 164.31 179.227 162.507 181.263 160.995C184.461 158.611 187.456 157.418 190.248 157.418C192.109 158.407 193.941 160.472 195.744 163.612C196.034 163.612 196.296 163.612 196.529 163.612C196.761 163.554 197.023 163.525 197.314 163.525C200.396 163.525 201.937 166.258 201.937 171.725C201.937 175.389 201.327 178.878 200.105 182.193C198.942 185.45 197.285 188.416 195.133 191.091C193.039 193.766 190.51 196.034 187.544 197.895C184.636 199.698 181.437 200.977 177.948 201.733ZM182.397 174.255C181.408 175.592 180.478 177.046 179.605 178.616C178.733 180.186 177.977 181.786 177.337 183.414C176.698 184.984 176.203 186.525 175.854 188.037C175.505 189.491 175.331 190.8 175.331 191.963C175.331 193.359 175.564 194.696 176.029 195.976C176.494 197.255 177.017 197.982 177.599 198.157C180.216 197.575 182.6 196.499 184.752 194.929C186.962 193.301 188.852 191.294 190.422 188.91C192.051 186.525 193.301 183.821 194.173 180.797C195.104 177.773 195.569 174.545 195.569 171.114C195.569 169.602 195.482 168.41 195.308 167.538C195.133 166.665 194.842 165.909 194.435 165.269C191.876 166.025 189.579 167.247 187.544 168.933C185.566 170.62 183.851 172.394 182.397 174.255Z" fill="url(#paint10_linear_4018_159)"/>
<path d="M238.936 168.093C238.936 170.387 238.307 172.441 237.049 174.255C235.79 176.031 234.07 177.511 231.886 178.696C233.292 179.658 234.403 180.842 235.217 182.248C236.068 183.618 236.494 185.135 236.494 186.8C236.494 188.799 235.883 190.779 234.662 192.74C233.477 194.665 231.886 196.386 229.888 197.903C227.889 199.383 225.613 200.586 223.06 201.511C220.506 202.436 217.897 202.899 215.232 202.899C212.346 202.899 209.811 202.344 207.627 201.234C205.481 200.16 203.797 198.625 202.575 196.626C202.946 195.516 203.427 194.147 204.019 192.518C204.648 190.853 205.333 189.113 206.073 187.3C206.813 185.45 207.553 183.618 208.293 181.804C209.07 179.991 209.792 178.362 210.458 176.919C211.865 173.773 213.123 171.164 214.233 169.092C215.343 167.019 216.361 165.373 217.286 164.151C215.251 164.78 213.4 165.502 211.735 166.316C210.07 167.093 208.848 167.852 208.071 168.592C207.738 168.37 207.387 168.037 207.016 167.593C206.683 167.149 206.35 166.668 206.017 166.15C205.721 165.595 205.462 165.039 205.24 164.484C205.055 163.929 204.944 163.43 204.907 162.985C205.869 162.319 207.109 161.69 208.626 161.098C210.181 160.469 211.865 159.932 213.678 159.488C215.491 159.044 217.342 158.693 219.229 158.433C221.154 158.174 222.986 158.045 224.725 158.045C229.166 158.045 232.645 158.933 235.161 160.709C237.678 162.486 238.936 164.947 238.936 168.093ZM217.786 181.36C217.083 181.027 216.435 180.527 215.843 179.861C214.992 181.749 214.178 183.599 213.4 185.413C212.66 187.226 211.994 188.91 211.402 190.464C210.81 192.019 210.329 193.369 209.959 194.517C209.589 195.664 209.385 196.497 209.348 197.015C209.866 197.311 210.477 197.533 211.18 197.681C211.92 197.829 212.827 197.903 213.9 197.903C216.417 197.903 218.822 197.551 221.117 196.848C223.411 196.145 225.428 195.201 227.167 194.017C228.907 192.796 230.295 191.408 231.331 189.854C232.367 188.299 232.885 186.671 232.885 184.968C232.885 182.526 231.831 180.768 229.721 179.695C226.834 180.879 223.578 181.471 219.951 181.471C219.433 181.471 219.026 181.471 218.73 181.471C218.471 181.471 218.156 181.434 217.786 181.36ZM228.555 162.097C227.778 162.097 226.945 162.153 226.057 162.264C225.206 162.338 224.299 162.467 223.337 162.652C223.485 162.8 223.596 162.967 223.67 163.152C223.781 163.3 223.874 163.467 223.948 163.652C223.615 164.096 223.208 164.743 222.726 165.595C222.245 166.446 221.709 167.445 221.117 168.592C220.524 169.703 219.895 170.942 219.229 172.312C218.6 173.681 217.952 175.087 217.286 176.531C217.915 176.383 218.674 176.271 219.562 176.197C220.487 176.086 221.394 176.031 222.282 176.031C222.763 176.031 223.226 176.049 223.67 176.086C224.151 176.123 224.614 176.179 225.058 176.253C226.834 175.957 228.426 175.531 229.832 174.976C231.275 174.384 232.515 173.718 233.551 172.978C234.588 172.201 235.383 171.349 235.938 170.424C236.494 169.499 236.771 168.518 236.771 167.482C236.771 165.706 236.068 164.373 234.662 163.485C233.255 162.56 231.22 162.097 228.555 162.097Z" fill="url(#paint11_linear_4018_159)"/>
<path d="M252.071 201.733C248.756 201.384 246.11 199.93 244.132 197.372C242.155 194.813 241.167 191.556 241.167 187.601C241.167 185.275 241.515 182.862 242.213 180.361C242.911 177.86 243.9 175.447 245.179 173.12C246.459 170.736 247.971 168.497 249.715 166.403C251.46 164.31 253.35 162.507 255.386 160.995C258.584 158.611 261.579 157.418 264.371 157.418C266.232 158.407 268.064 160.472 269.866 163.612C270.157 163.612 270.419 163.612 270.652 163.612C270.884 163.554 271.146 163.525 271.437 163.525C274.519 163.525 276.06 166.258 276.06 171.725C276.06 175.389 275.449 178.878 274.228 182.193C273.065 185.45 271.408 188.416 269.256 191.091C267.162 193.766 264.632 196.034 261.666 197.895C258.759 199.698 255.56 200.977 252.071 201.733ZM256.52 174.255C255.531 175.592 254.601 177.046 253.728 178.616C252.856 180.186 252.1 181.786 251.46 183.414C250.82 184.984 250.326 186.525 249.977 188.037C249.628 189.491 249.454 190.8 249.454 191.963C249.454 193.359 249.686 194.696 250.152 195.976C250.617 197.255 251.14 197.982 251.722 198.157C254.339 197.575 256.723 196.499 258.875 194.929C261.085 193.301 262.975 191.294 264.545 188.91C266.174 186.525 267.424 183.821 268.296 180.797C269.227 177.773 269.692 174.545 269.692 171.114C269.692 169.602 269.605 168.41 269.43 167.538C269.256 166.665 268.965 165.909 268.558 165.269C265.999 166.025 263.702 167.247 261.666 168.933C259.689 170.62 257.974 172.394 256.52 174.255Z" fill="url(#paint12_linear_4018_159)"/>
<path d="M290.838 178.965C289.617 181.698 288.541 184.374 287.61 186.991C286.854 190.189 286.476 192.69 286.476 194.493C286.476 197.052 287.436 198.476 289.355 198.767C291.1 198.535 292.757 198.098 294.327 197.459C295.898 196.819 297.293 196.005 298.515 195.016C298.864 195.54 299.067 195.976 299.125 196.325C298.776 196.848 298.166 197.459 297.293 198.157C296.479 198.854 295.578 199.523 294.589 200.163C293.6 200.861 292.641 201.442 291.71 201.908C290.78 202.373 290.082 202.635 289.617 202.693C288.163 202.635 286.709 202.315 285.255 201.733C283.801 201.152 282.464 200.425 281.242 199.552C280.079 198.68 279.12 197.72 278.364 196.674C277.608 195.569 277.23 194.493 277.23 193.446C277.23 192.457 277.288 191.352 277.404 190.131C277.52 188.852 277.724 187.659 278.015 186.555C278.131 186.089 278.276 185.624 278.451 185.159V184.984C278.858 183.647 279.352 182.309 279.934 180.972C280.632 179.227 281.388 177.598 282.202 176.086C283.016 174.516 283.714 173.12 284.296 171.899C286.156 167.945 287.407 165.008 288.047 163.089C288.163 162.507 287.959 162.042 287.436 161.693C286.738 162.042 285.982 162.711 285.168 163.699C284.586 164.455 283.83 165.357 282.9 166.403C282.027 167.45 281.475 168.206 281.242 168.672C281.01 169.079 280.777 169.457 280.544 169.806C280.37 170.155 280.225 170.416 280.108 170.591C279.469 171.056 278.916 171.056 278.451 170.591C278.102 170.184 277.957 169.602 278.015 168.846C278.131 168.032 278.422 167.13 278.887 166.142C281.388 162.478 283.394 160.035 284.906 158.814C285.488 158.291 286.069 157.884 286.651 157.593V157.418C287.639 157.128 288.483 157.04 289.181 157.157C290.053 157.506 290.867 158.058 291.623 158.814C292.437 159.512 293.106 160.326 293.63 161.257C294.211 162.187 294.647 163.176 294.938 164.223C295.229 165.211 295.345 166.229 295.287 167.276C294.88 169.718 293.397 173.615 290.838 178.965Z" fill="url(#paint13_linear_4018_159)"/>
<path d="M312.858 201.733C309.544 201.384 306.898 199.93 304.92 197.372C302.943 194.813 301.954 191.556 301.954 187.601C301.954 185.275 302.303 182.862 303.001 180.361C303.699 177.86 304.688 175.447 305.967 173.12C307.246 170.736 308.759 168.497 310.503 166.403C312.248 164.31 314.138 162.507 316.173 160.995C319.372 158.611 322.367 157.418 325.158 157.418C327.019 158.407 328.851 160.472 330.654 163.612C330.945 163.612 331.207 163.612 331.439 163.612C331.672 163.554 331.934 163.525 332.224 163.525C335.307 163.525 336.848 166.258 336.848 171.725C336.848 175.389 336.237 178.878 335.016 182.193C333.853 185.45 332.195 188.416 330.044 191.091C327.95 193.766 325.42 196.034 322.454 197.895C319.546 199.698 316.348 200.977 312.858 201.733ZM317.307 174.255C316.319 175.592 315.388 177.046 314.516 178.616C313.644 180.186 312.888 181.786 312.248 183.414C311.608 184.984 311.114 186.525 310.765 188.037C310.416 189.491 310.241 190.8 310.241 191.963C310.241 193.359 310.474 194.696 310.939 195.976C311.405 197.255 311.928 197.982 312.51 198.157C315.127 197.575 317.511 196.499 319.663 194.929C321.873 193.301 323.763 191.294 325.333 188.91C326.961 186.525 328.212 183.821 329.084 180.797C330.015 177.773 330.48 174.545 330.48 171.114C330.48 169.602 330.393 168.41 330.218 167.538C330.044 166.665 329.753 165.909 329.346 165.269C326.787 166.025 324.49 167.247 322.454 168.933C320.477 170.62 318.761 172.394 317.307 174.255Z" fill="url(#paint14_linear_4018_159)"/>
<path d="M408.29 175.825C409.162 174.138 409.831 172.83 410.296 171.899C413.495 164.921 415.937 161.431 417.624 161.431C418.787 161.431 419.863 161.751 420.851 162.391C421.898 162.972 422.625 163.845 423.032 165.008C422.509 166.752 421.636 168.846 420.415 171.289C419.252 173.731 418.06 176.319 416.839 179.052C415.617 181.728 414.512 184.374 413.524 186.991C412.593 189.608 412.128 191.963 412.128 194.057C412.128 195.278 412.302 196.092 412.651 196.499C413 196.848 413.495 197.023 414.134 197.023C414.832 197.023 415.472 196.906 416.053 196.674C416.693 196.383 417.158 196.237 417.449 196.237C417.798 196.47 418.002 196.761 418.06 197.11C418.118 197.459 418.147 197.779 418.147 198.069C416.984 199 415.792 199.756 414.57 200.337C413.349 200.977 411.983 201.297 410.47 201.297C409.075 201.297 407.912 201.064 406.981 200.599C406.109 200.134 405.382 199.494 404.8 198.68C404.219 197.866 403.812 196.935 403.579 195.889C403.346 194.842 403.23 193.708 403.23 192.486C403.23 190.509 403.492 188.532 404.015 186.555C404.131 186.089 404.277 185.624 404.451 185.159C402.416 186.729 400.002 187.863 397.211 188.561C396.048 188.445 394.827 188.154 393.547 187.689C392.268 187.165 391.075 186.38 389.971 185.333C388.866 184.403 387.848 183.181 386.917 181.669C385.812 183.937 384.736 186.322 383.69 188.823C381.771 195.394 380.317 199.291 379.328 200.512C378.397 201.791 377.583 202.635 376.885 203.042C375.664 202.344 374.763 201.355 374.181 200.076C373.6 198.854 373.163 197.575 372.873 196.237C372.873 195.133 373.018 193.737 373.309 192.05C373.658 190.364 374.094 188.503 374.617 186.467C375.199 184.374 375.897 182.193 376.711 179.925C377.525 177.657 378.427 175.389 379.415 173.12C381.625 168.003 383.632 163.99 385.434 161.082C387.295 158.174 388.458 156.604 388.924 156.372C390.436 156.837 391.861 157.884 393.198 159.512C394.536 161.082 395.524 162.827 396.164 164.746C395.524 166.316 393.867 169.34 391.192 173.818C391.192 173.877 391.163 173.935 391.105 173.993C391.919 177.308 393.053 179.663 394.507 181.059C396.019 182.571 397.676 183.443 399.479 183.676C401.689 183.152 403.492 182.135 404.888 180.623C406.341 179.052 407.475 177.453 408.29 175.825Z" fill="url(#paint15_linear_4018_159)"/>
<path d="M447.868 196.761C446.763 195.83 446.007 194.667 445.6 193.272C445.251 191.876 445.076 190.684 445.076 189.695C445.076 188.474 445.222 187.427 445.513 186.555C445.28 186.555 444.757 187.02 443.942 187.95C443.128 188.881 442.227 189.986 441.238 191.265C440.308 192.545 439.377 193.795 438.447 195.016C437.516 196.237 436.818 197.139 436.353 197.72C435.597 198.535 434.87 199.174 434.172 199.64C433.533 200.105 433.009 200.367 432.602 200.425C431.672 200.367 430.683 200.163 429.636 199.814C428.647 199.523 427.688 199.087 426.757 198.506C425.885 197.924 425.1 197.226 424.402 196.412C423.762 195.598 423.326 194.667 423.094 193.62C423.094 191.992 423.123 190.655 423.181 189.608C423.297 188.561 423.501 187.427 423.791 186.206C424.315 183.996 425.071 181.495 426.059 178.703C427.106 175.912 428.298 173.179 429.636 170.503C430.974 167.77 432.457 165.24 434.085 162.914C435.771 160.53 437.545 158.669 439.406 157.331C439.93 157.331 440.54 157.389 441.238 157.506C441.936 157.564 442.634 157.709 443.332 157.942C444.088 158.174 444.786 158.465 445.425 158.814C446.123 159.105 446.705 159.512 447.17 160.035C446.647 160.617 445.309 162.565 443.157 165.88C441.064 169.195 438.708 173.964 436.091 180.186C435.801 180.826 435.452 181.757 435.045 182.978C434.637 184.199 434.23 185.479 433.823 186.816C433.416 188.154 433.067 189.462 432.776 190.742C432.544 192.021 432.428 193.039 432.428 193.795C432.428 194.26 432.486 194.609 432.602 194.842C432.776 195.074 432.922 195.249 433.038 195.365C433.911 195.016 435.015 194.057 436.353 192.486C437.691 190.916 439.552 188.503 441.936 185.246C442.518 184.432 443.186 183.501 443.942 182.455C444.757 181.408 445.571 180.303 446.385 179.14C447.199 177.918 447.955 176.668 448.653 175.389C449.409 174.109 450.02 172.83 450.485 171.55C450.718 170.852 451.008 170.038 451.357 169.108C451.764 168.119 452.23 167.101 452.753 166.055C453.335 165.008 453.974 163.961 454.672 162.914C455.428 161.809 456.301 160.791 457.289 159.861C458.045 159.861 458.859 159.948 459.732 160.123C460.604 160.297 461.418 160.53 462.174 160.821C462.988 161.053 463.686 161.344 464.268 161.693C464.849 161.984 465.286 162.303 465.576 162.652C464.53 165.211 463.366 167.741 462.087 170.242C460.808 172.742 459.615 175.214 458.51 177.657C457.406 180.041 456.475 182.425 455.719 184.81C454.963 187.194 454.585 189.52 454.585 191.789C454.585 193.01 454.672 194.086 454.847 195.016C455.079 195.889 455.312 196.645 455.545 197.284C455.777 197.866 455.981 198.36 456.155 198.767C456.388 199.174 456.504 199.523 456.504 199.814C456.504 199.872 456.446 199.959 456.33 200.076C456.271 200.134 456.213 200.163 456.155 200.163C455.748 200.163 455.225 200.076 454.585 199.901C453.945 199.727 453.218 199.465 452.404 199.116C451.648 198.825 450.863 198.476 450.049 198.069C449.293 197.662 448.566 197.226 447.868 196.761Z" fill="url(#paint16_linear_4018_159)"/>
<path d="M491.759 198.157C491.119 199.145 490.101 199.93 488.706 200.512C487.368 201.152 486.089 201.53 484.867 201.646C483.879 200.483 482.774 198.913 481.553 196.935C480.331 194.9 479.168 192.545 478.063 189.869C475.097 192.545 472.131 194.987 469.165 197.197C466.199 199.349 463.437 201.181 460.878 202.693C460.238 202.576 459.715 202.228 459.308 201.646C458.901 201.064 458.668 200.308 458.61 199.378C459.773 198.738 461.14 197.895 462.71 196.848C464.338 195.801 465.967 194.667 467.595 193.446C469.282 192.167 470.881 190.858 472.393 189.52C473.963 188.125 475.301 186.787 476.406 185.508C475.417 183.181 474.487 180.797 473.614 178.355C472.8 175.854 472.073 173.469 471.433 171.201C470.852 168.875 470.387 166.781 470.038 164.921C469.689 163.001 469.514 161.46 469.514 160.297C469.514 159.483 469.601 158.96 469.776 158.727C470.009 158.436 470.503 158.291 471.259 158.291C471.84 158.291 472.538 158.349 473.353 158.465C474.225 158.582 475.097 158.727 475.97 158.901C476.842 159.076 477.714 159.279 478.587 159.512C479.459 159.686 480.215 159.89 480.855 160.123C480.738 160.762 480.68 161.315 480.68 161.78C480.68 162.245 480.68 162.914 480.68 163.786C480.68 166.055 480.855 168.381 481.204 170.765C481.611 173.091 482.25 175.621 483.123 178.355C485.507 175.621 487.717 172.597 489.752 169.282C491.788 165.909 493.852 161.896 495.946 157.244C497.4 157.535 498.65 157.971 499.697 158.552C500.744 159.076 501.413 159.657 501.704 160.297C501.064 162.972 499.261 166.345 496.295 170.416C493.329 174.487 489.549 178.82 484.955 183.414C485.769 185.624 486.757 187.979 487.921 190.48C489.084 192.923 490.363 195.481 491.759 198.157Z" fill="url(#paint17_linear_4018_159)"/>
</g>
<path fill-rule="evenodd" clip-rule="evenodd" d="M344.009 137.265C344.742 135.072 359.527 141.192 364.642 146.105C371.859 153.039 376.319 165.86 371.011 180.434C366.766 192.093 361.098 198.056 348.579 202.041C344.034 201.691 335.785 197.802 339.137 185.041C343.327 169.09 352.575 159.485 364.044 158.092C360.871 148.239 353.378 142.91 344.009 137.265ZM365.516 162.883C351.241 168.434 346.482 184.295 347.726 194.513C353.223 194.513 358.378 193.415 363.59 185.088C369.438 175.745 367.748 165.619 365.516 162.883Z" fill="#C2A58C"/>
<g opacity="0.9">
<path d="M9.69299 122.464C10.6161 120.732 11.7124 118.48 12.9817 115.709C14.1356 112.937 15.5203 109.588 17.1358 105.662C18.8667 101.62 20.7707 97.0012 22.8478 91.8047C25.0402 86.4927 29.5405 75.4069 36.3487 58.5472C38.7719 52.5423 40.7336 47.519 42.2337 43.4773C43.8492 39.3201 45.1762 35.2784 46.2148 31.3522C47.3687 27.3105 48.4072 22.9223 49.3304 18.1877C50.3689 13.4531 51.5805 7.39057 52.9652 0C57.8117 0.923823 62.1967 3.00242 66.12 6.23579C70.1588 9.46917 73.6205 13.3377 76.5053 17.8413C75.4668 19.227 74.1975 21.2479 72.6974 23.9039C71.1973 26.5599 69.5241 29.7355 67.6778 33.4308C65.9469 37.1261 64.0429 41.2833 61.9659 45.9024C59.8888 50.5215 57.6386 55.3715 55.2154 60.4525C45.2916 82.6242 38.8296 98.6179 35.8294 108.433C34.3293 112.937 33.0023 117.441 31.8484 121.944C32.0792 121.944 32.2523 121.887 32.3676 121.771C37.9065 121.425 46.0417 120.847 56.7732 120.039C66.0046 119.462 72.4666 118.942 76.1592 118.48C76.1592 113.63 76.9669 107.394 78.5824 99.7727C80.1979 92.1512 84.1213 78.4093 90.3525 58.5472C92.4295 52.5423 94.5643 46.7107 96.7568 41.0523C99.0646 35.2784 101.315 30.0242 103.507 25.2896C105.7 20.555 107.777 16.3978 109.738 12.818C111.816 9.23821 113.662 6.58222 115.277 4.85006C116.431 4.96554 117.931 5.42745 119.778 6.23579C121.739 6.92866 123.701 7.79474 125.663 8.83404C127.624 9.87334 129.413 11.0281 131.028 12.2984C132.644 13.4531 133.74 14.5502 134.317 15.5895C132.24 17.5526 130.163 20.0931 128.086 23.211C126.009 26.3289 123.932 29.9087 121.855 33.9504C119.893 37.9921 117.931 42.3803 115.97 47.1149C114.008 51.8495 111.354 59.24 108.008 69.2866C104.777 79.3331 102.353 87.4166 100.738 93.5369C99.1223 99.6572 97.7376 105.489 96.5837 111.032C95.5451 116.575 94.7374 121.656 94.1604 126.275C94.045 126.737 93.9873 127.141 93.9873 127.487C94.2181 128.18 94.3912 128.873 94.5066 129.566C96.2375 131.183 97.9107 132.742 99.5262 134.243C101.372 136.09 102.988 137.996 104.373 139.959C106.104 142.615 107.257 145.56 107.834 148.793C108.527 152.026 108.7 155.26 108.354 158.493C108.008 161.842 107.2 165.075 105.93 168.193C104.661 171.311 102.988 173.967 100.911 176.161C99.6416 176.623 97.6222 176.739 94.8528 176.508C92.1988 176.277 89.4293 175.872 86.5445 175.295C83.6597 174.718 80.948 173.967 78.4093 173.043C75.8707 172.119 74.0821 171.196 73.0436 170.272C72.005 168.424 71.0819 166.288 70.2741 163.863C69.4664 161.553 68.8894 159.359 68.5433 157.281C68.3125 155.202 68.2548 153.354 68.3702 151.738C68.6009 150.121 69.1202 149.024 69.928 148.446C70.9665 147.869 72.0627 148.216 73.2167 149.486C73.4474 149.717 73.6205 150.236 73.7359 151.045C73.9667 151.853 74.1398 152.719 74.2552 153.643C74.486 154.567 74.7168 155.491 74.9475 156.414C75.2937 157.338 75.6399 158.089 75.9861 158.666C76.9092 160.052 77.9478 160.976 79.1017 161.438C80.371 162.015 81.5826 161.957 82.7366 161.265C86.5445 158.724 87.8715 154.336 86.7176 148.1C86.0252 144.058 84.2367 139.439 81.3518 134.243C68.0817 135.167 45.5224 136.899 13.674 139.439H12.9817C9.05833 139.439 5.88503 138.4 3.46178 136.321C1.15393 134.243 0 131.529 0 128.18C0 127.256 0.115393 126.159 0.346178 124.889C0.576963 123.619 0.923142 122.522 1.38471 121.598C3.34639 121.944 5.25037 122.175 7.09665 122.291C7.9044 122.291 8.76984 122.349 9.69299 122.464Z" fill="url(#paint18_linear_4018_159)"/>
<path d="M181.537 56.815C181.075 63.9746 179.806 70.1527 177.729 75.3492C175.652 80.4302 172.651 84.9338 168.728 88.86C164.92 92.6708 160.247 96.1351 154.708 99.253C149.169 102.371 142.707 105.373 135.322 108.26C135.322 108.953 135.264 109.704 135.149 110.512C135.149 111.205 135.149 111.956 135.149 112.764C135.149 114.265 135.264 115.824 135.495 117.441C135.726 119.057 136.13 120.559 136.707 121.944C137.283 123.33 138.091 124.485 139.13 125.409C140.168 126.217 141.495 126.621 143.111 126.621C146.226 126.621 149.284 125.928 152.285 124.543C155.285 123.157 158.112 121.482 160.766 119.519C163.535 117.441 166.074 115.247 168.382 112.937C170.805 110.512 172.94 108.318 174.786 106.355C175.94 107.394 176.921 108.376 177.729 109.3C172.536 116.228 166.824 122.002 160.593 126.621C154.477 131.125 148.65 134.012 143.111 135.282C135.149 134.358 128.918 131.471 124.417 126.621C120.032 121.656 117.84 115.709 117.84 108.78C117.84 104.045 118.474 99.253 119.744 94.403C121.128 89.4374 122.975 84.7028 125.283 80.1992C127.706 75.5801 130.475 71.2497 133.591 67.208C136.822 63.1663 140.226 59.6442 143.803 56.6418C147.496 53.6394 151.246 51.2721 155.054 49.5399C158.977 47.8077 162.843 46.9417 166.651 46.9417C171.959 47.6345 176.921 50.9256 181.537 56.815ZM169.593 62.5311C166.478 62.993 163.247 64.2633 159.9 66.3419C156.554 68.4205 153.381 71.192 150.381 74.6563C147.496 78.1206 144.842 82.1623 142.418 86.7814C139.995 91.4005 138.091 96.3661 136.707 101.678C145.938 97.059 153.612 91.4005 159.727 84.7028C165.843 77.8897 169.132 70.4991 169.593 62.5311Z" fill="url(#paint19_linear_4018_159)"/>
<path d="M212.398 44.5166C215.398 45.4404 218.225 47.519 220.879 50.7524C223.533 53.8703 225.495 57.3346 226.764 61.1454C225.495 64.2633 223.533 68.0163 220.879 72.4045C218.225 76.7926 215.571 81.2963 212.917 85.9154C210.263 90.419 207.84 94.7494 205.647 98.9066C203.57 102.948 202.359 106.297 202.012 108.953C203.859 106.99 205.878 104.738 208.071 102.198C210.378 99.5417 212.571 96.9435 214.648 94.403C216.84 91.747 218.86 89.3797 220.706 87.3011C222.552 85.107 223.995 83.4903 225.033 82.451C227.226 80.1415 229.822 77.4855 232.822 74.4831C235.823 71.3652 238.938 68.4782 242.169 65.8223C245.516 63.0508 248.862 60.7412 252.208 58.8936C255.555 56.9305 258.613 55.9489 261.382 55.9489C264.382 55.9489 266.863 56.9882 268.825 59.0668C270.902 61.0299 272.517 63.1085 273.671 65.3026C273.671 65.5336 273.21 65.88 272.287 66.3419C271.479 66.6883 270.267 67.7854 268.652 69.633C267.036 71.7116 265.19 74.5985 263.113 78.2938C261.151 81.8736 259.19 85.7999 257.228 90.0726C255.382 94.2298 253.824 98.5024 252.554 102.891C251.285 107.279 250.65 111.263 250.65 114.843C250.65 117.729 250.997 119.577 251.689 120.385C252.497 121.194 253.593 121.598 254.978 121.598C256.247 121.598 257.574 121.309 258.959 120.732C260.343 120.154 261.44 119.866 262.247 119.866C262.709 120.097 263.055 120.616 263.286 121.425C263.632 122.118 263.805 122.753 263.805 123.33C262.882 124.138 261.786 124.947 260.517 125.755C259.247 126.563 257.92 127.314 256.536 128.007C255.151 128.7 253.766 129.277 252.381 129.739C251.112 130.201 249.958 130.432 248.92 130.432C245.573 130.432 242.804 129.912 240.611 128.873C238.534 127.949 236.861 126.679 235.592 125.062C234.438 123.446 233.63 121.54 233.169 119.346C232.707 117.037 232.476 114.612 232.476 112.071C232.476 110.685 232.592 109.126 232.822 107.394C233.053 105.662 233.515 103.641 234.207 101.332C234.899 98.9066 235.88 96.0774 237.15 92.844C238.419 89.4952 240.034 85.5112 241.996 80.8921C241.765 80.8921 240.207 81.7004 237.323 83.3171C234.438 84.9338 231.322 87.4166 227.976 90.7654C222.552 95.9619 217.648 101.101 213.263 106.182C208.994 111.263 204.609 116.921 200.108 123.157C197.57 126.737 195.32 129.739 193.358 132.164C191.512 134.705 189.896 136.379 188.512 137.187C186.088 135.802 184.3 133.839 183.146 131.298C181.992 128.873 181.126 126.333 180.549 123.677C180.549 121.482 180.838 118.711 181.415 115.362C182.107 112.013 182.973 108.318 184.011 104.276C185.165 100.119 186.55 95.7887 188.165 91.2851C189.781 86.7814 191.569 82.2778 193.531 77.7742C197.916 67.6122 201.897 59.6442 205.474 53.8703C209.167 48.0964 211.475 44.9785 212.398 44.5166Z" fill="url(#paint20_linear_4018_159)"/>
<path d="M293.064 134.589C286.487 133.896 281.236 131.009 277.313 125.928C273.39 120.847 271.428 114.381 271.428 106.528C271.428 101.909 272.12 97.1167 273.505 92.1512C274.89 87.1856 276.851 82.3933 279.39 77.7742C281.929 73.0396 284.929 68.5937 288.391 64.4365C291.852 60.2793 295.603 56.6995 299.641 53.6971C305.988 48.9625 311.931 46.5952 317.47 46.5952C321.162 48.5583 324.797 52.6578 328.374 58.8936C328.951 58.8936 329.47 58.8936 329.932 58.8936C330.394 58.7781 330.913 58.7204 331.49 58.7204C337.606 58.7204 340.664 64.1478 340.664 75.0027C340.664 82.2778 339.452 89.2065 337.029 95.7887C334.721 102.255 331.432 108.145 327.163 113.457C323.008 118.769 317.989 123.272 312.104 126.968C306.334 130.547 299.988 133.088 293.064 134.589ZM301.892 80.026C299.93 82.682 298.084 85.5689 296.353 88.6868C294.622 91.8047 293.122 94.9804 291.852 98.2137C290.583 101.332 289.602 104.392 288.91 107.394C288.218 110.281 287.871 112.879 287.871 115.189C287.871 117.96 288.333 120.616 289.256 123.157C290.179 125.697 291.218 127.141 292.372 127.487C297.564 126.333 302.295 124.196 306.565 121.078C310.95 117.845 314.7 113.861 317.816 109.126C321.047 104.392 323.528 99.0221 325.259 93.0172C327.105 87.0124 328.028 80.6034 328.028 73.7902C328.028 70.7878 327.855 68.4205 327.509 66.6883C327.163 64.9562 326.586 63.455 325.778 62.1847C320.701 63.6859 316.143 66.1109 312.104 69.4598C308.181 72.8086 304.776 76.3307 301.892 80.026Z" fill="url(#paint21_linear_4018_159)"/>
<path d="M407.027 69.9794C406.45 71.3652 405.815 72.7509 405.123 74.1366C402.7 78.9867 400.276 84.1255 397.853 89.5529C395.43 94.8649 393.238 100.119 391.276 105.316C389.43 110.512 388.506 115.189 388.506 119.346C388.506 121.771 388.853 123.388 389.545 124.196C390.237 124.889 391.218 125.235 392.487 125.235C393.872 125.235 395.141 125.005 396.295 124.543C397.565 123.965 398.488 123.677 399.065 123.677C399.757 124.138 400.161 124.716 400.276 125.409C400.392 126.102 400.45 126.737 400.45 127.314C398.142 129.162 395.776 130.663 393.353 131.818C390.93 133.088 388.218 133.723 385.218 133.723C382.448 133.723 380.14 133.261 378.294 132.337C376.563 131.414 375.121 130.143 373.967 128.527C372.813 126.91 372.005 125.062 371.544 122.984C371.082 120.905 370.851 118.653 370.851 116.228C370.851 112.302 371.371 108.433 372.409 104.623C373.448 100.696 374.659 97.0012 376.044 93.5369C377.544 89.9571 379.102 86.666 380.717 83.6635C382.333 80.5456 383.718 77.7742 384.872 75.3492L388.506 66.6883C388.045 66.3419 387.526 65.9955 386.949 65.649C385.564 64.8407 384.006 64.1478 382.275 63.5704C380.544 62.8776 378.871 62.3579 377.256 62.0115C375.756 61.5496 374.602 61.3186 373.794 61.3186C372.64 61.3186 371.428 61.7228 370.159 62.5311C369.005 63.224 367.909 64.0901 366.87 65.1294C365.832 66.1687 364.909 67.208 364.101 68.2473C363.409 69.2866 363.005 70.0372 362.889 70.4991C360.004 69.5753 357.523 68.1895 355.446 66.3419C353.369 64.4943 352.042 61.5496 351.465 57.5079C354.35 52.7733 357.004 49.3089 359.427 47.1149C361.966 44.9208 365.024 43.5351 368.601 42.9577C374.14 45.2672 379.333 47.981 384.179 51.0988C389.026 54.1013 393.295 57.3924 396.988 60.9722C398.719 60.0484 400.334 59.1245 401.834 58.2007C403.45 57.2769 405.411 56.584 407.719 56.1221C410.489 57.5079 412.45 60.3948 413.604 64.783C412.566 66.7461 411.296 68.305 409.796 69.4598C409.335 69.8062 408.412 69.9794 407.027 69.9794Z" fill="url(#paint22_linear_4018_159)"/>
<path d="M438.302 94.403C437.263 95.6732 436.34 97.0012 435.533 98.3869C432.763 102.891 430.398 108.029 428.436 113.803C426.59 119.577 424.801 126.448 423.07 134.416C422.032 134.3 420.762 133.896 419.262 133.203C417.877 132.626 416.435 131.875 414.935 130.952C413.55 130.028 412.281 129.046 411.127 128.007C409.973 126.968 409.223 125.986 408.877 125.062C409.454 121.713 410.435 117.325 411.819 111.898C413.319 106.355 415.05 100.523 417.012 94.403C418.974 88.1672 421.051 81.9314 423.243 75.6956C425.436 69.4598 427.57 63.8591 429.647 58.8936C431.148 55.3138 432.475 52.5423 433.629 50.5792C434.782 48.5006 436.052 46.7684 437.436 45.3827C439.052 45.6137 440.725 46.0178 442.456 46.5952C444.187 47.1726 445.86 47.8655 447.476 48.6738C449.091 49.4822 450.534 50.3483 451.803 51.2721C453.072 52.0804 454.053 52.8888 454.745 53.6971C451.63 57.3924 448.86 61.6073 446.437 66.3419C444.129 71.0765 441.764 77.1391 439.34 84.5296C445.572 78.9867 451.053 73.6747 455.784 68.5937C460.63 63.5127 465.131 57.8543 469.285 51.6185C469.977 51.0411 471.189 50.7524 472.92 50.7524C474.535 50.7524 476.093 51.0411 477.593 51.6185C479.093 52.0804 480.132 52.7733 480.709 53.6971C478.632 59.24 477.593 64.7252 477.593 70.1527C477.593 75.2337 478.343 79.0444 479.843 81.5849C479.728 82.2778 478.92 83.6058 477.42 85.5689C476.035 87.532 474.478 89.3797 472.747 91.1119C469.631 89.4952 466.862 87.3011 464.438 84.5296C462.015 81.6427 460.227 78.5248 459.073 75.1759C453.88 78.7557 449.437 82.2778 445.745 85.7421H446.091C448.399 85.8576 450.649 86.3773 452.841 87.3011C455.034 88.1094 456.938 89.2642 458.553 90.7654C460.284 92.1511 461.669 93.8256 462.707 95.7887C463.746 97.7518 464.265 100.004 464.265 102.544C464.265 103.583 464.208 104.623 464.092 105.662C463.977 113.861 463.919 119.635 463.919 122.984C463.688 125.755 464.092 127.661 465.131 128.7C466.285 129.739 467.439 130.259 468.593 130.259C469.631 130.259 470.727 129.97 471.881 129.393C473.035 128.815 473.958 128.527 474.651 128.527C475.112 128.758 475.458 129.219 475.689 129.912C475.92 130.721 476.035 131.414 476.035 131.991C475.228 132.799 474.304 133.608 473.266 134.416C472.227 135.224 471.073 135.975 469.804 136.668C468.65 137.361 467.496 137.938 466.342 138.4C465.304 138.862 464.323 139.093 463.4 139.093C460.63 139.093 458.553 138.689 457.169 137.88C455.784 137.187 454.63 135.859 453.707 133.896C452.784 132.049 452.149 129.508 451.803 126.275C451.572 122.926 451.687 118.249 452.149 112.244C452.611 106.239 452.841 102.313 452.841 100.466C452.841 97.4631 452.207 95.3845 450.937 94.2297C449.668 92.9595 448.053 92.3244 446.091 92.3244C444.591 92.3244 442.975 92.6131 441.244 93.1904C440.206 93.5369 439.225 93.9411 438.302 94.403Z" fill="url(#paint23_linear_4018_159)"/>
<path d="M545.647 58.5472C546.801 58.5472 548.128 58.7781 549.628 59.24C551.243 59.5865 552.686 60.1061 553.955 60.799C555.224 61.3764 556.263 62.0115 557.071 62.7044C557.994 63.3972 558.455 64.0323 558.455 64.6097C556.148 69.4598 554.013 74.3676 552.051 79.3331C550.09 84.1832 548.416 88.86 547.032 93.3637C545.647 97.8673 544.551 102.082 543.743 106.008C543.051 109.935 542.704 113.341 542.704 116.228C542.704 119.462 543.051 122.175 543.743 124.369C544.435 126.448 545.589 127.949 547.205 128.873C545.82 129.797 544.031 130.547 541.839 131.125C539.646 131.702 537.685 131.991 535.954 131.991C529.723 131.991 526.607 127.718 526.607 119.173C526.607 112.591 528.8 103.583 533.185 92.1512C530.877 97.4631 528.223 102.486 525.222 107.221C522.222 111.84 519.164 115.94 516.049 119.519C512.933 123.099 509.76 126.044 506.529 128.353C503.413 130.547 500.528 131.875 497.874 132.337C493.605 132.106 490.143 130.086 487.489 126.275C484.835 122.349 483.508 117.383 483.508 111.378C483.508 104.911 484.893 98.0982 487.662 90.9386C490.431 83.779 493.951 77.1391 498.221 71.0187C502.605 64.8984 507.337 59.8174 512.414 55.7757C517.491 51.6185 522.395 49.4244 527.126 49.1935C528.28 49.5399 529.55 50.2328 530.934 51.2721C532.434 52.3114 533.819 53.5239 535.088 54.9096C536.473 56.2953 537.627 57.7388 538.55 59.24C539.473 60.6258 539.993 61.8383 540.108 62.8776C535.492 63.5704 530.704 65.8223 525.742 69.633C520.895 73.4438 516.453 78.0629 512.414 83.4903C508.49 88.8023 505.259 94.5184 502.721 100.639C500.182 106.759 498.913 112.475 498.913 117.787C498.913 119.981 499.721 121.367 501.336 121.944C504.682 121.252 508.548 118.422 512.933 113.457C517.318 108.376 522.626 100.581 528.857 90.0726C530.011 87.994 531.28 85.6844 532.665 83.1439C534.165 80.6034 535.665 77.9474 537.166 75.1759C538.666 72.4045 540.108 69.633 541.493 66.8615C542.993 63.9746 544.378 61.2031 545.647 58.5472Z" fill="url(#paint24_linear_4018_159)"/>
</g>
</mask>
<g mask="url(#mask0_4018_159)">
<rect y="3.06299" width="588.063" height="279.738" fill="url(#paint25_linear_4018_159)"/>
</g>
<defs>
<linearGradient id="paint0_linear_4018_159" x1="-184.622" y1="147.331" x2="-32.9751" y2="523.605" gradientUnits="userSpaceOnUse">
<stop stop-color="#FFD1B2"/>
<stop offset="0.423077" stop-color="#FFDFB7"/>
<stop offset="0.716346" stop-color="#C7A98F"/>
<stop offset="0.961538" stop-color="#EAC6A7"/>
</linearGradient>
<linearGradient id="paint1_linear_4018_159" x1="-184.622" y1="147.331" x2="-32.9751" y2="523.605" gradientUnits="userSpaceOnUse">
<stop stop-color="#FFD1B2"/>
<stop offset="0.423077" stop-color="#FFDFB7"/>
<stop offset="0.716346" stop-color="#C7A98F"/>
<stop offset="0.961538" stop-color="#EAC6A7"/>
</linearGradient>
<linearGradient id="paint2_linear_4018_159" x1="-184.622" y1="147.331" x2="-32.9751" y2="523.605" gradientUnits="userSpaceOnUse">
<stop stop-color="#FFD1B2"/>
<stop offset="0.423077" stop-color="#FFDFB7"/>
<stop offset="0.716346" stop-color="#C7A98F"/>
<stop offset="0.961538" stop-color="#EAC6A7"/>
</linearGradient>
<linearGradient id="paint3_linear_4018_159" x1="-184.622" y1="147.331" x2="-32.9751" y2="523.605" gradientUnits="userSpaceOnUse">
<stop stop-color="#FFD1B2"/>
<stop offset="0.423077" stop-color="#FFDFB7"/>
<stop offset="0.716346" stop-color="#C7A98F"/>
<stop offset="0.961538" stop-color="#EAC6A7"/>
</linearGradient>
<linearGradient id="paint4_linear_4018_159" x1="-184.622" y1="147.331" x2="-32.9751" y2="523.605" gradientUnits="userSpaceOnUse">
<stop stop-color="#FFD1B2"/>
<stop offset="0.423077" stop-color="#FFDFB7"/>
<stop offset="0.716346" stop-color="#C7A98F"/>
<stop offset="0.961538" stop-color="#EAC6A7"/>
</linearGradient>
<linearGradient id="paint5_linear_4018_159" x1="-184.622" y1="147.331" x2="-32.9751" y2="523.605" gradientUnits="userSpaceOnUse">
<stop stop-color="#FFD1B2"/>
<stop offset="0.423077" stop-color="#FFDFB7"/>
<stop offset="0.716346" stop-color="#C7A98F"/>
<stop offset="0.961538" stop-color="#EAC6A7"/>
</linearGradient>
<linearGradient id="paint6_linear_4018_159" x1="-184.622" y1="147.331" x2="-32.9751" y2="523.605" gradientUnits="userSpaceOnUse">
<stop stop-color="#FFD1B2"/>
<stop offset="0.423077" stop-color="#FFDFB7"/>
<stop offset="0.716346" stop-color="#C7A98F"/>
<stop offset="0.961538" stop-color="#EAC6A7"/>
</linearGradient>
<linearGradient id="paint7_linear_4018_159" x1="-184.622" y1="147.331" x2="-32.9751" y2="523.605" gradientUnits="userSpaceOnUse">
<stop stop-color="#FFD1B2"/>
<stop offset="0.423077" stop-color="#FFDFB7"/>
<stop offset="0.716346" stop-color="#C7A98F"/>
<stop offset="0.961538" stop-color="#EAC6A7"/>
</linearGradient>
<linearGradient id="paint8_linear_4018_159" x1="-184.622" y1="147.331" x2="-32.9751" y2="523.605" gradientUnits="userSpaceOnUse">
<stop stop-color="#FFD1B2"/>
<stop offset="0.423077" stop-color="#FFDFB7"/>
<stop offset="0.716346" stop-color="#C7A98F"/>
<stop offset="0.961538" stop-color="#EAC6A7"/>
</linearGradient>
<linearGradient id="paint9_linear_4018_159" x1="-39.6332" y1="107.309" x2="68.637" y2="374.949" gradientUnits="userSpaceOnUse">
<stop stop-color="#FFD1B2"/>
<stop offset="0.423077" stop-color="#FFDFB7"/>
<stop offset="0.716346" stop-color="#C7A98F"/>
<stop offset="0.961538" stop-color="#EAC6A7"/>
</linearGradient>
<linearGradient id="paint10_linear_4018_159" x1="-39.6332" y1="107.309" x2="68.637" y2="374.949" gradientUnits="userSpaceOnUse">
<stop stop-color="#FFD1B2"/>
<stop offset="0.423077" stop-color="#FFDFB7"/>
<stop offset="0.716346" stop-color="#C7A98F"/>
<stop offset="0.961538" stop-color="#EAC6A7"/>
</linearGradient>
<linearGradient id="paint11_linear_4018_159" x1="-39.6332" y1="107.309" x2="68.637" y2="374.949" gradientUnits="userSpaceOnUse">
<stop stop-color="#FFD1B2"/>
<stop offset="0.423077" stop-color="#FFDFB7"/>
<stop offset="0.716346" stop-color="#C7A98F"/>
<stop offset="0.961538" stop-color="#EAC6A7"/>
</linearGradient>
<linearGradient id="paint12_linear_4018_159" x1="-39.6332" y1="107.309" x2="68.637" y2="374.949" gradientUnits="userSpaceOnUse">
<stop stop-color="#FFD1B2"/>
<stop offset="0.423077" stop-color="#FFDFB7"/>
<stop offset="0.716346" stop-color="#C7A98F"/>
<stop offset="0.961538" stop-color="#EAC6A7"/>
</linearGradient>
<linearGradient id="paint13_linear_4018_159" x1="-39.6332" y1="107.309" x2="68.637" y2="374.949" gradientUnits="userSpaceOnUse">
<stop stop-color="#FFD1B2"/>
<stop offset="0.423077" stop-color="#FFDFB7"/>
<stop offset="0.716346" stop-color="#C7A98F"/>
<stop offset="0.961538" stop-color="#EAC6A7"/>
</linearGradient>
<linearGradient id="paint14_linear_4018_159" x1="-39.6332" y1="107.309" x2="68.637" y2="374.949" gradientUnits="userSpaceOnUse">
<stop stop-color="#FFD1B2"/>
<stop offset="0.423077" stop-color="#FFDFB7"/>
<stop offset="0.716346" stop-color="#C7A98F"/>
<stop offset="0.961538" stop-color="#EAC6A7"/>
</linearGradient>
<linearGradient id="paint15_linear_4018_159" x1="-39.6332" y1="107.309" x2="68.637" y2="374.949" gradientUnits="userSpaceOnUse">
<stop stop-color="#FFD1B2"/>
<stop offset="0.423077" stop-color="#FFDFB7"/>
<stop offset="0.716346" stop-color="#C7A98F"/>
<stop offset="0.961538" stop-color="#EAC6A7"/>
</linearGradient>
<linearGradient id="paint16_linear_4018_159" x1="-39.6332" y1="107.309" x2="68.637" y2="374.949" gradientUnits="userSpaceOnUse">
<stop stop-color="#FFD1B2"/>
<stop offset="0.423077" stop-color="#FFDFB7"/>
<stop offset="0.716346" stop-color="#C7A98F"/>
<stop offset="0.961538" stop-color="#EAC6A7"/>
</linearGradient>
<linearGradient id="paint17_linear_4018_159" x1="-39.6332" y1="107.309" x2="68.637" y2="374.949" gradientUnits="userSpaceOnUse">
<stop stop-color="#FFD1B2"/>
<stop offset="0.423077" stop-color="#FFDFB7"/>
<stop offset="0.716346" stop-color="#C7A98F"/>
<stop offset="0.961538" stop-color="#EAC6A7"/>
</linearGradient>
<linearGradient id="paint18_linear_4018_159" x1="-390.789" y1="-52.9043" x2="-175.688" y2="478.425" gradientUnits="userSpaceOnUse">
<stop stop-color="#FFD1B2"/>
<stop offset="0.423077" stop-color="#FFDFB7"/>
<stop offset="0.716346" stop-color="#C7A98F"/>
<stop offset="0.961538" stop-color="#EAC6A7"/>
</linearGradient>
<linearGradient id="paint19_linear_4018_159" x1="-390.789" y1="-52.9043" x2="-175.688" y2="478.425" gradientUnits="userSpaceOnUse">
<stop stop-color="#FFD1B2"/>
<stop offset="0.423077" stop-color="#FFDFB7"/>
<stop offset="0.716346" stop-color="#C7A98F"/>
<stop offset="0.961538" stop-color="#EAC6A7"/>
</linearGradient>
<linearGradient id="paint20_linear_4018_159" x1="-390.789" y1="-52.9043" x2="-175.688" y2="478.425" gradientUnits="userSpaceOnUse">
<stop stop-color="#FFD1B2"/>
<stop offset="0.423077" stop-color="#FFDFB7"/>
<stop offset="0.716346" stop-color="#C7A98F"/>
<stop offset="0.961538" stop-color="#EAC6A7"/>
</linearGradient>
<linearGradient id="paint21_linear_4018_159" x1="-390.789" y1="-52.9043" x2="-175.688" y2="478.425" gradientUnits="userSpaceOnUse">
<stop stop-color="#FFD1B2"/>
<stop offset="0.423077" stop-color="#FFDFB7"/>
<stop offset="0.716346" stop-color="#C7A98F"/>
<stop offset="0.961538" stop-color="#EAC6A7"/>
</linearGradient>
<linearGradient id="paint22_linear_4018_159" x1="-390.789" y1="-52.9043" x2="-175.688" y2="478.425" gradientUnits="userSpaceOnUse">
<stop stop-color="#FFD1B2"/>
<stop offset="0.423077" stop-color="#FFDFB7"/>
<stop offset="0.716346" stop-color="#C7A98F"/>
<stop offset="0.961538" stop-color="#EAC6A7"/>
</linearGradient>
<linearGradient id="paint23_linear_4018_159" x1="-390.789" y1="-52.9043" x2="-175.688" y2="478.425" gradientUnits="userSpaceOnUse">
<stop stop-color="#FFD1B2"/>
<stop offset="0.423077" stop-color="#FFDFB7"/>
<stop offset="0.716346" stop-color="#C7A98F"/>
<stop offset="0.961538" stop-color="#EAC6A7"/>
</linearGradient>
<linearGradient id="paint24_linear_4018_159" x1="-390.789" y1="-52.9043" x2="-175.688" y2="478.425" gradientUnits="userSpaceOnUse">
<stop stop-color="#FFD1B2"/>
<stop offset="0.423077" stop-color="#FFDFB7"/>
<stop offset="0.716346" stop-color="#C7A98F"/>
<stop offset="0.961538" stop-color="#EAC6A7"/>
</linearGradient>
<linearGradient id="paint25_linear_4018_159" x1="-5.20574e-06" y1="106.5" x2="588" y2="271.5" gradientUnits="userSpaceOnUse">
<stop stop-color="#A68268"/>
<stop offset="0.201923" stop-color="#CDAE7D"/>
<stop offset="0.591346" stop-color="#E8C392"/>
<stop offset="0.822115" stop-color="#B99269"/>
<stop offset="1" stop-color="#735E3E"/>
</linearGradient>
</defs>
</svg>
