<svg width="190" height="29" viewBox="0 0 190 29" fill="none" xmlns="http://www.w3.org/2000/svg">
<path d="M14.4959 0.79126L6.27895 14.0552L15.271 28.2609H22.4027L12.7905 13.5843L21.0074 0.79126H14.4959ZM0.0775179 28.2609H6.12392L6.0464 0.869744H0L0.0775179 28.2609Z" fill="#D7C0A0"/>
<path d="M35.0376 28.1824L34.9601 0.79126H28.9912V28.2609L35.0376 28.1824Z" fill="#D7C0A0"/>
<path d="M45.2642 28.1824H50.6904V15.3109C50.6904 14.6046 50.5354 11.1512 50.4579 10.3664H50.6129C51.1555 11.9361 51.8532 13.4273 52.6284 14.9185L59.8375 28.1824H64.7212V0.79126H59.2949V10.9943C59.2949 12.0146 59.2949 12.25 59.4499 14.1337L59.605 16.8806H59.4499C59.3724 16.7237 58.9848 15.7034 58.8298 15.4679C58.5973 14.9185 58.2097 14.1337 57.8996 13.5843L50.923 0.79126H45.2642V28.1824Z" fill="#D7C0A0"/>
<path d="M74.4946 28.183L93.564 28.1045V23.003H80.4635V16.5673H88.8355V11.5443H80.386V5.7364H92.7114V0.713379H74.4946V28.183Z" fill="#D7C0A0"/>
<path d="M99.687 0.713739L99.7645 5.73676L106.664 5.65827V28.1049H112.865V5.65827H119.609V0.635254L99.687 0.713739Z" fill="#D7C0A0"/>
<path d="M133.151 0.627871L127.182 0.635254L127.215 28.0264L133.184 28.019L133.151 0.627871Z" fill="#D7C0A0"/>
<path d="M142.63 18.1365C142.63 23.7089 144.103 25.2786 145.188 26.3774C146.893 28.0256 149.064 28.8104 152.242 28.8104C153.405 28.8104 156.196 28.575 158.133 27.0053C159.684 25.828 160.692 24.0229 161.002 22.1392C161.157 21.0405 161.312 19.8632 161.234 18.7644H155.188C155.188 21.7468 154.49 23.7089 152.01 23.7089C148.754 23.7089 148.754 20.805 148.754 19.3138V8.87532C148.676 7.77654 148.986 6.67775 149.762 5.89291C150.382 5.34351 151.157 5.02957 152.01 5.02957C154.955 5.02957 155.033 8.01199 155.11 9.34623H161.079C161.002 7.14866 160.692 3.77382 158.289 1.8117C156.583 0.555947 154.49 -0.0719308 152.32 0.00655391C146.041 0.00655391 142.707 3.53836 142.707 9.81714L142.63 18.1365Z" fill="#D7C0A0"/>
<path d="M182.171 0.555176H178.605V5.42123L181.628 17.8218H178.605H175.582L178.45 5.42123H178.605V0.555176H174.962L167.365 28.0248H173.101L174.496 22.5309H178.605H182.868L184.186 27.9463H190L182.171 0.555176Z" fill="#D7C0A0"/>
</svg>
