<svg width="56" height="56" viewBox="0 0 56 56" fill="none" xmlns="http://www.w3.org/2000/svg">
<rect width="56" height="56" rx="28" fill="#F3F4F5"/>
<path fill-rule="evenodd" clip-rule="evenodd" d="M28.596 16.1749C27.7193 15.7365 26.656 16.1541 26.3118 17.0719L23.4922 24.5907H19.302C17.4784 24.5907 16 26.0691 16 27.8926V36.698C16 38.5217 17.4784 40 19.302 40H35.1227C36.6868 40 38.0363 38.9026 38.3553 37.3715L40.1897 28.5661C40.6169 26.5156 39.0516 24.5907 36.9572 24.5907H31.2854L32.0983 22.1522C32.7911 20.0737 31.8502 17.8019 29.8904 16.8221L28.596 16.1749ZM25.5534 25.3636L28.1583 18.4172L28.906 18.791C29.8858 19.281 30.3563 20.4168 30.0099 21.4561L29.1971 23.8945C28.722 25.32 29.7829 26.792 31.2854 26.792H36.9572C37.6553 26.792 38.177 27.4337 38.0347 28.1172L37.8521 28.9933H33.6107C33.0028 28.9933 32.51 29.4861 32.51 30.094C32.51 30.7019 33.0028 31.1947 33.6107 31.1947H37.3936L36.9349 33.396H33.6107C33.0028 33.396 32.51 33.8888 32.51 34.4967C32.51 35.1046 33.0028 35.5973 33.6107 35.5973H36.4763L36.2002 36.9225C36.0939 37.4329 35.6441 37.7987 35.1227 37.7987H23.7047V26.7817C24.5348 26.7016 25.2563 26.1559 25.5534 25.3636ZM21.5033 26.792H19.302C18.6941 26.792 18.2013 27.2847 18.2013 27.8926V36.698C18.2013 37.3059 18.6941 37.7987 19.302 37.7987H21.5033V26.792Z" fill="#636878"/>
</svg>
