<svg width="56" height="56" viewBox="0 0 56 56" fill="none" xmlns="http://www.w3.org/2000/svg">
<rect width="56" height="56" rx="28" fill="#F3F4F5"/>
<path d="M28.0008 21.001C28.002 20.6011 27.9232 20.2049 27.769 19.8358C27.6148 19.4668 27.3884 19.1323 27.1031 18.852C26.8177 18.5717 26.4792 18.3513 26.1075 18.2038C25.7357 18.0562 25.3382 17.9845 24.9383 17.9928C24.5384 18.0012 24.1442 18.0894 23.7789 18.2523C23.4137 18.4152 23.0846 18.6495 22.8112 18.9414C22.5378 19.2334 22.3255 19.577 22.1869 19.9522C22.0482 20.3273 21.986 20.7265 22.0038 21.126C21.416 21.2772 20.8703 21.5601 20.408 21.9533C19.9458 22.3466 19.579 22.8399 19.3357 23.3959C19.0923 23.9518 18.9786 24.5559 19.0032 25.1623C19.0278 25.7688 19.1901 26.3616 19.4778 26.896C18.972 27.307 18.5742 27.8353 18.3191 28.435C18.0641 29.0347 17.9594 29.6876 18.0142 30.337C18.069 30.9864 18.2816 31.6126 18.6336 32.161C18.9856 32.7095 19.4663 33.1637 20.0338 33.484C19.9637 34.0263 20.0055 34.5771 20.1567 35.1026C20.3078 35.628 20.5651 36.1169 20.9126 36.539C21.2601 36.9611 21.6904 37.3075 22.177 37.5568C22.6636 37.8061 23.1962 37.953 23.7418 37.9884C24.2874 38.0238 24.8344 37.9469 25.3492 37.7626C25.8639 37.5783 26.3354 37.2905 26.7346 36.9168C27.1337 36.5431 27.452 36.0916 27.6698 35.5901C27.8876 35.0886 28.0002 34.5478 28.0008 34.001V21.001Z" stroke="#636878" stroke-width="2" stroke-linecap="round" stroke-linejoin="round"/>
<path d="M25 29C25.8396 28.7047 26.5727 28.167 27.1067 27.455C27.6407 26.743 27.9515 25.8887 28 25" stroke="#636878" stroke-width="2" stroke-linecap="round" stroke-linejoin="round"/>
<path d="M22.0039 21.125C22.0237 21.6087 22.1602 22.0805 22.4019 22.5" stroke="#636878" stroke-width="2" stroke-linecap="round" stroke-linejoin="round"/>
<path d="M19.4766 26.896C19.6595 26.747 19.8553 26.6145 20.0616 26.5" stroke="#636878" stroke-width="2" stroke-linecap="round" stroke-linejoin="round"/>
<path d="M21.9983 34.0004C21.3091 34.0007 20.6315 33.823 20.0312 33.4844" stroke="#636878" stroke-width="2" stroke-linecap="round" stroke-linejoin="round"/>
<path d="M28 29H32" stroke="#636878" stroke-width="2" stroke-linecap="round" stroke-linejoin="round"/>
<path d="M28 34H34C34.5304 34 35.0391 34.2107 35.4142 34.5858C35.7893 34.9609 36 35.4696 36 36V37" stroke="#636878" stroke-width="2" stroke-linecap="round" stroke-linejoin="round"/>
<path d="M28 24H36" stroke="#636878" stroke-width="2" stroke-linecap="round" stroke-linejoin="round"/>
<path d="M32 24V21C32 20.4696 32.2107 19.9609 32.5858 19.5858C32.9609 19.2107 33.4696 19 34 19" stroke="#636878" stroke-width="2" stroke-linecap="round" stroke-linejoin="round"/>
<path d="M32 29.5C32.2761 29.5 32.5 29.2761 32.5 29C32.5 28.7239 32.2761 28.5 32 28.5C31.7239 28.5 31.5 28.7239 31.5 29C31.5 29.2761 31.7239 29.5 32 29.5Z" stroke="#636878" stroke-width="2" stroke-linecap="round" stroke-linejoin="round"/>
<path d="M34 19.5C34.2761 19.5 34.5 19.2761 34.5 19C34.5 18.7239 34.2761 18.5 34 18.5C33.7239 18.5 33.5 18.7239 33.5 19C33.5 19.2761 33.7239 19.5 34 19.5Z" stroke="#636878" stroke-width="2" stroke-linecap="round" stroke-linejoin="round"/>
<path d="M36 37.5C36.2761 37.5 36.5 37.2761 36.5 37C36.5 36.7239 36.2761 36.5 36 36.5C35.7239 36.5 35.5 36.7239 35.5 37C35.5 37.2761 35.7239 37.5 36 37.5Z" stroke="#636878" stroke-width="2" stroke-linecap="round" stroke-linejoin="round"/>
<path d="M36 24.5C36.2761 24.5 36.5 24.2761 36.5 24C36.5 23.7239 36.2761 23.5 36 23.5C35.7239 23.5 35.5 23.7239 35.5 24C35.5 24.2761 35.7239 24.5 36 24.5Z" stroke="#636878" stroke-width="2" stroke-linecap="round" stroke-linejoin="round"/>
</svg>
