<svg width="42" height="42" viewBox="0 0 42 42" fill="none" xmlns="http://www.w3.org/2000/svg">
<path d="M29.1734 12.3956C29.1816 12.3956 29.1926 12.3956 29.2036 12.3956C29.491 12.3956 29.7577 12.485 29.9764 12.639L29.9722 12.6362C30.1317 12.7751 30.239 12.9704 30.2651 13.1904V13.1945C30.2926 13.3622 30.3078 13.5547 30.3078 13.7514C30.3078 13.8407 30.305 13.9287 30.2981 14.0167V14.0044C29.9888 17.2617 28.6467 25.1611 27.9647 28.8076C27.676 30.3517 27.1081 30.8687 26.5581 30.9182C25.3632 31.0296 24.4557 30.129 23.298 29.37C21.4858 28.1806 20.4614 27.4409 18.7028 26.2817C16.6691 24.9439 17.9878 24.2055 19.1455 23.0037C19.4494 22.6875 24.717 17.8956 24.8201 17.4611C24.8256 17.435 24.8284 17.4061 24.8284 17.3759C24.8284 17.2686 24.7885 17.171 24.7239 17.0967C24.6524 17.05 24.563 17.0239 24.4695 17.0239C24.4076 17.0239 24.3485 17.0362 24.2935 17.0569L24.2962 17.0555C24.1147 17.0967 21.2199 19.0098 15.6117 22.7948C14.9999 23.2774 14.2271 23.5826 13.3856 23.6184H13.3774C12.1853 23.474 11.1031 23.2086 10.076 22.8305L10.1778 22.8635C8.888 22.4427 7.86363 22.2214 7.95162 21.5091C7.99837 21.1388 8.50896 20.7597 9.48338 20.372C15.4857 17.7567 19.4883 16.033 21.4913 15.2006C23.7009 14.0277 26.2625 13.0625 28.9561 12.4369L29.172 12.3942L29.1734 12.3956ZM20.6594 0C9.24413 0.0275 0 9.28812 0 20.7075C0 32.1434 9.27025 41.415 20.7075 41.415C32.1447 41.415 41.415 32.1447 41.415 20.7075C41.415 9.28812 32.1709 0.0275 20.7584 0H20.7556C20.7235 0 20.6915 0 20.6594 0Z" fill="url(#paint0_linear_0_118)"/>
<defs>
<linearGradient id="paint0_linear_0_118" x1="20.7075" y1="0" x2="20.7075" y2="41.415" gradientUnits="userSpaceOnUse">
<stop stop-color="#D7C0A0"/>
<stop offset="0.509615" stop-color="#C3A379"/>
<stop offset="1" stop-color="#D7C0A0"/>
</linearGradient>
</defs>
</svg>
