<svg width="78" height="78" viewBox="0 0 78 78" fill="none" xmlns="http://www.w3.org/2000/svg">
<circle cx="39" cy="39" r="39" fill="#292B32"/>
<path opacity="0.3" d="M55.0781 40.666C55.4027 40.6662 55.6658 40.9293 55.666 41.2539V53.4111C55.666 53.7359 55.4028 53.9988 55.0781 53.999H32.333C28.6512 53.999 25.6662 51.0148 25.666 47.333C25.666 43.6511 28.6511 40.666 32.333 40.666H55.0781ZM30.665 44C28.8243 44.0002 27.3322 45.4923 27.332 47.333C27.332 49.1738 28.8242 50.6668 30.665 50.667C32.506 50.667 33.999 49.174 33.999 47.333C33.9988 45.4922 32.5059 44 30.665 44Z" fill="#CAFF3D"/>
<path opacity="0.3" d="M42.1313 26.5583C42.361 26.3289 42.7336 26.3289 42.9633 26.5583L51.559 35.155C51.7887 35.3847 51.7887 35.7573 51.559 35.9871L35.476 52.0701C32.8725 54.6734 28.6517 54.6735 26.0483 52.0701C23.4448 49.4666 23.4449 45.2458 26.0483 42.6423L42.1313 26.5583ZM30.6674 44.0007C28.8266 44.0009 27.3344 45.4929 27.3344 47.3337C27.3345 49.1745 28.8267 50.6666 30.6674 50.6667C32.5083 50.6667 34.0013 49.1746 34.0014 47.3337C34.0014 45.4928 32.5084 44.0007 30.6674 44.0007Z" fill="#CAFF3D"/>
<path d="M36.7451 24C37.0699 24 37.3328 24.2632 37.333 24.5879V47.333C37.333 51.0148 34.3487 53.9998 30.667 54C26.9851 54 24 51.0149 24 47.333V24.5879C24.0002 24.2633 24.2633 24.0002 24.5879 24H36.7451ZM30.667 44C28.8263 44.0002 27.3342 45.4923 27.334 47.333C27.334 49.1738 28.8262 50.6668 30.667 50.667C32.5079 50.667 34.001 49.174 34.001 47.333C34.0008 45.4922 32.5078 44 30.667 44Z" fill="#CAFF3D"/>
</svg>
