<svg width="1920" height="2165" viewBox="0 0 1920 2165" fill="none" xmlns="http://www.w3.org/2000/svg">
<path d="M-111.012 1353.61L-198.207 870.121L-401.697 877.642L-243.354 732.114L-643.223 566.376L-239.787 568.093L-290.68 104.408L-84.9412 541.882L77.4256 304.29L-6.61073 670.052L198.215 685.815L70.3479 767.45L442.153 1092.75L8.21297 914.645L-111.012 1353.61Z" fill="#CAFF3D"/>
<path d="M1460.26 1993.83L1739.78 1458.84L1536.59 1312.87L1799.9 1290.88L1536.59 828.812L1926.91 1134.35L2226.76 645.922L2096.96 1225.54L2433.52 1117.2L2076.45 1408.95L2263.4 1578.53L2077.8 1561.46L2193.69 2157.27L1906.62 1657.54L1460.26 1993.83Z" fill="#CAFF3D"/>
</svg>
