<svg width="231" height="155" viewBox="0 0 231 155" fill="none" xmlns="http://www.w3.org/2000/svg">
<rect width="231" height="155" rx="20" fill="#DEF5FF"/>
<path d="M45.3486 81.4997V91.1621H47.6681H50.0017L51.6523 89.5311L53.3172 87.9002V79.8687V71.8372H49.3329H45.3486V81.4997Z" fill="#00B2FF"/>
<path d="M61.2142 72.0017C61.1715 72.0976 60.275 76.3464 59.2221 81.4311C58.1548 86.5159 57.2584 90.7921 57.2157 90.9154C57.1445 91.1484 57.3295 91.1621 59.8482 91.1621C61.3423 91.1621 62.566 91.1347 62.566 91.1073C62.566 91.0388 65.3408 77.8129 65.5684 76.7987L65.725 76.086H69.197C71.1037 76.086 72.669 76.0311 72.669 75.9626C72.669 75.853 72.0287 72.7418 71.8864 72.1388L71.8152 71.8372H66.536C62.4664 71.8372 61.2569 71.8784 61.2142 72.0017Z" fill="#00B2FF"/>
<path d="M72.954 71.9606C72.954 72.0291 73.8504 76.3601 74.9461 81.5819C76.0418 86.8037 76.9383 91.0936 76.9383 91.121C76.9383 91.1484 78.1478 91.1621 79.6276 91.1621H82.3028L80.2822 81.5408L78.2758 71.9058L75.6149 71.8646C73.9927 71.8509 72.954 71.8784 72.954 71.9606Z" fill="#00B2FF"/>
<path d="M87.1835 81.4997V91.1621H89.7449H92.3062L92.2777 81.5408L92.235 71.9058L89.7164 71.8646L87.1835 71.8372V81.4997Z" fill="#00B2FF"/>
<path d="M93.3027 73.9616V76.0859H102.623H111.943V73.9616V71.8372H102.623H93.3027V73.9616Z" fill="#00B2FF"/>
<path d="M119.869 72.4814C119.527 72.8514 118.787 73.6327 118.232 74.2357L117.208 75.3322V81.5545V87.7768L118.944 89.4763L120.68 91.1621H121.505H122.331V81.4997V71.8372H121.42C120.509 71.8372 120.495 71.8372 119.869 72.4814Z" fill="#00B2FF"/>
<path d="M123.384 72.0155C123.355 72.1115 123.341 73.0572 123.355 74.0988L123.398 76.0176H132.718H142.038V73.9617V71.9059L132.747 71.8648C125.219 71.8374 123.44 71.8648 123.384 72.0155Z" fill="#00B2FF"/>
<path d="M149.751 72.4814C149.409 72.8514 148.669 73.6327 148.114 74.2357L147.09 75.3322V81.5545V87.7768L148.826 89.4763L150.562 91.1621H154.874H159.185V89.1063V87.0504H156.581H153.977L153.095 86.1047L152.213 85.1454V81.4997V77.8403L153.009 76.9631L153.806 76.086H156.496H159.185V73.9616V71.8372H154.788H150.377L149.751 72.4814Z" fill="#00B2FF"/>
<path d="M160.239 72.0154C160.21 72.1113 160.196 73.057 160.21 74.0987L160.253 76.0174L162.914 76.0586L165.575 76.086L166.357 76.9357L167.154 77.7718V81.5408V85.2961L166.272 86.1733L165.404 87.0504H162.786H160.182V89.1063V91.1621H164.564H168.933L170.612 89.4626L172.277 87.7631V81.5134V75.2773L170.683 73.5504L169.089 71.8372H164.707C161.235 71.8372 160.295 71.8784 160.239 72.0154Z" fill="#00B2FF"/>
<path d="M179.406 73.5367L177.826 75.2362V81.5271L177.84 87.8042L179.477 89.4763L181.127 91.1621H185.524H189.921V89.1063V87.0504H187.317H184.713L183.831 86.187L182.949 85.3235V81.5134V77.7032L183.689 76.922L184.414 76.1545L187.132 76.086L189.85 76.0174V73.9616V71.9058L185.411 71.8646L180.985 71.8372L179.406 73.5367Z" fill="#00B2FF"/>
<path d="M190.831 72.0154C190.803 72.1113 190.789 73.057 190.803 74.0987L190.846 76.0174L193.563 76.086L196.281 76.1545L197.007 76.922L197.747 77.7032V81.5271V85.3509L196.85 86.2007L195.954 87.0504H193.364H190.774V89.1063V91.1621H195.171H199.568L201.219 89.49L202.87 87.8042V81.4997L202.855 75.1951L201.29 73.5093L199.711 71.8372H195.314C191.827 71.8372 190.888 71.8784 190.831 72.0154Z" fill="#00B2FF"/>
<path d="M93.3027 81.5692V83.625H101.983H110.663V81.5692V79.5133H101.983H93.3027V81.5692Z" fill="#00B2FF"/>
<path d="M28.1309 87.119C28.1309 87.1738 28.9135 88.0921 29.8811 89.1748L31.6171 91.1621H37.9919H44.3526V89.1063V87.0504H36.2417C31.7736 87.0504 28.1309 87.0778 28.1309 87.119Z" fill="#00B2FF"/>
<path d="M93.3027 89.1063V91.1621H102.623H111.943V89.1063V87.0504H102.623H93.3027V89.1063Z" fill="#00B2FF"/>
<path d="M123.326 89.1063V91.1621H132.718H142.109V89.1063V87.0504H132.718H123.326V89.1063Z" fill="#00B2FF"/>
</svg>
