<svg width="56" height="56" viewBox="0 0 56 56" fill="none" xmlns="http://www.w3.org/2000/svg">
<rect width="56" height="56" rx="28" fill="#F3F4F5"/>
<path d="M34 37C34 34.8783 33.1571 32.8434 31.6569 31.3431C30.1566 29.8429 28.1217 29 26 29C23.8783 29 21.8434 29.8429 20.3431 31.3431C18.8429 32.8434 18 34.8783 18 37" stroke="#636878" stroke-width="2" stroke-linecap="round" stroke-linejoin="round"/>
<path d="M26 29C28.7614 29 31 26.7614 31 24C31 21.2386 28.7614 19 26 19C23.2386 19 21 21.2386 21 24C21 26.7614 23.2386 29 26 29Z" stroke="#636878" stroke-width="2" stroke-linecap="round" stroke-linejoin="round"/>
<path d="M38.0008 35.9992C38.0008 32.6292 36.0008 29.4992 34.0008 27.9992C34.6582 27.506 35.1839 26.8583 35.5313 26.1135C35.8788 25.3687 36.0373 24.5497 35.9928 23.729C35.9483 22.9084 35.7022 22.1113 35.2763 21.4084C34.8503 20.7055 34.2577 20.1185 33.5508 19.6992" stroke="#636878" stroke-width="2" stroke-linecap="round" stroke-linejoin="round"/>
</svg>
