<svg width="56" height="56" viewBox="0 0 56 56" fill="none" xmlns="http://www.w3.org/2000/svg">
<rect width="56" height="56" rx="28" fill="#F3F4F5"/>
<path d="M20.7275 19H34.9815C35.1393 19 35.2949 19.0373 35.4355 19.1089C35.5761 19.1805 35.6977 19.2844 35.7905 19.412L39.6135 24.668C39.6815 24.7615 39.7149 24.8757 39.7082 24.9911C39.7015 25.1065 39.6549 25.216 39.5765 25.301L28.2215 37.602C28.1316 37.6992 28.0067 37.7568 27.8743 37.7621C27.7419 37.7673 27.6129 37.7198 27.5155 37.63C27.5085 37.624 23.7155 33.515 16.1325 25.301C16.0541 25.216 16.0076 25.1065 16.0009 24.9911C15.9941 24.8757 16.0276 24.7615 16.0955 24.668L19.9185 19.412C20.0113 19.2844 20.133 19.1805 20.2736 19.1089C20.4142 19.0373 20.5697 19 20.7275 19ZM21.2375 21L18.4375 24.85L27.8545 35.05L37.2715 24.85L34.4715 21H21.2375Z" fill="#636878"/>
</svg>
