<svg width="56" height="56" viewBox="0 0 56 56" fill="none" xmlns="http://www.w3.org/2000/svg">
<rect width="56" height="56" rx="28" fill="#F3F4F5"/>
<path d="M37.6 28C37.6 22.6981 33.302 18.4 28 18.4C22.6981 18.4 18.4 22.6981 18.4 28C18.4 33.302 22.6981 37.6 28 37.6C33.302 37.6 37.6 33.302 37.6 28ZM34.6633 26.9267C35.2561 26.6303 35.9769 26.8706 36.2733 27.4633C36.5697 28.0561 36.3294 28.7769 35.7367 29.0733L31.5727 31.1552C31.5907 31.301 31.6 31.4494 31.6 31.6C31.6 33.5883 29.9883 35.2 28 35.2C26.0117 35.2 24.4 33.5883 24.4 31.6C24.4 29.6117 26.0117 28 28 28C28.9707 28 29.8516 28.3842 30.4991 29.0088L34.6633 26.9267ZM20.812 26.8C21.4747 26.8 22.012 27.3373 22.012 28C22.012 28.6627 21.4747 29.2 20.812 29.2H20.8C20.1373 29.2 19.6 28.6627 19.6 28C19.6 27.3373 20.1373 26.8 20.8 26.8H20.812ZM23.212 22C23.8747 22 24.412 22.5373 24.412 23.2C24.412 23.8627 23.8747 24.4 23.212 24.4H23.2C22.5373 24.4 22 23.8627 22 23.2C22 22.5373 22.5373 22 23.2 22H23.212ZM32.812 22C33.4748 22 34.012 22.5373 34.012 23.2C34.012 23.8627 33.4747 24.4 32.812 24.4H32.8C32.1373 24.4 31.6 23.8627 31.6 23.2C31.6 22.5373 32.1373 22 32.8 22H32.812ZM28.012 19.6C28.6747 19.6 29.212 20.1373 29.212 20.8C29.212 21.4627 28.6747 22 28.012 22H28C27.3373 22 26.8 21.4627 26.8 20.8C26.8 20.1373 27.3373 19.6 28 19.6H28.012ZM26.8 31.6C26.8 32.2628 27.3372 32.8 28 32.8C28.6628 32.8 29.2 32.2628 29.2 31.6C29.2 30.9372 28.6628 30.4 28 30.4C27.3372 30.4 26.8 30.9372 26.8 31.6ZM40 28C40 34.6275 34.6275 40 28 40C21.3726 40 16 34.6275 16 28C16 21.3726 21.3726 16 28 16C34.6275 16 40 21.3726 40 28Z" fill="#636878"/>
</svg>
