<svg width="56" height="56" viewBox="0 0 56 56" fill="none" xmlns="http://www.w3.org/2000/svg">
<rect width="56" height="56" rx="28" fill="#F3F4F5"/>
<g clip-path="url(#clip0_5721_5100)">
<path fill-rule="evenodd" clip-rule="evenodd" d="M29.2 28C29.2 28.6624 28.6624 29.2 28 29.2C27.3376 29.2 26.8 28.6624 26.8 28C26.8 27.3376 27.3376 26.8 28 26.8C28.6624 26.8 29.2 27.3376 29.2 28ZM34 29.2H35.092C34.5832 32.2084 32.2084 34.5834 29.2 35.0922V34C29.2 33.3376 28.6624 32.8 28 32.8C27.3376 32.8 26.8 33.3376 26.8 34V35.0922C23.7916 34.5834 21.4168 32.2084 20.908 29.2H22C22.6624 29.2 23.2 28.6624 23.2 28C23.2 27.3376 22.6624 26.8 22 26.8H20.908C21.4168 23.7916 23.7916 21.4166 26.8 20.9078V22C26.8 22.6624 27.3376 23.2 28 23.2C28.6624 23.2 29.2 22.6624 29.2 22V20.9078C32.2084 21.4166 34.5832 23.7916 35.092 26.8H34C33.3376 26.8 32.8 27.3376 32.8 28C32.8 28.6624 33.3376 29.2 34 29.2ZM38.8 26.8H37.5172C36.9748 22.4596 33.5404 19.025 29.2 18.4826V17.2C29.2 16.5376 28.6624 16 28 16C27.3376 16 26.8 16.5376 26.8 17.2V18.4826C22.4596 19.025 19.0252 22.4596 18.4828 26.8H17.2C16.5376 26.8 16 27.3376 16 28C16 28.6624 16.5376 29.2 17.2 29.2H18.4828C19.0252 33.5404 22.4596 36.975 26.8 37.5174V38.8C26.8 39.4624 27.3376 40 28 40C28.6624 40 29.2 39.4624 29.2 38.8V37.5174C33.5404 36.975 36.9748 33.5404 37.5172 29.2H38.8C39.4624 29.2 40 28.6624 40 28C40 27.3376 39.4624 26.8 38.8 26.8Z" fill="#636878"/>
</g>
<defs>
<clipPath id="clip0_5721_5100">
<rect width="24" height="24" fill="white" transform="translate(16 16)"/>
</clipPath>
</defs>
</svg>
