<svg width="56" height="56" viewBox="0 0 56 56" fill="none" xmlns="http://www.w3.org/2000/svg">
<rect width="56" height="56" rx="28" fill="#F3F4F5"/>
<path fill-rule="evenodd" clip-rule="evenodd" d="M30.4683 16.6587C28.9381 15.7804 27.0618 15.7804 25.5317 16.6587L22.5064 18.395L22.4936 18.4024L19.489 20.1749C17.9693 21.0714 17.0312 22.7091 17.0207 24.4838L17 27.9925V28.0074L17.0207 31.5162C17.0312 33.291 17.9693 34.9286 19.489 35.8251L22.4936 37.5975L22.5064 37.6051L25.5317 39.3413C27.0618 40.2196 28.9381 40.2196 30.4683 39.3413L33.4935 37.6051L33.5065 37.5975L36.5109 35.8251C38.0307 34.9286 38.9688 33.291 38.9793 31.5162L39 28.0074V27.9925L38.9793 24.4838C38.9688 22.7091 38.0307 21.0714 36.5109 20.1749L33.5065 18.4024L33.4935 18.395L30.4683 16.6587ZM26.7658 18.843C27.531 18.4039 28.4691 18.4039 29.2342 18.843L32.253 20.5756L35.2511 22.3443C36.011 22.7925 36.48 23.6114 36.4852 24.4987L36.5059 28L36.4852 31.5012C36.48 32.3887 36.011 33.2075 35.2511 33.6557L32.253 35.4244L29.2342 37.157C28.4691 37.596 27.531 37.596 26.7658 37.157L23.747 35.4243L20.7489 33.6557C19.989 33.2075 19.52 32.3887 19.5147 31.5012L19.4941 28L19.5147 24.4987C19.52 23.6114 19.989 22.7925 20.7489 22.3443L23.747 20.5756L26.7658 18.843ZM26.753 28C26.753 27.3058 27.3112 26.7432 28 26.7432C28.6887 26.7432 29.247 27.3058 29.247 28C29.247 28.6942 28.6887 29.2568 28 29.2568C27.3112 29.2568 26.753 28.6942 26.753 28ZM28 24.2295C25.9339 24.2295 24.2589 25.9175 24.2589 28C24.2589 30.0823 25.9339 31.7705 28 31.7705C30.0662 31.7705 31.7411 30.0823 31.7411 28C31.7411 25.9175 30.0662 24.2295 28 24.2295Z" fill="#636878"/>
</svg>
